<?xml version="1.0" encoding="utf-8"?>
<!-- Generator: Adobe Illustrator 19.0.0, SVG Export Plug-In . SVG Version: 6.00 Build 0)  -->
<svg version="1.1"
	 id="svg2985" xmlns:dc="http://purl.org/dc/elements/1.1/" xmlns:cc="http://creativecommons.org/ns#" xmlns:rdf="http://www.w3.org/1999/02/22-rdf-syntax-ns#" xmlns:svg="http://www.w3.org/2000/svg"
	 xmlns="http://www.w3.org/2000/svg" xmlns:xlink="http://www.w3.org/1999/xlink" x="0px" y="0px" viewBox="-192 293.9 210 255"
	 style="enable-background:new -192 293.9 210 255;" xml:space="preserve">
<style type="text/css">
	.st0{enable-background:new    ;}
	.st1{fill:#005F00;}
	.st2{fill:#CDDACD;}
	.st3{fill:#FFFFFF;}
	.st4{fill:url(#rect3008_1_);}
	.st5{filter:url(#filter3970-5);}
	.st6{fill:url(#SVGID_1_);}
	.st7{fill:#038249;}
	.st8{fill:#994913;}
	.st9{fill:#BC197A;}
	.st10{fill:#2A3B92;}
</style>
<filter  height="1.2150326" width="1.2171124" id="filter3970-5" x="-0.10855621" y="-0.10751629" color-interpolation-filters="sRGB">
	<feGaussianBlur  id="feGaussianBlur3972-8" stdDeviation="0.12800763"></feGaussianBlur>
</filter>
<g id="g4146" transform="translate(39.768324,209.71794)">
</g>
<g id="g4630" transform="matrix(1.0005937,0,0,1,-1.3758072,203.40625)" class="st0">
	<g id="g3062">
		<path id="rect4031" d="M-131.2,90.5l46.1,0.2l68.4-0.2c22.9-0.1,36.1,15.9,36.1,40.4v154.6c0,12.3-14,27.7-21.4,35.7
			s-22.1,24.3-33.6,24.3h-113c-22.9,0-41.3-5.6-41.3-30.2l-0.3-162.3c0-6.4,17.3-24.3,24.8-32.4C-158,112.6-142.7,90.4-131.2,90.5
			L-131.2,90.5z"/>
		<path id="rect3767" class="st1" d="M-122.4,103.2h104.5c13.8,0,24.8,11.1,24.9,24.9l0.9,152.4c0,2-12.6,32-25.8,32h-104.5
			c-13.8,0-24.9-11.1-24.9-24.9V128.1C-147.3,114.3-136.2,103.2-122.4,103.2L-122.4,103.2z"/>
		<path id="rect3861" class="st2" d="M-137.4,118.1h99.6c13.7,0,24.9,11.2,24.9,24.9v159.5c0,13.8-11.1,24.9-24.9,24.9h-99.6
			c-13.7,0-24.9-11.2-24.9-24.9V143.1C-162.3,129.3-151.1,118.1-137.4,118.1z"/>
		<path id="rect3765" class="st3" d="M-147.3,133.1h104.5c13.7,0,24.9,11.2,24.9,24.9v149.5c0,13.8-11.1,24.9-24.9,24.9h-104.5
			c-13.7,0-24.9-11.2-24.9-24.9V158C-172.2,144.3-161.1,133.1-147.3,133.1z"/>
		
			<linearGradient id="rect3008_1_" gradientUnits="userSpaceOnUse" x1="-324.8826" y1="569.5873" x2="-324.8826" y2="531.0685" gradientTransform="matrix(4.9807 0 0 -4.9841 1515.6201 2981.9607)">
			<stop  offset="0" style="stop-color:#D0E4CC"/>
			<stop  offset="1" style="stop-color:#FBFFEC"/>
		</linearGradient>
		<path id="rect3008" class="st4" d="M-157.3,143.1h109.5c11,0,19.9,8.9,19.9,19.9v149.5c0,11-8.9,19.9-19.9,19.9h-109.5
			c-11,0-19.9-8.9-19.9-19.9V163C-177.2,152-168.3,143.1-157.3,143.1z"/>
		<path id="path3932" class="st3" d="M2.2,115.7c0,1.5-1.3,2.8-2.8,2.8s-2.8-1.3-2.8-2.8s1.3-2.8,2.8-2.8S2.2,114.1,2.2,115.7z"/>
		<g id="path3936" class="st5">
			
				<linearGradient id="SVGID_1_" gradientUnits="userSpaceOnUse" x1="-315.7709" y1="590.4699" x2="-318.8866" y2="587.0007" gradientTransform="matrix(7.1013 0 0 -6.6887 2243.616 4061.2654)">
				<stop  offset="0" style="stop-color:#FFFFFF"/>
				<stop  offset="1" style="stop-color:#FFFFFF;stop-opacity:0"/>
			</linearGradient>
			<polygon class="st6" points="-2.8,114.3 -31.6,138.9 -23.4,144.9 1.8,116.6 			"/>
		</g>
		<path id="path3882" class="st3" d="M-15,137.6c0,4.8-3.9,8.7-8.7,8.7c-4.8,0-8.7-3.9-8.7-8.7c0,0,0,0,0,0c0-4.8,3.9-8.7,8.7-8.7
			C-19,128.9-15,132.8-15,137.6C-15,137.6-15,137.6-15,137.6z"/>
	</g>
</g>
<g>
	<path class="st7" d="M-176.3,376.8h1.7c4,0,7.1-1.3,15.4-6.6c1.2-6.4,1.5-8.3,1.5-10.4c0-1.7-0.1-2-1.2-4c-0.7-1.1-0.7-1.1-1.1-2
		v-0.2c0.5-0.2,0.9-0.2,1.1-0.2c3,0,7.7,3.9,7.7,6.5c0,0.4-0.2,1-0.4,1.7c-0.4,1.3-0.6,2.3-0.8,2.7c-0.1,0.3-0.3,1.2-0.5,2.3
		c1-0.2,2-0.2,2.7-0.2c1.8,0,3,0.9,3,2.2c0,1.4-1.6,2.8-7.6,6.4c0.8,3.4,0.9,4.1,0.9,5.5c0,1.6-0.7,4-1.7,5.5
		c-0.3,0.5-0.5,0.9-0.5,1.2l0.1,0.2l1.3-0.9c0.9-0.7,1.8-1.3,2.7-2c0.2-0.1,1.2-1.1,2.2-2h0.2c-1.5,3.6-3,6.2-5.5,8.9
		c-2.9,3.2-3.1,3.7-3.1,7.3c0,3.4,0.1,4.6,0.5,9.3c0.2,1.9,0.3,3.8,0.3,5.3c0,2-0.5,3.8-1.1,3.8c-0.4,0-0.9-0.5-1.5-1.4
		c-1.6-2.7-2.4-5.1-2.4-8c0-1.1,0.1-3.7,0.2-7.3c0-0.6,0-1.5,0.1-2.6c-5.7,5.4-6.9,6.4-7.8,6.4c-1.5,0-1.9-1.4-1.9-6.5
		c0-1.2,0.2-1.5,1.3-1.8c4.5-2.3,9-10,10.3-17.6c-1.2,0.7-2.2,1.3-2.5,1.6c-0.2,0.2-1.2,0.8-2.6,1.8c-1.4,1.1-2.9,1.7-3.8,1.7
		c-1.4,0-3.8-1.4-6.2-3.5c-1.2-1.2-1.5-1.4-1.6-2.7L-176.3,376.8z M-148.2,404.8v0.6c0,0.9,0.5,1.4,1.4,1.4c0.5,0,1.3-0.2,2-0.5
		c3.1-1.2,3.1-1.2,4.4-1.2h2.4l4.4-0.1l3.9,0.2c2,0,2,0,8.5-1.9c0.6-0.2,1.3-0.3,2-0.3c1.8,0,4.1,0.9,6,2.4c1.1,0.9,1.4,1.6,1.4,2.8
		c0,1.4-0.7,2.3-1.8,2.3c-0.7,0-0.7,0-4.8-1.6c-7.2-1.9-7.2-1.9-8-1.9c-1.1,0-1.1,0-5.5,2.2c-0.6,0.3-1.3,0.5-2,0.5
		c-1.1,0-1.1,0-4.3-1.7c-0.5-0.3-1.2-0.5-1.8-0.5c-0.9,0-1.8,0.5-3.4,1.8c-2.4,2-4.2,2.8-5.7,2.8c-1.7,0-3.4-1.9-3.4-3.7
		s1.2-3,4.3-4L-148.2,404.8z M-139.9,355.9c0.9-0.3,1.6-0.5,2-0.5c0.9,0,3,0.9,3.8,1.6c0.6,0.6,1,1.8,1,3c0,1.8-0.5,3.1-2.5,5.5
		c-2.9,3.6-3.6,4.4-6.1,7.9c1.4,2.3,1.8,3.6,1.8,5.8c0,0.8-0.1,1.7-0.2,2.7c-0.3,3.3-0.5,5.4-0.5,5.6l0.1,5.5
		c-0.2,8.7-0.2,9-0.9,9.8c-0.2,0.4-0.5,0.5-0.8,0.5c-1.1,0-3.1-4.5-3.1-6.9c0-0.5,0.3-2.4,0.8-5c0.3-1.6,0.9-9.5,0.9-12.2
		c0-1.5-0.3-2.6-0.8-2.6c-0.3,0-0.3,0-2,2.3c-0.3,0.4-0.8,0.6-1.2,0.6c-0.5,0-0.9-0.4-0.9-0.9c0-0.9,0.6-3.4,1.4-5.3
		c0.4-0.8,0.6-1.2,2-2.9c1.7-2,6.2-10.1,6.2-11.1c0,0-0.4-1.2-1.1-3.5L-139.9,355.9z M-124.6,387.5c1.2,0,2,0.9,2,2.2
		c0,0.9-0.5,1.7-1.4,2.3c-3.1,2.3-3.1,2.3-4.4,3.7c1.5-0.5,2.3-0.7,3-0.7c2,0,5.3,2.6,5.3,4.1c0,0.9-0.9,1.2-3.1,1.2
		c-5.6,0.2-6.3,0.3-10.1,1.8c-1.2,0.5-2.4,0.7-3.4,0.7c-1.4,0-2.3-0.6-2.3-1.6c0-1,0.4-2,1.2-3.1c0.4-0.5,0.4-0.5,2.4-1.4
		c1.2-0.5,3.4-2.2,3.4-2.7c0-0.2-0.2-0.2-0.5-0.2s-0.2,0-1.9,0.7c-0.5,0.2-1,0.3-1.5,0.3c-0.5,0-1-0.4-1-1c0-1.2,0.6-2.8,1.3-3.6
		c0.4-0.4,0.4-0.4,2.6-1.2c0.5-0.2,1.6-1.2,3-2.9c-1.2,0.2-2.3,0.4-2.7,0.5c-1.5,0.5-2.7,0.8-3,0.8c-0.8,0-1.3-0.6-1.3-1.5
		c0-2.2,0.9-3.7,2.4-4.4c2.3-0.9,2.6-1.2,4.4-2.7c-5.4-0.3-7.6-1.2-8.7-3.5l0.2-0.4c3.4,0,5-0.5,7.4-2.9c1.9-1.7,3.4-4,3.4-4.9
		c0-0.2,0-0.2-1.4-2.2c-0.5-0.7-1.3-2.5-1.3-3c0-0.2,0.1-0.3,0.2-0.6h0.3c0.9,0.5,1.4,0.6,2.8,0.9c2.4,0.4,3.3,0.6,4,1.2
		c0.9,0.7,1.6,2.1,1.6,3c0,0.9-0.8,1.8-3,3.3c-1.7,1.1-2.5,1.8-2.5,2.1c0,0.1,0.1,0.1,0.2,0.1c0.4,0,2-0.5,3.3-1
		c0.7-0.3,1.3-0.5,1.7-0.5c1.2,0,3,1.7,3,3c0,0.8,0,0.8-3.6,2.9c-3.5,2.8-3.5,2.8-3.5,3.1c0,0.4,0,0.4,2.4,0.9
		c1.2,0.3,2.2,1.3,2.2,2.3c0,0.9-0.2,1-3.1,2.9c-1.5,1-2.3,1.7-2.3,2l1.2,0.1L-124.6,387.5z"/>
</g>
<path class="st8" d="M-49.8,373.9l-2,1.6c-6.7,5.1-10.6,10.2-11.9,15.3v2.5h27.9l1.3-12.1h-3.3c-0.8,5-2.7,7.5-5.7,7.5h-15.1
	c1.2-3.9,4.3-7.3,9.1-10.1l2.4-1.3c4.2-2.3,7.1-4.3,8.7-5.9c2-2,3-4.7,3-7.9c0-4.2-1.9-7.5-5.6-9.7c-2.4-1.2-5.2-1.9-8.3-1.9
	c-4.2,0-7.7,1.2-10.2,3.6c-2.1,2.1-3.2,4.4-3.2,7.1c0,3.2,1.4,4.8,4.3,4.8c2.5,0,3.7-1.2,3.7-3.5c0-2.2-1-3.4-2.9-3.6
	c1.2-3.1,3.8-4.6,7.9-4.6c5.3,0,7.9,2.5,7.9,7.4C-41.7,366.2-44.4,369.8-49.8,373.9z"/>
<path class="st9" d="M-98.4,482.4c4.5,7.8,9.1,15.5,13.5,23.4c0.9,1.6,0.6,3.8,0.9,5.7c-1.7-1-4-1.7-5-3.2
	c-4.4-6.7-8.3-13.6-12.6-20.4c-0.8-1.3-2.5-1.9-3.7-2.9c-0.5,0.5-1,1.1-1.5,1.6c3.7,5.4,7.6,10.8,11.1,16.3c2,3.1,3.8,6.4,5.2,9.8
	c0.5,1.2-0.1,2.9-0.2,4.4c-1.3-0.9-3.1-1.5-3.9-2.7c-5.6-8.4-11.1-16.8-17.5-24.9c2.9,13.6,5.4,26.9,5.9,40.5
	c-0.7,0.2-1.4,0.4-2,0.7c-0.7-1.6-1.8-3.1-2-4.7c-1.7-18.4-7.2-35.6-16-51.7c-9.1-16.7-22.6-28.7-40.1-36.3
	c-1.8-0.8-3.6-1.7-5.4-2.5c0-0.6,0.1-1.3,0.1-1.9c1.7,0,3.5-0.5,4.9,0.1c15.1,6.1,27.7,15.5,38,28.2c1.2,1.4,2.3,2.9,4.5,5.7
	c1.9-2.3,3.4-4.3,5.8-7.2c-4.8-3.9-9.4-7.2-13.5-11.1c-3.6-3.3-10.2-4-10.9-10c0.6-0.6,1.1-1.3,1.7-1.9c8.9,6.2,17.8,12.4,26.6,18.7
	c0.4-0.3,0.7-0.6,1.1-0.8c-0.9-1.5-1.6-3.3-2.8-4.6c-5.3-5.7-10.8-11.2-16.1-17c-1.1-1.2-1.3-3.3-1.9-5c1.6,0.6,3.4,0.9,4.7,2
	c6.2,5.4,12.3,11,19.4,17.4c-3.8-9.5-12.7-15.3-13.2-24.8c0.7-0.4,1.5-0.8,2.2-1.3c6.6,9,13.2,17.9,19.8,26.9
	c0.4-0.2,0.7-0.3,1.1-0.5c-0.6-1.6-1-3.2-1.8-4.7c-3.6-6.7-7.3-13.3-10.7-20.2c-0.9-1.8-0.7-4.1-0.9-6.2c0.7-0.2,1.5-0.4,2.2-0.6
	c3.1,4.7,6.3,9.3,9.4,13.9c2.8-1.8,5.6-3.2,7.9-5.2c1.2-1,2-3,2.1-4.7c1.1-15.2,2.7-30.5-6.2-44.4c-0.5-0.8,0.3-2.5,0.5-3.8
	c1.3,0.6,3.2,0.9,3.8,1.9c6,8.9,8,19,7.9,29.6c-0.2,11.1-0.4,22.3,0,33.4c0.5,13.7,7.9,24.6,15.6,35.1c3.9,5.3,8.6,10.2,13.4,14.7
	c2.4,2.2,6.2,3,9.1,4.8c1.3,0.8,2.3,2.3,3.4,3.5c-1.6,0.5-3.9,1.9-4.8,1.3c-7.3-2.1-13.1-6.6-19.2-13.7c-2.6-3-5-6.4-7.7-9.5
	c-0.7-0.8-2.3-0.8-3.5-1.2c0,1.3-0.6,2.9,0,3.8c3.8,5.7,8,11.2,11.8,16.9c1.4,2.2,2.2,4.9,3.2,7.3c-2.3-1.5-5.2-2.5-6.9-4.5
	c-4.5-5.2-8.3-10.9-12.7-16.3c-1-1.2-3-1.6-4.5-2.3c0.3,1.6,0.3,3.4,1,4.7c4.3,7.8,9,15.4,13.3,23.2c0.7,1.3,0.2,3.2,0.2,4.9
	c-1.3-0.9-3-1.5-3.8-2.8c-4.9-7.4-9.6-15-14.5-22.5c-1-1.5-2.4-2.7-3.7-4C-97.2,481.4-97.8,481.9-98.4,482.4z M-86,455.5
	c-3.9-3.9-7.4-2.6-10.6-1.8c-8.9,2.3-15.7,7.8-22.1,14.3c-2.8,2.9-3.2,5.1,0.4,8.1C-107.9,469.5-97.3,462.8-86,455.5z M-84.4,461.4
	c-10.4,6.4-20.1,12.3-29.8,18.5c-0.9,0.6-1.1,2.2-1.6,3.4c1.1,0,2.4,0.2,3.4-0.2c2.4-1,4.6-2.4,6.9-3.6c8-4.1,15.9-8.2,24.2-12.5
	C-82.5,464.9-83.2,463.5-84.4,461.4z M-90.4,446.8c-1-5.3-1.9-10.2-2.9-15.8c-3.2,3.3-6.2,6-3.9,10.1
	C-95.8,443.5-96,448.3-90.4,446.8z"/>
<path class="st10" d="M-80,443.6c-1.5-1.4-2.1-2.6-3.7-4c0.9-1,1.9-3.5,3.1-3.8c5.2-1.4,7.7,1.8,9.2,7.7c3.1-3.3,5.5-6.1,8.2-8.4
	c1.8-1.5,4.6-3.8,6.1-3.2c2,0.8,3.6,1.8,4,4.3c0.5,3,0.8,4.5,1.5,5.1c1.9,1.7,4,3.1,6.3,4c0.3,0.1,2.3-2.7,2.8-4.4
	c0.7-2.2,0.5-4.8,1.2-7c0.7-2.1,2.1-4.2,3.6-5.9c0.5-0.6,2.5-0.4,3.4,0.1c0.5,0.3,0.6,2.1,0.4,3.1c-1.1,4.1-2.7,8-3.5,12.1
	c-1.8,10-7.9,14.3-17.6,12.3c-3.4-0.7-4.7-3.9-10.3-2c-0.5,0.2-2.3,0.6-4.1,1.2c-0.6,0.2-0.5,1.1,0.1,1.2c2,0.2,4.1,0.1,4.8,0.5
	c3.2,1.7,4.9,4.4,4.1,8c-0.4,1.9-2,3.7-3.3,5.3c-0.7,0.9-2.1,0.6-2.5-0.4c-0.5-1.8,1.1-5.2,0.9-8c-1.5-0.8-5.5-0.5-7.6-2
	c-3.4-2.5-3.2-4.7,0.2-6.9c6-3.9,12.1-5.8,18.8-1.6c0.4,0.3,2.3,1.3,2.8,1.3c0.3,0,5.2-0.5,4-2c-5.5-3-9.8-7.7-11.2-11.8
	c-3.1,2.3-7.5,7.3-11.5,9.9c-6.4,4.3-7.2,3.8-7.7-3.9c0-0.7-0.3-1.3-0.5-2C-78.3,442.6-79.7,443.4-80,443.6z"/>
<path class="st10" d="M-146.8,499.4c6.1-7.2,11.3-12.5,19.7-13.4c0.5,3.1,0.9,5.7,1.3,7.9c0.9,0.4,1.2,0.6,1.5,0.7
	c2.1,0.4,4.1,0.8,6.2,1.2c-0.4,1.1-0.8,3-1.4,3.1c-3.2,0.3-6.6,0.8-9.6-0.1c-1.5-0.4-2.4-3.3-4-5.8c-3.2,3.1-6.1,6.2-9.2,9.1
	c-4.5,4.1-7.9,3.3-9.5-2.4c-1.3-4.8-1.7-10.6-8.6-9.4c-5.6,1-3.2,6.7-4.4,10.2c-0.8,2.4-1.5,4.9-2.9,6.8c-0.9,1.2-3.2,1.4-4.4,1.9
	c1.4-6.7,2.1-12.7,3.9-18.3c3.3-10.7,9.1-13.3,20-10.7c4.3,1,8.6,1.6,12.9,2.4c0.2-0.6,0.4-1.3,0.6-1.9c-1.5-0.7-3-1.4-4.4-2.1
	c-4.8-2.2-6.4-6.7-3.5-11.1c0.8-1.2,2.7-1.6,4.1-2.4c0.3,1.6,0.7,3.1,0.9,4.7c0.1,0.6-0.4,1.3-0.7,2.3c2.4,1.2,5,1.9,6.7,3.5
	c1.5,1.4,2.8,3.8,3,5.8c0.1,1.2-2.3,2.7-3.9,3.6c-6.3,3.8-12.6,0.9-18.9-0.1c-1.8-0.3-3.6-0.5-6-0.1
	C-150.3,486.5-147.4,491.4-146.8,499.4z"/>
</svg>
