<?xml version="1.0" encoding="utf-8"?>
<!-- Generator: Adobe Illustrator 19.0.0, SVG Export Plug-In . SVG Version: 6.00 Build 0)  -->
<svg version="1.1"
	 id="svg2985" xmlns:dc="http://purl.org/dc/elements/1.1/" xmlns:cc="http://creativecommons.org/ns#" xmlns:rdf="http://www.w3.org/1999/02/22-rdf-syntax-ns#" xmlns:svg="http://www.w3.org/2000/svg"
	 xmlns="http://www.w3.org/2000/svg" xmlns:xlink="http://www.w3.org/1999/xlink" x="0px" y="0px" viewBox="-192 293.9 210 255"
	 style="enable-background:new -192 293.9 210 255;" xml:space="preserve">
<style type="text/css">
	.st0{enable-background:new    ;}
	.st1{fill:#005F00;}
	.st2{fill:#CDDACD;}
	.st3{fill:#FFFFFF;}
	.st4{fill:url(#rect3008_1_);}
	.st5{filter:url(#filter3970-5);}
	.st6{fill:url(#SVGID_1_);}
	.st7{fill:#994913;}
	.st8{fill:#038249;}
	.st9{fill:#BC197A;}
	.st10{fill:#2A3B92;}
</style>
<filter  height="1.2150326" width="1.2171124" id="filter3970-5" x="-0.10855621" y="-0.10751629" color-interpolation-filters="sRGB">
	<feGaussianBlur  id="feGaussianBlur3972-8" stdDeviation="0.12800763"></feGaussianBlur>
</filter>
<g id="g4146" transform="translate(39.768324,209.71794)">
</g>
<g id="g4630" transform="matrix(1.0005937,0,0,1,-1.3758072,203.40625)" class="st0">
	<g id="g3062">
		<path id="rect4031" d="M-131.2,90.5l46.1,0.2l68.4-0.2c22.9-0.1,36.1,15.9,36.1,40.4v154.6c0,12.3-14,27.7-21.4,35.7
			s-22.1,24.3-33.6,24.3h-113c-22.9,0-41.3-5.6-41.3-30.2l-0.3-162.3c0-6.4,17.3-24.3,24.8-32.4C-158,112.6-142.7,90.4-131.2,90.5
			L-131.2,90.5z"/>
		<path id="rect3767" class="st1" d="M-122.4,103.2h104.5c13.8,0,24.8,11.1,24.9,24.9l0.9,152.4c0,2-12.6,32-25.8,32h-104.5
			c-13.8,0-24.9-11.1-24.9-24.9V128.1C-147.3,114.3-136.2,103.2-122.4,103.2L-122.4,103.2z"/>
		<path id="rect3861" class="st2" d="M-137.4,118.1h99.6c13.7,0,24.9,11.2,24.9,24.9v159.5c0,13.8-11.1,24.9-24.9,24.9h-99.6
			c-13.7,0-24.9-11.2-24.9-24.9V143.1C-162.3,129.3-151.1,118.1-137.4,118.1z"/>
		<path id="rect3765" class="st3" d="M-147.3,133.1h104.5c13.7,0,24.9,11.2,24.9,24.9v149.5c0,13.8-11.1,24.9-24.9,24.9h-104.5
			c-13.7,0-24.9-11.2-24.9-24.9V158C-172.2,144.3-161.1,133.1-147.3,133.1z"/>
		
			<linearGradient id="rect3008_1_" gradientUnits="userSpaceOnUse" x1="-324.8826" y1="569.5873" x2="-324.8826" y2="531.0685" gradientTransform="matrix(4.9807 0 0 -4.9841 1515.6201 2981.9607)">
			<stop  offset="0" style="stop-color:#D0E4CC"/>
			<stop  offset="1" style="stop-color:#FBFFEC"/>
		</linearGradient>
		<path id="rect3008" class="st4" d="M-157.3,143.1h109.5c11,0,19.9,8.9,19.9,19.9v149.5c0,11-8.9,19.9-19.9,19.9h-109.5
			c-11,0-19.9-8.9-19.9-19.9V163C-177.2,152-168.3,143.1-157.3,143.1z"/>
		<path id="path3932" class="st3" d="M2.2,115.7c0,1.5-1.3,2.8-2.8,2.8s-2.8-1.3-2.8-2.8s1.3-2.8,2.8-2.8S2.2,114.1,2.2,115.7z"/>
		<g id="path3936" class="st5">
			
				<linearGradient id="SVGID_1_" gradientUnits="userSpaceOnUse" x1="-315.7709" y1="590.4699" x2="-318.8866" y2="587.0007" gradientTransform="matrix(7.1013 0 0 -6.6887 2243.616 4061.2654)">
				<stop  offset="0" style="stop-color:#FFFFFF"/>
				<stop  offset="1" style="stop-color:#FFFFFF;stop-opacity:0"/>
			</linearGradient>
			<polygon class="st6" points="-2.8,114.3 -31.6,138.9 -23.4,144.9 1.8,116.6 			"/>
		</g>
		<path id="path3882" class="st3" d="M-15,137.6c0,4.8-3.9,8.7-8.7,8.7c-4.8,0-8.7-3.9-8.7-8.7c0,0,0,0,0,0c0-4.8,3.9-8.7,8.7-8.7
			C-19,128.9-15,132.8-15,137.6C-15,137.6-15,137.6-15,137.6z"/>
	</g>
</g>
<g>
	<path class="st7" d="M-100.8,375.8c1,0.2,1.7,0.2,2.3,0.2c2.6,0,2.6,0,16.1-8.6c0.5-4.1,0.7-5.5,0.7-6.8c0-2.3-0.5-3.4-2.7-6v-0.3
		c0.7-0.3,1.3-0.5,1.6-0.5c3,0,7.7,4.1,7.7,6.8c0,0.2-0.1,0.6-0.2,1.1c-0.2,0.8-0.4,1.2-0.4,1.4c-0.1,0-0.1,0.5-0.2,1.1
		c2.7,1.2,4.6,2.8,4.6,4.3c0,0.2-0.2,0.6-0.5,0.9c-0.5,0.3-1.1,0.8-2,1.2c-0.9,0.5-2.3,1.5-4.1,2.8c0.2,1.9,0.2,2.5,0.2,3.1
		c0,1.1,0,1.3-0.9,4.7c-0.5,1.9-0.5,1.9-0.5,4.1c1.2-0.9,2-1.4,2.3-1.6c1.5-1.2,3-2.4,4.4-3.7c0.4-0.2,1-0.8,2-1.6l0.2,0.3
		c-4.3,6.7-5.3,8-9.2,12.2c-0.2,4.4-0.3,6.2-0.3,8.8c0,1.6,0.2,5.1,0.3,9.4c0.1,1.9,0.2,4.9,0.2,5.4c0,1.3-0.3,2-0.9,2
		c-1.6,0-3.9-4.5-3.9-7.4c0-0.7,0.1-1.4,0.2-2.6c0.5-3.7,0.6-4.9,0.8-11.3c-1.6,1.7-3,3.2-3.4,3.7c-2.3,2.5-3.4,3.4-4.4,3.4
		c-1.2,0-2.5-2.3-2.5-4.8c0-1.8,0.1-1.9,1.9-2.8c3.3-2.9,7.4-12.4,8.1-18.6c-2.3,1.4-4.3,2.8-4.9,3.3c-3.7,3-4.1,3.2-5.2,3.2
		c-1.1,0-2.1-0.6-4.4-2.3c-2.7-2.3-3-2.6-3.3-4.2L-100.8,375.8z M-76.8,398.4c2-0.5,2.3-0.5,4.1-1.1c0.7-0.2,2-0.6,4.1-1.2l4.1-1.3
		c-0.2-2.8-0.2-4.9-0.3-7.5v-7.8c0-0.6-0.1-2.4-0.2-5c-0.6,0.1-1.1,0.1-1.4,0.1c-3,0-4.4-0.5-6-2.3v-0.6l2.7-1.1
		c2.8-1.2,3-1.3,5.1-2.4c-0.1-3-0.2-3.7-1.2-7.2l0.1-0.4c0.3-0.3,0.5-0.5,0.8-0.5c0.5,0,1.8,0.8,2.9,1.9c1.3,1.2,1.8,2.1,2.3,4.4
		c3.4-1.2,4-1.5,7.7-3c0.2-2,0.2-2.9,0.2-4.3c0-4.9-0.3-5.6-3.1-6.2l-0.2-0.3c0.9-1.3,1.6-1.8,2.5-1.8c1.5,0,3.3,0.9,4.4,2.3
		c1,1.1,1.3,2,1.3,3.9l-0.1,3.1c0,0.4,0,1,0.1,2.1c3.4,1.2,5.2,2.3,5.2,3.3c0,0.3-0.2,0.8-0.6,0.9c-0.4,0.2-2,0.5-4.8,1.1
		c-0.3,5-0.3,5.1-0.3,9.9v3.2c0,1.5-0.1,5.6-0.2,10.2c1.8-0.2,3.5-0.2,4.8-0.2c4.7,0,8.7,2.3,8.7,5c0,0.9-0.6,1.5-1.5,1.5
		c-0.8,0-2-0.2-3.3-0.6c-2.8-0.8-4.8-1.1-7.6-1.1l-2,0.1c-0.2,0.7-0.4,1.4-0.5,1.6c-0.4,1.5-0.8,2.2-1.2,2.2c-0.9,0-2.2-1.7-2.9-4.1
		c-1.7,0.3-3.6,0.7-3.7,0.8c-0.9,0.2-2.8,1-5.6,2.2c-5,2.1-10.6,3.9-12.1,3.9c-1.6,0-2.9-1-2.9-2.3c0-0.2,0.1-0.5,0.2-0.9
		L-76.8,398.4z M-67.8,402c0.1,0.6,0.2,1.2,0.2,1.4c0.2,1.5,0.5,2.1,1.4,2.1c0.9,0,1,0,4-1.7c1.8-0.9,1.8-0.9,3.7-1.7v0.5
		c-0.7,0.9-1.3,1.6-1.6,2c-0.9,1.1-1.5,1.9-1.6,2l-1.8,3.2c-1.2,2-2.5,3.5-3.3,3.5c-1.5,0-4.1-3.4-4.1-5.4c0-1.6,1.2-4.2,2.6-5.8
		H-67.8z M-60.7,385c2.9-1.1,3-1.1,3.7-1.5c0.7-0.3,1.2-0.5,1.5-0.5c0.7,0,1.3,0.3,3.3,1.5l0.1-6.9c-3,0.9-3.4,1-8.3,3.2L-60.7,385z
		 M-57.3,388c-0.5,0.2-1.9,0.5-3.3,1.1c-0.1,0.9-0.1,1.4-0.1,2c0,0.7,0.1,1.3,0.2,2.5c3.7-0.7,4.2-0.9,8.1-1.8
		c0.1-1.9,0.2-2.7,0.2-3.9V386c-1.9,1-2,1-3.9,1.6L-57.3,388z M-60.2,375.8c1.3-0.5,2.4-0.9,2.9-1.1c1-0.5,1.8-0.7,2.2-0.7
		c0.6,0,1.6,0.3,2.7,1l0.2-6.8c-3.6,1.6-4.2,1.8-7.6,3.3c-0.3,1.4-0.4,2.1-0.4,3V375.8z M-53.6,407.7c0.7-0.2,1.2-0.2,1.4-0.2
		l2.6-0.2c1.5-0.1,2.4-0.8,2.4-1.9c0-1.5-0.8-2.6-3.2-4.4l0.1-0.3c0.7-0.2,1.2-0.3,1.6-0.3c3.4,0,8.4,4.4,8.4,7.3
		c0,2-1.8,5.5-2.8,5.5c-0.3,0-0.3,0-2-1.3c-1.2-1-2.8-1.7-8.6-3.8L-53.6,407.7z"/>
</g>
<path class="st8" d="M-157.2,373.9l-2,1.6c-6.7,5.1-10.6,10.2-11.9,15.3v2.5h27.9l1.3-12.1h-3.3c-0.8,5-2.7,7.5-5.7,7.5h-15.1
	c1.2-3.9,4.3-7.3,9.1-10.1l2.4-1.3c4.2-2.3,7.1-4.3,8.7-5.9c2-2,3-4.7,3-7.9c0-4.2-1.9-7.5-5.6-9.7c-2.4-1.2-5.2-1.9-8.3-1.9
	c-4.2,0-7.7,1.2-10.2,3.6c-2.1,2.1-3.2,4.4-3.2,7.1c0,3.2,1.4,4.8,4.3,4.8c2.5,0,3.7-1.2,3.7-3.5c0-2.2-1-3.4-2.9-3.6
	c1.2-3.1,3.8-4.6,7.9-4.6c5.3,0,7.9,2.5,7.9,7.4C-149.1,366.3-151.8,369.8-157.2,373.9z"/>
<path class="st9" d="M-37.5,420.1c-37.5,15.1-75.1,30.1-112.6,45.2c-0.1,0.5-0.2,1-0.3,1.5c28.2,10.9,56.4,21.8,84.8,32.8
	c3.1-8.7,2.5-9.9-4.9-11.3c-0.2,0.6-0.4,1.4-0.7,2c-0.9,1.4-1.9,2.8-2.9,4.2c-0.8-1.5-2.5-3.1-2.3-4.4c0.9-6.7-4.4-7.6-9.3-9.2
	c-1,2.8-1.9,5.3-2.9,7.8c-0.7,0.2-1.3,0.3-2,0.5c-1.5-7-0.7-15.9-12.7-15.1c-0.1,1,0,2.2-0.5,3.1c-0.8,1.6-2,3.1-3,4.6
	c-0.7-1.8-1.8-3.5-2.1-5.3c-0.3-1.6,0.3-3.4,0.6-5.3c-3.1-1.8-6.4-3.7-10.9-6.3c4.8-2.4,8.2-4.4,11.9-6
	c19.7-8.7,39.4-17.3,59.2-25.8c1.8-0.8,4.3-0.1,6.5-0.1c-1.3,1.4-2.3,3.5-4,4.2c-18.4,8.4-37,16.6-55.5,24.9c-2,0.9-4,1.9-7.4,3.5
	c22.3,9.8,43.6,19.2,64.8,28.5c-0.3,0.8-0.6,1.6-0.8,2.4c-4.4-1.1-8.7-2.1-13.5-3.3c-0.7,2.6-1.3,5.1-2.1,8.3
	c4.2,1.6,8.7,3.4,13.2,5.1c3.8,1.5,6.5,11.9,3.5,14.3c-1.1,0.8-3.9,0.5-5.6-0.1c-14.3-5.3-28.5-10.7-42.7-16.3
	c-14-5.5-27.9-11.1-41.8-16.7c-9.8-3.9-10.3-3.8-17.6,3.4c-1.8,1.8-3.6,3.5-6.5,6.3c-0.8-2.8-1.7-4.6-1.7-6.4
	c-0.2-7.1,0.2-14.2-0.2-21.2c-0.3-4.4,1.7-6.5,5.8-8.1c27.7-10.9,55.2-21.9,82.8-32.8c9-3.5,17.9-7.1,26.9-10.5
	c1.7-0.6,3.9-0.4,5.8-0.6C-38,418.5-37.7,419.3-37.5,420.1z M-155.1,489.5c2.4-1.9,4.3-3,5.6-4.6c3.2-4.1,6.6-4.8,11.8-2.7
	c20.9,8.4,41.9,16.6,62.9,24.7c8.9,3.5,17.8,6.8,26.7,10.2c1.8-3.7,1.5-6-2.8-7.6c-26.5-10.2-52.8-20.7-79.3-30.9
	c-7.9-3.1-16-5.9-24.9-9.1C-155.1,476.6-155.1,482.5-155.1,489.5z"/>
<path class="st10" d="M-113,398.3c-5.8,2.6-10,4.4-15.5,6.9c10,5.7,8.4,14.5,8.1,22.7c-0.2,5.8,1.4,10.3,6.2,14.1
	c0.2,0.1,0.3,0.3,0.5,0.5c1.1,1.8-0.7,3.9-2.8,3.5c-0.5-0.1-1-0.3-1.5-0.5c-1.9-1-3.3-2.8-5.2-4.4c-2.4,1.8-4.4,3.6-6.7,4.8
	c-0.5,0.3-1.2,0.2-1.9,0.1c-1.5-0.2-2.5-1.8-1.9-3.2c0.1-0.3,0.3-0.5,0.5-0.6c10.7-7.1,6.2-17.4,6.1-26.4c0-2.5-4.6-5.4-7.6-7.5
	c-4.6-3.2-4.8-4.5,0.3-7.1c5.6-2.9,11.5-5.4,16.9-8.5c5.6-3.1,6.3-6.2,2-10.7c-3.4-3.6-8-6.1-11.5-9.6c-3.4-3.4-6.2-7.3-8.8-11.2
	c-0.8-1.3-0.1-3.3-0.1-5l1.8-0.5c2.8,3.1,5.5,6.3,8.4,9.3c6.5,6.7,13.2,13.2,19.4,20c1.4,1.5,1.7,4.4,1.3,6.5
	c-1.6,8.2-3.7,16.4-5.6,24.5c-1.5,6.1-0.6,11.2,5.5,15.1c0.2,0.1,0.4,0.3,0.5,0.5c1.2,1.7-0.4,4-2.5,3.7c-0.7-0.1-1.3-0.3-1.9-0.6
	c-9.9-5.6-9-14.1-7.1-22.8C-115.2,407.9-114.2,403.8-113,398.3z"/>
<path class="st10" d="M-109.9,514.3c-4.4-6.1-6.1-12.8-4.9-13.4c4.4-1.3,4.6,9.5,8.9,12.9c2.3,2.5,5.2-2.9,8.8-5.8
	c1.4-1.1,3.5-0.6,4.3,0.9c1.6,3,3.5,6.1,5.2,9.1c3.6,6.4,5.5,3.3,7.7,0.3c1-1.4,3.6-4.2,4.9-4.4c1.3,0.3,2.7,1.2,1.3,3.4
	c-2.3,3.5-5.6,7.6-9.3,8.9c-4.6,1.7-5.3-3-12.4-14.3c-5,4.6-11.5,11.1-16.4,15.3c-2.1,1.8-4.6,3.3-7.3,4.3
	c-7.9,2.8-12.1,0.7-14.3-6.8c-0.7-2.6-1.6-5.1-2.2-7.7c-1.6-7-5.7-8.3-12.1-3.6c-5.8,4.3-11.4,8.9-17.2,13.2
	c-0.1,0.1-0.2,0.2-0.4,0.2c-2.1,1.1-4.3-1.8-2.5-3.5c0,0,0,0,0,0c4.1-3.7,8.7-7.1,12.9-10.8c7.6-6.6,14.4-7.6,23.7-3.7
	c2.9,1.2,15.1,6.2,18.2,7.1C-110.1,516.6-106.3,517.7-109.9,514.3z M-131.8,512.7c-0.2,0.2-0.2,0.2-0.3,0.4
	c2.4,4.4,2.6,12.9,6.4,14.7c5.5,2.5,9.7-3.4,14.9-7.9C-118.6,517.2-125.2,515-131.8,512.7z"/>
<path class="st9" d="M-76.1,469.7c7.8,2.2,15.7,4.5,23.5,6.7c0.8,0.2,1.8,0.2,2.4,0.6c1.3,0.9,2.4,2.1,3.6,3.2
	c-1.6,0.2-3.3,1-4.8,0.7c-11.6-2.9-23.2-5.9-34.8-8.9c-2.6-0.7-5.3-1.2-7.8-2.1c-1-0.3-1.6-1.5-2.4-2.3c1-0.8,2-2.2,3.1-2.3
	c14.8-0.4,29.6-0.7,44.4-0.8c1.2,0,2.4,1.5,3.5,2.3c-1.3,0.7-2.6,1.9-3.9,2c-8.9,0.2-17.8,0.1-26.8,0.1
	C-76,469.1-76,469.4-76.1,469.7z"/>
<path class="st9" d="M-44.2,457.9c-1.4,0.5-2.9,1.3-4.3,1.3c-8.9,0.3-17.9,0.6-26.8,0.6c-1.6,0-3.3-1.5-4.9-2.3
	c1.6-0.8,3.2-2.2,4.8-2.2c8.3-0.3,16.6-0.3,24.9-0.3c2.1,0,4.2,0.6,6.2,1C-44.2,456.6-44.2,457.2-44.2,457.9z"/>
<path class="st10" d="M-92,435.5c-1.1,1.7-3.8,0.7-3.6-1.3c0.6-5.5,3.9-10.2,8-10.8c4.5-0.6,7.6,1.6,10,5c1.1,1.6-0.6,3.8-2.4,2.9
	c-0.1-0.1-0.3-0.1-0.4-0.2c-5.7-4.3-6.9-4-10.4,2.3C-91.1,434.1-91.6,434.8-92,435.5z"/>
<path class="st9" d="M-62.1,453.5c-1.1-0.9-2.5-1.5-2.9-2.5c-0.3-0.7,0.6-2.5,1.4-2.7c6-2,12.1-3.8,18.2-5.5
	c0.7-0.2,2.5,0.6,2.5,0.9c0,1-0.4,2.5-1.1,2.8C-49.9,448.9-55.8,451.1-62.1,453.5z"/>
</svg>
