<?xml version="1.0" encoding="utf-8"?>
<!-- Generator: Adobe Illustrator 19.0.0, SVG Export Plug-In . SVG Version: 6.00 Build 0)  -->
<svg version="1.1"
	 id="svg2985" xmlns:dc="http://purl.org/dc/elements/1.1/" xmlns:cc="http://creativecommons.org/ns#" xmlns:rdf="http://www.w3.org/1999/02/22-rdf-syntax-ns#" xmlns:svg="http://www.w3.org/2000/svg"
	 xmlns="http://www.w3.org/2000/svg" xmlns:xlink="http://www.w3.org/1999/xlink" x="0px" y="0px" viewBox="-237 -92 210 255"
	 style="enable-background:new -237 -92 210 255;" xml:space="preserve">
<style type="text/css">
	.st0{enable-background:new    ;}
	.st1{fill:#005F00;}
	.st2{fill:#CDDACD;}
	.st3{fill:#FFFFFF;}
	.st4{fill:url(#rect3008_2_);}
	.st5{filter:url(#filter3970-5);}
	.st6{fill:url(#SVGID_1_);}
	.st7{fill:#038249;}
	.st8{fill:#994913;}
	.st9{fill:#2A3B92;}
	.st10{fill:#BC197A;}
	.st11{fill:none;stroke:#2A3B92;stroke-width:1.5;stroke-linecap:round;stroke-miterlimit:10;}
	.st12{fill:#D37F11;stroke:#D37F11;stroke-width:0.5;stroke-linecap:round;stroke-miterlimit:10;}
	.st13{fill:#D37F11;}
</style>
<filter  width="1.2171124" height="1.2150326" y="-0.10751629" x="-0.10855621" id="filter3970-5" color-interpolation-filters="sRGB">
	<feGaussianBlur  stdDeviation="0.12800763" id="feGaussianBlur3972-8"></feGaussianBlur>
</filter>
<g id="g4146" transform="translate(39.768324,209.71794)">
</g>
<g id="g4630_1_" transform="matrix(1.0005937,0,0,1,-1.3758072,203.40625)" class="st0">
	<g id="g3062_1_">
		<path id="rect4031_1_" d="M-176.2-295.4l46.1,0.2l68.4-0.2c22.9-0.1,36.1,15.9,36.1,40.4v154.6c0,12.3-14,27.7-21.4,35.7
			s-22.1,24.3-33.6,24.3h-113c-22.9,0-41.3-5.6-41.3-30.2l-0.3-162.3c0-6.4,17.3-24.3,24.8-32.4C-203-273.3-187.6-295.5-176.2-295.4
			L-176.2-295.4z"/>
		<path id="rect3767_1_" class="st1" d="M-167.4-282.7h104.5c13.8,0,24.8,11.1,24.9,24.9l0.9,152.4c0,2-12.6,32-25.8,32h-104.5
			c-13.8,0-24.9-11.1-24.9-24.9v-159.5C-192.3-271.6-181.2-282.7-167.4-282.7L-167.4-282.7z"/>
		<path id="rect3861_1_" class="st2" d="M-182.3-267.7h99.6c13.7,0,24.9,11.2,24.9,24.9v159.5c0,13.8-11.1,24.9-24.9,24.9h-99.6
			c-13.7,0-24.9-11.2-24.9-24.9v-159.5C-207.2-256.6-196.1-267.7-182.3-267.7z"/>
		<path id="rect3765_1_" class="st3" d="M-192.3-252.8h104.5c13.7,0,24.9,11.2,24.9,24.9v149.5c0,13.8-11.1,24.9-24.9,24.9h-104.5
			c-13.7,0-24.9-11.2-24.9-24.9v-149.5C-217.2-241.6-206-252.8-192.3-252.8z"/>
		
			<linearGradient id="rect3008_2_" gradientUnits="userSpaceOnUse" x1="-369.8559" y1="182.6285" x2="-369.8559" y2="144.1098" gradientTransform="matrix(4.9807 0 0 -4.9841 1694.6462 667.4196)">
			<stop  offset="0" style="stop-color:#D0E4CC"/>
			<stop  offset="1" style="stop-color:#FBFFEC"/>
		</linearGradient>
		<path id="rect3008_1_" class="st4" d="M-202.3-242.8h109.5c11,0,19.9,8.9,19.9,19.9v149.5c0,11-8.9,19.9-19.9,19.9h-109.5
			c-11,0-19.9-8.9-19.9-19.9v-149.5C-222.2-233.9-213.3-242.8-202.3-242.8z"/>
		<path id="path3932_1_" class="st3" d="M-42.7-270.2c0,1.5-1.3,2.8-2.8,2.8s-2.8-1.3-2.8-2.8s1.3-2.8,2.8-2.8
			S-42.7-271.8-42.7-270.2z"/>
		<g id="path3936_1_" class="st5">
			
				<linearGradient id="SVGID_1_" gradientUnits="userSpaceOnUse" x1="-360.7442" y1="203.5567" x2="-363.8599" y2="200.0874" gradientTransform="matrix(7.1013 0 0 -6.6887 2518.0134 1087.4099)">
				<stop  offset="0" style="stop-color:#FFFFFF"/>
				<stop  offset="1" style="stop-color:#FFFFFF;stop-opacity:0"/>
			</linearGradient>
			<polygon class="st6" points="-47.8,-271.6 -76.6,-247 -68.4,-241 -43.2,-269.3 			"/>
		</g>
		<path id="path3882_1_" class="st3" d="M-60-248.3c0,4.8-3.9,8.7-8.7,8.7c-4.8,0-8.7-3.9-8.7-8.7c0,0,0,0,0,0
			c0-4.8,3.9-8.7,8.7-8.7C-63.9-257-60-253.1-60-248.3C-60-248.3-60-248.3-60-248.3z"/>
	</g>
</g>
<g>
	<path class="st7" d="M-213.7-14.6c0.2,2.3,0.3,2.5,3.5,5.8c1.7,1.8,2.6,3.5,2.6,5.1s-0.2,2.1-2.3,6.4c-1.3,2.6-1.4,2.8-2.7,5.6
		l-0.4,0.1V7.6l0.4-8c0-0.3-0.2-1-1.5-3.7c-1.3-3.2-1.9-5.1-1.9-6.9c0-1.7,0.5-2.6,1.9-3.7L-213.7-14.6z M-212.8,14.9
		c0.5,0.3,0.5,0.5,0.9,1.3c0.4,0.9,0.9,1.4,1.3,1.4c0.9,0,1-0.2,4.8-10.9c0.9-2.3,1.7-4.5,2.6-6.7c0.1-0.3,0.3-1.1,0.7-2.3h0.5
		c-0.1,2.4-0.3,4.4-1.3,9.8c-1,5.3-2.3,14.8-2.3,17.3l0.1,1.8c0,2.2-0.5,3.4-1.6,3.4c-2.4,0-6.6-7.8-6.6-12.5c0-0.7,0.1-1.2,0.4-2.3
		L-212.8,14.9z M-211-17.2c0.6-0.6,1-0.9,1.1-1.1c1-0.9,2-1.7,3-2.7c0.6-0.5,1-1.2,1-1.5c0-0.5-0.3-1.1-0.8-1.8
		c-1.8-2.7-2.7-4.6-3-6.1l0.2-0.4c0.5-0.1,1-0.2,1.2-0.2c1.4,0,3.3,0.9,6.9,3.2c2.7,1.7,3.9,3.6,3.9,6c0,0.9-0.4,1.7-0.9,2.2
		c-1,0.9-1,0.9-5.5,1.1c-1.8,0.2-3.3,0.5-6.7,1.5L-211-17.2z M-199.8,16.3c-0.1,0.6-0.1,1.2-0.1,1.6c0,1.1,0.5,1.6,1.2,1.6
		c0.9,0,2-0.3,3.2-0.9c2.6-1.2,3.3-1.6,4.5-1.6c0.6,0,1.2,0.2,1.9,0.3c0.9,0.2,1.5,0.4,1.7,0.4c0.5,0,1.4-0.3,2.7-0.9
		c1.6-0.8,2.9-1.1,4.4-1.1h0.9c1.4,0.2,2.3,0.2,2.3,0.2c0.4,0,1.5-0.3,2.9-0.7c3-0.9,6.3-1.6,8.4-1.6c3.7,0,8.9,4.8,8.9,8.2
		c0,0.7-0.4,1.5-1.1,1.8c-0.9,0.5-0.9,0.5-5.5,0.6l-3.6,0.4c-0.4,0.1-1.8,0.2-3.2,0.2l-0.1-0.5c3.7-2.5,6.6-5.1,6.6-6.3
		c0-0.9-1.6-1.8-3-1.8c-2.1,0-4.2,1.2-7,3.9c-0.8,0.8-1.5,1.2-2,1.2c-0.8,0-1.8-0.6-3.4-2.1c-0.9-0.8-1.8-1.2-2.4-1.2
		c-0.5-0.1-1.5,0.5-2.3,1.4c-2.3,2.4-2.8,2.8-3.8,2.8c-0.5,0-1.4-0.4-2.1-1c-1.3-1.2-2.2-1.8-2.7-1.8s-1.3,0.4-2,0.9
		c-1.3,1.1-1.3,1.1-3.7,5c-0.4,0.6-0.9,1-1.4,1c-1.8,0-3.3-2.6-3.3-5.9c0-2.7,0.8-4.1,2.6-4.7L-199.8,16.3z M-194.3-8.5
		c-0.2,0.5-0.2,0.8-0.2,1s0.1,0.7,0.3,1.2c1.6-2.7,4.4-5.2,7.4-6.9c3.5-1.9,3.6-1.9,5.4-4.6c2.7-4,3.9-6.2,3.9-7.3
		c0-0.5-0.6-0.9-1.7-0.9c-1.4,0-1.4,0-4.6,3.7c-2.8,3.4-6.4,5.9-8.2,5.9c-0.3,0-0.8-0.2-0.9-0.5c-0.3-0.5-0.7-3.1-0.7-4.3
		c0-1,0.3-1.3,2.7-2.6c1.6-0.8,2.4-1.7,3.3-3.4c0.8-1.4,1.2-3,1.2-3.8c0-0.8-0.3-1.5-1.2-2.9l0.2-0.4c0.4-0.1,0.7-0.1,1-0.1
		c0.9,0,1.8,0.3,2.8,0.8c2,1,2.8,1.7,4,3.8c3.1,0.2,4,0.5,5.5,1.9c2.1,1.9,3.1,3.4,3.1,4.8c0,0.9-0.2,1.2-2.2,2.6l-2.2,2.1
		c-2.4,2-2.4,2-2.4,2.5c0,0.2,0.4,0.6,0.6,0.6l4.1-0.4c0.2,0,2.5,0.9,3.5,1.4c3,1.6,5.6,4.8,5.6,7c0,0.9-0.1,0.9-2.1,3.1
		c-1.1,1.5-1.5,2.3-4.9,10.6c-1.3,3.4-3.2,5.4-5,5.4c-0.9,0-1.3-0.5-1.7-1.4c-4,1.1-5.9,1.6-7.8,2.1c-5.1,1-6.8,1.3-10.2,2l-0.1-0.5
		c3-1.6,4.6-2.7,4.5-3.5c0-0.2-0.2-0.6-0.5-1c-3.3-3.7-3.4-4.1-3.7-9.1c-0.1-0.4-0.4-1.6-0.9-3.4c-0.4-1.2-0.5-2.3-0.5-3.1
		c0-1.6,0.9-3,1.9-3c0.2,0,0.4,0.1,0.7,0.2L-194.3-8.5z M-184.5-5.4c0-2.6-0.4-2.9-3.5-2.9c-2.7,0-4.9,1.6-4.9,3.6
		c0,0.8,0.2,2,0.5,3.3c0.8,2.9,1.1,4.8,1.6,9c2.7-0.3,6.2-3.4,6.6-5.9c-0.9,0.2-1.6,0.2-2.1,0.2c-1.1,0-1.4-0.2-3.3-1.7
		c-1.4-1.1-1.6-1.2-2-2.2l0.1-0.2c3-1.2,3.5-1.3,7.1-2.6V-5.4z M-180.2,5.9c1.6,0.1,1.9,0.1,3.7,0.5c2-4.5,2.9-6.9,3.7-9.9
		c1.6-5.9,1.6-5.9,1.6-6.6c0-1.2-1.1-2.6-2-2.6c-0.4,0-0.9,0.2-1.6,0.4c0,0.1-1.7,0.7-3.4,1.2c-0.9,0.3-1.3,0.8-1.2,1.2l0.1,1.6
		l0.1,2.2c0.1,0.2,0.3,0.5,0.5,0.6c0.1,0,0.5,0.2,1.3,0.5c1,0.5,1.8,1.6,1.8,2.7c0,1-0.5,1.6-2,3C-179.1,2-180.1,4.1-180.2,5.9
		L-180.2,5.9z"/>
</g>
<path class="st8" d="M-81.7,4.6c-2.5,0-4.2-0.1-5.3-0.3c-1.5-0.4-2.3-1.4-2.3-3.1V-34c-3.1,1.6-8,2.6-14.5,3v3.2h5.9
	c1.8,0,2.7,0.7,2.7,2.2V1.1c0,1.3-0.3,2.2-0.9,2.5c-0.9,0.6-3.2,0.9-7,0.9v3.3h21.3V4.6z"/>
<g>
	<path class="st9" d="M-157.8,124.9c-2,5.6-3.8,11.3-5.6,17c-0.4,1.3-0.8,2.8,0.8,3.6c1.7,0.9,2.8-0.1,3.6-1.5
		c2.2-3.9,4.4-7.9,6.6-11.8c0.7-1.2,1.4-2.4,2-3.4c-2.6-2-4.8-4.3-7.4-6.3C-157.5,123.3-157.5,124-157.8,124.9z"/>
	<path class="st10" d="M-79.6,78.5c-0.2-4.1-2.4-7-6-8.9c-4.6-2.3-9.5-2.5-14.5-2.6c-3.5-0.1-7.1,0-11.1,0c0.6-1.4,1-2.4,1.5-3.4
		c1.8-4,3.6-7.9,4.1-12.3c0.3-2.4-0.3-4.3-2.2-5.6c-3.7-2.7-6.8-3.3-11.4-4.5c-0.8-0.2-6.9-2-10-2.7c0,0-2.1-0.5-3.6-0.9
		c-0.7-0.2-1-0.6-1-1.1c-1.4-0.3-2.7-0.3-4.1-0.3c-0.4,0.4-1,0.6-1.7,0.7c-8,1.8-15.9,3.9-22.7,8.8c-3.4,2.5-4.5,4.8-3.1,8.8
		c1.3,3.7,2.8,7.3,4.2,10.9c0.5,1.4,1.1,2.8,1.7,4.3c-2.7,0.3-5.1,0.6-7.4,0.9c-7,1-13.2,3.6-18.4,8.5c-1.7,1.6-2.4,3.4-2.3,5.7
		c0.2,3,1.7,5.4,3.4,7.6c7.6,10.3,16.4,19.5,25.5,28.6c0.5,0.5,0.8,0.9,1,1.4c2.6,2,4.8,4.4,7.4,6.3c0-0.1,0.1-0.2,0.1-0.2
		c2.5,1.1,4.6,2.3,6.8,2.9c6.5,2,12.9,0.6,19.4-0.3c5.4-0.7,10-2.7,13.8-6.4c0.8-0.7,1.6-1.4,2.3-2.2c4.4-5.2,8.9-10.3,13.1-15.5
		c4.6-5.8,9.8-11.1,12.9-17.9C-80.9,86.9-79.4,82-79.6,78.5z M-143.5,39.9c7.6-2,11.2-0.1,18.3,1.7c3.4,0.8,7.3,2.3,9.5,3
		c1,0.3,2.9,1.5,3.7,2.1c1.8,1.4,1.6,2.5-0.5,3.4c-13.9,5.7-28,6.6-42.5,2c-1.8-0.6-5.6-1.3-7.4-2.3
		C-159.4,46.3-149.8,41.6-143.5,39.9z M-161.3,56c0.2-0.3-1.5-3.6-1.3-3.8c16.5,6,35.1,7.5,51.8,0.5c-0.5,1.4-0.7,2.1-0.9,2.8
		c-0.9,2.6-2,5.1-2.9,7.7c-1.4,4.1-1.3,4.2-5.7,4.5c-10.1,0.7-20.3,1.4-30.4,2c-4.6,0.3-4.7,0.2-6.4-3.9
		C-158.4,62.1-159.9,59.8-161.3,56z M-85.1,86.5c-1.9,3.8-4.3,7.4-6.9,10.8c-5.2,6.7-10.7,13.3-16.2,19.8c-1.3,1.6-2.8,3.1-4.2,4.6
		c-3.9,4-9,5.6-14.4,6.2c-3.9,0.4-7.9,0.8-11.8,0.6c-5.9-0.3-10.5-3.8-14.5-7.5c-10-9.3-19.3-19.3-27.4-30.2c-1-1.4-1.8-2.8-2.7-4.3
		c-1.1-1.9-0.7-3.6,0.9-4.9c3.7-3,7.7-5.2,12.4-6.5c7.5-2,15.2-1.7,22.9-2.2c12.5-0.8,25.1-1.6,37.6-2.3c2.2-0.1,4.3,0,6.5,0
		c0-0.1,7.3,0.2,10.8,0.8C-82.4,73.2-81.6,79.3-85.1,86.5z"/>
	<path class="st9" d="M-133.8,36.4c-0.1-0.7,0.3-1.5,0.5-2.5c0.4-2.1,9.5-39.8,14.2-59.2c0.3-1.1,1.5-2.9-0.3-3.4
		c-2.1-0.6-2.1,1.6-2.4,2.9c-2.2,8.4-2.2,8.4-6.1,23.9c-3,12.1-6,24.3-9,36.4c-0.2,0.7-0.5,1.2-0.9,1.6
		C-136.5,36.1-135.2,36.2-133.8,36.4z"/>
	<path class="st11" d="M-202.2,70.1c14.8-3,20.2-10.8,23.7-21.2c2.3-7,5.8-10.3,14.5-12.5c12.1-3,18.3-2.3,27.2-0.8
		c30.1,5.1,36.3,2.3,4.3-10.8c-0.1-0.1-1.2-0.5-1.4-0.5c-22.6-7.9-27.2-15.7,4.3-15c2.9,0.1,6.3,0.1,8.9,0.1
		c12.1,0.2,12.4-5.8-1.9-11.8c-5.2-2.2-9.3-3.2-13.7-4.6c-25.8-8.3-16.5-11.9,5.4-13.5c6.8-0.5,11.5-4.2,11.5-7.7"/>
	<g>
		<path class="st10" d="M-174.7,102.3c0.8,1.3,2,2.4,3.3,3.4c-3.6-9.4-7.1-18.3-10.4-26.7c-0.6,0.4-1.2,0.8-1.9,1.3
			c2.4,6.4,5,13.3,7.8,20.8C-175.4,101.3-175,101.7-174.7,102.3z"/>
		<path class="st10" d="M-162.5,114.7c-5.3-13.9-10.3-26.7-14.9-38.6c-0.2,0.1-0.4,0.2-0.6,0.3c-0.4,0.2-0.9,0.5-1.3,0.8
			c3.5,9.4,7.5,20.2,12.1,32.2C-165.6,111.2-164.1,113-162.5,114.7z"/>
		<path class="st10" d="M-153.8,123.2c-6.9-17.9-13.1-34.1-18.9-48.8c-0.7,0.2-1.4,0.4-2,0.6c4.6,12.5,10.2,27.3,16.7,44.4
			C-156.7,120.8-155.3,122.1-153.8,123.2z"/>
		<path class="st10" d="M-146.3,128.8c-7.8-20.5-15-38.9-21.4-55.3c-0.7,0.1-1.4,0.2-2.1,0.3c5.3,14.2,11.8,31.5,19.6,52
			C-148.8,126.7-147.5,127.6-146.3,128.8z"/>
		<path class="st10" d="M-164.5,73.1c-0.1,0-0.1,0-0.2,0c5.6,15.1,12.7,33.9,21.2,56.2c1.1,0.6,2.1,0.8,3,0.5
			c-8.1-21.1-15.4-40.1-22-56.9C-163.1,72.9-163.8,73-164.5,73.1z"/>
		<path class="st10" d="M-159.4,72.5c5.7,15.2,12.8,34.2,21.4,56.8c1.1,0.6,2.1,0.8,3,0.5c-8.2-21.4-15.6-40.5-22.2-57.5
			C-158,72.4-158.7,72.4-159.4,72.5z"/>
		<path class="st10" d="M-152.1,71.8c-0.7,0-1.4,0.1-2.1,0.2c5.7,15.3,12.9,34.4,21.6,57.3c1.1,0.6,2.1,0.8,3,0.5
			C-137.9,108.2-145.4,88.9-152.1,71.8z"/>
		<path class="st10" d="M-146.9,71.2c-0.7,0.1-1.4,0.2-2.1,0.3c5.7,15.4,13,34.7,21.8,57.8c1.1,0.6,2.1,0.8,3,0.5
			C-132.6,108-140.2,88.4-146.9,71.2z"/>
		<path class="st10" d="M-121.2,129.6c0.6-0.5,1.1-0.9,1.7-1.4c-8.2-21.5-15.7-40.8-22.3-57.8c-0.7,0.1-1.4,0.2-2.1,0.3
			c5.8,15.5,13.1,35,22,58.6C-121.6,129.4-121.4,129.5-121.2,129.6z"/>
		<path class="st10" d="M-115.3,125c-7.7-20.2-14.8-38.4-21.1-54.5c-0.5,0.2-1,0.2-1.6,0.2c-0.2,0-0.3,0-0.5,0
			c5.5,14.9,12.5,33.6,21,55.9C-116.7,126.1-116,125.6-115.3,125z"/>
		<path class="st10" d="M-111.2,121.7c-7.3-19.1-14-36.4-20.1-51.8c-0.1,0-0.2,0-0.3,0c-0.5,0.2-1.1,0.4-1.7,0.4
			c5.3,14.3,12,32,20,53.1C-112.6,122.8-111.9,122.3-111.2,121.7z"/>
		<path class="st10" d="M-107.1,118.1c-6.8-17.8-13.1-33.9-18.8-48.4c-0.8-0.2-1.4-0.1-2,0.5c5,13.5,11.2,30.1,18.7,49.8
			C-108.5,119.3-107.8,118.7-107.1,118.1z"/>
		<path class="st10" d="M-103.3,114c-6.2-16.2-12-31-17.2-44.3c-0.8-0.2-1.4-0.1-2,0.5c4.7,12.6,10.4,28,17.3,46
			C-104.6,115.4-103.9,114.7-103.3,114z"/>
		<path class="st10" d="M-99.5,109.8c-5.6-14.5-10.8-27.9-15.6-40.1c-0.8-0.2-1.4-0.1-2,0.5c4.3,11.6,9.5,25.6,15.7,41.8
			C-100.8,111.2-100.1,110.5-99.5,109.8z"/>
		<path class="st10" d="M-95.8,105.5c-5-12.9-9.6-24.8-13.9-35.8c-0.8-0.2-1.4-0.1-2,0.5c3.9,10.6,8.6,23.1,14,37.5
			C-97,106.9-96.4,106.2-95.8,105.5z"/>
		<path class="st10" d="M-92,101.3c-4.4-11.3-8.5-21.8-12.3-31.6c-0.8-0.2-1.4-0.1-2,0.5c3.5,9.5,7.7,20.6,12.4,33.2
			C-93.2,102.6-92.6,101.9-92,101.3z"/>
		<path class="st10" d="M-89.2,97.2c0.2-0.3,0.5-0.6,0.7-0.9c-3.7-9.4-7.1-18.3-10.4-26.7c-0.8-0.2-1.4-0.1-2,0.5
			c3.1,8.3,6.6,17.8,10.7,28.5C-89.9,98.2-89.6,97.7-89.2,97.2z"/>
		<path class="st10" d="M-86.2,93.5c0.2-0.4,0.5-0.9,0.8-1.3c0.2-0.2,0.3-0.4,0.5-0.6c-3-7.7-5.8-15-8.6-22c-0.8-0.2-1.4-0.1-2,0.5
			c2.6,7.1,5.6,15,8.9,23.8C-86.4,93.8-86.3,93.7-86.2,93.5z"/>
		<path class="st10" d="M-83.3,87.6c0.2-1.1,0.7-2,1.3-2.5c-2.1-5.3-4.1-10.5-6-15.4c-0.8-0.2-1.4-0.1-2,0.5
			c2,5.4,4.2,11.4,6.6,17.8C-83.4,87.8-83.3,87.7-83.3,87.6z"/>
	</g>
</g>
<g>
	<path class="st12" d="M-186.2,101.6c-0.1-0.5-2-4.8-2.1-4.9c-0.1-0.3-3.6-9.6-3.7-9.8c-0.1-0.5-0.3-0.9-0.6-1.2
		c-0.2-0.2-1.3-2.4-1.7-3.1c0,0-1.2-1.9-1.5-2.3c-0.2-0.3-0.4-0.6-0.6-1c-0.3-0.6-1.4-1.9-1.5-2c-0.2-0.2-0.5-0.4-0.7-0.6
		c-0.4-0.3-0.7-0.7-1.1-1c-0.7-0.5-1.4-0.9-2.1-1.3c-0.5-0.3-2-0.2-2.3-0.2c-1.1,0.1-0.9,2.3-0.9,2.9c0,0.8-2.5,0.1-3.3-0.1
		c-0.7-0.2-0.8-0.1-1.1,0.6c0,0.1-1.6,5.2-1.6,5.3c-0.3,1.1-0.5,2.1-0.8,3.2c-0.1,0.3-0.2,3.1-0.3,3.2c-0.1,0.4-0.2,0.9-0.2,1.3
		c0,0.5-0.4,4-0.4,4.4c0,0.3-0.3,2-0.4,2.2c-0.1,0.6-0.3,1.3-0.4,2c-0.1,0.6-0.2,1.1-0.2,1.7c0,0.9,0.1,1.9,0.1,2.8
		c0,1.1,0,2.3,0.4,3.3c0.1,0.4,0.4,2.4,0.5,3c0,0.3,0.8,3.6,1,4.3c0.2,0.9,0.9,4.2,1,4.8c0.1,0.6,0.2,1.2,0.5,1.8
		c0.1,0.1,0,0.3,0,0.5c-0.1,0.7,0.1,1.4,0.2,2.1c0,0.2,0.2,0.4,0.3,0.5c0.1,0.3,0.4,0.4,0.7,0.4s0.4-0.2,0.5-0.5
		c0-0.2-0.1-0.4-0.2-0.6c-0.1-0.3-0.2-0.6-0.2-0.9c0-0.2,0-0.5,0-0.8c0-0.1,0-0.3,0.1-0.4c0-0.5,0-1,0-1.5c0-1-0.3-1.9-0.6-2.8
		c-0.1-0.3-0.2-0.5-0.3-0.8c-0.5-0.8-0.7-2-0.9-2.6c-0.1-0.5-0.4-1.6-0.6-2.1c-0.2-0.6-0.4-1.8,0.2-1.9c0.8-0.1,1.4-1,1.2-1.8
		c-0.1-0.3-0.1-0.6-0.1-1s0.1-0.8,0.1-1.2c0-0.4-0.1-0.8,0-1.2c0.1-0.3,0.1-0.5-0.2-0.6c-0.1-0.1-0.3-0.1-0.4,0
		c-0.2,0.2-0.3,0.4-0.2,0.7c0.1,0.2,0.1,0.4,0.1,0.6c-0.2,0.7-0.4,1.4-0.6,2.1c-0.5-0.1-1-0.5-1-1.1c0-0.1,0-0.3-0.1-0.4
		c-0.3-0.4-0.2-0.9-0.2-1.4c0-0.4,0.2-0.7,0.6-0.7c0.5,0,0.9-0.1,1.4-0.1c0.4,0,0.5-0.2,0.6-0.6c0.1-0.5,0.2-1.1,0.1-1.6
		c-0.1-0.5,0-1-0.1-1.5c-0.3-1-0.6-1.5-1.5-2.1c-0.4-0.3-0.1-2.4,0.3-4.4c0.4-1.9,0.5-4.1,0.6-4.6c0.1-0.3,2.9,0.1,8.7-0.7
		c0.6-0.1,2.6-1.1,3.1-1.4c0.7-0.5,1.4-1.1,2.1-1.6c0.3-0.2,0.7-0.2,1,0.1c0.3,0.3,1.2,1.1,1.3,1.2c0.5,0.8,1,1.7,1.4,2.5
		c0,0.1,1.4,4.6,1.4,5.1c0,0.3,2.3,6.4,2.7,6.9c0.3,0.4,0.7,0.7,0.9,1.1c0.1,0.2,0.1,0.6,0,0.9c-0.2,0.3-0.6,0.2-0.8,0
		c-0.3-0.2-0.7-0.4-1-0.7c-0.3-0.3-0.6,0-0.8,0.1s-0.3,0.4-0.3,0.6s0.2,0.4,0.3,0.6c0.4,0.7,0.9,1.3,1.4,2c0.2,0.4,0.1,0.7-0.2,0.9
		c-0.3,0.2-0.6,0.3-0.9,0.4c-0.3,0-0.6,0.1-0.7,0.4c-0.2,0.4-0.1,0.7,0.2,1c0.5,0.5,0.9,1,1.4,1.5c0.2,0.3,0.5,0.5,0.8,0.3
		c0.2-0.2,0.5-0.5,0.6-0.7c0-0.8,1.3-3.6,1.4-3.7c0.5-0.7,0.6-1.5,0.8-2.3C-185.6,102.8-186,102.2-186.2,101.6z M-211.7,99.4
		c0.3,0.3,0.5,0.6,0.7,0.9c0.1,0.1,0.1,0.3,0.1,0.3c0,0.6-0.2,0.9-0.5,1s-0.6-0.2-0.7-0.7c-0.1-0.5-0.2-0.9,0-1.4
		C-212.1,99.2-211.9,99.2-211.7,99.4z M-196.8,84c-1,1.1-2.6,2-4.8,2.7c-2.1,0.7-5.1,0.8-6.8,0.7c-0.4,0-1.7,0.2-1.6-0.7
		c0.2-1.4,0.5-3.8,1.3-5.2c0.2-0.4,0.5-1.5,0.6-1.6c0.2-0.4,0.4-0.8,0.5-1.2c0.1-0.4,0.4-0.5,0.8-0.4c0.4,0.1,0.9,0.2,1.3,0.3
		c0.5,0.1,1.3-0.5,1.6-1.1c0.4-0.9,0.3-2.2,1.3-2.3c0.4,0,1.4,0.9,1.6,1.1c1.3,1.2,2.4,2.9,2.6,3.2c1.2,1.6,1.3,3,1.4,3.2
		C-196.9,82.8-196.6,83.9-196.8,84z"/>
	<path class="st12" d="M-191.6,140.2c-0.5-0.8-1.1-1.5-1.2-2.5c-0.1-0.7-1.8-5.9-2.1-6.3c-0.2-0.1-0.4-0.3-0.6,0
		c-0.1,0.3-0.2,0.6-0.2,0.9c0,0.3,0.3,0.7,0.2,1c-0.1,1.1,0.5,2,0.8,3c0.1,0.5,0.4,1.1,0.6,1.6c0.2,0.5,0.4,1,0.6,1.4
		c0.1,0.3,0.2,0.6,0.3,0.9c0.1,0.4-0.1,0.7-0.5,0.6c-0.3,0-0.5-0.2-0.8-0.3c-0.4-0.1-0.7-0.3-1.1-0.5c-0.3-0.1-0.5-0.2-0.8-0.3
		c-0.8-0.5-0.8-1.4-0.7-2.2c0-0.3,0.1-0.6,0.1-1s0-0.7,0-1.1c0-0.5,0-1,0-1.5c0-0.4-0.1-0.9-0.1-1.3c-0.1-0.6-0.1-1.1-0.2-1.7
		c0-0.4-0.2-0.9-0.1-1.3c0.3-0.9,0.2-1.7-0.1-2.5c-0.1-0.2-0.3-0.3-0.4-0.3c-0.1,0-0.4,0.1-0.4,0.2c-0.1,0.3-0.2,0.6-0.2,0.9
		c-0.1,0.4-0.1,0.7-0.2,1.1c0,0.9,0,1.9,0.1,2.8c0.1,0.3,0.1,0.6,0,0.9c0.1,1.3,0.2,2.7,0.2,4c0,0.5-0.7,0.5-0.8,0.2h-0.1
		c-0.2,0-0.3-0.1-0.3-0.2c-0.2,0-0.5-0.1-0.5-0.4c0-2,0.3-4.1,0.3-6.2c0-0.1,0-0.2,0-0.4c0-0.9-0.1-1.7-0.3-2.6
		c-0.1-0.1-0.3-0.1-0.5-0.1c-0.1,0-0.2,0-0.2,0.1c-0.6,2.3-0.6,4.7-0.6,7c0.1,0.1,0.1,0.3,0,0.5c0,0.4,0,0.7,0,1.1
		c0,0.5-0.8,0.5-0.8,0c0-0.1,0-0.2,0-0.3c0,0,0,0,0-0.1c0-0.4,0-0.7,0-1.1c0-1.4-0.3-4.3-0.3-4.4c0-1.2-0.2-2.3-0.4-3.5
		c-0.1,0-0.2,0-0.3,0s-0.1,0-0.2,0c0,0-0.1,0-0.1,0.1c-0.4,0.3-0.5,0.9-0.5,1.4c0,0.4,0,0.8,0.1,1.3c0,0.7,0.1,1.4,0.2,2.1
		c0,0.5,0.1,1.1,0.2,1.6c0.1,0.6,0.1,1.2,0.2,1.8c0,0.3,0.1,0.6,0.1,0.8c0,0.5-0.4,0.8-0.8,0.7c-0.4,0-0.6-0.3-0.6-0.8
		c0-0.2,0.1-0.5,0.1-0.7c0-0.5-0.4-3-0.4-3.1c0-0.6,0.2-3,0.2-3.4c0,0,0,0-0.1,0c0-0.2,0-0.5,0-0.7c0-0.4-0.3-0.6-0.7-0.7
		c-0.2,0-0.5,0.1-0.5,0.3c-0.1,0.2-0.1,0.5,0,0.7c0.3,0.8,0.3,1.5,0.2,2.3c-0.1,0.6-0.1,1.2-0.2,1.8c0,0.4,0,0.8,0,1.1
		c0.1,0.8,0.1,1.7,0.2,2.5c0,0.3,0,0.6-0.1,0.9c-0.1,0.5-0.3,0.9-0.5,1.4c-0.1,0.1-0.4,0.2-0.5,0.2c-0.4-0.2-0.6-0.4-0.6-0.9
		c0-0.6,0-1.2,0-1.8c0-0.1,0.1-0.2,0.1-0.3c0.1-0.3,0.2-0.6,0.2-0.8c0-0.5-0.1-1-0.1-1.5c0-0.6-0.1-0.9-0.7-1.1l0,0
		c-0.4,0.8-0.5,1.7-0.7,2.6l0,0c0.2,0.3-0.1,1.3-0.1,1.5c0,1-0.1,2-0.1,3c0,0.7-0.4,1.1-1.1,1.2c-0.3,0-0.5,0.1-0.8,0.2
		c-0.3-0.1-0.5-0.1-0.8-0.2c-0.1,0-0.2-0.2-0.2-0.4s0-0.4,0.1-0.6c0.3-0.7,0.5-1.5,1-2.1c0.1-0.1,0.2-0.4,0.2-0.6c0-0.1,0-0.2,0-0.3
		c0.3-0.5,0.5-1,0.8-1.6c0.2-1.2,0.4-2.4,0.9-3.4c0-0.2,0-0.4,0.2-0.5c0.1-0.2,0.2-0.5,0.2-0.7c0.1-0.6,0.2-1.2,0.2-1.8
		c0-0.8,0-1.5-0.1-2.3c0-0.1-0.3-0.3-0.4-0.4c-0.1,0.2-0.3,0.3-0.3,0.5c-0.1,0.6-0.1,1.2-0.2,1.8c0,0.5-0.1,0.9-0.2,1.4
		c0,0.6-0.1,1.3-0.5,1.8c-0.1,0.2-0.2,0.4-0.2,0.6c0,0.8-0.4,1.6-0.7,2.3c-0.3,0.6-0.7,1.1-0.8,1.8c-0.1,0.3-0.2,0.7-0.4,1
		c-0.1,0.2-0.2,0.4-0.3,0.6c-0.3,1-0.6,2-0.9,3c-0.2,1,0.5,2.1,1.5,2.3c0.2,0,1.1-0.1,1.2-0.2c0.3-0.3,2.4-0.9,4.9-2.5
		c2.7-1.7,4.2-1.2,5.7-0.3c0.4,0.2,2.8,2,3,2.1s0.4,0.1,0.6,0.2c0.2,0.1,2.2,1.3,2.6,1.4c0.7,0.3-0.1,0,0.6,0.2
		c0.7,0.2,1.2,0.1,1.4-0.6c0.1-0.3,0.2-0.5,0.3-0.7C-191.1,141.1-191.2,140.7-191.6,140.2z"/>
	<path class="st12" d="M-193.3,124.4c0.1,0.3-0.2,3.7-0.5,4.5c-0.2,0.6-0.5,1.2-0.8,1.8c-0.2,0.3-0.5,0.2-0.6,0.1
		c-0.2-0.1-0.3-0.4-0.3-0.6c0-0.3,0.9-8,2.3-9.5c0.3-0.4,1.7-0.4,2-0.9c0.2-0.3-0.6-0.8-0.9-2c-0.3-0.8-0.8-1.8-0.2-1.9
		s0.8,0,0.9,0.6c0,0.3,0.2,1.5,0.5,1.5c0.3,0.9,0.6,1,1.1,0.6c0.2-0.4,0.4-1.1,0.6-0.9c0.2,0.3-0.2,1.7-0.5,2.1
		c-0.1,0.1-0.1,0.3-0.2,0.5c-0.1,0.2-0.1,0.3-0.2,0.5c-0.3,0.7-0.8,0.9-1.5,0.8c-0.1,0-0.3,0.2-0.4,0.2
		C-193.2,122.3-193.1,123.4-193.3,124.4z"/>
	<path class="st12" d="M-188.3,111.9c-0.1,0.7-0.1,1.4-0.1,2v0.1c-0.5,0.7-0.2,1.4-0.1,2.1c0.1,0.4-0.9,2.9-1.2,3s0.2-2.5,0.2-2.8
		c0-0.6-0.4-1.1-0.7-1.6c-0.1-0.2-0.3-0.4-0.5-0.5c-0.9-0.6-1.3-1.4-1.1-2.5c0.1-0.7,0.6-0.7,1.1-0.4c0.7,0.4,1,0.4,1.5-0.2
		c0.2-0.3,0.6-1,0.8-0.7C-188.3,110.6-188.3,111.7-188.3,111.9z"/>
</g>
<path id="path7487" class="st13" d="M-200,81.5c0,1.1-0.9,2-2,2s-2-0.9-2-2s0.9-2,2-2S-200,80.4-200,81.5z"/>
</svg>
