<?xml version="1.0" encoding="utf-8"?>
<!-- Generator: Adobe Illustrator 19.0.0, SVG Export Plug-In . SVG Version: 6.00 Build 0)  -->
<svg version="1.1"
	 id="svg2985" xmlns:dc="http://purl.org/dc/elements/1.1/" xmlns:cc="http://creativecommons.org/ns#" xmlns:rdf="http://www.w3.org/1999/02/22-rdf-syntax-ns#" xmlns:svg="http://www.w3.org/2000/svg"
	 xmlns="http://www.w3.org/2000/svg" xmlns:xlink="http://www.w3.org/1999/xlink" x="0px" y="0px" viewBox="-237 -92 210 255"
	 style="enable-background:new -237 -92 210 255;" xml:space="preserve">
<style type="text/css">
	.st0{enable-background:new    ;}
	.st1{fill:#005F00;}
	.st2{fill:#CDDACD;}
	.st3{fill:#FFFFFF;}
	.st4{fill:url(#rect3008_2_);}
	.st5{filter:url(#filter3970-5);}
	.st6{fill:url(#SVGID_1_);}
	.st7{fill:#038249;}
	.st8{fill:#994913;}
	.st9{fill:#2A3B92;}
	.st10{fill:#BC197A;}
	.st11{fill:#D37F11;}
</style>
<filter  width="1.2171124" height="1.2150326" y="-0.10751629" x="-0.10855621" id="filter3970-5" color-interpolation-filters="sRGB">
	<feGaussianBlur  stdDeviation="0.12800763" id="feGaussianBlur3972-8"></feGaussianBlur>
</filter>
<g id="g4146" transform="translate(39.768324,209.71794)">
</g>
<g id="g4630_1_" transform="matrix(1.0005937,0,0,1,-1.3758072,203.40625)" class="st0">
	<g id="g3062_1_">
		<path id="rect4031_1_" d="M-176.2-295.4l46.1,0.2l68.4-0.2c22.9-0.1,36.1,15.9,36.1,40.4v154.6c0,12.3-14,27.7-21.4,35.7
			s-22.1,24.3-33.6,24.3h-113c-22.9,0-41.3-5.6-41.3-30.2l-0.3-162.3c0-6.4,17.3-24.3,24.8-32.4C-203-273.3-187.6-295.5-176.2-295.4
			L-176.2-295.4z"/>
		<path id="rect3767_1_" class="st1" d="M-167.4-282.7h104.5c13.8,0,24.8,11.1,24.9,24.9l0.9,152.4c0,2-12.6,32-25.8,32h-104.5
			c-13.8,0-24.9-11.1-24.9-24.9v-159.5C-192.3-271.6-181.2-282.7-167.4-282.7L-167.4-282.7z"/>
		<path id="rect3861_1_" class="st2" d="M-182.3-267.7h99.6c13.7,0,24.9,11.2,24.9,24.9v159.5c0,13.8-11.1,24.9-24.9,24.9h-99.6
			c-13.7,0-24.9-11.2-24.9-24.9v-159.5C-207.2-256.6-196.1-267.7-182.3-267.7z"/>
		<path id="rect3765_1_" class="st3" d="M-192.3-252.8h104.5c13.7,0,24.9,11.2,24.9,24.9v149.5c0,13.8-11.1,24.9-24.9,24.9h-104.5
			c-13.7,0-24.9-11.2-24.9-24.9v-149.5C-217.2-241.6-206-252.8-192.3-252.8z"/>
		
			<linearGradient id="rect3008_2_" gradientUnits="userSpaceOnUse" x1="-369.8559" y1="182.6285" x2="-369.8559" y2="144.1098" gradientTransform="matrix(4.9807 0 0 -4.9841 1694.6462 667.4196)">
			<stop  offset="0" style="stop-color:#D0E4CC"/>
			<stop  offset="1" style="stop-color:#FBFFEC"/>
		</linearGradient>
		<path id="rect3008_1_" class="st4" d="M-202.3-242.8h109.5c11,0,19.9,8.9,19.9,19.9v149.5c0,11-8.9,19.9-19.9,19.9h-109.5
			c-11,0-19.9-8.9-19.9-19.9v-149.5C-222.2-233.9-213.3-242.8-202.3-242.8z"/>
		<path id="path3932_1_" class="st3" d="M-42.7-270.2c0,1.5-1.3,2.8-2.8,2.8s-2.8-1.3-2.8-2.8s1.3-2.8,2.8-2.8
			S-42.7-271.8-42.7-270.2z"/>
		<g id="path3936_1_" class="st5">
			
				<linearGradient id="SVGID_1_" gradientUnits="userSpaceOnUse" x1="-360.7442" y1="203.5567" x2="-363.8599" y2="200.0874" gradientTransform="matrix(7.1013 0 0 -6.6887 2518.0134 1087.4099)">
				<stop  offset="0" style="stop-color:#FFFFFF"/>
				<stop  offset="1" style="stop-color:#FFFFFF;stop-opacity:0"/>
			</linearGradient>
			<polygon class="st6" points="-47.8,-271.6 -76.6,-247 -68.4,-241 -43.2,-269.3 			"/>
		</g>
		<path id="path3882_1_" class="st3" d="M-60-248.3c0,4.8-3.9,8.7-8.7,8.7c-4.8,0-8.7-3.9-8.7-8.7c0,0,0,0,0,0
			c0-4.8,3.9-8.7,8.7-8.7C-63.9-257-60-253.1-60-248.3C-60-248.3-60-248.3-60-248.3z"/>
	</g>
</g>
<g>
	<path class="st7" d="M-218.8-13.3c3-0.4,6.8-1.6,12.4-3.9c7-3,7.5-3.1,9.4-3.1c2,0,4.1,1.2,4.1,2.3c0,0.7-0.7,1.1-2.2,1.3
		c-1.9,0-12.1,3.7-14.4,5.2c-2.9,1.7-2.9,1.7-3.9,1.7c-0.9,0-2-0.4-3.7-1.4c-1.3-0.7-1.6-1-1.8-2L-218.8-13.3z M-212.2,1.6
		c2.3-0.5,3-0.8,5.9-2.3c4.9-2.8,6.2-3.4,7.3-3.4c1.2,0,3.3,1.5,3.3,2.5c0,0.8-0.8,1.2-4.2,2.6c-2.2,0.9-5.9,2.9-6.6,3.6l-2.2,1.9
		c-0.2,0.1-0.6,0.4-1.2,0.9l-0.3-0.3c0.2-0.9,0.3-1.1,0.9-1.9c0.2-0.4,0.4-0.6,0.4-0.7c0-0.2-0.2-0.3-0.6-0.5
		c-1.5-0.8-2.6-1.6-2.7-2.1L-212.2,1.6z M-210.9,8.8c0.7,0.5,1.1,0.8,1.3,0.8c0.4,0,0.9-0.3,1.5-0.8c4.7-3.7,7.4-5.3,9.1-5.3
		c2.3,0,5.7,2.7,5.7,4.5c0,0.6-0.4,1.2-2.9,4.4c-0.3,0.5-0.5,0.9-0.5,1l0.2,2.2c0,0.5-1.2,1.2-3,1.9c-4.1,1.4-5.3,2.1-5.3,3l0.1,1.8
		c0,0.5-0.5,1.2-0.8,1.2s-0.9-0.4-1.6-1c-1.6-1.6-1.8-2.1-3.2-8.1c-0.1-0.5-0.4-1.4-0.8-2.4c-0.2-0.7-0.4-1.3-0.4-1.7
		c0-0.2,0.1-0.5,0.3-1.2L-210.9,8.8z M-211-7.4c1.9,0,4.5-1.1,10.1-4.4c0.8-0.6,0.9-0.7,1.8-0.7c1.8,0,3.7,1.3,3.7,2.4
		c0,0.8-0.5,1.2-3,2.2c-1.5,0.5-4.7,2.3-6.2,3.4l-2.6,1.9c-0.2,0.1-0.5,0.3-1.1,0.7l-0.5-0.1c0.5-0.6,0.9-1.2,1-1.4
		c0.5-0.5,0.7-0.9,0.7-1.2c0-0.2-0.2-0.2-0.5-0.3c-2.2-0.5-3.2-1.2-3.6-2.2L-211-7.4z M-208.2-29.2c1.8-0.2,2.7-0.2,3.7-0.2
		c2.3,0,4.6,0.3,5.6,0.9c1.5,0.8,2.7,2.6,2.7,3.9c0,1.2-1.6,2.3-3,2.3h-0.4l-2.3-0.1c-1.4,0-2.7,0.2-6,0.6l-0.1-0.3
		c2-1.2,3.5-2.3,3.5-2.7c0-0.2-0.2-0.4-0.8-0.8c-0.7-0.5-1.2-1.2-2.9-3.3V-29.2z M-207.5,11.5c0,0.2,0.2,0.5,0.3,0.9
		c0.2,0.2,0.3,0.5,0.5,0.9c0.5,2.2,0.7,2.4,1.1,2.4c0.6,0,2.7-1.2,3.7-2.2c0.9-0.9,2-3.1,2-4.4c0-0.5-0.4-0.9-1-0.9
		c-1,0-1,0-2.7,1.3c-0.8,0.5-1,0.6-2.9,1.3C-207.2,11-207.5,11.2-207.5,11.5z M-193.1-11.3c-0.1,0.2-0.1,0.2-0.1,0.3
		c0,0.3,0.2,0.6,0.8,1.3c2.7-2.1,4.4-3,6.7-3.9c6.9-2.7,13.8-4.4,17.2-4.4c2.8,0,6.4,2.6,6.4,4.6c0,0.8-0.2,1.2-2,3.4
		c-0.2,0.2-1.2,1.8-2.7,4.1c-0.7,1.2-1.6,2-2.1,2c-0.2,0-1.1-0.3-2.3-0.8c-0.5-0.2-1.1-0.3-1.7-0.3c-4,0-7.5,0.9-12.2,3
		c-1.1,0.5-2,0.7-2.7,0.7c-0.2,0-0.7-0.1-1.4-0.2c-0.2,1.9-0.5,2.7-1,2.7c-1.6,0-4.3-6.4-4.3-9.8c0-1.1,0.4-2,1.2-2.8L-193.1-11.3z
		 M-192.6,19.9c2.5-0.4,2.8-0.5,5-1.4c-0.9-3.6-1.2-5.9-1.2-9.5c0-5.4,1.1-9,2.7-9l0.3,0.1l0.2,0.3c-0.2,0.3-0.2,0.6-0.2,0.8
		c0,0.2,0,0.3,0.1,0.5c4.4-3.5,7.9-5.2,10.5-5.2c2.7,0,6.7,2.4,6.7,4.1l-0.2,4.5l0.4,12.2c0,1-0.5,2.5-1.7,4.7c3,1.9,4,3.4,4,5.8
		c0,1.6-0.6,3.3-1.2,3.3c-0.5,0-3.7-2.3-4.8-3.4c-0.5-0.5-0.5-0.5-4.2-5.5c-0.9-1.2-0.9-1.2-1.4-1.8c-3.7,4.5-8.9,8.6-10.8,8.6
		c-0.4,0-0.5-0.2-0.5-0.7c0-0.9,0.3-1.3,1.6-2.3c2.3-1.9,4.2-4.3,5.1-6.2c-1.5,0.7-3,1.4-3.4,1.6c-1.9,0.9-3.3,1.6-4,1.9
		c-0.4,0.2-0.8,0.3-1,0.3c-0.9,0-2.1-1.5-2.1-2.7c0-0.2,0.1-0.5,0.2-0.9L-192.6,19.9z M-191.6-24.2c3.2-0.6,4.3-1,8.9-3.1v-3.4
		c0-1.8-0.2-2.4-1-3.3c-0.7-0.6-1.1-1.1-1.2-1.2c0-0.1-0.1-0.2-0.2-0.5l0.2-0.3c1.1-0.5,1.6-0.5,2.3-0.5c3,0,5.8,1.6,5.8,3.4
		c0,0.4-0.1,1.2-0.3,2.2c-0.1,0.5-0.2,1.3-0.3,2.3c1.2-0.3,2.2-0.5,2.6-0.7c1.1-0.3,2-0.5,2.5-0.5c2,0,4.8,1.6,4.8,2.7
		c0,0.9-0.4,0.9-3.4,1.2c-1.1,0.2-3.4,0.6-6.9,1.6c-0.1,1.2-0.2,1.4-0.4,2.5c2.1-1.2,3.1-1.5,4.5-1.5c1.5,0,3.4,1.2,3.4,2.1
		c0,0.7-0.7,1.1-2.5,1.4c-4.1,0.9-6.4,1.7-11.9,4.4c-0.5,0.2-0.9,0.4-1.1,0.4c-0.5,0-2.3-0.5-3.4-0.9c-0.5-0.2-0.9-0.5-1.2-1.3
		l0.1-0.3c2.6-0.8,3.5-1.2,6.9-2.6c0.5-1.2,0.5-1.3,0.5-2.7c-2.1,0.9-3,1.1-3.8,1.1c-1.7,0-3.6-0.7-4.8-1.9L-191.6-24.2z
		 M-187.1-7.7c0.1-0.9-0.7-1.6-1.6-1.6c-1.6,0-2.2,0.5-2.2,1.9c0,1.2,0.3,2.3,1,3.2c0.2,0.2,0.3,0.4,0.3,0.4
		C-188.3-4.1-187.2-5.8-187.1-7.7z M-185.5,10.5c1.2-0.1,2.3-0.2,2.6-0.2c0.2-0.1,1.1-0.3,2.3-0.8c0.8-0.2,1.6-0.4,2.2-0.4
		c1.8,0,3.3,0.9,3.3,1.9c0,0.7-0.6,1.1-2.2,1.4c-0.5,0.1-1.2,0.2-1.9,0.5c-1.8,0.5-3.1,0.8-3.9,0.8c-0.4,0-0.9-0.1-2.4-0.5
		c0.2,2.3,0.2,2.7,0.2,4.5c1-0.4,1.9-0.8,2.2-0.9c2.2-0.9,3.7-1.5,4-1.7l1-0.5c0.3-0.2,0.6-0.4,0.9-0.4c0.2,0,1.5,0.5,2,0.9
		c0.3,0.2,0.5,0.5,0.5,0.9c0,0.6-0.5,1.6-1.9,3.4c1.2,0.2,1.5,0.3,3.2,0.9c0.3-1.5,0.4-2.7,0.4-5.8v-1.9
		c-0.1-11.4-0.4-13.1-2.2-13.1c-1.2,0-1.2,0.1-4.4,2c-0.6,0.4-1.3,0.7-2.1,0.9c-1.4,0.3-2.3,0.5-2.5,0.6s-0.5,0.3-1,0.8
		c-0.1,0.5-0.1,0.7-0.1,1.2c2.7-0.2,3.7-0.3,5.3-0.9c1.1-0.5,1.9-0.8,2.4-0.8c1.2,0,2.7,1.2,2.7,2.1c0,0.7-0.2,0.9-2,1.4
		c-3.5,0.9-3.7,0.9-4.4,0.9c-1.1,0-2.1-0.3-4.1-1.3c-0.1,0.5-0.2,0.8-0.2,0.9l0.2,3.1V10.5z M-173-9.3c-3.3,0-5-0.7-5.6-2.1
		c-0.5-1.1-0.6-1.2-1-1.2c-0.2,0-1.5,0.5-3.7,1.5c0.3,0.8,0.5,1.1,0.5,1.4c0,0.9-0.9,2.6-2.3,4.8c3.9-1.5,9.4-2.7,12.6-2.7
		c1.6,0,1.9-0.2,2.4-1.6L-173-9.3z M-167.7-14.6c0-0.6-0.6-1-1.4-1c-1,0-3.4,0.6-5.9,1.6c0.3,1.2,0.9,1.4,2.7,1.4
		c0.5,0,2.2-0.1,4-0.3C-167.9-13.7-167.7-14.1-167.7-14.6z"/>
</g>
<path class="st8" d="M-91.7-33.6l-21.2,26.1V-3h20.2v4c0,1.4-0.2,2.3-0.7,2.7c-0.6,0.7-2.4,1-5.4,1.1v3.1h17.1V4.8
	c-2.3-0.1-3.8-0.3-4.5-0.4c-1.1-0.4-1.6-1.5-1.6-3.4v-4h7.6v-4.1h-7.6v-26.5H-91.7z M-92.8-7.1h-15.4l15.4-19.4V-7.1z"/>
<path class="st9" d="M-214.1,125.2c-0.3-6.9-0.5-13.8-0.8-20.7c-0.5-11.1-1.1-22.3-1.7-33.4c-0.4-8.4-0.7-16.8-1-25.1
	c0-1.6,0.3-3.3,0.8-4.9c0.6-2,1.5-2.6,3.6-2.3c1.2,0.2,1.7-0.4,2.3-1.3c0.8-1.1,1.8-2.2,3-2.6c5.3-1.9,10.9-2.7,16.5-2.4
	c3.6,0.2,7.3,0.1,10.9,0.4c6.6,0.7,13.2,2.1,19.4,4.8c2.8,1.2,5.7,2.4,8.5,3.8c1.6,0.8,3,0.7,4.3-0.4c4.2-3.6,9-5.9,14-7.8
	c3.1-1.2,6.1-2.6,9.2-3.7c2.6-0.9,5.2-1.5,7.8-2.2c3.1-0.8,6.3-1.5,9.4-2.3c3.4-0.8,6.9-1.2,10.4-0.6c1.9,0.4,3.4,1.4,4.7,3
	c0.4,0.5,1,0.8,1.6,0.9c2,0.3,3.6,1.2,4.4,3.2c0.5,1.1,1.1,1.7,2.3,1.9c0.7,0.1,1.7,0.7,2,1.4c0.7,1.6,1.5,3.4,1.6,5.2
	c0.4,5.4,0.5,10.7,0.7,16.1c0.5,13,1.1,26,1.5,39c0.3,10,0.3,19.9,0.3,29.9c0,1.7,0,3.4-0.4,5.1c-0.2,0.9-0.9,1.8-1.6,2.3
	c-2.5,1.6-5.3,2.3-8.2,2.5c-5.1,0.4-10.2,0.7-15.2,1.1c-4.8,0.4-9.6,0.7-14.4,1.4c-3.2,0.4-6.4,1.4-9.6,2.1
	c-1.8,0.4-3.6,0.7-5.4,1.2s-3.5,1.1-5.3,1.6c-5.2,1.4-10.5,1.1-15.8,0.2c-5.9-1-11.8-2.2-17.7-3c-3.3-0.4-6.7-0.4-10-0.4
	c-7,0-14,0.3-21,0.2c-2.4,0-4.9-1-7.3-1.6c-2-0.5-2.6-2.4-2.8-4.1c-0.4-2.8-0.3-5.7-0.4-8.5C-213.8,125.2-214,125.2-214.1,125.2z
	 M-207.7,88.8L-207.7,88.8c0.5,12.7,1,25.4,1.5,38c0,0.7,0.1,1.3,0.2,2c0.2,1.9,1.4,2.9,2.9,3.2c1.7,0.3,3.3,0.5,5,0.6
	c3.8,0.1,7.5,0.1,11.3,0.3c7.6,0.4,15.1,1.3,22.5,3.2c4.8,1.2,9.6,2.6,14.5,4c1.8,0.5,2.3,0.2,2.7-1.7c0.1-0.6,0.1-1.3,0.1-2
	c-0.4-11.2-0.7-22.4-1.1-33.6c-0.1-3.4-0.4-6.7-0.6-10.1c-0.3-7.4-0.3-14.9-0.7-22.3c-0.4-7.9-1.2-15.8-1.8-23.7
	c-0.1-1.1-0.5-1.8-1.5-2.2c-4-1.7-7.9-3.5-11.9-5.1c-2.2-0.9-4.5-1.8-6.9-2.3c-3.4-0.7-6.8-1.2-10.2-1.5c-3.8-0.3-7.6-0.4-11.3-0.5
	c-4.5-0.1-8.8,0.5-13,2.1c-2.6,0.9-3.7,1.8-3.5,5.2c0.1,2.8,0.2,5.6,0.3,8.3C-208.7,63.3-208.2,76-207.7,88.8z M-93.7,37.3
	L-93.7,37.3c-0.1-2.1-0.1-4.2-0.2-6.2c-0.2-3-1.5-4.3-4.3-4.4c-1.1,0-2.3,0-3.4,0c-5.3,0-10.4,1.5-15.5,3.1
	c-6.2,2-12.3,4.2-18.3,6.7c-3.5,1.4-6.9,3.4-10.1,5.4c-1.8,1.1-3.7,2.5-3.1,5.5c0.4,2,0.5,4,0.6,6c0.6,14,1.3,27.9,1.8,41.9
	c0.3,9.4,0.4,18.8,0.7,28.2c0.1,3,0.5,5.9,0.6,8.9c0.1,1.8-0.2,3.6-0.1,5.4c0.1,2.2,0.7,2.5,2.4,1.3c5.4-3.7,10.4-8.1,16.5-10.5
	c3.4-1.3,6.8-2.6,10.3-3.7c1.7-0.6,3.4-1,5.1-1.2c3.3-0.5,6.6-1,9.9-1.2c2.6-0.2,5.2,0,7.9,0c1.4,0,2.4-0.4,2.2-2.4
	c-0.2-1.1-0.1-2.2-0.1-3.3c-0.1-6.3-0.2-12.7-0.4-19c-0.2-6.3-0.5-12.6-0.7-18.8c-0.4-9.4-0.7-18.7-1.1-28.1
	C-93.4,46.2-93.6,41.7-93.7,37.3z M-130.4,133.1c0.1,0.1,0.1,0.3,0.2,0.4c0.4-0.1,0.9,0,1.3-0.2c2.4-0.8,4.7-1.8,7.2-2.4
	c6.1-1.6,12.3-2.8,18.7-3c4.7-0.2,9.4-0.8,14.1-1.3c2.5-0.3,3.8-1.6,3.9-3.9c0.1-1.4,0.1-2.9,0-4.4c-0.2-7.6-0.4-15.3-0.7-22.9
	c-0.6-15.7-1.2-31.4-1.9-47.1c-0.2-4.7-0.4-9.3-0.8-14c-0.1-0.9-0.5-2-1-2.7c-0.3-0.5-1.2-0.7-1.8-1c-0.3,0.7-0.7,1.3-0.7,2
	c0.1,5.1,0.3,10.1,0.5,15.1c0.4,9.7,0.9,19.4,1.3,29.1c0.1,3.4,0.3,6.8,0.4,10.2c0.1,4.5,0,9.1,0.1,13.6c0.2,6.8,0.4,13.7,0.6,20.5
	c0.1,2.2-1.1,3.5-3.1,3.4c-2.8-0.1-5.6-0.4-8.4-0.3c-1.8,0-3.6,0.5-5.5,0.8c-2,0.3-4,0.6-6,0.9c-5.7,1.1-10.9,3.4-16.2,5.8
	C-129,132.3-129.7,132.7-130.4,133.1z M-168.4,137.7c0-0.1,0-0.2,0-0.3c-0.7-0.2-1.4-0.4-2.2-0.5c-3.2-0.4-6.5-0.9-9.7-1.2
	c-4.1-0.3-8.2-0.5-12.3-0.6c-3.1-0.1-6.2-0.1-9.2-0.3c-1.2-0.1-2.6-0.5-3.6-1.1c-2.6-1.7-3-4.5-3.1-7.5c-0.2-5.6-0.4-11.2-0.6-16.8
	c-0.4-10.1-0.8-20.2-1.3-30.2c-0.5-11.7-1-23.4-1.5-35.1c0-0.6,0.1-1.2-0.2-1.6c-0.4-0.6-0.9-1.2-1.5-1.4c-0.4-0.1-1.1,0.5-1.4,1
	c-0.3,0.6-0.4,1.5-0.4,2.2c0.3,7.2,0.6,14.4,0.8,21.5c0.3,8.2,0.5,16.4,0.9,24.6c0.3,8.5,0.7,16.9,1.2,25.4c0.3,5.7,1,11.4,1.5,17.1
	c0.1,1.6,0.9,2.8,2.2,3.1c2.4,0.6,4.8,1.1,7.3,1.2c3.5,0.2,7.1,0,10.6,0c5.6,0,11.3,0,16.9,0C-172.2,137.3-170.3,137.5-168.4,137.7z
	 M-135.8,138.7c0.1,0.2,0.1,0.5,0.2,0.7c1-0.3,1.9-0.8,2.9-1c3.4-0.8,6.9-1.6,10.3-2.4c6.7-1.6,13.6-1.9,20.5-2.4
	c5.9-0.4,11.9-1.1,17.8-1.9c2.5-0.4,3.7-2.1,3.7-4.4c0-5,0.2-9.9,0.1-14.9c-0.2-8.9-0.6-17.7-0.9-26.6c-0.3-8.6-0.7-17.2-1.1-25.7
	c-0.3-7.1-0.5-14.1-0.8-21.2c0-0.8-0.3-1.8-0.8-2.5c-0.3-0.4-1.2-0.6-1.6-0.4c-0.4,0.2-0.5,1.1-0.6,1.6c0,0.8,0.3,1.5,0.3,2.3
	c0.2,5.2,0.5,10.3,0.6,15.5c0.6,19.3,1.2,38.7,1.8,58c0.1,3.4,0.2,6.7,0.2,10.1c0.1,2.9-1.4,5-4,5.4c-4.4,0.6-8.8,1-13.2,1.5
	c-5.2,0.6-10.4,1.2-15.6,1.9c-4.8,0.6-9.5,2.2-14.1,3.9C-132,137-133.9,137.9-135.8,138.7z"/>
<path class="st10" d="M-172.6,68.4c0.2,5.7,0.5,10,0.5,14.3c0.1,6.5,0.1,13,0.2,19.5c0,6.3,0,12.6-0.1,18.8c0,1.7-0.2,3.4-0.3,5
	c0,0.3-0.1,0.7-0.3,1c-0.3,0.5-0.8,0.9-1.2,1.4c-0.2-0.6-0.6-1.2-0.6-1.7c0-1.9,0.1-3.8,0.1-5.7c0.1-8.6,0.3-17.3,0.2-25.9
	c0-6.1-0.2-12.3-0.6-18.4c-0.4-5.9-1.1-11.7-1.6-17.6c-0.4-3.6-0.8-7.1-1.2-10.7c0-0.4-0.1-0.8,0-1.2c0.2-0.5,0.5-0.8,0.8-1.3
	c0.4,0.3,1,0.6,1.1,1c0.4,1.6,0.8,3.1,1,4.7C-173.8,57.6-173.1,63.7-172.6,68.4z"/>
<path class="st11" d="M-160.9,69.4c0.3,6.3,0.5,10.6,0.6,14.9c0.1,3.3,0.1,6.7,0.1,10c0,3.9,0.1,7.7,0.1,11.6c0,2.5,0,4.9-0.1,7.4
	c-0.1,4.6-0.2,9.2-0.4,13.8c0,0.9-0.5,1.8-0.8,2.7c-0.1,0.2-0.5,0.5-0.7,0.4s-0.4-0.4-0.5-0.7c-0.1-0.4-0.1-0.9,0-1.3
	c0.1-6.7,0.3-13.4,0.4-20.1c0.1-4.3,0.2-8.6,0.1-12.9c-0.1-5.8-0.3-11.6-0.6-17.4c-0.2-4.6-0.6-9.2-1-13.7
	c-0.5-4.6-1.2-9.1-1.8-13.6c-0.1-0.9-0.5-2.2,0.8-2.5c0.3-0.1,1.2,1.3,1.3,2.1C-162.4,57-161.5,64.2-160.9,69.4z"/>
<path class="st11" d="M-186.9,50.4c0.5,3.9,1.1,7.9,1.5,11.8c0.4,4.3,0.7,8.7,1,13c0.3,4,0.5,8,0.6,12.1c0.2,3.6,0.3,7.3,0.3,10.9
	c0,6.7-0.1,13.3-0.2,20c0,2.2-0.3,4.4-0.6,6.5c-0.1,0.6-0.6,1.1-1,1.7c-0.2-0.6-0.6-1.3-0.6-1.9c0.1-4.7,0.4-9.4,0.5-14.1
	c0.1-5.7,0-11.4-0.1-17.2c-0.1-6.1-0.3-12.2-0.7-18.3c-0.4-5.9-1-11.7-1.6-17.5c-0.4-3.7-0.8-7.3-1.2-11c0-0.3-0.1-0.6,0-0.8
	c0.2-0.5,0.5-0.9,0.7-1.4c0.3,0.4,0.8,0.8,0.9,1.3c0.3,1.6,0.5,3.2,0.7,4.8C-186.8,50.4-186.9,50.4-186.9,50.4z"/>
<path class="st10" d="M-195.4,123.6c-0.2-0.9-0.5-1.8-0.5-2.6c0-7.9,0.1-15.8,0-23.7c-0.1-5.2-0.4-10.4-0.7-15.6
	c-0.2-4.1-0.2-8.3-0.5-12.4c-0.5-7.1-1.3-14.1-1.9-21.2c-0.1-1.5-0.2-3-0.1-4.5c0-0.4,0.4-0.8,0.7-1.2c0.3,0.4,0.7,0.7,0.8,1.1
	c0.5,3.7,0.9,7.3,1.3,11c0.5,5.4,1,10.7,1.4,16.1c0.3,3.8,0.5,7.6,0.6,11.4c0.2,6.4,0.5,12.9,0.5,19.3c0.1,6.4-0.1,12.9-0.2,19.3
	c0,1-0.4,2-0.6,3C-194.9,123.6-195.2,123.6-195.4,123.6z"/>
<path class="st11" d="M-125.8,98.5c-0.3-2.6-0.5-5.1-0.7-7.7c-0.2-3.4-0.3-6.8-0.4-10.2c-0.1-2.5-0.4-4.9-0.5-7.4
	c-0.1-5-0.3-10.1-0.2-15.1c0.1-4,0.4-8,0.7-12c0-0.7,0.2-1.5,0.5-2.1c0.2-0.4,0.7-0.8,1-0.7c0.3,0.1,0.7,0.7,0.8,1.1
	c0.1,1.1,0.1,2.1,0.1,3.2c-0.3,6.3-0.7,12.5-0.8,18.8c-0.1,4.2,0.3,8.4,0.5,12.6c0.2,4.9,0.4,9.7,0.8,14.6c0.3,4.6,0.9,9.3,1.3,13.9
	c0.3,3.1,0.7,6.1,1,9.2c0,0.4-0.3,0.9-0.4,1.3c-0.4-0.3-1-0.4-1.2-0.8c-0.4-0.8-0.6-1.7-0.7-2.5c-0.3-2.3-0.6-4.5-0.9-6.8
	C-124.9,107.7-125.5,101.6-125.8,98.5z"/>
<path class="st10" d="M-136.8,74.9c0.2,3.9,0.3,7.8,0.5,11.7c0.2,4.2,0.4,8.4,0.8,12.6c0.5,5.3,1.1,10.6,1.6,15.9
	c0.2,1.7,0.5,3.4,0.5,5.2c0,0.6-0.4,1.2-0.5,1.9c-0.5-0.5-1.3-1-1.4-1.6c-0.5-2.5-0.8-5-1.1-7.5c-0.3-3.2-0.5-6.4-0.8-9.5
	s-0.6-6.1-0.9-9.2c-0.3-4.1-0.6-8.1-0.8-12.2c-0.2-6.7-0.4-13.3-0.3-20c0-4,0.4-7.9,0.7-11.9c0.1-0.8,0.2-1.6,0.5-2.3
	c0.1-0.3,0.6-0.7,0.9-0.7s0.7,0.5,0.7,0.9c0.1,0.6,0,1.2,0,1.8c-0.3,5.3-0.7,10.7-0.8,16C-137.2,69.1-136.9,72-136.8,74.9
	C-136.8,75-136.8,74.9-136.8,74.9z"/>
<path class="st11" d="M-101.6,109c-0.3-0.8-0.7-1.6-0.8-2.4c-0.6-7.3-1.3-14.5-1.8-21.8c-0.4-4.9-0.7-9.7-0.8-14.6
	c-0.2-5.9-0.1-11.8-0.1-17.6c0-4.2,0.1-8.5,0.2-12.7c0-1.1,0.1-2.1,0.3-3.2c0.1-0.5,0.5-0.9,0.8-1.4c0.2,0.5,0.7,1,0.7,1.5
	c0,2.5-0.1,5-0.1,7.5c0,4,0,8,0.1,12c0.1,5.4,0.1,10.9,0.3,16.3c0.1,2.3,0.3,4.6,0.4,6.9c0.2,4.2,0.3,8.4,0.6,12.6
	c0.3,4.6,0.9,9.3,1.3,13.9c0.1,1-0.1,2-0.2,3C-101.1,109-101.4,109-101.6,109z"/>
<path class="st10" d="M-113.2,42.2c-0.2,6.6-0.6,13.2-0.7,19.8c-0.1,4.1,0.2,8.3,0.4,12.4c0.1,3,0.2,6,0.4,9c0.1,2.5,0.3,5,0.5,7.5
	c0.2,2.8,0.3,5.6,0.6,8.4c0.5,4.1,1,8.2,1.6,12.3c0,0.3,0.2,0.6,0.1,0.8c-0.2,0.4-0.4,0.8-0.6,1.2c-0.3-0.3-0.8-0.5-0.8-0.8
	c-0.4-1.9-1-3.8-1.2-5.7c-0.8-7.5-1.5-14.9-2.1-22.4c-0.2-2.7-0.2-5.5-0.3-8.2c-0.2-4.9-0.5-9.7-0.4-14.6c0-4.5,0.5-9,0.7-13.4
	c0.1-2.4,0.2-4.8,0.3-7.2c0-0.4,0-0.8,0.1-1.2c0.2-0.3,0.5-0.6,0.8-0.9c0.3,0.3,0.7,0.6,0.8,0.9c0.1,0.6,0.1,1.3,0.1,2
	C-113.1,42.2-113.1,42.2-113.2,42.2z"/>
</svg>
