<?xml version="1.0" encoding="utf-8"?>
<!-- Generator: Adobe Illustrator 19.0.0, SVG Export Plug-In . SVG Version: 6.00 Build 0)  -->
<svg version="1.1"
	 id="svg2985" xmlns:dc="http://purl.org/dc/elements/1.1/" xmlns:cc="http://creativecommons.org/ns#" xmlns:rdf="http://www.w3.org/1999/02/22-rdf-syntax-ns#" xmlns:svg="http://www.w3.org/2000/svg"
	 xmlns="http://www.w3.org/2000/svg" xmlns:xlink="http://www.w3.org/1999/xlink" x="0px" y="0px" viewBox="-237 -92 210 255"
	 style="enable-background:new -237 -92 210 255;" xml:space="preserve">
<style type="text/css">
	.st0{enable-background:new    ;}
	.st1{fill:#005F00;}
	.st2{fill:#CDDACD;}
	.st3{fill:#FFFFFF;}
	.st4{fill:url(#rect3008_2_);}
	.st5{filter:url(#filter3970-5);}
	.st6{fill:url(#SVGID_1_);}
	.st7{fill:#038249;}
	.st8{fill:#994913;}
	.st9{fill:#BF3718;}
	.st10{fill:#2A3B92;stroke:#2A3B92;stroke-width:1.5;stroke-linecap:round;stroke-miterlimit:10;}
</style>
<filter  width="1.2171124" height="1.2150326" y="-0.10751629" x="-0.10855621" id="filter3970-5" color-interpolation-filters="sRGB">
	<feGaussianBlur  stdDeviation="0.12800763" id="feGaussianBlur3972-8"></feGaussianBlur>
</filter>
<g id="g4146" transform="translate(39.768324,209.71794)">
</g>
<g id="g4630_1_" transform="matrix(1.0005937,0,0,1,-1.3758072,203.40625)" class="st0">
	<g id="g3062_1_">
		<path id="rect4031_1_" d="M-176.2-295.4l46.1,0.2l68.4-0.2c22.9-0.1,36.1,15.9,36.1,40.4v154.6c0,12.3-14,27.7-21.4,35.7
			s-22.1,24.3-33.6,24.3h-113c-22.9,0-41.3-5.6-41.3-30.2l-0.3-162.3c0-6.4,17.3-24.3,24.8-32.4C-203-273.3-187.6-295.5-176.2-295.4
			L-176.2-295.4z"/>
		<path id="rect3767_1_" class="st1" d="M-167.4-282.7h104.5c13.8,0,24.8,11.1,24.9,24.9l0.9,152.4c0,2-12.6,32-25.8,32h-104.5
			c-13.8,0-24.9-11.1-24.9-24.9v-159.5C-192.3-271.6-181.2-282.7-167.4-282.7L-167.4-282.7z"/>
		<path id="rect3861_1_" class="st2" d="M-182.3-267.7h99.6c13.7,0,24.9,11.2,24.9,24.9v159.5c0,13.8-11.1,24.9-24.9,24.9h-99.6
			c-13.7,0-24.9-11.2-24.9-24.9v-159.5C-207.2-256.6-196.1-267.7-182.3-267.7z"/>
		<path id="rect3765_1_" class="st3" d="M-192.3-252.8h104.5c13.7,0,24.9,11.2,24.9,24.9v149.5c0,13.8-11.1,24.9-24.9,24.9h-104.5
			c-13.7,0-24.9-11.2-24.9-24.9v-149.5C-217.2-241.6-206-252.8-192.3-252.8z"/>
		
			<linearGradient id="rect3008_2_" gradientUnits="userSpaceOnUse" x1="-369.8559" y1="182.6285" x2="-369.8559" y2="144.1098" gradientTransform="matrix(4.9807 0 0 -4.9841 1694.6462 667.4196)">
			<stop  offset="0" style="stop-color:#D0E4CC"/>
			<stop  offset="1" style="stop-color:#FBFFEC"/>
		</linearGradient>
		<path id="rect3008_1_" class="st4" d="M-202.3-242.8h109.5c11,0,19.9,8.9,19.9,19.9v149.5c0,11-8.9,19.9-19.9,19.9h-109.5
			c-11,0-19.9-8.9-19.9-19.9v-149.5C-222.2-233.9-213.3-242.8-202.3-242.8z"/>
		<path id="path3932_1_" class="st3" d="M-42.7-270.2c0,1.5-1.3,2.8-2.8,2.8s-2.8-1.3-2.8-2.8s1.3-2.8,2.8-2.8
			S-42.7-271.8-42.7-270.2z"/>
		<g id="path3936_1_" class="st5">
			
				<linearGradient id="SVGID_1_" gradientUnits="userSpaceOnUse" x1="-360.7442" y1="203.5567" x2="-363.8599" y2="200.0874" gradientTransform="matrix(7.1013 0 0 -6.6887 2518.0134 1087.4099)">
				<stop  offset="0" style="stop-color:#FFFFFF"/>
				<stop  offset="1" style="stop-color:#FFFFFF;stop-opacity:0"/>
			</linearGradient>
			<polygon class="st6" points="-47.8,-271.6 -76.6,-247 -68.4,-241 -43.2,-269.3 			"/>
		</g>
		<path id="path3882_1_" class="st3" d="M-60-248.3c0,4.8-3.9,8.7-8.7,8.7c-4.8,0-8.7-3.9-8.7-8.7c0,0,0,0,0,0
			c0-4.8,3.9-8.7,8.7-8.7C-63.9-257-60-253.1-60-248.3C-60-248.3-60-248.3-60-248.3z"/>
	</g>
</g>
<g>
	<path class="st7" d="M-221.3-9.1h1.7c4,0,7.1-1.3,15.4-6.6c1.2-6.4,1.5-8.3,1.5-10.4c0-1.7-0.1-2-1.2-4c-0.7-1.1-0.7-1.1-1.1-2
		v-0.2c0.5-0.2,0.9-0.2,1.1-0.2c3,0,7.7,3.9,7.7,6.5c0,0.4-0.2,1-0.4,1.7c-0.4,1.3-0.6,2.3-0.8,2.7c-0.1,0.3-0.3,1.2-0.5,2.3
		c1-0.2,2-0.2,2.7-0.2c1.8,0,3,0.9,3,2.2c0,1.4-1.6,2.8-7.6,6.4c0.8,3.4,0.9,4.1,0.9,5.5c0,1.6-0.7,4-1.7,5.5
		c-0.3,0.5-0.5,0.9-0.5,1.2l0.1,0.2l1.3-0.9c0.9-0.7,1.8-1.3,2.7-2c0.2-0.1,1.2-1.1,2.2-2h0.2c-1.5,3.6-3,6.2-5.5,8.9
		c-2.9,3.2-3.1,3.7-3.1,7.3c0,3.4,0.1,4.6,0.5,9.3c0.2,1.9,0.3,3.8,0.3,5.3c0,2-0.5,3.8-1.1,3.8c-0.4,0-0.9-0.5-1.5-1.4
		c-1.6-2.7-2.4-5.1-2.4-8c0-1.1,0.1-3.7,0.2-7.3c0-0.6,0-1.5,0.1-2.6c-5.7,5.4-6.9,6.4-7.8,6.4c-1.5,0-1.9-1.4-1.9-6.5
		c0-1.2,0.2-1.5,1.3-1.8c4.5-2.3,9-10,10.3-17.6c-1.2,0.7-2.2,1.3-2.5,1.6c-0.2,0.2-1.2,0.8-2.6,1.8c-1.4,1.1-2.9,1.7-3.8,1.7
		c-1.4,0-3.8-1.4-6.2-3.5c-1.2-1.2-1.5-1.4-1.6-2.7L-221.3-9.1z M-193.2,18.9v0.6c0,0.9,0.5,1.4,1.4,1.4c0.5,0,1.3-0.2,2-0.5
		c3.1-1.2,3.1-1.2,4.4-1.2h2.4l4.4-0.1l3.9,0.2c2,0,2,0,8.5-1.9c0.6-0.2,1.3-0.3,2-0.3c1.8,0,4.1,0.9,6,2.4c1.1,0.9,1.4,1.6,1.4,2.8
		c0,1.4-0.7,2.3-1.8,2.3c-0.7,0-0.7,0-4.8-1.6c-7.2-1.9-7.2-1.9-8-1.9c-1.1,0-1.1,0-5.5,2.2c-0.6,0.3-1.3,0.5-2,0.5
		c-1.1,0-1.1,0-4.3-1.7c-0.5-0.3-1.2-0.5-1.8-0.5c-0.9,0-1.8,0.5-3.4,1.8c-2.4,2-4.2,2.8-5.7,2.8c-1.7,0-3.4-1.9-3.4-3.7
		s1.2-3,4.3-4L-193.2,18.9z M-184.9-30c0.9-0.3,1.6-0.5,2-0.5c0.9,0,3,0.9,3.8,1.6c0.6,0.6,1,1.8,1,3c0,1.8-0.5,3.1-2.5,5.5
		c-2.9,3.6-3.6,4.4-6.1,7.9c1.4,2.3,1.8,3.6,1.8,5.8c0,0.8-0.1,1.7-0.2,2.7c-0.3,3.3-0.5,5.4-0.5,5.6l0.1,5.5
		c-0.2,8.7-0.2,9-0.9,9.8c-0.2,0.4-0.5,0.5-0.8,0.5c-1.1,0-3.1-4.5-3.1-6.9c0-0.5,0.3-2.4,0.8-5c0.3-1.6,0.9-9.5,0.9-12.2
		c0-1.5-0.3-2.6-0.8-2.6c-0.3,0-0.3,0-2,2.3c-0.3,0.4-0.8,0.6-1.2,0.6c-0.5,0-0.9-0.4-0.9-0.9c0-0.9,0.6-3.4,1.4-5.3
		c0.4-0.8,0.6-1.2,2-2.9c1.7-2,6.2-10.1,6.2-11.1c0,0-0.4-1.2-1.1-3.5L-184.9-30z M-169.6,1.6c1.2,0,2,0.9,2,2.2
		c0,0.9-0.5,1.7-1.4,2.3c-3.1,2.3-3.1,2.3-4.4,3.7c1.5-0.5,2.3-0.7,3-0.7c2,0,5.3,2.6,5.3,4.1c0,0.9-0.9,1.2-3.1,1.2
		c-5.6,0.2-6.3,0.3-10.1,1.8c-1.2,0.5-2.4,0.7-3.4,0.7c-1.4,0-2.3-0.6-2.3-1.6c0-1,0.4-2,1.2-3.1c0.4-0.5,0.4-0.5,2.4-1.4
		c1.2-0.5,3.4-2.2,3.4-2.7c0-0.2-0.2-0.2-0.5-0.2s-0.2,0-1.9,0.7c-0.5,0.2-1,0.3-1.5,0.3c-0.5,0-1-0.4-1-1c0-1.2,0.6-2.8,1.3-3.6
		c0.4-0.4,0.4-0.4,2.6-1.2c0.5-0.2,1.6-1.2,3-2.9c-1.2,0.2-2.3,0.4-2.7,0.5c-1.5,0.5-2.7,0.8-3,0.8c-0.8,0-1.3-0.6-1.3-1.5
		c0-2.2,0.9-3.7,2.4-4.4c2.3-0.9,2.6-1.2,4.4-2.7c-5.4-0.3-7.6-1.2-8.7-3.5l0.2-0.4c3.4,0,5-0.5,7.4-2.9c1.9-1.7,3.4-4,3.4-4.9
		c0-0.2,0-0.2-1.4-2.2c-0.5-0.7-1.3-2.5-1.3-3c0-0.2,0.1-0.3,0.2-0.6h0.3c0.9,0.5,1.4,0.6,2.8,0.9c2.4,0.4,3.3,0.6,4,1.2
		c0.9,0.7,1.6,2.1,1.6,3c0,0.9-0.8,1.8-3,3.3c-1.7,1.1-2.5,1.8-2.5,2.1c0,0.1,0.1,0.1,0.2,0.1c0.4,0,2-0.5,3.3-1
		c0.7-0.3,1.3-0.5,1.7-0.5c1.2,0,3,1.7,3,3c0,0.8,0,0.8-3.6,2.9c-3.5,2.8-3.5,2.8-3.5,3.1c0,0.4,0,0.4,2.4,0.9
		c1.2,0.3,2.2,1.3,2.2,2.3c0,0.9-0.2,1-3.1,2.9c-1.5,1-2.3,1.7-2.3,2l1.2,0.1L-169.6,1.6z"/>
</g>
<path class="st8" d="M-94.8-12l-2,1.6c-6.7,5.1-10.6,10.2-11.9,15.3v2.5h27.9l1.3-12.1h-3.3c-0.8,5-2.7,7.5-5.7,7.5h-15.1
	c1.2-3.9,4.3-7.3,9.1-10.1l2.4-1.3c4.2-2.3,7.1-4.3,8.7-5.9c2-2,3-4.7,3-7.9c0-4.2-1.9-7.5-5.6-9.7c-2.4-1.2-5.2-1.9-8.3-1.9
	c-4.2,0-7.7,1.2-10.2,3.6c-2.1,2.1-3.2,4.4-3.2,7.1c0,3.2,1.4,4.8,4.3,4.8c2.5,0,3.7-1.2,3.7-3.5c0-2.2-1-3.4-2.9-3.6
	c1.2-3.1,3.8-4.6,7.9-4.6c5.3,0,7.9,2.5,7.9,7.4C-86.7-19.7-89.4-16.1-94.8-12z"/>
<path class="st9" d="M-80.3,72.5c0-0.1,0-0.2,0-0.3c-0.9-3.1-1.8-6.2-2.8-9.2c-1.3-4.1-4.7-6.2-8.2-8.1c-2.4-1.3-4.9-1.5-7.5-1.7
	c-2.8-0.3-5.7-0.7-8.5-0.5c-3.9,0.3-7.9,0.7-11.6,1.8c-2.4,0.6-8.8,5.5-10.4,7.5c-0.2,0.3-1.1,3.7-1.2,4.1
	c-0.5,3.5-0.2,6.8,0.7,10.2c0.4,1.5,0.2,3.4-0.2,5c-0.9,3.8-2,7.5-0.9,11.5c0.5,1.9,0.3,3.9,0.3,5.9c-1.5-0.6-2.9-1.3-4.1-2.2
	c-0.1,0.2-0.2,0.4-0.3,0.6c-0.1,0.6-0.3,1.2-0.7,1.7c1.3,1,2.8,1.9,4.2,2.8c2,1.4,6.2,2.8,6.7,1.7c0.3-1.5-0.4-2.7-2.5-3.6
	c-1.2-0.5-1.3-1.3-1.4-2.3c-0.1-1.8-0.3-3.6-0.5-5.4c-0.1-1-0.4-2-0.2-2.9c0.6-2.7,1.4-5.4,2-8c0.2-0.7,0-1.5,0-2.2
	c1,0.7,2,1.3,2.7,2c0.4,0.4,0.7,1.3,0.7,1.9c-0.2,3-0.5,5.9-0.8,8.9c0,0.4,0.3,0.9,0.4,1.3c0.2,0,0.4,0,0.7,0c0.3-1.6,0.8-3.3,1-4.9
	c0.3-1.7,0.4-3.3,0.6-5c0-0.2,0.4-0.6,0.7-0.6c1.3-0.2,2.6-0.4,3.9-0.6c-0.1,0.8-0.3,1.8-0.3,2.8c0,3.8,0.1,7.5,0,11.3
	c0,1-0.4,2.1-0.7,3.1c-0.2,0.8-0.5,1.6,0.5,2.1c0.9,0.1,2.2-4,2.4-6.2c0.1-1.7-0.4-3.4-0.4-5.1s0.2-3.4,0.4-5.1
	c0.1-0.5,0.4-1,0.6-1.5c0.1-0.1,0.2-0.2,0.3-0.3c0.6,2.2,1.9,0.8,2.8,0.9c-0.1,1.4-0.2,2.8-0.2,4.1c-0.1,2.5-0.1,5-0.5,7.5
	c-0.4,2.4-1.2,6.8,0.4,7.4c0.9,0.2,0.2-3,0.5-4.3c1.1-4.5,1.5-9,1.7-13.6c0-0.3-0.1-0.7,0.1-0.9c1.3-1.2,1-2.7,1.1-4.2
	c0.1-0.7,0.3-1.3,0.4-2.3c1.5,1.9,2.9,3.4,4.1,5.1c0.4,0.5,0.7,1.2,0.6,1.7c-0.3,2.7-1,5.3-1.2,7.9c-0.3,4.2-2.2,7.9-2.9,11.9
	c-0.5,2.9-0.6,5.8-0.6,8.7c0,1.5,0.4,2.9,0.5,4.4c0.3,3.2,0.6,6.3,0.9,9.5c0.4,4.1,0.8,8.3,1.2,12.4c0,0.3-0.1,0.7-0.2,0.9
	c-0.9,0.9-1.9,1.8-2.8,2.6c-1-0.8-1.9-1.5-2.8-2.2c-0.6-0.5-1.2-0.6-2.1-0.2c-0.9,0.5-2,0.6-3.1,0.6c-1.3,0-2.5-0.2-3.8-0.5
	c-1.4-0.4-3.1,0.3-4.2-1.3c0.2-0.3,0.5-0.6,0.5-0.9c0.3-2.2,0.6-4.5,0.7-6.7c0.1-5,0-10,0.1-15c0-0.9-0.3-1.2-1.2-1.2
	c-1.2,0-2.4-0.2-3.8-0.3c1.5-1,3-1.6,4.1-2.6s0.7-3.3-0.8-4.5c-1.2-1-1.8,0.4-2.5,0.9c-1.1,0.9-2.2,2-3.7,0.7
	c-0.2-0.2-0.6-0.1-0.8-0.2c-1.5-1.2-3.6-2.1-4.2-3.7c-0.4-1.2-1-1.9-1.8-2.4c-0.1,0.6-0.3,1.2-0.6,1.6c0.2,0,0.3,0,0.5,0.1
	c0.2,0,0.4,0.3,0.4,0.5c0.3,2.3,2,3.4,3.6,4.6c0.9,0.8,1.4,1.5,1.2,2.9c-0.2,1.7-0.1,3.4,0,5c0.2,2.4-0.5,4.6-1.4,6.8
	c-0.6,1.4-0.8,3-0.7,4.5c0.2,2.1-0.1,5.3,2.7,7c0.6,0.4,1.2,0.5,1.8,0.8c0.8,0.4,1.5,1.1,2.5,0.5c0.2-0.1,0.8,0.3,1.1,0.6
	c0.3,0.4,0.4,0.9,0.6,1.4c0.8,2.3,2.6,3.7,5.2,3.9c1.1,0.1,2.2,0.1,3.2,0.2c0.5,0.1,1.1,0.3,1.4,0.6c0.8,0.8,1.6,0.8,2.5,0.3
	c0.1-0.1,0.3-0.1,0.4-0.2c2.6-1.6,2.8-1.5,4.6,1l0,0c0.9,1.2,2.8,1.1,3.6-0.2c0.4-0.6,0.7-1.1,1.1-1.6c0.6-0.9,2.4-0.8,3.1,0
	c0.4,0.4,0.7,0.8,1.1,1.2c1.1,1.1,2.8,1.4,4.1,0.5l0,0c0.6-0.4,1.3-0.9,1.4-1.5c0.4-1.3,0.9-1.6,2.2-1.1c0.9,0.3,2,0.4,2.9,0.2
	c1.3-0.3,2.5-1.2,3.7-1.5c0.6-0.2,1.3-1.2,1.5-1.9c0.6-2.2,1.2-4.4,2.9-6.1c0.2-0.2,0.4-0.8,0.3-1c-1.3-3.2-1.4-6.6-1.3-10
	c0-0.5,0.3-1.1,0.6-1.6c1.2-2.7,1.4-5.5,1.1-8.4c-0.2-1.7-0.1-3.5,0.1-5.2c0.4-3.8-0.9-7-2.3-10.3c-0.2-0.5-0.4-1.1-0.4-1.7
	c-0.2-3.7-0.5-7.5-0.5-11.2c0-1.5,0.6-3,1.1-4.5C-81.9,76.9-81.1,74.7-80.3,72.5z M-126.9,135.3c-0.5-0.6-0.9-0.9-0.6-1.9
	c0.2-0.6,0.1-1.6-0.3-2.3c-1.1-1.9-1-3.8-0.6-5.8c0.3-1.3,0.5-2.7,0.6-4.1c0.1-1-0.4-1.8-1.8-1.8c-0.3,1.7-0.7,3.3-0.8,4.9
	c-0.1,2-0.4,4.1,0.6,6.1c0.5,1.1,0.5,2.5,0.7,3.8c-1.9,0-3.8-1.3-4-2.8c-0.2-1.8-0.3-3.7,0.9-5.4c0.3-0.4,0.4-0.8,0.4-1.3
	c0.2-2.5,0.4-5,0.6-7.4c0.1-1,0.1-2.1,0.2-3.1c0.4,0.2,0.5,0.5,0.5,0.7c-0.1,1.6,0.7,2.6,2.1,3.2c0.6,0.2,1.3,0.5,1.9,0.6
	c1.1,0.1,1.4,0.9,1.6,1.8c0.1,0.7,0,1.5-0.1,2.2c-0.2,2.1-0.6,4.2-0.7,6.3c-0.1,1.5,0.1,3,0.3,4.5c0.1,1.4,0.4,2.8,0.6,4.2
	c-0.1,0-0.2,0-0.4-0.1C-125.6,136.9-126.2,136.1-126.9,135.3z M-122,78.9c-2.1-0.8-3.5-2.3-4.7-4.2c-2.4-3.8-2.7-7.5-1-11.7
	c0.7-1.7,3.9-3.9,5.1-4.8c1.5-1,5.9-2.3,7.7-2.3c4.3-0.1,8.5-0.1,12.8-0.1c0.7,0,1.5,0.2,2.2,0.3c1.6,0.4,3.2,1.1,4.9,1.3
	c4.5,0.5,7.6,3,10.3,6.2c0.4,0.5,0.5,1.3,0.5,2s-0.2,1.4-0.2,2c0.1,3.7-1.4,6.5-4.7,8.1c-1.7,0.9-3.6,1.5-5.5,2.1
	c-0.5,0.2-1.1,0.3-1.5,0.1c-0.3-0.1-0.4-1-0.2-1.3c0.2-0.3,0.9-0.5,1.3-0.5c1.9,0.2,3.3-0.5,4.3-2.2c0.2-0.4,0.6-0.7,0.9-1
	c2.1-2,3-4.2,2.2-7.3c-0.8-2.9-3.5-4.9-6.6-5c-0.9,0-1.9-0.2-2.8-0.4c-2-0.5-4-1.5-6-1.5c-5-0.2-10.1-0.6-15,1.1
	c-1.2,0.4-2.4,0.6-3.5,1.2c-3.4,1.7-4.2,4.6-3.8,8.1c0.1,1,0.5,2.2,1.2,2.7c2.3,2,4.8,3.7,7.4,5.6C-118.1,78.8-119.8,79.8-122,78.9z
	 M-109.9,75.6c-0.2,1.2,0.2,2.7-1.2,3.5c-1.5,0.9-2.3-0.1-3.4-0.9c0.6,0,1,0,1.3,0c0.9,0.1,1.7-0.1,2.4-0.7c0.1-0.1-0.3-0.8-0.3-0.9
	c-0.6-0.6-0.7-0.7-1.5-0.9c-1.8-0.7-3.8-0.9-5.5-1.7c-1.7-0.8-3.1-2-4.7-3.1c-1.1-0.8-1.6-1.9-1.1-3.1c0.4-1.1,1-2.2,1.8-3.1
	c1.8-1.9,4-3.2,6.5-3.8c1.8-0.4,3.6-0.8,5.5-0.9c1.4,0,2.8,0.5,4.1,0.7c1.1,0.2,2.1,0.2,3.2,0.4c0.9,0.1,1.8,0.1,2.6,0.3
	c2.6,0.6,4.9,2.3,7.8,1.5c1.2-0.3,3.7,1.1,3.9,2c0.5,1.9,0.5,3.8-1,5.5c-1.3,1.5-2.6,3-4.6,3.8c-2.6,1.1-2.8,1.1-3.3-1.8
	c0-0.2-0.1-0.4-0.2-0.9c0.3,0.1,0.5,0.1,0.6,0.2c1.1,0.5,2.4,0.4,3.2-0.6c1.1-1.4,1.1-2.1,0.1-3.3c-1.3-1.6-3-2.6-4.9-3.3
	c-3.6-1.3-7.4-1.3-11.2-1.5c-0.7,0-1.3,0-2,0c-2.5,0.2-4.9,0.3-7.1,1.8c-0.9,0.6-1.2,1.7-0.7,2.7c1.7,3.6,4.6,5.5,8.2,6.7
	C-110.5,74.2-109.7,74.6-109.9,75.6z M-115.5,69.3l-0.9-0.7c-1.5-0.8-1.6-3,0.1-3.4c1.8-0.4,3.8-0.8,6.9-0.8c1.9,0,3.7-0.2,5.7,0.1
	c2.8,0.4,6.4,1.9,7.8,3.2c0.3,0.3,0.8,1.2,0.6,1.5c-0.7,1.4-2.8,1.4-3.7,0.2c-0.7-0.9-1.3-1.8-2.6-0.8c-0.1,0.1-0.6-0.2-0.9-0.3
	c-3-1.5-4.2-1.4-7.9-1c-1.7,0.4-1.5,1.5-1.1,1.6c1.2,0.4,2.7,0.9,3.8,0.5c1.7-0.6,3.2-0.2,4.7,0c0.5,0.1,1.1,0.8,1.3,1.3
	c0.1,0.2-0.6,1-1.1,1.1c-1.1,0.3-2.2,0.5-3.3,0.4C-109.5,72-112.4,71-115.5,69.3z M-106.6,74.9c1.3-0.1,2.2-0.2,3.1-0.1
	c0.4,0.1,0.9,0.7,1,1.1c0.1,0.6-0.2,1.2-0.3,2.1C-104.2,76.9-105.3,76-106.6,74.9z M-98.5,140.8c-1.1-5.7-1.1-11.2-0.7-16.9
	c0.4,1,0.9,1.8,1,2.6c0.5,3,0.8,6.1,1.3,9.1C-96.5,137.6-97,139.1-98.5,140.8z M-92.5,131.8c-0.6,2.2-0.3,4.6-0.4,6.9
	c0,0.4-0.1,0.8-0.2,1.2c-0.1,0-0.3,0.1-0.4,0.1c-0.2-0.5-0.6-0.9-0.7-1.4c-0.2-1.9-0.3-3.9-0.5-5.9c-0.1-1.5-0.1-3-0.5-4.3
	c-0.9-2.8-2.1-5.5-3.2-8.2c-0.3-0.7-0.6-1.3-0.9-2c-0.3-0.8-0.8-1.5-0.9-2.3c-0.2-1-0.3-2-0.4-3c-0.1-1.2-0.8-3.6-1.8-3.3
	c-0.6,0.3-0.5,2.4-0.5,2.9c0.2,3.9,0.7,6.6,0.9,10.5c0.1,2.1,0.2,4.3,0.4,6.4c0.2,3,0.5,5.9,0.9,8.9c0.2,1.2,0.6,2.4,0.8,3.6
	c-0.4-0.2-1.2-0.6-2-0.9c-1-0.5-1.4-1.1-1.4-2.3c-0.1-2.5-0.5-5.1-0.8-7.6c-0.3-2.4-0.6-4.8-0.9-7.1c-0.3-2.8-0.6-5.6-1-8.5
	c-0.6-4.2-0.6-8.3,1.2-12.1c2.3-4.9,2.6-10.1,3.3-15.2c0.5-3.8,0.3-7.6,0.5-11.4c0.1-1,0.5-1.9,0.7-2.9c0.2,0,0.3,0.1,0.5,0.1
	c0.5,2.4,1,4.7,1.4,7.1c0.2,1,1.2,1.7,2.3,1.5l0,0c0,0.6,0,1.2,0,1.8c0,0.2-0.1,0.4-0.1,0.6c-0.7,3.4-1.4,6.9-2.2,10.3
	c-1.2,5-2.2,9.9-0.7,14.9c0.8,2.8,2.1,5.5,3.4,8.1c0.9,1.7,1.8,3.3,1.7,5.4c-0.1,1.2,0.3,2.3,0.8,3.3
	C-92.7,128.5-92,129.8-92.5,131.8z M-89.4,133.6c-0.2,1.9-0.5,3.8-0.8,5.7c-0.4-0.3-0.7-0.7-0.6-1.1c0.2-1.8,0.5-3.5,0.7-5.2
	c0.4-3,0.8-6-1.4-8.6c-0.4-0.4-0.5-1.2-0.5-1.8c-0.2-2.1-0.6-4-1.6-5.9c-2.2-4.1-5-8-4-13.1c0.5-2.6,0.8-5.3,1.5-7.9
	c0.7-2.7,1.7-5.3,1.6-8.1c0-1.3,0.3-2.7,0.5-4.1c0.4-1.9,2.2-1.1,3.3-1.7c0.1,0,0.2,0,0.4,0c-0.1,1.5-0.2,2.8-0.4,4.2
	c-0.1,1-0.4,2-0.6,3c-0.8,3.5-1.9,6.9-2.3,10.4c-0.6,5.9-0.7,11.9,2.4,17.4c0.8,1.5,1.5,3.2,2,4.8c0.3,0.9-0.3,2.1,0,3
	C-88.5,127.7-89.1,130.6-89.4,133.6z M-87.3,135.2c0.1-1,0-2.1,0.2-3.1c0.6-2.4,0.8-4.7,0.2-7.1c-0.1-0.6-0.4-1.1-0.4-1.7
	c0.2-2.5-0.7-4.7-1.7-6.9c-1.6-3.7-3.4-7.4-2.8-11.6c0.2-1.6,0.3-3.2,0.6-4.8c0.4-2.9,0.4-5.9,1.3-8.7c0.8-2.6,1.4-5,1.3-7.7v-0.1
	c0.1-2.7,1.5-4.5,3.9-5.9c0,0.4,0.1,0.6,0,0.7c-1.5,2.9-1.9,6-1.7,9.3c0.4,5.8-0.3,11.5-2.7,16.9c-0.2,0.4-0.4,1-0.3,1.4
	c0.3,1.3,0.9,2.5,1.3,3.8c0.5,1.4,0.7,3,1.3,4.3c1.8,3.4,1.2,7.1,1.6,10.7c0.1,1.5-0.1,3,0,4.6C-85.1,131.5-85.4,133.5-87.3,135.2z
	 M-82.5,105.9c-0.1,2.2,0.3,4.4,0.4,6.6c0.1,1,0,2.1,0,3.2c-0.2,0-0.4,0-0.6,0c-1-2.2-2.1-4.4-3-6.6c-0.5-1.2-1.2-2.4-1.2-3.6
	s0.9-2.4,1.4-3.6c0.4-0.8,0.8-1.7,1.3-2.7C-83.2,101.5-82.4,103.5-82.5,105.9z"/>
<g>
	<path class="st10" d="M-201.3,92.4c-0.1,0.5-0.5,0.8-1.2,1.1c-1.5,0.6-3,1.1-4.5,1.7c-1.4,0.3-2.9,0.8-4.4,1
		c-2.2,0.4-4.7-1.3-5.1-3.5c-0.1-0.4,0.1-1.1,0.4-1.3c3.1-2.2,6.3-4.4,9.5-6.5c0.3-0.2,1.1-0.1,1.5,0.2c0,0,0,0,0-0.1
		c-0.1-0.2-1.3-1.8-1.4-2c-2.3,1.4-4.6,2.7-6.7,4.2c-1.3,0.9-2.6,1.9-3.7,3c-1.6,1.5-1.5,3.3-0.1,5c1.8,2.3,4,3,6.8,2.1
		s5.6-1.8,8.4-2.8c0.6-0.2,1.1-0.2,1.4,0C-200.6,94.3-201.1,92.7-201.3,92.4z"/>
	<path class="st10" d="M-95.3,27.7c-0.6-1.7-1.2-3.5-2.4-4.9c-2.5-3.1-5.2-6-8-8.8c-1.8-1.8-3.6-1.8-5.7-0.4
		c-5.7,3.9-11.4,7.7-17.1,11.6c-10.5,7.4-20.9,14.8-31.2,22.3c-6.4,4.6-12.6,9.4-18.9,14.1c-0.3,0.2-0.6,0.4-1,0.6
		c0.3,0.3,0.6,0.8,0.8,1.2c0.2,0.2,0.5,0.3,0.7,0.5c-0.1-0.4,0.1-0.8,0.7-1.2c3.1-2.2,6.1-4.6,9.1-6.9c7.8-5.8,15.5-11.6,23.3-17.3
		c8.6-6.2,17.2-12.4,25.8-18.5c3-2.1,6.2-4,8.8-5.6c2.5-0.7,3.7,0.5,4.7,1.6c2.6,2.9,5.1,5.8,7.4,8.9c2.5,3.4,2.2,4.9-1.1,7
		c-0.1,0.1-0.3,0.2-0.4,0.3c-5.6,3.4-11.1,6.9-16.7,10.3c-4.5,2.7-9,5.5-13.6,8.1c-6.5,3.7-13.1,7.4-19.6,11c-5.4,3-10.7,6-16.1,9
		c-0.5,0.3-1.2,0.5-1.8,0.6c0.6,0.2,1.2,0.5,1.7,0.7c0.1,0,0.2,0.1,0.3,0.1l0,0c0.2,0.1,0.6,0.1,0.8,0.2c-0.1-0.1-0.1-0.1-0.2-0.2
		c2.8-1.6,5.4-2.9,7.9-4.4c5.8-3.4,11.5-6.9,17.4-10.2c3.8-2.1,7.7-4,11.4-6.2c4.6-2.7,9-5.5,13.6-8.3c4.4-2.7,8.9-5.4,13.3-8.1
		c1.6-0.9,3.1-1.9,4.6-3C-95.2,31.1-94.6,29.5-95.3,27.7z"/>
	<path class="st10" d="M-133.5,73.9c-0.2-1.2-1-1.4-2.2-1.1c-3.9,1-7.7,2.1-11.6,2.7c-5.6,0.8-11-0.4-16.2-2.3
		c-0.2-0.1-4.6-2.2-4.7-2.2c-3.6-1.5-6.6-3.8-9.3-6.5c-0.1-0.1-2-2.4-2-2.3c-3.2-3.2-6.1-6.6-7.9-10.6c-0.7-1.4-1.4-1.9-2.8-0.9
		c-5.6,4-11.3,7.8-16.9,11.8c-2.2,1.6-4,3.6-6.1,5.4c-1.3,1.1-1.1,2.3-0.3,3.5c1.7,2.6,3.4,5.3,5.1,7.9c0.7,1.1,1.4,2.4,2.1,3.6
		c-0.1,0,1.5,2.1,1.6,2.2c1.2,2,2.3,4,3.4,6.1c0.3,0.5,1.4,3.5,1.5,4c1.6,5.2,3.2,10.5,1.6,15.9c-1.3,4.4-3.9,7.8-8.3,9.6
		c-1.7,0.7-1.8,1-0.5,2.3c2.6,2.7,6.1,3.9,9.6,5c11.7,3.7,23.2,2.5,34.3-2c7.1-2.8,13.2-7.2,18.2-13.2c5.5-6.5,9.2-13.9,11.4-22.1
		C-132.2,85.2-132.6,79.6-133.5,73.9z M-198.8,93.5c-2.2-5-5.1-9.7-7.8-14.4c-1.7-2.9-3.6-5.5-5.4-8.3c-0.6-0.9-0.6-1.6,0.3-2.5
		c4.4-4.3,9.1-8.1,14.2-11.5c2.3-1.5,4.7-3,7-4.5c1-0.6,1.6-0.5,2.1,0.6c0.5,1,0.9,2.1,1.6,3c2.4,2.9,4.9,5.8,7.4,8.7
		c6.1,6.8,14,10.2,22.7,12c1.6,0.3,2,1,1.8,2.4c-0.6,6.4-3.9,11.5-8.1,16c-4.9,5.2-10.9,8.7-18,10.9c-3.4,1.3-7.1,1.7-11,1.5
		c-3.3-0.2-3.8-0.9-4.4-4C-196.9,100.1-197.4,96.6-198.8,93.5z M-134.8,88.7c-0.8,3.8-2.3,7.6-3.8,11.2c-4.4,10.3-11.7,17.9-21.6,23
		c-3,1.5-6.1,3.1-9.4,3.8c-4.2,1-8.5,1.3-12.8,1.6c-6.8,0.5-13.2-0.8-19.4-3.7c-1.3-0.6-2.5-1.5-4.1-2.4c0.7-0.5,0.9-0.7,1.2-0.8
		c4.6-2.5,7.2-6.3,8.2-11.3c0.5-2.3,0.4-2.1,2.8-2c3.3,0.1,6.8,0.5,10-0.2c8.1-1.8,15.4-5.4,21.2-11.6c4.5-4.9,8-10.3,8.7-17.2
		c0.1-1.6,0.9-2,2.4-2c2.5-0.1,5.1-0.2,7.6-0.8c2.8-0.6,5.6-1.6,8.5-2.5c0.3,0.8,0.5,1.1,0.6,1.4C-133.7,79.8-133.9,84.3-134.8,88.7
		z"/>
</g>
</svg>
