<?xml version="1.0" encoding="utf-8"?>
<!-- Generator: Adobe Illustrator 19.0.0, SVG Export Plug-In . SVG Version: 6.00 Build 0)  -->
<svg version="1.1"
	 id="svg2985" xmlns:dc="http://purl.org/dc/elements/1.1/" xmlns:cc="http://creativecommons.org/ns#" xmlns:rdf="http://www.w3.org/1999/02/22-rdf-syntax-ns#" xmlns:svg="http://www.w3.org/2000/svg"
	 xmlns="http://www.w3.org/2000/svg" xmlns:xlink="http://www.w3.org/1999/xlink" x="0px" y="0px" viewBox="-192 293.9 210 255"
	 style="enable-background:new -192 293.9 210 255;" xml:space="preserve">
<style type="text/css">
	.st0{enable-background:new    ;}
	.st1{fill:#005F00;}
	.st2{fill:#CDDACD;}
	.st3{fill:#FFFFFF;}
	.st4{fill:url(#rect3008_1_);}
	.st5{filter:url(#filter3970-5);}
	.st6{fill:url(#SVGID_1_);}
	.st7{fill:#038249;}
	.st8{fill:#994913;}
	.st9{fill:#2A3B92;}
	.st10{fill:#BC197A;}
</style>
<filter  height="1.2150326" width="1.2171124" id="filter3970-5" x="-0.10855621" y="-0.10751629" color-interpolation-filters="sRGB">
	<feGaussianBlur  id="feGaussianBlur3972-8" stdDeviation="0.12800763"></feGaussianBlur>
</filter>
<g id="g4146" transform="translate(39.768324,209.71794)">
</g>
<g id="g4630" transform="matrix(1.0005937,0,0,1,-1.3758072,203.40625)" class="st0">
	<g id="g3062">
		<path id="rect4031" d="M-131.2,90.5l46.1,0.2l68.4-0.2c22.9-0.1,36.1,15.9,36.1,40.4v154.6c0,12.3-14,27.7-21.4,35.7
			s-22.1,24.3-33.6,24.3h-113c-22.9,0-41.3-5.6-41.3-30.2l-0.3-162.3c0-6.4,17.3-24.3,24.8-32.4C-158,112.6-142.7,90.4-131.2,90.5
			L-131.2,90.5z"/>
		<path id="rect3767" class="st1" d="M-122.4,103.2h104.5c13.8,0,24.8,11.1,24.9,24.9l0.9,152.4c0,2-12.6,32-25.8,32h-104.5
			c-13.8,0-24.9-11.1-24.9-24.9V128.1C-147.3,114.3-136.2,103.2-122.4,103.2L-122.4,103.2z"/>
		<path id="rect3861" class="st2" d="M-137.4,118.1h99.6c13.7,0,24.9,11.2,24.9,24.9v159.5c0,13.8-11.1,24.9-24.9,24.9h-99.6
			c-13.7,0-24.9-11.2-24.9-24.9V143.1C-162.3,129.3-151.1,118.1-137.4,118.1z"/>
		<path id="rect3765" class="st3" d="M-147.3,133.1h104.5c13.7,0,24.9,11.2,24.9,24.9v149.5c0,13.8-11.1,24.9-24.9,24.9h-104.5
			c-13.7,0-24.9-11.2-24.9-24.9V158C-172.2,144.3-161.1,133.1-147.3,133.1z"/>
		
			<linearGradient id="rect3008_1_" gradientUnits="userSpaceOnUse" x1="-324.8826" y1="569.5873" x2="-324.8826" y2="531.0685" gradientTransform="matrix(4.9807 0 0 -4.9841 1515.6201 2981.9607)">
			<stop  offset="0" style="stop-color:#D0E4CC"/>
			<stop  offset="1" style="stop-color:#FBFFEC"/>
		</linearGradient>
		<path id="rect3008" class="st4" d="M-157.3,143.1h109.5c11,0,19.9,8.9,19.9,19.9v149.5c0,11-8.9,19.9-19.9,19.9h-109.5
			c-11,0-19.9-8.9-19.9-19.9V163C-177.2,152-168.3,143.1-157.3,143.1z"/>
		<path id="path3932" class="st3" d="M2.2,115.7c0,1.5-1.3,2.8-2.8,2.8s-2.8-1.3-2.8-2.8s1.3-2.8,2.8-2.8S2.2,114.1,2.2,115.7z"/>
		<g id="path3936" class="st5">
			
				<linearGradient id="SVGID_1_" gradientUnits="userSpaceOnUse" x1="-315.7709" y1="590.4699" x2="-318.8866" y2="587.0007" gradientTransform="matrix(7.1013 0 0 -6.6887 2243.616 4061.2654)">
				<stop  offset="0" style="stop-color:#FFFFFF"/>
				<stop  offset="1" style="stop-color:#FFFFFF;stop-opacity:0"/>
			</linearGradient>
			<polygon class="st6" points="-2.8,114.3 -31.6,138.9 -23.4,144.9 1.8,116.6 			"/>
		</g>
		<path id="path3882" class="st3" d="M-15,137.6c0,4.8-3.9,8.7-8.7,8.7c-4.8,0-8.7-3.9-8.7-8.7c0,0,0,0,0,0c0-4.8,3.9-8.7,8.7-8.7
			C-19,128.9-15,132.8-15,137.6C-15,137.6-15,137.6-15,137.6z"/>
	</g>
</g>
<g>
	<path class="st7" d="M-160.1,379.9c0.2-0.2,0.5-0.5,1-1c-1,0.1-1.9,0.2-2.3,0.2c-1.2,0.1-2.5,0.2-3,0.2c-2.7,0-3.8-0.9-3.8-3
		c0-1.6,0.3-2.3,1.2-2.4c3.8-0.9,6.2-2,9-4.2l-1.9,0.1c-3.5,0-5.5-1.2-7.4-4.4l0.3-0.4c0.6,0.1,1.1,0.1,1.3,0.1
		c1.2,0.1,2,0.2,2.1,0.2c1.6,0,4.4-1,7-2.4c0.2-2.5,0.3-3.8,0.3-5.3c0-1.3-0.1-2-0.4-2.3c-0.1,0-0.7-0.1-1.9-0.2l-0.2-0.6
		c0.9-1.2,2.7-2.1,4.1-2.1c1.9,0,3.4,1.9,3.4,4.4c0,0.9-0.2,2.3-0.3,3.7c0.5,0.2,0.8,0.2,0.9,0.3l1.5,0.1c1.1,0.1,2.7,2.5,2.7,4.1
		c0,0.6-0.5,1-1.5,1.3c-2.8,0.6-3.7,1.2-5.4,3.7l-0.1,0.7h0.6l1-0.2h0.2c1.1,0,2.6,2.2,2.6,3.7c0,0.5-0.3,0.7-1.7,1.2
		c-1.1,0.4-1.8,0.9-3.7,2.4c-0.1,1.1-0.1,1.4-0.3,3c0.5-0.2,1.1-0.5,1.3-0.5c0.9-0.4,0.9-0.5,0.9-1.2l0.2-0.4
		c0.9,0.1,1.9,0.2,2.2,0.2c3.2,0.2,3.2,0.2,3.8,0.4c0.5,0.3,0.9,0.9,0.9,1.6c0,1.6-0.5,2-2.9,2.3c-1.1,0.1-3.2,0.9-6.7,2.8
		c0.2,0.7,0.3,1.1,0.3,1.6l-0.1,1.2c-0.2,1.2-0.3,2.2-0.3,2.4v0.5c2.3-1.4,2.7-1.6,4.4-2.9c0.1-1.1,0.2-1.3,0.9-2.3l0.5,0.1
		c1.5,0.9,1.9,1.1,2.3,1.1c0.2,0,1.7-0.5,4.5-1.6c0.4-4.6,0.5-5.3,0.8-10c-1.2-0.8-2.3-1.5-2.8-1.8c-1.3-0.9-1.8-1.3-2-2.2l-0.1-0.5
		c1.1-0.1,2-0.1,2.4-0.1c1.6,0,1.8-0.1,3-0.3v-2.5c0-0.8,0-0.8-0.3-1.4c-0.9-1.7-1.4-3-1.7-3.7l0.1-0.7h0.4c1.5,0,4.7,1.8,5.9,3.3
		c0.5,0.6,0.7,1.6,0.7,3.5c0.9-0.2,1.1-0.2,2-0.7c1.5-0.8,2.9-1.5,4.4-2.2c0.2-5.8,0.3-8.5,0.3-10.1c0-2.3-0.1-2.8-1.1-4.1v-0.9
		c0.5-0.7,1.7-1.4,2.6-1.4c1.4,0,3.9,3.4,3.9,5.3c0,0.5-0.2,1.3-0.3,2.5c-0.1,0.3-0.2,1.6-0.3,3l-0.4,3.9c2.4,0.7,3.6,1.7,3.6,3
		c0,1-0.3,1.4-4.4,4.7l-0.1,6.8c2.7-0.3,3.2-0.4,4.2-0.4c3,0,5.5,2,5.5,4.3c0,0.8-0.5,1.4-1.2,1.4c-0.4,0-1.2-0.2-2.2-0.4
		c-0.6-0.2-1.4-0.2-2.3-0.2c-1.4,0-2.3,0.2-4.1,0.7c-0.2,26.4-0.3,31.5-1.2,33.9c-0.5,1.2-1.1,2-1.4,2c-1.6-0.1-2.5-7.4-2.5-22.5
		c0-2.7,0.2-7.3,0.4-13c-3.2,1.1-5.8,2.5-7.9,4.3c-0.1,5.9-0.3,7.3-2.4,12.9c-0.5,1.4-0.9,2.1-1.2,2.1c-0.7,0-1.9-3-1.9-4.8
		c0-0.9,0-0.9,0.9-3.7c0.2-0.6,0.5-2.3,0.5-5.1c-1.5,0.5-2.2,0.6-3.1,0.6c-1.1,0-2.2-0.3-2.7-0.7c-1.1-0.8-1.1-0.8-1.6-0.9
		c-0.5,0.2-0.8,0.4-0.9,0.5l-1,1.2l-3.6,3.9c-0.2,0.2-0.5,0.6-1.1,1.4c-0.1,0.9-0.2,1.3-0.2,1.4c0.5,9.6,0.5,9.6,0.5,10.2
		c0,2.4-0.2,3.6-0.8,3.6c-0.2,0-0.7-0.5-1.4-1.5c-1.4-1.8-1.9-3.5-1.9-6.4c0-1.2,0-2.7,0.1-4.4l-0.2-0.2c-1.6,1.1-1.6,1.2-3.4,2.7
		c-0.9,0.7-1.6,1.1-2,1.1c-1.1,0-2.1-1.9-2.1-3.7c0-1.8,0.5-2.8,1.6-3.1c2.9-0.3,6.6-5.1,7.4-9.5c-1.2,0.6-2.2,1.2-2.6,1.3
		c-1.6,0.9-3.4,1.8-3.5,2c-2.9,1.7-3.5,2-4.8,2c-2.4,0-5.2-1.5-5.2-2.7c0-0.2,0.1-0.6,0.2-1.1l0.8-0.6c1.6-0.4,2-0.5,3.5-1.2
		c2.3-1.2,3.9-2.1,4-2.2l5-3.4L-160.1,379.9z M-135.6,375.1c-0.1,0-0.9,0.4-1.8,0.7c-0.2,3.6-0.2,4.1-0.5,7.5c0.6,0,0.9-0.1,2.3-0.7
		c1.1-0.5,1.8-0.8,5.5-2v-5c-2.5,1.9-2.9,2.3-5.5,3.7v-0.7c2.4-2.2,2.7-2.5,4.6-5.1l-1.5,0.7L-135.6,375.1z"/>
</g>
<path class="st8" d="M-35.3,383.2c0-5-3.1-8.3-9.2-10v-0.3c5.4-1.9,8.1-5.1,8.1-9.7c0-3.8-1.9-6.7-5.7-8.6c-2.4-1.1-5.2-1.6-8.5-1.6
	c-4,0-7.2,1-9.8,3c-2.1,1.7-3.2,3.7-3.2,5.9c0,2.9,1.4,4.3,4.1,4.3c2.6,0,3.8-1.2,3.8-3.5c0-1.7-0.9-2.8-2.6-3.4c1.8-2,4.3-3,7.6-3
	c5.5,0,8.2,2.3,8.2,6.9c0,5.6-3,8.5-9,8.5h-4v3.4h4c6.7,0,10,2.6,10,7.9c0,5.4-3.3,8.1-10,8.1c-4,0-6.6-1-7.8-3.1
	c1.8-0.4,2.7-1.5,2.7-3.3c0-2.3-1.2-3.5-3.6-3.5c-3,0-4.5,1.5-4.5,4.5c0,2.7,1.4,5,4.3,6.8c2.6,1.5,5.6,2.3,9.2,2.3
	c4.2,0,7.7-0.8,10.4-2.4C-37.1,390.3-35.3,387.2-35.3,383.2z"/>
<path class="st9" d="M-72.9,501.5c-1.9,3.5-3.2,6.6-5.1,9.4c-1.9,2.8-4.2,5.3-5.6,7c2.1,2.4,3.7,4.3,5.3,6.1c-2.8,0.4-5.7,1.7-8.3,1
	c-4.7-1.2-5.5-5.4-2.3-10c1-1.5,2.2-2.9,3.3-4.3c1.1-1.4,2.2-2.7,3.1-4.5c-9.2,5.4-18.9,4.7-29.2,3.3c-0.5,7-0.7,13.5-1.5,19.9
	c-0.2,1.8-2.1,3.5-3.2,5.2c-0.6-1.8-1.7-3.6-1.8-5.4c-0.2-2.3,0.1-4.7,0.4-7c2-14.4,1-16.6-12.1-24.4c-4.7,3.9-9.6,7.8-14.8,12.1
	c5.3,5.6,10.3,10.8,15,16.2c1.1,1.3,1.1,3.5,1.5,5.4c-1.8-0.7-3.9-1-5.3-2.1c-5.5-4.7-10.8-9.6-16.6-14.9c-0.7,0.6-2.3,2.3-4.4,3.3
	c-1.3,0.6-3.1,0-4.7,0c0.5-1.4,0.7-3,1.5-4.1c0.9-1.3,2.4-2.1,2.9-2.5c0.3-2.2,0.6-3.9,0.8-5.4c2.7-0.5,2.6-0.5,5.3-1
	c0.3,0.5,0.6,1.1,0.9,1.6c4.9-5.3,10-10.5,14.7-15.9c2.3-2.7,5.3-2.6,7.6,0.5c2.1,2.8,4.4,5.5,6.5,8.2c0.9-0.7,1.3-0.8,1.5-1.1
	c1.4-2.1,3-6.1,4-6c4.1,0.7,2.8,4.5,2.3,7.1c-0.8,3.7,1.1,4.9,4,5.5c9.1,1.9,17.1-1,24.6-5.8c0.7-0.4,0.9-2.2,0.7-3.2
	c-0.4-1.5-1.9-2.9-2.1-4.4c0-0.4,0-0.9,0.1-1.3c0.4-2,2.6-3.2,4.4-2.3c0.3,0.2,0.6,0.4,0.7,0.6c2,6.6,6.7,7.2,12.7,7.5
	c11,0.6,18.6,13.7,20.7,21.4c0.3,1.1-1.1,2.6-1.6,3.9c-1.3-0.8-3-1.3-3.7-2.4c-2.1-3.3-3.7-7-5.9-10.3
	C-60.7,502.1-66.5,500.1-72.9,501.5z"/>
<path class="st9" d="M-97.3,371.4c-2.5,5.7-1,8.5,4.1,10c2.7,0.8,5.4,2.3,7.7,4c0.3,0.2,0.5,0.5,0.7,0.8c1,1.9-0.2,4.3-2.2,4.9
	c-0.6,0.2-1.2,0.3-1.7,0.1c-3.1-1.1-6-3-9.7-5c-0.4,3.1-0.7,5.3-1.1,7.8c6,1.9,11.4,2.9,17-0.2c0.3-0.1,0.6-0.2,0.9-0.2
	c2.1,0.1,3.5,2,3.3,4.1c-0.1,0.7-0.3,1.2-0.6,1.3c-4.3,1.5-8.8,2.7-13.3,3.5c-2,0.4-4.2-0.5-7.1-0.9c-0.5,10.5-1.5,20.7-1.4,31
	c0,3.8-1.8,4.7-4.2,4.6c-1.1,0-3-2.9-2.9-4.5c0.7-17.9,1.7-35.8,2.7-53.7c0.3-6.5,0.6-13,1.1-19.5c0.1-1.4,0.7-3.4,1.7-4
	c5.9-3.3,12.3-4.5,18.7-2.1c0.2,0.1,0.4,0.2,0.6,0.4c2.1,1.6,1.2,5-1.4,5.6c-0.5,0.1-1.1,0.2-1.6,0.3c-3,0.2-6-0.4-9-0.1
	c-0.3,0-0.5,0.1-0.8,0.3c-1.7,1.1-1.7,3.6-0.1,4.8c0.1,0.1,0.3,0.2,0.5,0.3c3.4,1.7,7,3,10.4,4.6c2.4,1.2,5.7,2.6,3.5,5.8
	c-0.8,1.1-4.4,1.1-6.5,0.5C-91.1,374.9-94.1,373-97.3,371.4z"/>
<path class="st10" d="M-46,452.9c-4.7-5.2-10.3-5-16.3-3.8c-4.4,0.9-8.7,1.9-13.1,2.9c-0.4-0.7-0.3-0.6-0.7-1.3
	c8.4-7,16.9-13.9,25-21.2c0,0,0,0,0,0c2.7-2.4-0.4-6.7-3.7-5.2c-0.2,0.1-0.4,0.2-0.6,0.3c-9.4,6.8-18.4,14-27.2,20.8
	c-5.4-2.7-9.4-5.6-14-6.9c-10.4-3-18.3,2.4-25.7,8c-10.8,8.2-10.7,8.3-24.2,7.9c-0.6,0-1.2,0-1.9,0c-6.5,0.1-13.5,5.3-14.7,10.9
	c-1.2,5.4,2.2,11,8.5,14c22.3,10.6,45.5,14.3,70,7.4c14.4-4.1,27.2-11,38.2-20.5C-40.8,461.5-41.5,457.9-46,452.9z M-98.1,442.5
	c6.8,2.4,13.5,7.1,15.8,9.5c2.9,3.4,2.9,8.5,2.4,9.1c-5-4.6-19.8-14.4-24.9-17.4C-104.1,443-99.3,442-98.1,442.5z M-89.5,466.8
	c-8.5-5.5-17.5-11.7-26.3-17.4c1.7-1,5.4-4.8,9.5-2.5c3.2,1.8,18.3,11.9,21.1,14.5C-82.2,464.2-87.9,465.9-89.5,466.8z M-119.4,452
	c7.8,5,16.1,10.5,24.5,15.9c-7.4,2.5-23.9-5.6-27.7-13.6C-122.1,453.8-120.2,452.3-119.4,452z M-126.1,457.7
	c0.5,1.8,6.9,7.5,9.3,8.6c7.2,3.4,13.9,6.4-1.1,3.9c-3.4-0.6-6.4-1.9-9-4.1c-2-1.7-3.4-3-4.1-5.7
	C-131.6,457.8-126.8,455.2-126.1,457.7z M-137.7,464.4c3.5,1.4,6.4,4.8,9.9,6.3c14.2,6,28.4,7.3,42.6-0.1c2.8-1.5,5.2-3.7,7.9-5.3
	c1.8-1,3.5-2.4,5-3.8c2.7-2.3,4.7-2.6,5.1-1.9c0,0,0.2,0.6,0.3,0.7c0.5,0.8,0.3,1.9-0.4,2.5c-20.9,18.2-60.5,20.1-74.3,5.9
	C-143.6,466.7-141.2,463-137.7,464.4z M-52.7,465.3c-10,7.5-21.2,13-33.5,16.8c-23.8,7.2-45.5,1.3-67-7.7c-3.6-1.5-6.2-4.1-4.7-8.3
	c1.5-4.5,7.6-8.5,11.8-7.7c2.3,0.5,4.5,1.5,6.3,2.1l-3.7,1.4c-3.5,1.3-4.9,5.6-2.9,8.7c0.8,1.3,1.8,2.4,3,3.1
	c23.9,14.2,54.3,11.7,75.9-3.6c7.6-5.3,7.7-7.2,2-14.3c1.1-1.2,6.1-3,8.2-3.3c4.4-0.7,7.5,0.4,9.1,5.3
	C-47.6,461.5-50.5,463.6-52.7,465.3z"/>
</svg>
