<?xml version="1.0" encoding="utf-8"?>
<!-- Generator: Adobe Illustrator 19.0.0, SVG Export Plug-In . SVG Version: 6.00 Build 0)  -->
<svg version="1.1"
	 id="svg2985" xmlns:dc="http://purl.org/dc/elements/1.1/" xmlns:cc="http://creativecommons.org/ns#" xmlns:rdf="http://www.w3.org/1999/02/22-rdf-syntax-ns#" xmlns:svg="http://www.w3.org/2000/svg"
	 xmlns="http://www.w3.org/2000/svg" xmlns:xlink="http://www.w3.org/1999/xlink" x="0px" y="0px" viewBox="-192 293.9 210 255"
	 style="enable-background:new -192 293.9 210 255;" xml:space="preserve">
<style type="text/css">
	.st0{enable-background:new    ;}
	.st1{fill:#005F00;}
	.st2{fill:#CDDACD;}
	.st3{fill:#FFFFFF;}
	.st4{fill:url(#rect3008_1_);}
	.st5{filter:url(#filter3970-5);}
	.st6{fill:url(#SVGID_1_);}
	.st7{fill:#994913;}
	.st8{fill:#038249;}
	.st9{fill:#2A3B92;}
	.st10{fill:#BC197A;}
</style>
<filter  height="1.2150326" width="1.2171124" id="filter3970-5" x="-0.10855621" y="-0.10751629" color-interpolation-filters="sRGB">
	<feGaussianBlur  id="feGaussianBlur3972-8" stdDeviation="0.12800763"></feGaussianBlur>
</filter>
<g id="g4146" transform="translate(39.768324,209.71794)">
</g>
<g id="g4630" transform="matrix(1.0005937,0,0,1,-1.3758072,203.40625)" class="st0">
	<g id="g3062">
		<path id="rect4031" d="M-131.2,90.5l46.1,0.2l68.4-0.2c22.9-0.1,36.1,15.9,36.1,40.4v154.6c0,12.3-14,27.7-21.4,35.7
			s-22.1,24.3-33.6,24.3h-113c-22.9,0-41.3-5.6-41.3-30.2l-0.3-162.3c0-6.4,17.3-24.3,24.8-32.4C-158,112.6-142.7,90.4-131.2,90.5
			L-131.2,90.5z"/>
		<path id="rect3767" class="st1" d="M-122.4,103.2h104.5c13.8,0,24.8,11.1,24.9,24.9l0.9,152.4c0,2-12.6,32-25.8,32h-104.5
			c-13.8,0-24.9-11.1-24.9-24.9V128.1C-147.3,114.3-136.2,103.2-122.4,103.2L-122.4,103.2z"/>
		<path id="rect3861" class="st2" d="M-137.4,118.1h99.6c13.7,0,24.9,11.2,24.9,24.9v159.5c0,13.8-11.1,24.9-24.9,24.9h-99.6
			c-13.7,0-24.9-11.2-24.9-24.9V143.1C-162.3,129.3-151.1,118.1-137.4,118.1z"/>
		<path id="rect3765" class="st3" d="M-147.3,133.1h104.5c13.7,0,24.9,11.2,24.9,24.9v149.5c0,13.8-11.1,24.9-24.9,24.9h-104.5
			c-13.7,0-24.9-11.2-24.9-24.9V158C-172.2,144.3-161.1,133.1-147.3,133.1z"/>
		
			<linearGradient id="rect3008_1_" gradientUnits="userSpaceOnUse" x1="-324.8826" y1="569.5873" x2="-324.8826" y2="531.0685" gradientTransform="matrix(4.9807 0 0 -4.9841 1515.6201 2981.9607)">
			<stop  offset="0" style="stop-color:#D0E4CC"/>
			<stop  offset="1" style="stop-color:#FBFFEC"/>
		</linearGradient>
		<path id="rect3008" class="st4" d="M-157.3,143.1h109.5c11,0,19.9,8.9,19.9,19.9v149.5c0,11-8.9,19.9-19.9,19.9h-109.5
			c-11,0-19.9-8.9-19.9-19.9V163C-177.2,152-168.3,143.1-157.3,143.1z"/>
		<path id="path3932" class="st3" d="M2.2,115.7c0,1.5-1.3,2.8-2.8,2.8s-2.8-1.3-2.8-2.8s1.3-2.8,2.8-2.8S2.2,114.1,2.2,115.7z"/>
		<g id="path3936" class="st5">
			
				<linearGradient id="SVGID_1_" gradientUnits="userSpaceOnUse" x1="-315.7709" y1="590.4699" x2="-318.8866" y2="587.0007" gradientTransform="matrix(7.1013 0 0 -6.6887 2243.616 4061.2654)">
				<stop  offset="0" style="stop-color:#FFFFFF"/>
				<stop  offset="1" style="stop-color:#FFFFFF;stop-opacity:0"/>
			</linearGradient>
			<polygon class="st6" points="-2.8,114.3 -31.6,138.9 -23.4,144.9 1.8,116.6 			"/>
		</g>
		<path id="path3882" class="st3" d="M-15,137.6c0,4.8-3.9,8.7-8.7,8.7c-4.8,0-8.7-3.9-8.7-8.7c0,0,0,0,0,0c0-4.8,3.9-8.7,8.7-8.7
			C-19,128.9-15,132.8-15,137.6C-15,137.6-15,137.6-15,137.6z"/>
	</g>
</g>
<g>
	<path class="st7" d="M-68.4,362.5l-2.4,0.9c-2.6,0.9-4.2,1.5-4.9,1.8l-1.6,0.6c-0.5,0.2-0.9,0.4-1.3,0.4c-1.1,0-3.6-3-3.9-4.6
		l0.1-0.2c0.7,0.1,1.2,0.1,1.6,0.1c2,0,4.2-0.5,12.3-3c0.1-0.7,0.1-0.9,0.1-1.5c0-4.1-0.3-4.9-1.9-4.9c-0.5,0-1.3,0.2-2.2,0.3
		l-0.2-0.4c0.2-1.5,1.8-2.3,4.2-2.3c1.8,0,4,0.8,4.7,1.8c0.7,1,0.9,2.1,0.9,5.9c3.5-0.5,3.9-0.6,4.8-0.6c1.9,0,3.2,0.5,6.6,2.8
		c2.1,1.3,2.6,1.9,3,3.7c0.5,0.2,0.9,0.2,1.1,0.2c0.4,0,1.1-0.1,1.9-0.4c1.7-0.5,3.4-0.9,4-0.9c2.3,0,5.1,2.3,5.1,4.3
		c0,0.9-0.8,1.5-1.9,1.5l-5.8-0.2c-2.3,0-6.9,0.5-10.6,1.2c-3.3,0.5-5.1,1.2-8.7,3.1v1.2c5.9-1.6,8.2-2.1,9.3-2.1
		c1.6,0,4.1,2.3,4.1,3.9c0,0.7-0.5,0.9-2,0.9h-0.5h-1.8c-2.3,0-6.5,1.2-9.1,2.7l-0.2,2.7c6.3-1,6.7-1.2,6.7-2.4
		c0-0.5,0.2-0.7,0.5-0.7c0.2,0,0.5,0.1,0.9,0.2c0.1,0.1,1.2,0.3,2.7,0.7c4.3,1,6,1.9,6,3c0,0.7-0.6,1.2-1.3,1.2
		c-0.2,0-0.5,0-0.8-0.1c-0.5-0.1-0.8-0.1-1.2-0.1c-1.2,0-1.2,0-6.9,0.6c-3.6,0.5-3.6,0.5-6.8,0.8l-0.2,3.9c7.9-1.4,9-1.6,11.8-2
		c1.6-0.3,3.2-0.5,3.4-0.7c0.9-0.2,1.6-0.3,1.9-0.3c2.1,0,4.8,2.1,4.8,3.7c0,1-0.9,1.6-2.4,1.6c-0.2,0-0.9,0-1.5-0.1
		c-1.9-0.2-3.1-0.2-3.9-0.2c-3.6,0-13.7,1.8-17.6,3.2c-0.2,0-2.7,1.2-7.5,3.4l-0.2-0.4c1.2-1.2,1.4-1.5,3-3
		c-3.9,0.9-6.2,1.7-9.2,3.2c-1.2,0.5-2.2,0.9-2.9,0.9c-1.5,0-4.6-3-4.8-4.6c0-0.1,0-0.2,0.1-0.3l0.3-0.2c0.5,0.1,1.1,0.2,1.2,0.2
		c1.1,0.2,1.9,0.3,2.3,0.3c1,0,9.4-1.9,16.2-3.7v-3.6c-4.1,0.7-4.2,0.7-10.6,2.7c-0.6,0.2-1.2,0.4-1.4,0.4c-1.2,0-3.4-2.3-3.4-3.5
		c0-0.2,0.1-0.5,0.2-0.8l0.4-0.2c1,0.2,1.9,0.2,2.3,0.2c2,0,5.2-0.9,8.3-2.2c2-0.8,2.7-1.3,4.1-2.8l0.2-1.9
		c-3.7,1.1-5.9,1.8-10.1,3.4c-1.3,0.5-2.3,0.8-3.1,0.8c-1.8,0-3.7-1.4-4.6-3.4l0.2-0.4c2.5-0.1,3.9-0.2,5.1-0.5
		c7.3-2.2,11.1-3.7,12.3-4.8l0.2-1.9c-10.6,1.8-20.4,4.3-25,6.4c-1.7,0.8-3,1.2-3.8,1.2c-1.1,0-3-1-4.1-2.2c-1.1-1.1-1.5-2-1.7-3.7
		l0.5-0.3l0.9,0.3c1,0.2,1.8,0.4,2.1,0.4c0.5,0,0.5,0,8.3-1.5c4.6-0.9,9.2-2,13.9-2.9c0.4-0.1,5-1,9.4-1.8V362.5z M-80.7,402.2
		c1.4,0.2,1.5,0.3,3.4,2.7l0.9,1.2c1.4-0.5,1.6-0.5,3.4-0.9c5.6-1.4,6.4-1.7,9.9-3.2c0.6-0.3,1.2-0.4,1.5-0.4c1.5,0,4.1,2,4.1,3.2
		c0,0.7-0.5,0.9-2.4,1.1c-5.2,0.9-6.6,1.4-8.3,2.7c-1.2,0.9-1.4,0.9-2.3,1.1l-0.1-0.2c0.5-0.7,0.6-1.2,0.6-1.7
		c0-0.3-0.2-0.5-0.7-0.5l-2.8,0.2l-1.9-0.2c-0.2,0-0.3,0-0.6,0.1c1.3,2.4,1.6,2.8,2.8,5.5c4.5-1.6,10.1-2.9,11.9-2.9
		c0.7,0,0.9,0.1,2,0.9c0.6,0.5,0.6,0.5,1.4,0.8c2-2.7,4.8-9.2,4.8-11.2c0-1.6-1.4-2.5-3.9-2.5c-4.2,0-9.4,1.3-16.2,4.1
		c-0.5,0.2-0.9,0.3-1.3,0.3c-0.9,0-1.4-0.5-1.9-1.8l0.2-0.4c6.7-3.9,13.3-5.9,19.5-5.9c5.7,0,11.2,3.2,11.2,6.6
		c0,0.9-0.1,0.9-1.5,2.7c-0.2,0.2-0.4,0.7-0.8,1.6c-1.7,4.4-5.1,10.6-6.6,11.8c-0.5,0.4-0.9,0.6-1.2,0.6c-0.4,0-0.5-0.1-1.9-1.7
		c-0.7-0.8-1.9-1.2-3.3-1.2c-4.2,0-9,0.8-10.9,1.7c-0.6,0.3-0.7,0.4-2.4,2c-0.2,0.2-0.5,0.3-0.6,0.3c-0.5,0-1.3-0.9-2.7-2.7
		c-2.6-3.9-4.1-7.9-4.1-11.5c0-0.9,0.1-1.3,0.5-2.2H-80.7z M-63.3,366.1c2.8-0.5,4.1-1,5.2-2c1-0.9,1.8-2.2,1.8-3.1
		c0-0.6-0.5-1.1-1.2-1.1c-0.5,0-2.3,0.4-5.5,1.1L-63.3,366.1z"/>
</g>
<path class="st8" d="M-141.7,382.5c0-5-3.1-8.3-9.2-10v-0.3c5.4-1.9,8.1-5.1,8.1-9.7c0-3.8-1.9-6.7-5.7-8.6
	c-2.4-1.1-5.2-1.6-8.5-1.6c-4,0-7.2,1-9.8,3c-2.1,1.7-3.2,3.7-3.2,5.9c0,2.9,1.4,4.3,4.1,4.3c2.6,0,3.8-1.2,3.8-3.5
	c0-1.7-0.9-2.8-2.6-3.4c1.8-2,4.3-3,7.6-3c5.5,0,8.2,2.3,8.2,6.9c0,5.6-3,8.5-9,8.5h-4v3.4h4c6.7,0,10,2.6,10,7.9
	c0,5.4-3.3,8.1-10,8.1c-4,0-6.6-1-7.8-3.1c1.8-0.4,2.7-1.5,2.7-3.3c0-2.3-1.2-3.5-3.6-3.5c-3,0-4.5,1.5-4.5,4.5c0,2.7,1.4,5,4.3,6.8
	c2.6,1.5,5.6,2.3,9.2,2.3c4.2,0,7.7-0.8,10.4-2.4C-143.5,389.6-141.7,386.6-141.7,382.5z"/>
<path class="st9" d="M-130.1,506.4c1.3-0.9,2.2-1.7,3.3-2.1c1.2-0.4,2.6-0.2,4-0.3c-0.3,1.5,0,3.4-0.9,4.4
	c-4.2,4.7-10.3,3.6-12.7-2.2c-0.4-0.9-0.7-1.9-1.4-3.7c-3.3,3.7-5.8,7.3-9.1,10.2c-1.9,1.7-5.5,3.5-7.3,2.8
	c-1.8-0.7-2.5-4.5-3.3-7.1c-1.1-3.2-1.8-6.6-2.7-9.8c-0.6-1.9-1.4-3.8-2.1-5.7c-5.6,1.2-5.9,7.4-5.8,13.6c0,2.4,1.1,5,0.6,7.1
	c-0.6,2.2-2.2,4.4-4.1,5.8c-1,0.7-3.3-0.4-5-0.6c0.8-1.2,1.8-2.3,2.5-3.6c0.7-1.2,1.6-2.5,1.6-3.7c0.1-3.2-0.4-6.5-0.3-9.8
	c0.4-14.1,11.3-17.5,22-14.9c2.3,0.5,4.4,1.5,6.9,1.7c-2.8-3.3-10.3-3.3-7.8-9.7c1.4-3.7,5-6.5,7.8-10c2,1.8,3.1,2.8,5.6,5.1
	c-3.3,2-6.3,3.7-9.5,5.7c4,3.6,6.5,4.8,9.9,2.2c2.4-1.8,5.2-1.9,6,1.2c-5.5,11.6-14.9,11.4-25.5,7.8c2.3,6.9,4.1,12.4,6.2,18.7
	c6.8-7.9,13.4-15.6,20-23.3c0.6,0.1,1.1,0.3,1.7,0.4c0,1.6,0.6,3.6-0.1,4.9C-132.8,497.2-133.1,499.3-130.1,506.4z"/>
<path class="st9" d="M-63.6,450.3c0.6,0.4,1.2,1,1.9,1.3c2.9,1.3,6.6,2.8,4.7,6.5c-1.8,3.5-5.3,6.3-8.2,9.2
	c-0.3,0.3-2.5-0.4-2.9-1.2c-0.4-0.7,0-2.4,0.6-3.1c1.5-1.7,3.4-3.2,5.2-4.8c-2.7-3.9-5.5-3.3-8.8-1.8c-2.7,1.3-5.9,3.2-6.9-2.3
	c2.5-2.4,4.8-5.4,7.9-7.1c2.5-1.4,5.9-1.8,8.9-1.8c2.5,0,5,1.1,7.5,1.7c6.3,1.7,11.8-1.5,12.6-8.1c0.5-4.4,0.1-8.9-0.2-13.3
	c-0.3-4.5,2.3-6.2,6.1-6.7c0.9-0.1,2.4,0.6,2.9,1.4c0.3,0.5-0.6,1.9-1.1,2.8c-0.8,2-2.1,3.8-2.4,5.9c-0.4,2.5,0.1,5.1,0.1,7.7
	c-0.3,12.1-10.5,18.9-21.9,14.7c-1.9-0.7-3.7-1.5-5.6-2.2C-63.2,449.5-63.4,449.9-63.6,450.3z"/>
<path class="st9" d="M-80.3,451.3c0.3-1.7,0.2-3.8,1.1-5.1c2.7-4,3.1-7.9,0.8-13.1c-0.9,0.4-1.8,1.1-2.7,1.1
	c-1.8-0.1-3.6-0.5-5.3-0.9c0.9-1.6,1.4-4,2.8-4.8c6.7-4.1,9.3-2.8,13.5,6.8c2.7-3.3,4.9-6.6,7.7-9c2.3-1.9,5.4-2.9,8.1-4.2
	c1.3,2.8,2.7,5.5,3.8,8.4c1.2,3.3,2.1,6.8,2.8,10.3c0.3,1.6-0.2,3.3-0.4,5c-1.5-0.8-3.8-1.1-4.3-2.3c-1.9-4.3-3.2-8.9-4.9-13.7
	C-64,436.9-71,444.5-78,452.1C-78.8,451.8-79.5,451.5-80.3,451.3z"/>
<path class="st10" d="M-149.7,445.4c0-4.4,0.2-8.8,0-13.2c-0.3-6.5,3-10,8.7-12.1c11.1-4.2,22.1-8.3,32.9-13.2
	c4.2-1.9,6.3-0.4,8.3,2.5c2.9,4.4,5.7,8.8,8.1,13.4c8,15,15.9,30,23.5,45.1c1.8,3.6,2.4,7.9,2.6,12c0.4,8,0.3,15.9-0.1,23.9
	c-0.1,1.8-1.5,4.6-3,5.3c-13,5.7-26.3,10.9-39.4,16.4c-2.9,1.2-4.3,0.8-6-2.1c-11-19.3-22.7-38.2-33-57.8c-3-5.7-2.1-13.4-3-20.2
	C-150,445.5-149.9,445.5-149.7,445.4z M-142.2,427.7c1.6,2.9,2.6,4.9,3.8,6.8c5.8,9.7,11.7,19.3,17.3,29c3.8,6.5,7,13.4,11,19.8
	c1,1.7,4.4,3.6,5.7,3.1c10.6-4.2,20.9-9.1,32-14c-4.3-7.8-8.1-14.7-12.1-21.9c-2.5,1.1-4.2,1.8-5.8,2.7c-7.9,4.1-8.2,4.1-12.5-3.6
	c-4.9-8.8-9.6-17.7-14.7-26.3c-0.9-1.6-4.1-3.3-5.6-2.8C-129.2,422.3-135.1,424.9-142.2,427.7z M-95.9,449.3c8.5-4.4,8.6-4.5,5-11.5
	c-3.2-6.1-6.6-12.1-10-18.1c-4-7.1-4-7.1-12.1-2.4C-107.4,427.8-101.7,438.4-95.9,449.3z M-106.4,499.3c11.7-4.6,21.6-8.5,31.5-12.4
	c3.5-1.4,5-3.5,2.6-8.1c-10.7,4.7-21.3,9.3-31.9,14.2C-105.2,493.5-105.3,496.1-106.4,499.3z M-126.8,488.4
	c4.9-12.6,3.3-20.8-5.6-29C-135.7,469.9-135.8,479.7-126.8,488.4z M-117.3,484c-6.7,7.1-5,19.7,4.3,29
	C-112.4,502.7-107.8,492.3-117.3,484z M-70.5,504.2c-0.4-0.9-0.7-1.7-1.1-2.6c-11.4,4.3-22.8,8.5-34.1,12.9c-1,0.4-1.3,2.5-1.9,3.8
	c0.4,0.4,0.8,0.8,1.2,1.2C-94.6,514-81.3,511.8-70.5,504.2z M-106.2,505.3c0.3,0.8,0.6,1.7,0.9,2.5c11.5-4.2,22.9-8.4,34.4-12.7
	c-0.4-1-0.8-2-1.1-3C-83.4,496.6-94.8,500.9-106.2,505.3z M-140.9,442.7c-0.8,0-1.6,0.1-2.4,0.1c0.3,5.9,0.7,11.8,1,17.7
	c0.6,0,1.3,0,1.9-0.1C-139.1,454.5-136.3,448.5-140.9,442.7z"/>
<path id="path7361_2_" class="st10" d="M-119.2,433.2c0,3.1-2.5,5.6-5.6,5.6s-5.6-2.5-5.6-5.6s2.5-5.6,5.6-5.6
	S-119.2,430.1-119.2,433.2z"/>
<path id="path7361_3_" class="st10" d="M-111.9,446.4c0,3.1-2.5,5.6-5.6,5.6s-5.6-2.5-5.6-5.6s2.5-5.6,5.6-5.6
	S-111.9,443.4-111.9,446.4z"/>
<path id="path7361_4_" class="st10" d="M-104.7,459.9c0,3.1-2.5,5.6-5.6,5.6s-5.6-2.5-5.6-5.6s2.5-5.6,5.6-5.6
	S-104.7,456.9-104.7,459.9z"/>
</svg>
