<?xml version="1.0" encoding="utf-8"?>
<!-- Generator: Adobe Illustrator 19.0.0, SVG Export Plug-In . SVG Version: 6.00 Build 0)  -->
<svg version="1.1"
	 id="svg2985" xmlns:dc="http://purl.org/dc/elements/1.1/" xmlns:cc="http://creativecommons.org/ns#" xmlns:rdf="http://www.w3.org/1999/02/22-rdf-syntax-ns#" xmlns:svg="http://www.w3.org/2000/svg"
	 xmlns="http://www.w3.org/2000/svg" xmlns:xlink="http://www.w3.org/1999/xlink" x="0px" y="0px" viewBox="-237 -92 210 255"
	 style="enable-background:new -237 -92 210 255;" xml:space="preserve">
<style type="text/css">
	.st0{enable-background:new    ;}
	.st1{fill:#005F00;}
	.st2{fill:#CDDACD;}
	.st3{fill:#FFFFFF;}
	.st4{fill:url(#rect3008_2_);}
	.st5{filter:url(#filter3970-5);}
	.st6{fill:url(#SVGID_1_);}
	.st7{fill:#994913;}
	.st8{fill:#038249;}
	.st9{fill:#038249;stroke:#038249;stroke-miterlimit:10;}
	.st10{fill:#2A3B92;stroke:#2A3B92;stroke-linecap:round;stroke-miterlimit:10;}
	.st11{fill:#2A3B92;}
	.st12{fill:#BC197A;}
</style>
<filter  width="1.2171124" height="1.2150326" y="-0.10751629" x="-0.10855621" id="filter3970-5" color-interpolation-filters="sRGB">
	<feGaussianBlur  stdDeviation="0.12800763" id="feGaussianBlur3972-8"></feGaussianBlur>
</filter>
<g id="g4146" transform="translate(39.768324,209.71794)">
</g>
<g id="g4630_1_" transform="matrix(1.0005937,0,0,1,-1.3758072,203.40625)" class="st0">
	<g id="g3062_1_">
		<path id="rect4031_1_" d="M-176.2-295.4l46.1,0.2l68.4-0.2c22.9-0.1,36.1,15.9,36.1,40.4v154.6c0,12.3-14,27.7-21.4,35.7
			s-22.1,24.3-33.6,24.3h-113c-22.9,0-41.3-5.6-41.3-30.2l-0.3-162.3c0-6.4,17.3-24.3,24.8-32.4C-203-273.3-187.6-295.5-176.2-295.4
			L-176.2-295.4z"/>
		<path id="rect3767_1_" class="st1" d="M-167.4-282.7h104.5c13.8,0,24.8,11.1,24.9,24.9l0.9,152.4c0,2-12.6,32-25.8,32h-104.5
			c-13.8,0-24.9-11.1-24.9-24.9v-159.5C-192.3-271.6-181.2-282.7-167.4-282.7L-167.4-282.7z"/>
		<path id="rect3861_1_" class="st2" d="M-182.3-267.7h99.6c13.7,0,24.9,11.2,24.9,24.9v159.5c0,13.8-11.1,24.9-24.9,24.9h-99.6
			c-13.7,0-24.9-11.2-24.9-24.9v-159.5C-207.2-256.6-196.1-267.7-182.3-267.7z"/>
		<path id="rect3765_1_" class="st3" d="M-192.3-252.8h104.5c13.7,0,24.9,11.2,24.9,24.9v149.5c0,13.8-11.1,24.9-24.9,24.9h-104.5
			c-13.7,0-24.9-11.2-24.9-24.9v-149.5C-217.2-241.6-206-252.8-192.3-252.8z"/>
		
			<linearGradient id="rect3008_2_" gradientUnits="userSpaceOnUse" x1="-369.8559" y1="182.6285" x2="-369.8559" y2="144.1098" gradientTransform="matrix(4.9807 0 0 -4.9841 1694.6462 667.4196)">
			<stop  offset="0" style="stop-color:#D0E4CC"/>
			<stop  offset="1" style="stop-color:#FBFFEC"/>
		</linearGradient>
		<path id="rect3008_1_" class="st4" d="M-202.3-242.8h109.5c11,0,19.9,8.9,19.9,19.9v149.5c0,11-8.9,19.9-19.9,19.9h-109.5
			c-11,0-19.9-8.9-19.9-19.9v-149.5C-222.2-233.9-213.3-242.8-202.3-242.8z"/>
		<path id="path3932_1_" class="st3" d="M-42.7-270.2c0,1.5-1.3,2.8-2.8,2.8s-2.8-1.3-2.8-2.8s1.3-2.8,2.8-2.8
			S-42.7-271.8-42.7-270.2z"/>
		<g id="path3936_1_" class="st5">
			
				<linearGradient id="SVGID_1_" gradientUnits="userSpaceOnUse" x1="-360.7442" y1="203.5567" x2="-363.8599" y2="200.0874" gradientTransform="matrix(7.1013 0 0 -6.6887 2518.0134 1087.4099)">
				<stop  offset="0" style="stop-color:#FFFFFF"/>
				<stop  offset="1" style="stop-color:#FFFFFF;stop-opacity:0"/>
			</linearGradient>
			<polygon class="st6" points="-47.8,-271.6 -76.6,-247 -68.4,-241 -43.2,-269.3 			"/>
		</g>
		<path id="path3882_1_" class="st3" d="M-60-248.3c0,4.8-3.9,8.7-8.7,8.7c-4.8,0-8.7-3.9-8.7-8.7c0,0,0,0,0,0
			c0-4.8,3.9-8.7,8.7-8.7C-63.9-257-60-253.1-60-248.3C-60-248.3-60-248.3-60-248.3z"/>
	</g>
</g>
<g>
	<path class="st7" d="M-111.4-23.4l-2.4,0.9c-2.6,0.9-4.2,1.5-4.9,1.8l-1.6,0.6c-0.5,0.2-0.9,0.4-1.3,0.4c-1.1,0-3.6-3-3.9-4.6
		l0.1-0.2c0.7,0.1,1.2,0.1,1.6,0.1c2,0,4.2-0.5,12.3-3c0.1-0.7,0.1-0.9,0.1-1.5c0-4.1-0.3-4.9-1.9-4.9c-0.5,0-1.3,0.2-2.2,0.3
		l-0.2-0.4c0.2-1.5,1.8-2.3,4.2-2.3c1.8,0,4,0.8,4.7,1.8c0.7,1,0.9,2.1,0.9,5.9c3.5-0.5,3.9-0.6,4.8-0.6c1.9,0,3.2,0.5,6.6,2.8
		c2.1,1.3,2.6,1.9,3,3.7c0.5,0.2,0.9,0.2,1.1,0.2c0.4,0,1.1-0.1,1.9-0.4c1.7-0.5,3.4-0.9,4-0.9c2.3,0,5.1,2.3,5.1,4.3
		c0,0.9-0.8,1.5-1.9,1.5l-5.8-0.2c-2.3,0-6.9,0.5-10.6,1.2c-3.3,0.5-5.1,1.2-8.7,3.1v1.2c5.9-1.6,8.2-2.1,9.3-2.1
		c1.6,0,4.1,2.3,4.1,3.9c0,0.7-0.5,0.9-2,0.9h-0.5h-1.8c-2.3,0-6.5,1.2-9.1,2.7l-0.2,2.7c6.3-1,6.7-1.2,6.7-2.4
		c0-0.5,0.2-0.7,0.5-0.7c0.2,0,0.5,0.1,0.9,0.2c0.1,0.1,1.2,0.3,2.7,0.7c4.3,1,6,1.9,6,3c0,0.7-0.6,1.2-1.3,1.2
		c-0.2,0-0.5,0-0.8-0.1c-0.5-0.1-0.8-0.1-1.2-0.1c-1.2,0-1.2,0-6.9,0.6c-3.6,0.5-3.6,0.5-6.8,0.8l-0.2,3.9c7.9-1.4,9-1.6,11.8-2
		c1.6-0.3,3.2-0.5,3.4-0.7c0.9-0.2,1.6-0.3,1.9-0.3c2.1,0,4.8,2.1,4.8,3.7c0,1-0.9,1.6-2.4,1.6c-0.2,0-0.9,0-1.5-0.1
		c-1.9-0.2-3.1-0.2-3.9-0.2c-3.6,0-13.7,1.8-17.6,3.2c-0.2,0-2.7,1.2-7.5,3.4l-0.2-0.4c1.2-1.2,1.4-1.5,3-3
		c-3.9,0.9-6.2,1.7-9.2,3.2c-1.2,0.5-2.2,0.9-2.9,0.9c-1.5,0-4.6-3-4.8-4.6c0-0.1,0-0.2,0.1-0.3l0.3-0.2c0.5,0.1,1.1,0.2,1.2,0.2
		c1.1,0.2,1.9,0.3,2.3,0.3c1,0,9.4-1.9,16.2-3.7v-3.6c-4.1,0.7-4.2,0.7-10.6,2.7c-0.6,0.2-1.2,0.4-1.4,0.4c-1.2,0-3.4-2.3-3.4-3.5
		c0-0.2,0.1-0.5,0.2-0.8l0.4-0.2c1,0.2,1.9,0.2,2.3,0.2c2,0,5.2-0.9,8.3-2.2c2-0.8,2.7-1.3,4.1-2.8l0.2-1.9
		c-3.7,1.1-5.9,1.8-10.1,3.4c-1.3,0.5-2.3,0.8-3.1,0.8c-1.8,0-3.7-1.4-4.6-3.4l0.2-0.4c2.5-0.1,3.9-0.2,5.1-0.5
		c7.3-2.2,11.1-3.7,12.3-4.8l0.2-1.9c-10.6,1.8-20.4,4.3-25,6.4c-1.7,0.8-3,1.2-3.8,1.2c-1.1,0-3-1-4.1-2.2c-1.1-1.1-1.5-2-1.7-3.7
		l0.5-0.3l0.9,0.3c1,0.2,1.8,0.4,2.1,0.4c0.5,0,0.5,0,8.3-1.5c4.6-0.9,9.2-2,13.9-2.9c0.4-0.1,5-1,9.4-1.8V-23.4z M-123.7,16.3
		c1.4,0.2,1.5,0.3,3.4,2.7l0.9,1.2c1.4-0.5,1.6-0.5,3.4-0.9c5.6-1.4,6.4-1.7,9.9-3.2c0.6-0.3,1.2-0.4,1.5-0.4c1.5,0,4.1,2,4.1,3.2
		c0,0.7-0.5,0.9-2.4,1.1c-5.2,0.9-6.6,1.4-8.3,2.7c-1.2,0.9-1.4,0.9-2.3,1.1l-0.1-0.2c0.5-0.7,0.6-1.2,0.6-1.7
		c0-0.3-0.2-0.5-0.7-0.5l-2.8,0.2l-1.9-0.2c-0.2,0-0.3,0-0.6,0.1c1.3,2.4,1.6,2.8,2.8,5.5c4.5-1.6,10.1-2.9,11.9-2.9
		c0.7,0,0.9,0.1,2,0.9c0.6,0.5,0.6,0.5,1.4,0.8c2-2.7,4.8-9.2,4.8-11.2c0-1.6-1.4-2.5-3.9-2.5c-4.2,0-9.4,1.3-16.2,4.1
		c-0.5,0.2-0.9,0.3-1.3,0.3c-0.9,0-1.4-0.5-1.9-1.8l0.2-0.4c6.7-3.9,13.3-5.9,19.5-5.9c5.7,0,11.2,3.2,11.2,6.6
		c0,0.9-0.1,0.9-1.5,2.7c-0.2,0.2-0.4,0.7-0.8,1.6c-1.7,4.4-5.1,10.6-6.6,11.8c-0.5,0.4-0.9,0.6-1.2,0.6c-0.4,0-0.5-0.1-1.9-1.7
		c-0.7-0.8-1.9-1.2-3.3-1.2c-4.2,0-9,0.8-10.9,1.7c-0.6,0.3-0.7,0.4-2.4,2c-0.2,0.2-0.5,0.3-0.6,0.3c-0.5,0-1.3-0.9-2.7-2.7
		c-2.6-3.9-4.1-7.9-4.1-11.5c0-0.9,0.1-1.3,0.5-2.2H-123.7z M-106.3-19.8c2.8-0.5,4.1-1,5.2-2c1-0.9,1.8-2.2,1.8-3.1
		c0-0.6-0.5-1.1-1.2-1.1c-0.5,0-2.3,0.4-5.5,1.1L-106.3-19.8z"/>
</g>
<path class="st8" d="M-186.7-3.4c0-5-3.1-8.3-9.2-10v-0.3c5.4-1.9,8.1-5.1,8.1-9.7c0-3.8-1.9-6.7-5.7-8.6c-2.4-1.1-5.2-1.6-8.5-1.6
	c-4,0-7.2,1-9.8,3c-2.1,1.7-3.2,3.7-3.2,5.9c0,2.9,1.4,4.3,4.1,4.3c2.6,0,3.8-1.2,3.8-3.5c0-1.7-0.9-2.8-2.6-3.4c1.8-2,4.3-3,7.6-3
	c5.5,0,8.2,2.3,8.2,6.9c0,5.6-3,8.5-9,8.5h-4v3.4h4c6.7,0,10,2.6,10,7.9c0,5.4-3.3,8.1-10,8.1c-4,0-6.6-1-7.8-3.1
	c1.8-0.4,2.7-1.5,2.7-3.3c0-2.3-1.2-3.5-3.6-3.5c-3,0-4.5,1.5-4.5,4.5c0,2.7,1.4,5,4.3,6.8c2.6,1.5,5.6,2.3,9.2,2.3
	c4.2,0,7.7-0.8,10.4-2.4C-188.5,3.8-186.7,0.7-186.7-3.4z"/>
<g>
	<path class="st9" d="M-78.3,100.9c-0.4,7.8-0.9,14.4-2.3,20.5c-2.1,9-5.2,14.6-9.9,15.6c-3.8,0.9-7.4-0.3-11.1-1.6
		c-3.3-1.1-6.6-1.3-10-0.3c-6,1.8-12,3.8-18,5.7c-5.7,1.7-11.1,0.2-16.5-3.8c-3.1-2.3-6-4.8-8.5-9.5c-3.5-6.5-5.8-14.7-6.4-24.8
		c-0.5-8,0.5-15.8,1.9-23.2c1.1-5.8,2.9-10.4,5.4-13.6c2.2-2.9,4.6-3.6,7-2.6c1.9,0.7,3.5,0.1,5.1-2.5c5.7-9.1,12-14.9,19-16.5
		c5.1-1.2,10.1,0.1,14.8,4c4.6,3.7,9.1,7.8,13.6,12.1c2.8,2.6,5.6,5.3,8.1,8.7c4.3,5.8,6.9,14.4,7.5,25.9
		C-78.3,97.4-78.3,99.7-78.3,100.9z M-140.8,132.3c3-0.2,6,0.1,8.9-0.7c5-1.2,10-3.3,15-4.6c3.9-1,7.9-1.5,11.9-1.8
		c3.3-0.2,6.6,0.1,9.8,0.3c3.7,0.2,7.3-1.7,10.6-6c3.2-4,5.1-10.1,5.3-18c0.4-13.5-2.1-24-7.2-31c-2.3-3.1-4.8-5.4-7.3-7.7
		c-4.7-4.3-9.4-8.7-14.2-12.5c-4.9-3.9-10-5.2-15.2-4c-6.7,1.6-12.8,6.9-18.2,16c-1.8,3-3.5,3.7-5.7,2.9c-2-0.8-4.1-0.3-6,2
		c-4.4,5.5-6.3,14.6-6.9,24.9c-0.6,11.1,1.6,20,5.3,27C-150.6,126.7-146.1,131.3-140.8,132.3z M-80,112.5c-0.1,0.2-0.2,0.3-0.2,0.4
		c-2.3,6.9-5.5,10.3-9,12.6c-3.2,2-6.5,1.5-9.7,1.6c-3.5,0.1-7-0.4-10.5,0.1c-4.5,0.6-9,1.6-13.5,3.1c-5.6,1.9-11.2,4.3-16.8,3.2
		c-2.2-0.4-4.4-1-6.5-2.3c-3.3-2-6.2-5.7-8.7-10.7c-1.6-3.3-4.2-10.2-4.1-9.7c1.5,8.9,4.2,15.5,7.9,19.8c6.4,7.5,13.2,10.7,20.5,8.9
		c5.4-1.3,10.8-3.3,16.2-5.1c4.2-1.4,8.5-1.9,12.7-0.6c3.5,1,6.9,2.6,10.5,1.9c2.6-0.5,5-1.9,7.1-6.1C-81.9,124.8-80.7,119-80,112.5
		z"/>
	<path class="st9" d="M-104.4,114.7c-3.4-0.4-6.7-0.7-10.1-1.2c-3.6-0.5-7.2,0.2-10.8,1.7c-2.9,1.3-5.9,2.7-8.8,3.7
		c-5,1.6-9.8,0.9-13.7-6.9c-2.2-4.3-3.9-9.5-4.1-16.3c-0.3-7.8,1.9-15.4,5.4-18c1.8-1.3,3.8-1.5,5.7-2.3c0.9-0.4,1.7-0.9,2.5-1.6
		s1.2-2,1.5-4.1c0.2-1.8,0.9-3.6,1.6-4.7c3.2-5.1,6.7-7.9,10.6-7.9c2.1,0,4,1.3,5.8,3.2c2.7,2.7,5.5,4.2,8.5,5
		c4.2,1.1,8.5,2.2,12.6,4c4.2,1.8,8.1,4.9,11.4,11.4c2.7,5.4,3.7,14.1,2.4,21c-0.9,4.7-2.7,7.3-4.7,9.5c-2.5,2.8-5.2,3.7-7.9,4
		C-99.1,115.4-104.4,114.9-104.4,114.7z M-109.6,112.9c4.2,0.2,8.3,0.6,12.5,0.6c2.6,0,5.2-0.7,7.6-3.2c0.6-0.7,1.3-2.2,1.6-3.7
		c0.7-4.6,0.6-9.2-0.7-13c-1.4-4.1-3.1-7.4-5.1-10.2c-3.3-4.6-6.9-6.8-10.9-7.1c-3.1-0.2-6.2-1.3-9.2-3.8c-3.5-3-7.1-5.5-10.9-4.9
		c-2,0.3-4,0.9-5.8,3.4c-2.1,2.9-4,6.2-5.8,10.1c-2,4.5-4.5,5.9-7.3,5.9s-5.4,1.1-7,7.1c-0.2,0.9-0.3,2.2-0.3,3.2
		c0.3,4,1.2,7.4,2.4,10.4c3.1,8.1,7.2,11,12,10.3c2.6-0.4,5.2-1.6,7.9-2.6c3.2-1.1,6.8-2.5,10.1-3.1
		C-115.1,112.3-113.1,112.6-109.6,112.9z M-87.1,107.4c1.3-1.5,2.3-3.9,2.8-6.8c1-6.1,0.3-11.6-1.4-16.3
		c-2.7-7.4-6.6-10.9-10.7-12.7c-4.7-2.1-9.5-3.2-14.2-4.6c-2.6-0.8-5.1-1.7-7.6-3.7c-1.8-1.4-3.6-2.9-5.5-3.4c-4-1-7.7,2-11.1,6.7
		c-0.8,1.1-1.2,2.4-1.4,4.3c-0.2,1.2-0.5,2.4-1,3.3c-1.3,2.5-2.8,3-4.4,3.3c-1.8,0.3-3.7,0.7-5.4,2.7c-2.2,2.6-3.4,6.8-4,12
		c1.5-4.4,3.5-5.9,5.8-6.2c1.4-0.2,2.7-0.2,4.1-0.6c2.5-0.6,4.1-4.4,5.8-8c2.2-4.7,4.6-9.1,7.7-10.3c3.7-1.6,7.4-1,10.9,1.9
		c4.1,3.5,8.4,6,12.9,6.2c1.9,0.1,3.9,0.9,5.8,2.1c3.7,2.5,6.9,7.5,9.4,13.9c0.7,1.8,1.3,4.3,1.5,6.7
		C-87,100.9-87.2,104.2-87.1,107.4z"/>
	<path class="st10" d="M-115.8,104.2c-1.4-1.9-3.5-1.9-5-0.1c-1.2,1.5-2.6,2.4-4.2,3c-1.9,0.7-4.3-1.4-4.1-6.6c0-0.6,0-1.3,0-1.9
		c-0.1-2.1-0.2-2.4-1.2-2.2c-1,0.2-2,0.6-3,0.7c-0.6,0-1.3-0.2-1.9-0.8c-1.1-1-1.4-2.4-0.8-4c0.9-2.6,2.5-3.2,4.1-3.6
		c1.7-0.5,3.5-0.8,5.2-1.4c0.5-0.2,0.9-0.8,1.2-1.4c0.7-1.3,1.4-2.8,2.1-4.2c1.8-3.5,4.1-4.1,6.7-0.6c2.3,3.3,4.3,3,6.4,2.3
		c1.1-0.4,2.3-0.7,3.5-0.5c2.5,0.3,4.3,5,3.7,9.5c-0.5,3.9-1.4,4.7-3.7,3.3c-0.6-0.4-1.3-0.7-1.9-0.8c-1-0.2-1.4,0.6-1.2,2.5
		c0.2,3.9-1.1,7.6-3,8.1C-114.1,105.7-115,105.2-115.8,104.2z"/>
	<g>
		<path class="st11" d="M-197.2,130.5c3-0.3,5.8-1.9,8.6-3c-1,1.3-4.3,3.5-5.8,4.1c-0.8,0.6-1.6,1.2-2.2,2c5.1-0.1,14.1-0.6,18.5-3
			c2.3-1.3,4.3-3.3,7-4.2c3.7-1.2,6.4,1.7,8.3,4.6c0.7,1.1,1.9,2,1.7,3.4c-1.3,0-2.7-0.2-4,0.1c-3.8,0.4-7.6,1.5-11.3,2.2
			c-7.2,1.4-14.5,2.2-21.5,3.9c-1.9,0.5-5.5,1.9-7.4,1.4c-1.2-0.3-6.5-3.4-7.5-4.2C-217.9,128.1-201,132.7-197.2,130.5z"/>
	</g>
	<path class="st12" d="M-166.5-20c-0.3-2.9-1.1-5.6-0.6-8.3c0.4-1.9,2.1-3.9,4-5.6c1.1-0.9,4.1-1.7,5.7-1.4c1.6,0.3,3.3,1.9,3.7,3.1
		c1.2,3-0.6,5.9-2.8,8.6c-0.9,1.1-2.1,2.2-3.3,3.5c6.8,2,4.9,6,5.3,9.5c0.1,1.4,0.6,2.9-2.2,3.8c-0.6,0.2-0.7,1.1-0.8,1.7
		c-1.7,9.9-3.3,19.9-5,29.8c-2.1,12.2-4.3,24.5-6.3,36.7c-0.1,0.9,0.5,1.8,0.7,2.8c0.2,0.7,0.4,1.4,0.2,2.1
		c-1.9,6.2-3.6,12.4-5.9,18.5c-0.8,2,0.8,3.2,2.2,4.4c5.7,5.1,6.3,10.6,4.5,16.5c-2.5,8.3-9.2,15-19.1,20.6
		c-3.1,1.7-5.8,3.8-10.4,4.5c0-0.3-0.1-0.7,0.1-0.9c5-6.1,4.8-12.4,1.9-18.8c-3.6-7.8-4.7-15.8,2.9-23.1c2.8-2.7,3.2-5.3,3.4-8.2
		c0.4-5.3,1-10.6,1.6-15.9c0-0.5,0.2-1.2,0.7-1.3c2.6-0.8,2.4-2.3,2.6-3.8c2.7-15.3,5.4-30.6,8.2-45.8c1.1-6.2,2.3-12.5,3.5-18.7
		c0.1-0.5,0.3-1.3-0.2-1.6c-2.3-1.1-1.2-2.5-0.9-3.8c0.3-1.4,0.9-2.8,1.1-4.2C-171.1-17.5-169.8-19.4-166.5-20z M-171.5,62
		c0.1-0.4,0.3-0.8,0.3-1.3c0.4-2.5,0.7-5.1,1.2-7.6c1.6-9.2,3.2-18.4,4.8-27.6c1.8-10.5,3.5-21,5.3-31.5c0.2-1.5-1.1-2.4-3.9-2.6
		c-3.2-0.2-4.8,0.4-5,2c-1.6,9-3.1,17.9-4.8,26.9c-2.1,11.7-4.3,23.5-6.5,35.2c-0.4,2-0.6,3.9-0.9,5.7
		C-177.6,61.5-174.7,61.7-171.5,62z M-187.4,86.9c-0.6,0.5-1.2,0.8-1.6,1.2c-3.9,4.2-6.2,8.7-5.3,13.5c1.1,6.1,3.2,12.2,4.8,18.3
		c0.4-2.3,0.7-4.6,0.4-6.8c-0.6-3.9-1.6-7.8-2.3-11.7c-0.2-1.2,0.4-2.5,0.6-3.8c0.5,0,1,0,1.4,0c-0.5,8.5,5.2,16.8,1.1,25.5
		c1.9-2,3.4-3.9,4.4-6c2.6-5.6,1.9-11.4,1.4-17.1c-0.1-1.4-0.1-2.8,2.3-4.1c0.5,9.6,1.9,19-6,27.7c7.3-5,11-10.9,12.3-17.4
		c0.4-1.8,0.8-3.6,1.2-5.4c0.5,0,1.1,0.1,1.6,0.1c-0.4,2.5-0.6,5.1-1.4,7.6s-2.2,5-3.3,7.4c4-4.3,6.3-8.9,6.9-13.8
		c0.6-4.5-1.6-8.5-4.9-12.3c-0.6-0.7-2.4-1.8-3-1.6C-180.7,89.2-183.8,88-187.4,86.9z M-182.8,63.2c-0.3,0.5-1.2,1.3-1.3,2.1
		c-0.7,6-1.2,11.9-1.7,17.9c-0.2,2.5,1.4,3.6,5.5,3.8c2.2,0.1,3.8-0.3,4.1-1.9c0.2-1.2,0.6-2.4,1-3.6c1.5-5,3.1-10.1,4.6-15.1
		c0.2-0.6-0.1-1.5-0.7-2C-173,63.1-179.3,62.3-182.8,63.2z M-157.5-8.5c0.3-0.1,0.6-0.2,0.9-0.3c-0.5-2.7-0.6-5.4-1.6-8
		c-0.3-0.8-3.1-1.7-4.7-1.7c-1.8,0-4.7,0.8-5.2,1.6c-1.3,2.4-1.6,5.1-2.5,8C-165.7-10.7-161.5-10.2-157.5-8.5z M-162.7-20.2
		c1-0.9,2-1.8,2.9-2.7c2.5-2.6,4.2-5.4,3.6-8.5c-0.1-0.8-1-1.8-2-2.1c-0.8-0.2-2.6,0.3-3.5,0.8C-165.7-30.2-166.3-23.2-162.7-20.2z"
		/>
</g>
</svg>
