<?xml version="1.0" encoding="utf-8"?>
<!-- Generator: Adobe Illustrator 19.0.0, SVG Export Plug-In . SVG Version: 6.00 Build 0)  -->
<svg version="1.1"
	 id="svg2985" xmlns:dc="http://purl.org/dc/elements/1.1/" xmlns:cc="http://creativecommons.org/ns#" xmlns:rdf="http://www.w3.org/1999/02/22-rdf-syntax-ns#" xmlns:svg="http://www.w3.org/2000/svg"
	 xmlns="http://www.w3.org/2000/svg" xmlns:xlink="http://www.w3.org/1999/xlink" x="0px" y="0px" viewBox="-237 -92 210 255"
	 style="enable-background:new -237 -92 210 255;" xml:space="preserve">
<style type="text/css">
	.st0{enable-background:new    ;}
	.st1{fill:#005F00;}
	.st2{fill:#CDDACD;}
	.st3{fill:#FFFFFF;}
	.st4{fill:url(#rect3008_2_);}
	.st5{filter:url(#filter3970-5);}
	.st6{fill:url(#SVGID_1_);}
	.st7{fill:#038249;}
	.st8{fill:#994913;}
	.st9{fill:#2A3B92;}
	.st10{fill:#BC197A;}
	.st11{fill:#D37F11;}
</style>
<filter  width="1.2171124" height="1.2150326" y="-0.10751629" x="-0.10855621" id="filter3970-5" color-interpolation-filters="sRGB">
	<feGaussianBlur  stdDeviation="0.12800763" id="feGaussianBlur3972-8"></feGaussianBlur>
</filter>
<g id="g4146" transform="translate(39.768324,209.71794)">
</g>
<g id="g4630_1_" transform="matrix(1.0005937,0,0,1,-1.3758072,203.40625)" class="st0">
	<g id="g3062_1_">
		<path id="rect4031_1_" d="M-176.2-295.4l46.1,0.2l68.4-0.2c22.9-0.1,36.1,15.9,36.1,40.4v154.6c0,12.3-14,27.7-21.4,35.7
			s-22.1,24.3-33.6,24.3h-113c-22.9,0-41.3-5.6-41.3-30.2l-0.3-162.3c0-6.4,17.3-24.3,24.8-32.4C-203-273.3-187.6-295.5-176.2-295.4
			L-176.2-295.4z"/>
		<path id="rect3767_1_" class="st1" d="M-167.4-282.7h104.5c13.8,0,24.8,11.1,24.9,24.9l0.9,152.4c0,2-12.6,32-25.8,32h-104.5
			c-13.8,0-24.9-11.1-24.9-24.9v-159.5C-192.3-271.6-181.2-282.7-167.4-282.7L-167.4-282.7z"/>
		<path id="rect3861_1_" class="st2" d="M-182.3-267.7h99.6c13.7,0,24.9,11.2,24.9,24.9v159.5c0,13.8-11.1,24.9-24.9,24.9h-99.6
			c-13.7,0-24.9-11.2-24.9-24.9v-159.5C-207.2-256.6-196.1-267.7-182.3-267.7z"/>
		<path id="rect3765_1_" class="st3" d="M-192.3-252.8h104.5c13.7,0,24.9,11.2,24.9,24.9v149.5c0,13.8-11.1,24.9-24.9,24.9h-104.5
			c-13.7,0-24.9-11.2-24.9-24.9v-149.5C-217.2-241.6-206-252.8-192.3-252.8z"/>
		
			<linearGradient id="rect3008_2_" gradientUnits="userSpaceOnUse" x1="-369.8559" y1="182.6285" x2="-369.8559" y2="144.1098" gradientTransform="matrix(4.9807 0 0 -4.9841 1694.6462 667.4196)">
			<stop  offset="0" style="stop-color:#D0E4CC"/>
			<stop  offset="1" style="stop-color:#FBFFEC"/>
		</linearGradient>
		<path id="rect3008_1_" class="st4" d="M-202.3-242.8h109.5c11,0,19.9,8.9,19.9,19.9v149.5c0,11-8.9,19.9-19.9,19.9h-109.5
			c-11,0-19.9-8.9-19.9-19.9v-149.5C-222.2-233.9-213.3-242.8-202.3-242.8z"/>
		<path id="path3932_1_" class="st3" d="M-42.7-270.2c0,1.5-1.3,2.8-2.8,2.8s-2.8-1.3-2.8-2.8s1.3-2.8,2.8-2.8
			S-42.7-271.8-42.7-270.2z"/>
		<g id="path3936_1_" class="st5">
			
				<linearGradient id="SVGID_1_" gradientUnits="userSpaceOnUse" x1="-360.7442" y1="203.5567" x2="-363.8599" y2="200.0874" gradientTransform="matrix(7.1013 0 0 -6.6887 2518.0134 1087.4099)">
				<stop  offset="0" style="stop-color:#FFFFFF"/>
				<stop  offset="1" style="stop-color:#FFFFFF;stop-opacity:0"/>
			</linearGradient>
			<polygon class="st6" points="-47.8,-271.6 -76.6,-247 -68.4,-241 -43.2,-269.3 			"/>
		</g>
		<path id="path3882_1_" class="st3" d="M-60-248.3c0,4.8-3.9,8.7-8.7,8.7c-4.8,0-8.7-3.9-8.7-8.7c0,0,0,0,0,0
			c0-4.8,3.9-8.7,8.7-8.7C-63.9-257-60-253.1-60-248.3C-60-248.3-60-248.3-60-248.3z"/>
	</g>
</g>
<g>
	<path class="st7" d="M-206.1-6c0.2-0.2,0.5-0.5,1-1c-1,0.1-1.9,0.2-2.3,0.2c-1.2,0.1-2.5,0.2-3,0.2c-2.7,0-3.8-0.9-3.8-3
		c0-1.6,0.3-2.3,1.2-2.4c3.8-0.9,6.2-2,9-4.2l-1.9,0.1c-3.5,0-5.5-1.2-7.4-4.4l0.3-0.4c0.6,0.1,1.1,0.1,1.3,0.1
		c1.2,0.1,2,0.2,2.1,0.2c1.6,0,4.4-1,7-2.4c0.2-2.5,0.3-3.8,0.3-5.3c0-1.3-0.1-2-0.4-2.3c-0.1,0-0.7-0.1-1.9-0.2l-0.2-0.6
		c0.9-1.2,2.7-2.1,4.1-2.1c1.9,0,3.4,1.9,3.4,4.4c0,0.9-0.2,2.3-0.3,3.7c0.5,0.2,0.8,0.2,0.9,0.3l1.5,0.1c1.1,0.1,2.7,2.5,2.7,4.1
		c0,0.6-0.5,1-1.5,1.3c-2.8,0.6-3.7,1.2-5.4,3.7l-0.1,0.7h0.6l1-0.2h0.2c1.1,0,2.6,2.2,2.6,3.7c0,0.5-0.3,0.7-1.7,1.2
		c-1.1,0.4-1.8,0.9-3.7,2.4c-0.1,1.1-0.1,1.4-0.3,3c0.5-0.2,1.1-0.5,1.3-0.5c0.9-0.4,0.9-0.5,0.9-1.2l0.2-0.4
		c0.9,0.1,1.9,0.2,2.2,0.2c3.2,0.2,3.2,0.2,3.8,0.4c0.5,0.3,0.9,0.9,0.9,1.6c0,1.6-0.5,2-2.9,2.3c-1.1,0.1-3.2,0.9-6.7,2.8
		c0.2,0.7,0.3,1.1,0.3,1.6l-0.1,1.2c-0.2,1.2-0.3,2.2-0.3,2.4v0.5c2.3-1.4,2.7-1.6,4.4-2.9c0.1-1.1,0.2-1.3,0.9-2.3l0.5,0.1
		c1.5,0.9,1.9,1.1,2.3,1.1c0.2,0,1.7-0.5,4.5-1.6c0.4-4.6,0.5-5.3,0.8-10c-1.2-0.8-2.3-1.5-2.8-1.8c-1.3-0.9-1.8-1.3-2-2.2l-0.1-0.5
		c1.1-0.1,2-0.1,2.4-0.1c1.6,0,1.8-0.1,3-0.3v-2.5c0-0.8,0-0.8-0.3-1.4c-0.9-1.7-1.4-3-1.7-3.7l0.1-0.7h0.4c1.5,0,4.7,1.8,5.9,3.3
		c0.5,0.6,0.7,1.6,0.7,3.5c0.9-0.2,1.1-0.2,2-0.7c1.5-0.8,2.9-1.5,4.4-2.2c0.2-5.8,0.3-8.5,0.3-10.1c0-2.3-0.1-2.8-1.1-4.1v-0.9
		c0.5-0.7,1.7-1.4,2.6-1.4c1.4,0,3.9,3.4,3.9,5.3c0,0.5-0.2,1.3-0.3,2.5c-0.1,0.3-0.2,1.6-0.3,3l-0.4,3.9c2.4,0.7,3.6,1.7,3.6,3
		c0,1-0.3,1.4-4.4,4.7l-0.1,6.8c2.7-0.3,3.2-0.4,4.2-0.4c3,0,5.5,2,5.5,4.3c0,0.8-0.5,1.4-1.2,1.4c-0.4,0-1.2-0.2-2.2-0.4
		c-0.6-0.2-1.4-0.2-2.3-0.2c-1.4,0-2.3,0.2-4.1,0.7c-0.2,26.4-0.3,31.5-1.2,33.9c-0.5,1.2-1.1,2-1.4,2c-1.6-0.1-2.5-7.4-2.5-22.5
		c0-2.7,0.2-7.3,0.4-13c-3.2,1.1-5.8,2.5-7.9,4.3c-0.1,5.9-0.3,7.3-2.4,12.9c-0.5,1.4-0.9,2.1-1.2,2.1c-0.7,0-1.9-3-1.9-4.8
		c0-0.9,0-0.9,0.9-3.7c0.2-0.6,0.5-2.3,0.5-5.1c-1.5,0.5-2.2,0.6-3.1,0.6c-1.1,0-2.2-0.3-2.7-0.7c-1.1-0.8-1.1-0.8-1.6-0.9
		c-0.5,0.2-0.8,0.4-0.9,0.5l-1,1.2l-3.6,3.9c-0.2,0.2-0.5,0.6-1.1,1.4c-0.1,0.9-0.2,1.3-0.2,1.4C-202,22-202,22-202,22.6
		c0,2.4-0.2,3.6-0.8,3.6c-0.2,0-0.7-0.5-1.4-1.5c-1.4-1.8-1.9-3.5-1.9-6.4c0-1.2,0-2.7,0.1-4.4l-0.2-0.2c-1.6,1.1-1.6,1.2-3.4,2.7
		c-0.9,0.7-1.6,1.1-2,1.1c-1.1,0-2.1-1.9-2.1-3.7c0-1.8,0.5-2.8,1.6-3.1c2.9-0.3,6.6-5.1,7.4-9.5c-1.2,0.6-2.2,1.2-2.6,1.3
		c-1.6,0.9-3.4,1.8-3.5,2c-2.9,1.7-3.5,2-4.8,2c-2.4,0-5.2-1.5-5.2-2.7c0-0.2,0.1-0.6,0.2-1.1l0.8-0.6c1.6-0.4,2-0.5,3.5-1.2
		c2.3-1.2,3.9-2.1,4-2.2l5-3.4L-206.1-6z M-181.6-10.8c-0.1,0-0.9,0.4-1.8,0.7c-0.2,3.6-0.2,4.1-0.5,7.5c0.6,0,0.9-0.1,2.3-0.7
		c1.1-0.5,1.8-0.8,5.5-2v-5c-2.5,1.9-2.9,2.3-5.5,3.7v-0.7c2.4-2.2,2.7-2.5,4.6-5.1l-1.5,0.7L-181.6-10.8z"/>
</g>
<path class="st8" d="M-80.3-2.7c0-5-3.1-8.3-9.2-10V-13c5.4-1.9,8.1-5.1,8.1-9.7c0-3.8-1.9-6.7-5.7-8.6c-2.4-1.1-5.2-1.6-8.5-1.6
	c-4,0-7.2,1-9.8,3c-2.1,1.7-3.2,3.7-3.2,5.9c0,2.9,1.4,4.3,4.1,4.3c2.6,0,3.8-1.2,3.8-3.5c0-1.7-0.9-2.8-2.6-3.4c1.8-2,4.3-3,7.6-3
	c5.5,0,8.2,2.3,8.2,6.9c0,5.6-3,8.5-9,8.5h-4v3.4h4c6.7,0,10,2.6,10,7.9c0,5.4-3.3,8.1-10,8.1c-4,0-6.6-1-7.8-3.1
	c1.8-0.4,2.7-1.5,2.7-3.3c0-2.3-1.2-3.5-3.6-3.5c-3,0-4.5,1.5-4.5,4.5c0,2.7,1.4,5,4.3,6.8c2.6,1.5,5.6,2.3,9.2,2.3
	c4.2,0,7.7-0.8,10.4-2.4C-82.1,4.4-80.3,1.3-80.3-2.7z"/>
<g>
	<path class="st9" d="M-137.3,12.5c3,2.4,7.5,4.5,7.8,8c0.1,1.1,0.2,3.8-0.2,5.3c-0.6,2.5-16.3-14-20.7-14.2
		c-1.9-0.1-2.4,2.3,0.7,5.2c2.5,2.3,20,14.2,20.1,17.3c0.3,7.5,0.1,16,0.1,21.7c2.2,1.5,5.6,7,7.5,8.3c0.2-14.4,0.4-46.4,0.3-48.2
		c-0.3-2.9-0.4-24.3-0.7-25.2c-0.3-0.9-0.4-3.3-3.4-6c-3.1-2.7-11.6-8.3-12.1-8.9s-5.6-3.1-6.3-4c-0.8-0.6-4,1.6,0,5.1
		c3.5,3.1,10.1,6.9,13.5,10.1c0.8,0.9,0.8,1.9,0.9,3c0.1,1.1,0.5,6-0.4,6.6c-2.4-1-13.8-9.4-15.1-10.4c-1.3-0.9-4.4-1.5-3.8,1.9
		c0.8,2.9,7.1,6.5,10.5,8.8c2.3,1.5,5,3.1,7.6,5.2c0.5,0.9,1.7,2.2,1.2,6.8c-0.1,1,0.4,2.8-0.4,3.4c-3-1.5-8.4-6.9-11-8.6
		c-2.6-1.7-3.6-2.6-6.8-4.1c-2.5-1.3-3.6-0.1-2.6,2.2C-148.6,4.9-142,9.2-137.3,12.5z"/>
	<path class="st9" d="M-122.7,132.2c0-0.8,0.3-18.2,0.5-33.5c-0.9,0.2-1.9,0.3-2.9,0.3c-1.4,0.1-2.8,0.2-4.2,0.3
		c0.1,14.7,0.1,31.3,0.1,31.5c-0.2,2.4,0.3,9.5,0.5,11.5c0.2,1.9,1.2,3,3.1,3.3c2.1-1.5,3.1-3.5,3-6.1
		C-122.8,137-122.8,134.5-122.7,132.2z"/>
	<path class="st10" d="M-131.7,99.5c-1,0.2-2.1,0.2-3.1,0.2c-4.9,0.3-9.8,0.5-14.7,0.4c-7.6,4.6-25.7,15.2-26.4,15.6
		c-7,4.2-13.1,10.3-15.5,7c-2.3-3.3-5.1-9.4-7.4-8c-4.1,2.3-3.6,3.5-2.4,5.5c1.2,1.9,2.3,3.9,3.4,5.8c-0.2,1.6-3.1,2.3-5.2,3.6
		c-2.1,1.3-6.3,3.1-7.6,4.1c-3.3,2.6-0.9,7.3,3.4,6.1c1.6-0.4,3.8-1.7,5.7-2.8c4.8-2.6,9.2-3.6,10.1-1.4c0.9,2.2,2.5,5.1,5.3,5.8
		c1.8,0.9,3.7-1.2,3.5-3.3c-0.2-2-3.4-5.8-3.9-7.4c3-2.5,11.1-6.6,14-7.8c2.9-1.2,23.9-12.7,31.2-16.7c0.3-0.2,4.4-2.9,10-6.6
		C-131.6,99.5-131.6,99.5-131.7,99.5z"/>
	<path class="st10" d="M-85.3,59.6c-3.3-2.4-8.9,1.9-11.9,4.5c-1.2,1-8,5.8-16.2,11.5c0.3,0.2,0.5,0.4,0.8,0.7
		c2.5,2,5.2,3.6,7.8,5.5c5.8-3.9,10.2-6.9,10.9-7.5c3-2.5,5.8-5,8.8-7.5C-83.8,65.5-82.7,61.9-85.3,59.6z"/>
</g>
<path class="st11" d="M-147.6,102.2c-15.8-0.9-31.3-1.5-46.7-2.8c-6.9-0.6-13.7-2.7-20.5-4.2c-0.9-0.2-1.7-1.3-2.5-2
	c0.8-0.9,1.4-2.3,2.3-2.6c9.2-3.6,18.3-7.3,27.7-10.5c5.5-1.9,9.9-4.7,13.4-9.4c7-9.5,14.3-18.7,21.5-28c0.9-1.2,1.9-2.4,3.1-3.2
	c2.3-1.5,4.5-1.5,6.5,0.7c6.8,7.8,13.9,15.2,20.2,23.3c8.5,10.9,19,18.5,31.8,23.3c3.5,1.3,6.7,3.1,10,4.7c0.7,0.4,1.2,1.2,1.8,1.9
	c-0.7,0.6-1.3,1.5-2.1,1.7c-5.2,1.1-10.3,2.6-15.6,3.1C-113.6,99.7-130.7,100.9-147.6,102.2z M-85.1,94.1c0.1-0.4,0.1-0.7,0.2-1.1
	c-2.2-1-4.4-2-6.5-3c-6.3-3.1-13.2-5.3-18.6-9.5c-6-4.6-10.9-10.9-16-16.7c-5.8-6.5-11.1-13.3-16.9-19.9c-2.7-3.1-5-3-7.4,0.1
	c-8.1,10.6-16,21.3-24.1,32c-0.8,1-1.9,2-3.1,2.5c-5.9,2.6-11.9,5.1-17.9,7.4c-5.7,2.2-11.4,4.3-17.1,6.4
	C-170.1,103.1-127.6,99.1-85.1,94.1z"/>
<path class="st11" d="M-126.8,79.2c-1.1-2.5-2.2-4.9-3.4-7.5c-1.2,0.3-2.3,0.6-3.5,1c0.1,1.9,0.2,3.7,0.3,5.5
	c-0.3,0.1-0.6,0.1-1,0.2c-0.6-1.6-1.2-3.1-1.9-5c-1.8,0.3-3.8,0.6-5.9,1c0,1.9,0,3.6,0,5.3c-0.3,0-0.5,0.1-0.8,0.1
	c-0.3-0.7-0.7-1.4-0.7-2.1c0-2.8-1.4-3.6-4.1-3.3c-1.2,0.2-2.4-0.2-3.7-0.4c0-0.3,0-0.6-0.1-0.9c2.1-0.3,4.3-0.5,6.8-0.8
	c-0.3-1.7-0.6-3.3-0.9-5c-2,0-3.7,0-5.5,0c-0.3,0.9-0.6,1.9-1.1,3.4c-2.1-3.4,0.1-7.6-3.6-10c1.6-2.1,2-4.1-0.7-5.8
	c0.9-1.2,1.6-2.1,2.5-3.3c2.1,1.5,4.1,2.6,4.5-1.2c1.6,0.8,3.1,1.5,5.2,2.6c-0.2-1.8-0.3-2.6-0.4-3.9c1.9,1,3.4,1.8,4.9,2.5
	c-0.7,4.6-0.5,4.8,4.2,5.4c0.7,0.1,1.7,0.6,1.9,1.2c2.7,6.5,5.3,13.1,7.9,19.6c0.1,0.3-0.2,0.7-0.3,1.1
	C-126.2,79.1-126.5,79.2-126.8,79.2z M-143.8,67.3c0.7,1.9,1,4.4,1.9,4.7c1.6,0.5,3.6-0.4,5.7-0.7c-0.7-2.1-1.1-3.6-1.6-5.1
	C-139.9,66.6-141.5,66.8-143.8,67.3z M-138.6,64.3c-1.5-5.3-2.4-5.8-6.4-3.1C-143.8,65.9-143.8,65.9-138.6,64.3z M-151.6,61.6
	c0.1,1.4,0.2,2.7,0.3,4.2c1.1-0.1,1.9-0.1,2.7-0.2s1.6-0.2,2.6-0.4c-0.4-1.6-0.7-2.9-1-4.2c-1.2,0.1-2.2,0.2-3.1,0.3
	C-150.6,61.3-151,61.4-151.6,61.6z M-147.6,59.1c-0.7-4.8-1.3-5.1-5.2-3.3c0.4,1.2,0.7,2.3,1.1,3.7C-150.3,59.3-149,59.2-147.6,59.1
	z M-141.2,57.8c-1.1-4.3-1.3-4.4-5.4-2.8c0.4,1.2,0.8,2.5,1.3,4C-143.8,58.5-142.5,58.1-141.2,57.8z M-135.8,66.2
	c0.4,1.5,0.9,3.1,1.3,4.7c0.9-0.2,1.4-0.3,1.9-0.4c0.6-0.2,1.1-0.4,1.6-0.7C-132.4,64.7-132.5,64.6-135.8,66.2z M-133.4,63.1
	c-0.8-1.7-1.5-3.2-2.3-4.8c-1,0.5-1.7,0.8-2.8,1.3C-136.7,60.8-138,65.1-133.4,63.1z"/>
<path class="st11" d="M-172.4,80.2c-1.2,0.9-1.9,1.5-3.3,2.6c1.9,0.4,3.2,0.9,4.4,0.9s2.5-0.5,4-0.2c-0.5,0.6-1,1.1-1.7,1.9
	c1.2,0.3,2.5,1.1,3.1,0.8c3.5-1.8,4.9,1.3,7.6,2.7c-3.7,1.4-7.6-2.1-10.6,1.9c1.6,0.4,3.1,0.8,4.6,1.2c0,0.3,0,0.6,0,1
	c-1.5,0-2.9,0.1-4.4,0c-1.6-0.1-3.2-0.4-4.8-0.7c-0.1,0.3-0.1,0.5-0.2,0.8c0.8,0.5,1.6,1,2.3,1.5c0,0.3,0,0.5,0,0.8
	c-2.8,0.1-5.7,0.3-8.7,0.4c-1-2.5-2.9-2.9-7.2-0.8c0.2-1,0.4-1.8,0.5-2.5c-2.6-2.8-4.8-0.2-7.2,0.7
	C-192.4,88.2-177.1,78.9-172.4,80.2z M-174.5,85.2c-2.9-3-5-1-7.3,0.4C-178.9,88-178.9,88-174.5,85.2z M-181.1,88.9
	c-3.1-2.6-3.6-2.6-6.5,0.6C-185.3,91.1-183.1,91.3-181.1,88.9z M-175.7,88.4c2.7,2.2,4.9,1.3,7.1-0.6
	C-171.2,85.7-173.5,86.1-175.7,88.4z M-175.1,92c0-0.3,0-0.6,0-0.9c-2.1-1.2-4.2-1.9-6.5,0.9C-179.2,92-177.2,92-175.1,92z"/>
<path class="st11" d="M-168.3,77.5c15.1,4,30.6,3.2,46,3.1C-129.3,84.7-161.5,82.5-168.3,77.5z"/>
</svg>
