<?xml version="1.0" encoding="utf-8"?>
<!-- Generator: Adobe Illustrator 19.0.0, SVG Export Plug-In . SVG Version: 6.00 Build 0)  -->
<svg version="1.1"
	 id="svg2985" xmlns:dc="http://purl.org/dc/elements/1.1/" xmlns:cc="http://creativecommons.org/ns#" xmlns:rdf="http://www.w3.org/1999/02/22-rdf-syntax-ns#" xmlns:svg="http://www.w3.org/2000/svg"
	 xmlns="http://www.w3.org/2000/svg" xmlns:xlink="http://www.w3.org/1999/xlink" x="0px" y="0px" viewBox="-192 293.9 210 255"
	 style="enable-background:new -192 293.9 210 255;" xml:space="preserve">
<style type="text/css">
	.st0{enable-background:new    ;}
	.st1{fill:#005F00;}
	.st2{fill:#CDDACD;}
	.st3{fill:#FFFFFF;}
	.st4{fill:url(#rect3008_1_);}
	.st5{filter:url(#filter3970-5);}
	.st6{fill:url(#SVGID_1_);}
	.st7{fill:#994913;}
	.st8{fill:#038249;}
	.st9{fill:#BC197A;}
	.st10{fill:#2A3B92;}
</style>
<filter  height="1.2150326" width="1.2171124" id="filter3970-5" x="-0.10855621" y="-0.10751629" color-interpolation-filters="sRGB">
	<feGaussianBlur  id="feGaussianBlur3972-8" stdDeviation="0.12800763"></feGaussianBlur>
</filter>
<g id="g4146" transform="translate(39.768324,209.71794)">
</g>
<g id="g4630" transform="matrix(1.0005937,0,0,1,-1.3758072,203.40625)" class="st0">
	<g id="g3062">
		<path id="rect4031" d="M-131.2,90.5l46.1,0.2l68.4-0.2c22.9-0.1,36.1,15.9,36.1,40.4v154.6c0,12.3-14,27.7-21.4,35.7
			s-22.1,24.3-33.6,24.3h-113c-22.9,0-41.3-5.6-41.3-30.2l-0.3-162.3c0-6.4,17.3-24.3,24.8-32.4C-158,112.6-142.7,90.4-131.2,90.5
			L-131.2,90.5z"/>
		<path id="rect3767" class="st1" d="M-122.4,103.2h104.5c13.8,0,24.8,11.1,24.9,24.9l0.9,152.4c0,2-12.6,32-25.8,32h-104.5
			c-13.8,0-24.9-11.1-24.9-24.9V128.1C-147.3,114.3-136.2,103.2-122.4,103.2L-122.4,103.2z"/>
		<path id="rect3861" class="st2" d="M-137.4,118.1h99.6c13.7,0,24.9,11.2,24.9,24.9v159.5c0,13.8-11.1,24.9-24.9,24.9h-99.6
			c-13.7,0-24.9-11.2-24.9-24.9V143.1C-162.3,129.3-151.1,118.1-137.4,118.1z"/>
		<path id="rect3765" class="st3" d="M-147.3,133.1h104.5c13.7,0,24.9,11.2,24.9,24.9v149.5c0,13.8-11.1,24.9-24.9,24.9h-104.5
			c-13.7,0-24.9-11.2-24.9-24.9V158C-172.2,144.3-161.1,133.1-147.3,133.1z"/>
		
			<linearGradient id="rect3008_1_" gradientUnits="userSpaceOnUse" x1="-324.8826" y1="569.5873" x2="-324.8826" y2="531.0685" gradientTransform="matrix(4.9807 0 0 -4.9841 1515.6201 2981.9607)">
			<stop  offset="0" style="stop-color:#D0E4CC"/>
			<stop  offset="1" style="stop-color:#FBFFEC"/>
		</linearGradient>
		<path id="rect3008" class="st4" d="M-157.3,143.1h109.5c11,0,19.9,8.9,19.9,19.9v149.5c0,11-8.9,19.9-19.9,19.9h-109.5
			c-11,0-19.9-8.9-19.9-19.9V163C-177.2,152-168.3,143.1-157.3,143.1z"/>
		<path id="path3932" class="st3" d="M2.2,115.7c0,1.5-1.3,2.8-2.8,2.8s-2.8-1.3-2.8-2.8s1.3-2.8,2.8-2.8S2.2,114.1,2.2,115.7z"/>
		<g id="path3936" class="st5">
			
				<linearGradient id="SVGID_1_" gradientUnits="userSpaceOnUse" x1="-315.7709" y1="590.4699" x2="-318.8866" y2="587.0007" gradientTransform="matrix(7.1013 0 0 -6.6887 2243.616 4061.2654)">
				<stop  offset="0" style="stop-color:#FFFFFF"/>
				<stop  offset="1" style="stop-color:#FFFFFF;stop-opacity:0"/>
			</linearGradient>
			<polygon class="st6" points="-2.8,114.3 -31.6,138.9 -23.4,144.9 1.8,116.6 			"/>
		</g>
		<path id="path3882" class="st3" d="M-15,137.6c0,4.8-3.9,8.7-8.7,8.7c-4.8,0-8.7-3.9-8.7-8.7c0,0,0,0,0,0c0-4.8,3.9-8.7,8.7-8.7
			C-19,128.9-15,132.8-15,137.6C-15,137.6-15,137.6-15,137.6z"/>
	</g>
</g>
<g>
	<path class="st7" d="M-92.5,370.4c0.6-0.2,1.3-0.3,1.3-0.3c0.3,0,1.1-0.1,2.3-0.2c1.2-0.2,2.3-0.2,2.8-0.4l5-1l10.7-2.1
		c0.4-0.1,1.7-0.4,3.7-0.9l0.1-2.3c0-0.9-0.3-1.2-0.9-1.2c-0.4,0-0.9,0.1-1.4,0.3c-1.1,0.5-1.9,0.7-2.3,0.7s-2.8-0.9-3.8-1.4
		c-0.7-0.4-1-0.6-1.7-1.3l-0.1-0.3c2.9-0.6,4.1-0.9,7.3-1.6c2.1-0.5,2.7-0.9,2.7-1.6c0-0.8-0.4-2.1-0.9-2.6c-1.8-2-1.8-2-2-2.4
		l0.1-0.4c0.5-0.3,0.9-0.5,1-0.5l1.3,0.2c3.4,0.7,3.4,0.7,4.4,1.7c0.9,0.8,1.4,1.8,1.4,2.8v0.9c0.9-0.1,1.5-0.1,1.8-0.2l2-0.4
		c0.5-0.2,1-0.2,1.5-0.2c3,0,6.5,2.3,6.5,4.1c0,0.5-0.2,1.2-0.8,1.9c-0.2,0.4-0.5,0.7-0.5,0.8c-0.1,0.1-0.2,0.5-0.3,0.9
		c1.5-0.1,2.8-0.2,3.3-0.3c1.6-0.1,3.1-0.3,3.4-0.3c1.2-0.2,1.9-0.3,2.3-0.3c1.6,0,4.7,1.3,6.2,2.7c0.5,0.5,0.9,1.2,0.9,1.9
		c0,0.8-0.9,1.4-1.8,1.4c-0.2,0-0.2,0-7.7-1.4c-2-0.4-4.2-0.5-6.4-0.5c-1.2,0-1.5,0.1-2.3,0.5c-0.7,1.3-0.8,1.6-0.9,2.7
		c2.2,1,3.1,1.9,3.1,2.7c0,0.7-0.8,1.1-2.3,1.2c-1.5,0-1.6,0.1-4.1,0.5c-0.9,0.2-2,0.3-3,0.5c-1.9,0.2-2.3,0.9-2.3,3.2v0.5
		c1.6-0.4,1.6-0.4,3.4-0.9c0.9-0.2,1.6-0.4,2.1-0.4c1.5,0,3.5,1.2,3.5,2.1c0,0.3-0.4,0.6-0.9,0.8c-0.7,0.2-0.7,0.2-3.6,0.7
		c-2.2,0.4-2.2,0.4-4.3,0.9c-0.1,0.6-0.2,1.1-0.2,1.3v0.6c1-0.1,2-0.2,2.3-0.2c2.3-0.2,3.8-0.4,4.4-0.5c0.4-0.1,1.3-0.2,2.8-0.5
		c0.9-0.2,1.5-0.2,2.1-0.2c2.3,0,5.4,1.9,5.4,3.5c0,0.5-0.8,1-1.8,1c-0.3,0-1.9-0.2-4-0.3c-0.7-0.1-1.5-0.2-2.2-0.2
		c-6.2,0-15,2-25.7,5.5c-0.9,0.4-2,0.5-2.6,0.5c-0.5,0-0.9-0.2-0.9-0.6c0-0.8,1-2.4,2.2-3.6c0.9-1,0.9-1,4.7-1.3
		c1.3-0.2,4.1-1,8.6-2.2l0.1-2.2c-2.6,0.6-3.3,0.8-5,1.4c-0.9,0.4-1.7,0.5-2.2,0.5c-1.3,0-2.8-1.1-3.7-2.7l0.1-0.3l1.9,0.1
		c1.2,0,1.3-0.1,3.3-0.5c3-0.9,3-0.9,5.7-1.3c0.2-1.3,0.2-1.5,0.2-2.9c-1,0.2-1.8,0.3-2.2,0.4l-1.6,0.4c-0.9,0.2-1.6,0.3-2.3,0.3
		c-1.2,0-2.3-0.2-3.7-0.9c-0.9-0.4-1.1-0.5-1.2-1.5l0.2-0.2c1.1-0.2,2.2-0.5,2.4-0.5l3-0.4c5.1-1.4,5.1-1.4,5.3-1.7
		c0.3-0.4,0.4-0.9,0.4-2c0-0.2,0-0.9-0.1-1.4c-3,0.4-4.1,0.6-14.2,3.7c-2,0.6-3.7,1-4.6,1c-2.7,0-5.2-1.2-6.6-3.2V370.4z
		 M-85.6,411.9c0.9-0.2,1.4-0.3,1.6-0.3l4.8-0.2c0.4,0,1.8-0.2,3.9-0.7c4.1-0.8,21.5-2.4,26.1-2.4c3.7,0,7.3,2.7,7.3,5.4
		c0,0.7-0.2,1-0.9,1c-1.4,0-1.4,0-8.9-1.5c-2.1-0.4-4-0.6-5.8-0.6c-5.6,0-15.8,1.3-19.1,2.4c-1.8,0.6-3,0.9-3.7,0.9
		c-0.9,0-2.9-0.9-3.9-1.8c-0.6-0.5-0.9-0.9-1.4-1.9V411.9z M-76.9,393.3c0.2,1.5,0.8,2.6,1.2,2.6c0.2,0,0.5-0.2,1-0.9
		c2-2.5,3.7-3.4,9.2-4.5c6-1.3,8.7-1.7,11-1.7c2.6,0,4.4,0.8,5.8,2.5c0.7,0.9,1.2,2.1,1.2,2.7c0,0.5,0,0.5-1.4,2.1
		c-0.4,0.5-0.7,0.9-0.9,1.2l-3.3,6.9c-0.7,1.5-2.6,3-3.7,3c-0.4,0-1-0.3-1.8-0.7c-0.9-0.5-1.2-0.5-2.4-0.5c-2.2,0-4.7,0.2-7,0.8
		c-1.9,0.4-1.9,0.5-4,1.7c-0.2,0.2-0.5,0.2-0.7,0.2c-2.3,0-6-7.7-6-12.6c0-1.6,0.3-2.2,1.5-3.1L-76.9,393.3z M-66.1,396
		c0-0.9-0.4-1.5-1.1-1.5c-0.2,0-0.8,0-1.3,0.2c-0.2,0-1.3,0.2-3,0.4c-1.8,0.2-3,1.3-3,3c0,1.6,0.9,4.9,1.7,6
		c0.2,0.4,0.9,0.7,1.3,0.7c0.2,0,1.9-0.5,4.9-1.3c0.2-0.5,0.2-1.2,0.2-1.3c0.1-0.3,0.1-0.5,0.1-0.6c0.1-0.2,0.1-0.5,0.1-0.5
		c0-0.2-0.2-0.5-0.5-0.5c-0.2,0-0.2,0-1.8,0.5c-0.2,0.1-0.5,0.1-0.9,0.1c-1.8,0-2.7-0.4-3.7-1.4l0.2-0.3c1.6-0.4,2-0.5,3.2-0.9
		c0.5-0.2,1.6-0.5,3.6-1.2V396z M-62.6,402.9c0.6-0.1,1.3-0.1,1.7-0.1c0.9,0,1.7,0.2,2.5,0.5c0.3,0.1,0.5,0.1,0.6,0.1
		c0.4,0,0.7-0.4,1.3-1.9c1.3-3.4,2.2-6.6,2.2-8.2c0-0.9-0.6-1.3-2.3-1.3c-1.4,0-4.1,0.3-5.3,0.7c-0.6,0.2-0.9,0.4-0.9,0.8
		c0,0.3,0.2,0.7,0.8,1.4l0.7,0.8c0,0,0.8,0.3,2,0.7c0.9,0.3,1.8,1.1,1.8,1.6c0,0.6-0.9,1.1-2.5,1.2c-2,0.2-2.7,0.9-2.7,2.8v0.3
		V402.9z M-60.2,367.4c-0.5,0-1.2,0.2-2.3,0.5c-0.1,0.9-0.2,1.6-0.2,1.9c0,0.8,0.3,1.2,0.9,1.2c1.2,0,2.3-1.6,2.4-3.6L-60.2,367.4z
		 M-57.8,364.4c1.6-3.2,1.6-3.4,1.6-4.2c0-0.8-0.5-1.2-1.6-1.2c-1.4,0-3.4,0.5-4,1.1c-0.2,0.2-0.4,0.5-0.4,1v1.6c0,0.7,0,1.3-0.1,2
		L-57.8,364.4z"/>
</g>
<path class="st8" d="M-152.4,352.3l-21.2,26.1v4.4h20.2v4c0,1.4-0.2,2.3-0.7,2.7c-0.6,0.7-2.4,1-5.4,1.1v3.1h17.1v-3.1
	c-2.3-0.1-3.8-0.3-4.5-0.4c-1.1-0.4-1.6-1.5-1.6-3.4v-4h7.6v-4.1h-7.6v-26.5H-152.4z M-153.5,378.8h-15.4l15.4-19.4V378.8z"/>
<path class="st9" d="M-59.1,527.5c-1.5-2.2-1.6-2.4-2.7-4.6c-0.7-1.4-1-3.9-0.3-5.1c5.8-9.9,3.9-20.5-2.4-30.2
	c-12-18.5-23.4-37.5-35.3-56.1c-4.3-6.8-9-13.5-14.6-19.2c-2.8-2.9-8.3-5.5-11.9-4.9c-8.3,1.5-10.4,0.5-13.9-5.8
	c-0.5-0.9-1.2-2-2.1-2.5c-0.2-0.1-0.4-0.2-0.7-0.3c-1.7-0.6-3.5,0.7-3.3,2.5c0,0.2,0.1,0.4,0.2,0.6c1.9,3.2,2.6,3.3,4.3,6.6
	c0.8,1.5,0.9,4.2,0.1,5.6c-5.2,9.1-5.3,18.2-0.3,27.2c4.4,7.8,9,15.5,14,23c10.5,15.9,21.6,31.3,31.9,47.3
	c5.9,9.1,14,12.2,24.2,12.2c2,0,4.5,1.3,6,2.7c1.9,1.9,1.9,2,3.5,4.2c0.5,0.7,1.6,0.9,2.3,0.4c0,0,0.5-0.3,0.5-0.3
	C-58,530-58.2,528.7-59.1,527.5z M-82.5,472.2C-82.5,472.2-82.5,472.2-82.5,472.2l1.9-0.5c6.2,8.4,6.8,9.2,13,17.6
	c-0.5,0.8-1,1.7-1.5,2.5c0,0,0,0,0,0c-4.2-1.1-8.4-2-12.5-3.2c-0.8-0.2-1.8-1.5-1.7-2.3C-83.2,481.6-82.8,476.9-82.5,472.2z
	 M-113.3,423.2C-113.3,423.2-113.4,423.3-113.3,423.2c-8.1-1.8-15.4-3.4-23.3-5.1c0,0,0,0,0,0C-130.6,410-118.2,412.8-113.3,423.2z
	 M-139.5,426.4c1.6-0.4,3.3-1.4,4.8-1.1c7.7,1.6,15.4,3.5,23.1,5.4c2,0.5,3.8,1.4,5.7,2.2c0,0,0,0,0,0c-0.2,0.6-0.3,1.2-0.5,1.9
	c0,0,0,0,0,0c-1.5-0.1-3-0.1-4.5-0.3c-8.3-1.5-16.7-2.9-24.9-4.7C-137.2,429.4-138.3,427.6-139.5,426.4
	C-139.5,426.4-139.5,426.4-139.5,426.4z M-137.6,438.1C-137.6,438.1-137.6,438.1-137.6,438.1l1.2-1.9c0,0,0,0,0,0
	c12.3,2.2,24.5,4.4,36.8,6.6c0.2,1.2,0.2,1.2,0.4,2.5c-11.1,6.2-21.9-1.3-32.8-2.2C-134,442.9-135.7,439.8-137.6,438.1z
	 M-120.9,463.6c-2.6-3.6-4.6-7.5-7.7-12.8c0,0,0,0,0,0c4.9,0.7,8.5,1.2,12.6,1.8c0,0,0,0,0,0c-0.8,1.5-1.3,2.2-1.5,2.9
	c-0.3,1.2-0.4,2.5-0.6,3.8c0,0,0,0,0,0c1.5,0.1,3.2,0.9,4.3,0.3c5.2-2.4,10.2-5.1,15.3-7.7c1-0.5,2.1-0.6,3.2-0.9c0,0,0,0,0,0
	c0.2,0.4,0.4,0.8,0.7,1.3c0,0,0,0,0,0c-7.1,4.6-14.1,9.4-21.4,13.6C-116.8,466.7-119.9,465-120.9,463.6z M-111.8,476.4
	C-111.8,476.4-111.8,476.4-111.8,476.4c-0.5-0.5-1.7-1.1-1.9-1.9c-0.2-0.8,0.3-2.2,1-2.6c6.9-4.5,13.8-9,20.8-13.3
	c0.6-0.4,2,0.1,2.7,0.6c0.4,0.3,0.3,2-0.1,2.3c-7,5-14,9.9-21,14.8C-110.6,476.3-111,476.3-111.8,476.4z M-89.6,507.8
	C-89.6,507.8-89.7,507.8-89.6,507.8c-0.8,0.2-1.5,0.5-2.3,0.7c-5.9-7.6-6.1-7.9-12-15.5c0.6-1,1.3-2.1,1.9-3.1c0,0,0,0,0,0
	c4,1.1,10.1,1.1,11.4,3.6C-88.5,497.3-89.8,502.9-89.6,507.8z M-87.2,478.9c0,0,0.9,7.6-0.6,9c-1.6,1.5-9.3-2.1-9.3-2.1
	c-3.1-0.7-6.6-3-10-3.8c0,0,0,0,0,0c2.7-2,16.1-11.3,18.6-13c0,0,0,0,0,0L-87.2,478.9z M-63.5,512.8c-0.6,4.1-4.1,7.3-8.9,7
	c-3.3-0.2-6.8-0.7-9.8-2c-1.6-0.7-3.1-3.3-3.2-5.2c-0.2-4.1,0.4-8.2,0.7-12.3c0.5-6.2,0.7-6.3,6.9-4.8c1.3,0.3,2.6,0.8,3.9,1.2
	c0,0,0,0,0,0c0,0,7,1.8,7,1.8c0.9,0.1,2,0.2,2.1,0.4C-64.2,503.6-62.8,508.3-63.5,512.8z"/>
<path class="st10" d="M-78.3,451.5c2.3,0.9,4.5,1.7,6.8,2.6c5.9,2.1,8,10.8,3.5,15.2c-1,1-3,0.9-4.6,1.3c-0.3-1.5-1.3-3.4-0.7-4.3
	c3.1-4.6,0.4-5.9-3.4-7c-5.3-1.6-7-5.4-8.6-10.7c-1.4-4.5-2.7-8.8-2.9-13.5c0-0.7-2.8-2.1-3.6-1.7c-4.4,2-5.3-1-6.4-3.8
	c8.2-6.1,12.2-4.7,18,6.5c3.1-3,6-5.8,8.9-8.7c1.4-1.4,2.4-3.2,3.7-4.6c4.1-4.2,8.8-3.3,10.8,2.1c0.7,1.8,1.3,3.8,1.4,5.8
	c0.2,5.8,4.4,7.7,8.7,8.8c3.7,1,6-1.3,6.4-5.3c0.6-4.8,1.2-9.6,2.1-14.4c0.3-1.7,1.2-3.6,2.5-4.6c0.1-0.1,0.2-0.1,0.3-0.2
	c2.1-1.2,4.6,0.8,4,3.2c0,0.1,0,0.2-0.1,0.3c-0.9,3.1-2.2,6-2.9,9.1c-0.6,2.6-0.4,5.4-0.8,8c-1.7,11.3-9.3,17.1-20.5,15.5
	c-4.3-0.6-8.4-2.1-12.7-2.4c-3.2-0.3-6.6,0.5-9.9,0.9C-78.2,450.1-78.3,450.8-78.3,451.5z M-62.2,426.6c-5.2,5.6-9.4,10.3-13.6,14.8
	c9.2,1.7,17.7,3.2,26.2,4.8c0.4-0.6,0.7-1.2,1.1-1.9C-58.6,443.1-60.6,435.5-62.2,426.6z"/>
<path class="st10" d="M-126,494.5c-4.6,4.3-8.2,8-12.2,11.2c-2.3,1.8-6,4.2-8.1,3.4c-2.2-0.8-3.9-4.8-4.5-7.7
	c-1.7-7.8-3.4-10.3-9-10.9c-3.5-0.4-5.8,0.5-6.4,4.6c-0.6,4.2-1.8,8.4-3,12.6c-0.5,1.7-1.2,3.7-2.4,4.7c0,0-0.1,0-0.1,0.1
	c-1.9,1.4-4.5-0.5-3.8-2.8c0,0,0,0,0,0c1.3-4.3,2.5-8.5,3.8-12.8c1.2-3.7,2.2-7.5,3.7-11.1c3.7-8.5,14.2-9.1,20.4-7.2
	c4.5,1.4,8.9,2.9,13.4,3.9c2,0.4,4.2-0.5,6.4-1.6c-5-4.2-12.5-5.6-11.5-13.7c0.3-2.7,2.4-5.2,3.7-7.8l2.5,0.2
	c0.3,2.4,0.4,4.8,0.9,7.1c0.3,1.4,0.9,3.1,1.9,4c1.4,1.2,4,1.4,5,2.8c1.9,2.8,4.6,8.4,4.1,8.8c-4.1,2.9-8.7,5.9-13.5,6.6
	c-3.7,0.6-7.9-2-11.8-3c-2.2-0.6-4.4-0.9-7.1-0.7c6.9,4.1,7.6,11,8.2,17.9c8.5-6.4,16.3-12.2,24.1-18c0.8,0.4,1,0.5,1.8,0.8
	c0.2,2.5,0.6,5,0.5,7.5c-0.1,5.6,0.7,6.2,6,5.1c1.2-0.2,2.6,0.9,3.9,1.4c-0.6,1.4-0.8,3.5-1.9,4.2c-5.3,3.3-11.4,1.1-13.6-4.7
	C-124.8,498.3-125.2,497.1-126,494.5z"/>
<path id="path7361_2_" class="st9" d="M-87.7,480.2c0,3.1-2.5,5.6-5.6,5.6s-5.6-2.5-5.6-5.6s2.5-5.6,5.6-5.6S-87.7,477.1-87.7,480.2
	z"/>
<path id="path7361_3_" class="st9" d="M-65,504.2c0,2.5-2,4.5-4.5,4.5s-4.5-2-4.5-4.5c0-2.5,2-4.5,4.5-4.5S-65,501.7-65,504.2z"/>
<path id="path7361_4_" class="st9" d="M-75,511.2c0,2.5-2,4.5-4.5,4.5s-4.5-2-4.5-4.5s2-4.5,4.5-4.5S-75,508.7-75,511.2z"/>
</svg>
