<?xml version="1.0" encoding="utf-8"?>
<!-- Generator: Adobe Illustrator 19.0.0, SVG Export Plug-In . SVG Version: 6.00 Build 0)  -->
<svg version="1.1"
	 id="svg2985" xmlns:dc="http://purl.org/dc/elements/1.1/" xmlns:cc="http://creativecommons.org/ns#" xmlns:rdf="http://www.w3.org/1999/02/22-rdf-syntax-ns#" xmlns:svg="http://www.w3.org/2000/svg"
	 xmlns="http://www.w3.org/2000/svg" xmlns:xlink="http://www.w3.org/1999/xlink" x="0px" y="0px" viewBox="-237 -92 210 255"
	 style="enable-background:new -237 -92 210 255;" xml:space="preserve">
<style type="text/css">
	.st0{enable-background:new    ;}
	.st1{fill:#005F00;}
	.st2{fill:#CDDACD;}
	.st3{fill:#FFFFFF;}
	.st4{fill:url(#rect3008_2_);}
	.st5{filter:url(#filter3970-5);}
	.st6{fill:url(#SVGID_1_);}
	.st7{fill:#994913;}
	.st8{fill:#038249;}
	.st9{fill:#2A3B92;stroke:#2A3B92;stroke-linecap:round;stroke-miterlimit:10;}
	.st10{fill:#D37F11;}
</style>
<filter  width="1.2171124" height="1.2150326" y="-0.10751629" x="-0.10855621" id="filter3970-5" color-interpolation-filters="sRGB">
	<feGaussianBlur  stdDeviation="0.12800763" id="feGaussianBlur3972-8"></feGaussianBlur>
</filter>
<g id="g4146" transform="translate(39.768324,209.71794)">
</g>
<g id="g4630_1_" transform="matrix(1.0005937,0,0,1,-1.3758072,203.40625)" class="st0">
	<g id="g3062_1_">
		<path id="rect4031_1_" d="M-176.2-295.4l46.1,0.2l68.4-0.2c22.9-0.1,36.1,15.9,36.1,40.4v154.6c0,12.3-14,27.7-21.4,35.7
			s-22.1,24.3-33.6,24.3h-113c-22.9,0-41.3-5.6-41.3-30.2l-0.3-162.3c0-6.4,17.3-24.3,24.8-32.4C-203-273.3-187.6-295.5-176.2-295.4
			L-176.2-295.4z"/>
		<path id="rect3767_1_" class="st1" d="M-167.4-282.7h104.5c13.8,0,24.8,11.1,24.9,24.9l0.9,152.4c0,2-12.6,32-25.8,32h-104.5
			c-13.8,0-24.9-11.1-24.9-24.9v-159.5C-192.3-271.6-181.2-282.7-167.4-282.7L-167.4-282.7z"/>
		<path id="rect3861_1_" class="st2" d="M-182.3-267.7h99.6c13.7,0,24.9,11.2,24.9,24.9v159.5c0,13.8-11.1,24.9-24.9,24.9h-99.6
			c-13.7,0-24.9-11.2-24.9-24.9v-159.5C-207.2-256.6-196.1-267.7-182.3-267.7z"/>
		<path id="rect3765_1_" class="st3" d="M-192.3-252.8h104.5c13.7,0,24.9,11.2,24.9,24.9v149.5c0,13.8-11.1,24.9-24.9,24.9h-104.5
			c-13.7,0-24.9-11.2-24.9-24.9v-149.5C-217.2-241.6-206-252.8-192.3-252.8z"/>
		
			<linearGradient id="rect3008_2_" gradientUnits="userSpaceOnUse" x1="-369.8559" y1="182.6285" x2="-369.8559" y2="144.1098" gradientTransform="matrix(4.9807 0 0 -4.9841 1694.6462 667.4196)">
			<stop  offset="0" style="stop-color:#D0E4CC"/>
			<stop  offset="1" style="stop-color:#FBFFEC"/>
		</linearGradient>
		<path id="rect3008_1_" class="st4" d="M-202.3-242.8h109.5c11,0,19.9,8.9,19.9,19.9v149.5c0,11-8.9,19.9-19.9,19.9h-109.5
			c-11,0-19.9-8.9-19.9-19.9v-149.5C-222.2-233.9-213.3-242.8-202.3-242.8z"/>
		<path id="path3932_1_" class="st3" d="M-42.7-270.2c0,1.5-1.3,2.8-2.8,2.8s-2.8-1.3-2.8-2.8s1.3-2.8,2.8-2.8
			S-42.7-271.8-42.7-270.2z"/>
		<g id="path3936_1_" class="st5">
			
				<linearGradient id="SVGID_1_" gradientUnits="userSpaceOnUse" x1="-360.7442" y1="203.5567" x2="-363.8599" y2="200.0874" gradientTransform="matrix(7.1013 0 0 -6.6887 2518.0134 1087.4099)">
				<stop  offset="0" style="stop-color:#FFFFFF"/>
				<stop  offset="1" style="stop-color:#FFFFFF;stop-opacity:0"/>
			</linearGradient>
			<polygon class="st6" points="-47.8,-271.6 -76.6,-247 -68.4,-241 -43.2,-269.3 			"/>
		</g>
		<path id="path3882_1_" class="st3" d="M-60-248.3c0,4.8-3.9,8.7-8.7,8.7c-4.8,0-8.7-3.9-8.7-8.7c0,0,0,0,0,0
			c0-4.8,3.9-8.7,8.7-8.7C-63.9-257-60-253.1-60-248.3C-60-248.3-60-248.3-60-248.3z"/>
	</g>
</g>
<g>
	<path class="st7" d="M-138.5-15.4c0.6-0.2,1.3-0.3,1.3-0.3c0.3,0,1.1-0.1,2.3-0.2c1.2-0.2,2.3-0.2,2.8-0.4l5-1l10.7-2.1
		c0.4-0.1,1.7-0.4,3.7-0.9l0.1-2.3c0-0.9-0.3-1.2-0.9-1.2c-0.4,0-0.9,0.1-1.4,0.3c-1.1,0.5-1.9,0.7-2.3,0.7s-2.8-0.9-3.8-1.4
		c-0.7-0.4-1-0.6-1.7-1.3l-0.1-0.3c2.9-0.6,4.1-0.9,7.3-1.6c2.1-0.5,2.7-0.9,2.7-1.6c0-0.8-0.4-2.1-0.9-2.6c-1.8-2-1.8-2-2-2.4
		l0.1-0.4c0.5-0.3,0.9-0.5,1-0.5l1.3,0.2c3.4,0.7,3.4,0.7,4.4,1.7c0.9,0.8,1.4,1.8,1.4,2.8v0.9c0.9-0.1,1.5-0.1,1.8-0.2l2-0.4
		c0.5-0.2,1-0.2,1.5-0.2c3,0,6.5,2.3,6.5,4.1c0,0.5-0.2,1.2-0.8,1.9c-0.2,0.4-0.5,0.7-0.5,0.8c-0.1,0.1-0.2,0.5-0.3,0.9
		c1.5-0.1,2.8-0.2,3.3-0.3c1.6-0.1,3.1-0.3,3.4-0.3c1.2-0.2,1.9-0.3,2.3-0.3c1.6,0,4.7,1.3,6.2,2.7c0.5,0.5,0.9,1.2,0.9,1.9
		c0,0.8-0.9,1.4-1.8,1.4c-0.2,0-0.2,0-7.7-1.4c-2-0.4-4.2-0.5-6.4-0.5c-1.2,0-1.5,0.1-2.3,0.5c-0.7,1.3-0.8,1.6-0.9,2.7
		c2.2,1,3.1,1.9,3.1,2.7c0,0.7-0.8,1.1-2.3,1.2c-1.5,0-1.6,0.1-4.1,0.5c-0.9,0.2-2,0.3-3,0.5c-1.9,0.2-2.3,0.9-2.3,3.2v0.5
		c1.6-0.4,1.6-0.4,3.4-0.9c0.9-0.2,1.6-0.4,2.1-0.4c1.5,0,3.5,1.2,3.5,2.1c0,0.3-0.4,0.6-0.9,0.8c-0.7,0.2-0.7,0.2-3.6,0.7
		c-2.2,0.4-2.2,0.4-4.3,0.9c-0.1,0.6-0.2,1.1-0.2,1.3v0.6c1-0.1,2-0.2,2.3-0.2c2.3-0.2,3.8-0.4,4.4-0.5c0.4-0.1,1.3-0.2,2.8-0.5
		c0.9-0.2,1.5-0.2,2.1-0.2c2.3,0,5.4,1.9,5.4,3.5c0,0.5-0.8,1-1.8,1c-0.3,0-1.9-0.2-4-0.3c-0.7-0.1-1.5-0.2-2.2-0.2
		c-6.2,0-15,2-25.7,5.5c-0.9,0.4-2,0.5-2.6,0.5c-0.5,0-0.9-0.2-0.9-0.6c0-0.8,1-2.4,2.2-3.6c0.9-1,0.9-1,4.7-1.3
		c1.3-0.2,4.1-1,8.6-2.2l0.1-2.2c-2.6,0.6-3.3,0.8-5,1.4c-0.9,0.4-1.7,0.5-2.2,0.5c-1.3,0-2.8-1.1-3.7-2.7l0.1-0.3l1.9,0.1
		c1.2,0,1.3-0.1,3.3-0.5c3-0.9,3-0.9,5.7-1.3c0.2-1.3,0.2-1.5,0.2-2.9c-1,0.2-1.8,0.3-2.2,0.4l-1.6,0.4c-0.9,0.2-1.6,0.3-2.3,0.3
		c-1.2,0-2.3-0.2-3.7-0.9c-0.9-0.4-1.1-0.5-1.2-1.5l0.2-0.2c1.1-0.2,2.2-0.5,2.4-0.5l3-0.4c5.1-1.4,5.1-1.4,5.3-1.7
		c0.3-0.4,0.4-0.9,0.4-2c0-0.2,0-0.9-0.1-1.4c-3,0.4-4.1,0.6-14.2,3.7c-2,0.6-3.7,1-4.6,1c-2.7,0-5.2-1.2-6.6-3.2V-15.4z M-131.6,26
		c0.9-0.2,1.4-0.3,1.6-0.3l4.8-0.2c0.4,0,1.8-0.2,3.9-0.7c4.1-0.8,21.5-2.4,26.1-2.4c3.7,0,7.3,2.7,7.3,5.4c0,0.7-0.2,1-0.9,1
		c-1.4,0-1.4,0-8.9-1.5c-2.1-0.4-4-0.6-5.8-0.6c-5.6,0-15.8,1.3-19.1,2.4c-1.8,0.6-3,0.9-3.7,0.9c-0.9,0-2.9-0.9-3.9-1.8
		c-0.6-0.5-0.9-0.9-1.4-1.9V26z M-122.9,7.4c0.2,1.5,0.8,2.6,1.2,2.6c0.2,0,0.5-0.2,1-0.9c2-2.5,3.7-3.4,9.2-4.5
		c6-1.3,8.7-1.7,11-1.7c2.6,0,4.4,0.8,5.8,2.5c0.7,0.9,1.2,2.1,1.2,2.7c0,0.5,0,0.5-1.4,2.1c-0.4,0.5-0.7,0.9-0.9,1.2l-3.3,6.9
		c-0.7,1.5-2.6,3-3.7,3c-0.4,0-1-0.3-1.8-0.7c-0.9-0.5-1.2-0.5-2.4-0.5c-2.2,0-4.7,0.2-7,0.8c-1.9,0.4-1.9,0.5-4,1.7
		c-0.2,0.2-0.5,0.2-0.7,0.2c-2.3,0-6-7.7-6-12.6c0-1.6,0.3-2.2,1.5-3.1L-122.9,7.4z M-112.1,10.1c0-0.9-0.4-1.5-1.1-1.5
		c-0.2,0-0.8,0-1.3,0.2c-0.2,0-1.3,0.2-3,0.4c-1.8,0.2-3,1.3-3,3c0,1.6,0.9,4.9,1.7,6c0.2,0.4,0.9,0.7,1.3,0.7
		c0.2,0,1.9-0.5,4.9-1.3c0.2-0.5,0.2-1.2,0.2-1.3c0.1-0.3,0.1-0.5,0.1-0.6c0.1-0.2,0.1-0.5,0.1-0.5c0-0.2-0.2-0.5-0.5-0.5
		c-0.2,0-0.2,0-1.8,0.5c-0.2,0.1-0.5,0.1-0.9,0.1c-1.8,0-2.7-0.4-3.7-1.4l0.2-0.3c1.6-0.4,2-0.5,3.2-0.9c0.5-0.2,1.6-0.5,3.6-1.2
		V10.1z M-108.6,17c0.6-0.1,1.3-0.1,1.7-0.1c0.9,0,1.7,0.2,2.5,0.5c0.3,0.1,0.5,0.1,0.6,0.1c0.4,0,0.7-0.4,1.3-1.9
		c1.3-3.4,2.2-6.6,2.2-8.2c0-0.9-0.6-1.3-2.3-1.3c-1.4,0-4.1,0.3-5.3,0.7c-0.6,0.2-0.9,0.4-0.9,0.8c0,0.3,0.2,0.7,0.8,1.4l0.7,0.8
		c0,0,0.8,0.3,2,0.7c0.9,0.3,1.8,1.1,1.8,1.6c0,0.6-0.9,1.1-2.5,1.2c-2,0.2-2.7,0.9-2.7,2.8v0.3V17z M-106.2-18.5
		c-0.5,0-1.2,0.2-2.3,0.5c-0.1,0.9-0.2,1.6-0.2,1.9c0,0.8,0.3,1.2,0.9,1.2c1.2,0,2.3-1.6,2.4-3.6L-106.2-18.5z M-103.8-21.5
		c1.6-3.2,1.6-3.4,1.6-4.2c0-0.8-0.5-1.2-1.6-1.2c-1.4,0-3.4,0.5-4,1.1c-0.2,0.2-0.4,0.5-0.4,1v1.6c0,0.7,0,1.3-0.1,2L-103.8-21.5z"
		/>
</g>
<path class="st8" d="M-197.4-33.6l-21.2,26.1V-3h20.2v4c0,1.4-0.2,2.3-0.7,2.7c-0.6,0.7-2.4,1-5.4,1.1v3.1h17.1V4.8
	c-2.3-0.1-3.8-0.3-4.5-0.4c-1.1-0.4-1.6-1.5-1.6-3.4v-4h7.6v-4.1h-7.6v-26.5H-197.4z M-198.5-7.1h-15.4l15.4-19.4V-7.1z"/>
<path class="st9" d="M-88.3,74.1c3.3,1.9,7.3,3.5,9.9,7.1c2.5,3.6,1.5,7.8-1.8,12.9c-3.4,5.4-8.3,8.6-12.9,12.2
	c-10.6,8.3-21.5,16.2-32.2,24.3c-4.6,3.4-9.1,6.9-13.7,10.4c-0.2,0.1-0.4,0.2-0.5,0.4c-3.4,4.2-7.2,4.6-10.9,3.9
	c-7.1-1.4-13.1-4.7-17.7-10c-4.2-4.8-6.4-10.9-7.7-17.6c-0.4-1.9-0.9-3.7-1.4-5.4c-1.1-3.3-2.4-6.5-3.5-9.8
	c-2-6.1-5.8-10.2-11.2-13.1c-6.8-3.7-10.1-5.9-16.7-9.8c-2-1.2-4.4-2.5-5.3-4.8c-1.5-3.9-3-7.7-4.4-11.7c-0.9-2.6-2.9-7.9-1.6-11
	c1.8-4.2,3.5-8.3,5.3-12.4c1.4-3.1,3.6-4.5,6.5-5c1.3-0.2,2.6-1.1,3.9-1.7c8.8-4.2,17.7-8.2,26.5-12.5c10-4.9,22.9-11.1,25.2-12.1
	c4.5-1.9,7.5-2.1,9.9,1.5c2.1,3.2,2.5,4.9,3.9,11c0.6,3.9,0,5.9-1.5,7.3c-2.6,1.8-1.4,1-4.1,2.8c-0.9,0.6-1.1,1.3-0.6,1.9
	c1,1.2,1.9,2.6,3.1,3.5c5.1,3.3,10.5,5.9,17,6.4c1.7,0.1,3.3,1.3,4.4,2.4c4.1,4.3,6.9,9.7,9.6,15.2c0.7,1.5,0.6,3.5,1.1,5.2
	c0.7,2.5,1.2,5.2,2.4,7.4c1.9,3.5,5.3,5.2,9.4,5.9c1.6,0.3,2.8-0.2,4.1-1.2C-92.1,76.5-90.4,75.4-88.3,74.1z M-154.4,37.7
	c-0.7,0.4-1.1,0.6-1.5,0.8c-9.2,5.6-18.4,11.3-27.6,16.9c-4.3,2.6-8.7,5.2-13,7.7c-0.7,0.4-1.5,0.5-2.1,0.9c-1.1,0.9-2.2,2-3.3,3.1
	c0,0,0.1,0.2,0.3,0.4c2.9,2.2,5.8,4.6,8.9,6.5c4.5,2.8,9.4,5.2,13.9,8c5.4,3.4,9.1,8.6,11.2,15.1c2.4,7.6,4.8,15.2,7.2,22.8
	c0.8,2.5,1.9,4.7,3.6,6.7c1.4-3,3.1-5.4,5.9-6.8c0.2-0.1,0.4-0.3,0.6-0.5c1.3-1.4,2.4-3.1,3.9-4.2c9.3-7.4,18.5-14.8,27.9-22.1
	c3.5-2.7,7.2-4.8,10.9-7.2c0-0.1-0.1-0.2-0.2-0.2c-0.2-0.1-0.5-0.2-0.7-0.2c-4.7-1.3-7.9-4.3-9.3-9.3c-0.8-3-1.2-6.3-2.3-9.2
	c-2.2-5.6-5-10.7-9.1-14.8c-2-2-4.4-3.5-7.7-3.2c-0.9,0.1-1.8-0.1-2.5-0.4c-2.9-1.2-5.7-2.4-8.5-3.7
	C-151.1,43.4-154,41.9-154.4,37.7z M-204.3,34.9c4.5,1.7,8.7,4.2,9.8,10c1,5.6-0.5,11.4-3.2,17.5c1.4-0.9,2.6-1.6,3.8-2.3
	c9-5.4,18.1-10.5,27.1-16.2c9.8-6.2,14.5-9.4,24.2-15.9c3.9-2.6,3.1-5.3,2.4-9.9c-0.9-5.3-3.1-8.6-5.5-10.4
	c-0.9-0.6-4.7,0.6-5.9,1.1C-173.1,19.6-182.7,24.3-204.3,34.9z M-137.9,138.5c0.6-0.4,0.9-0.6,1.2-0.8c14-10.5,28.1-20.9,42.1-31.6
	c4.7-3.6,9.6-7.1,13.5-12c3.2-3.9,3.5-7.6,2-10.8c-1.7-3.7-5-5.4-8.3-7.2c-0.9-0.5-1.8-0.4-2.8,0.3c-2.6,1.7-5.3,3.2-7.9,4.9
	c-7.8,5-15.9,9.7-23.5,15.3c-7.7,5.5-14.9,11.9-22.3,17.9c-1.5,1.2-2.9,2.5-4.4,3.8c5.6-1,9.7,0.8,12.5,4.7
	C-132.7,127.4-135.7,132.9-137.9,138.5z M-196.7,42.5c-2.2-3.7-5.6-5.9-10-6.6c-2.9-0.5-5.6,1.1-7.2,4.4c-1.5,3-2.9,6-4.2,9
	c-1.4,3.4-0.6,9.9,0.6,13c1.4,3.5,2.6,7,4,10.4c2.4,5.4,4.9,5.1,9.6,7.8c4.7,2.7,9.5,5.2,14.1,8c5.1,3.2,8.7,8,10.8,14.1
	c2.1,6.2,4.2,12.5,6,18.9c2.2,7.8,5.6,14.5,12.4,18.1c3,1.6,5.9,3.3,9.4,3.8c7,1,13.1-6.7,14.5-11.8c-2,1.1-4,2.1-6,3.2
	c-0.2,0.1-0.4,0.3-0.6,0.5c-1.5,1.5-3.2,1.9-4.6,1.5c-2.3-0.7-4.4-1.6-6.5-2.6c-1.9-0.9-3.1-2.6-3.2-5.1c0-0.4-0.2-0.9-0.5-1.2
	c-3-3.6-5-8-6.2-12.9c-0.7-2.8-1.2-5.7-2-8.4c-1.1-3.6-2.5-7.1-3.8-10.6c-1.7-4.7-3.9-9.1-8.1-11.5c-3.7-2.2-7.5-4.3-11.3-6.4
	c-4.5-2.5-9-4.9-12.4-8.8c-1.3-1.5-2.8-2.7-4.7-3.5c-1.6-0.6-3-1.8-4.3-3c-3.7-3.4-4-11,3.6-15.8c0.1-0.1,0.4-0.2,0.4-0.3
	c0-1.8,1.5-1.6,2.3-2C-201.9,44.1-199.3,43.4-196.7,42.5z M-98,80.1c-3.1-0.5-5.6-1.5-7.6-3.2c-2.6-2.3-3.7-5.7-4.7-9.2
	c-0.6-2.2-0.7-4.6-1.5-6.6c-2.2-5.4-4.9-10.4-8.8-14.4c-2-2.1-4.4-3.8-7.9-3.5c-1,0.1-2-0.1-2.8-0.5c-3.4-1.5-6.8-3.1-10.2-4.6
	c-2.2-1-3.6-2.7-4.3-5.2c-0.1-0.3-0.2-0.5-0.4-0.9c-2.7,1.8-5.2,3.5-8.2,5.4c0.9,1.3,1.5,2.7,2.6,3.5c5,3.7,10.5,6.6,17.3,7.2
	c2.4,0.2,4.2,1.1,5.6,2.8c1.6,2.1,3.3,4.1,4.6,6.4c2.7,4.5,5.5,9,6.1,15c0.6,5.8,3.7,9.7,8.8,11.4c1.2,0.4,2.7,0.9,4,0.4
	C-102.9,83.3-100.6,81.7-98,80.1z M-202.4,54.4c0-2.6-0.8-4.4-2.4-5.8c-1.5-1.3-1.8-1.3-3.5,0.6c-4,4.3-4.6,7-2.3,10.6
	c1.8,2.8,4.2,4.9,7.1,6.2c0.5,0.2,1.5-0.1,2-0.5c3.1-2.9,4.9-6.5,5.8-10.6c-1.3,0.6-2.3,1-3.3,1.5c-1.1,0.5-2.2,1-3.3,1.4
	c-1.6,0.7-4,0-4.7-1.4c-0.3-0.6-0.3-1.1,0.6-1.2C-205.1,55-203.8,54.7-202.4,54.4z M-141.5,120.3c-3.1-1.7-8.2-0.9-11.7,2.4
	c-3.2,3-4.4,7.2-1.6,9.6c1.6,1.4,3.7,2.4,5.7,3.2c3,1.1,4,0.6,6.6-2.6c1.2-1.5,1.5-2.9,0.7-4.2c-1.1-1.9-2.9-2.9-4.9-3.4
	c-1-0.3-2.2,0.2-2.9,1.3c-0.3,0.5-0.4,1.3-0.2,1.7c0.1,0.3,0.9,0.2,1.3,0.1c0.8-0.3,1.6-0.8,2.5-1.1c0.5-0.2,1.1,0,1.6,0
	c0,0.2,0,0.4-0.1,0.5c-1.4,0.7-2.9,1.2-4.3,2c-1.2,0.7-1.8,0.2-2.2-0.4c-0.4-0.5-0.5-1.5-0.2-2.1c0.8-1.7,1.9-3.3,3.7-4.2
	C-145.4,122.3-143.4,121.2-141.5,120.3z M-196.3,43.6c-3,1.1-5.9,2.1-9.1,3.2c4,1.6,4.3,5.4,3.9,9.5c2-0.8,3.9-1.6,5.9-2.4
	C-194.9,50.2-194.9,46.7-196.3,43.6z M-145.7,123.8c1.2,0.8,2.4,1.3,3.3,2.1c1.8,1.4,3.4,2.9,1.6,6.4c1.8-0.9,3.3-1.7,4.8-2.4
	c0.8-4-0.9-7.6-4.1-8.9C-142,122-143.8,122.8-145.7,123.8z M-204.6,56.2c0,0.2-0.1,0.3-0.1,0.5c0.5,0,1,0.2,1.6,0
	c0.2-0.1,0.5-0.7,0.9-1.4C-203.3,55.8-203.9,56-204.6,56.2z"/>
<g>
	<path class="st10" d="M-151.4,75.5c0.3,0.9,0.4,1.9,0.2,2.9c-0.2,1-0.5,1.9-1,2.8s-1,1.7-1.7,2.4c-0.6,0.7-1.3,1.3-1.8,1.6l1.5,0.4
		c0.4,0,0.8-0.1,1.3-0.2c0.4-0.1,0.8-0.2,1.3-0.4c0.5-0.2,1-0.4,1.4-0.7c0.6-0.4,1.1-0.8,1.5-1.2c0.4-0.4,0.7-1,0.9-1.6
		s0.3-1.3,0.2-2.2c0-0.8-0.2-1.8-0.5-3c0.5,0.6,1,1.1,1.5,1.7c0.5,0.5,1,1,1.6,1.5c0.6,0.5,1.3,1,2,1.4c1.2,0.7,2.2,1.2,3,1.6
		c0.9,0.4,1.7,0.7,2.4,1s1.3,0.7,1.9,1.1c0.6,0.4,1.1,1,1.6,1.8c0.6,0.9,1,1.8,1.2,2.9c0.2,1,0.4,2,0.4,2.9c0,1,0,2.1-0.1,3.2
		l1.3,0.7l2.2-5.9l3,3h0.8c-0.2-0.9-0.5-1.9-0.8-2.7c-0.2-0.8-0.5-1.6-0.9-2.4c-0.3-0.8-0.7-1.5-1-2c-0.4-0.6-0.8-1.1-1.1-1.5
		s-0.7-0.8-1-1.2c-0.4-0.4-0.7-0.8-1-1.1c1,0.2,1.9,0.4,2.8,0.7c0.7,0.3,1.5,0.6,2.2,1c0.8,0.4,1.3,0.9,1.8,1.6s0.9,1.4,1.2,2.1
		c0.3,0.7,0.6,1.3,0.8,1.9c0.2,0.6,0.4,1.2,0.6,1.8l0.9-0.8c0-1-0.1-1.9-0.3-2.9c-0.1-0.8-0.4-1.8-0.7-2.8c-0.4-1.1-0.9-2.1-1.5-3.1
		c-0.8-1.1-1.8-1.9-3-2.5c-1.3-0.6-2.6-1-3.8-1.3c-1.3-0.3-3-0.4-5.1-0.5c1-0.3,1.7-0.6,2.2-0.9c0.8-0.5,1.3-0.9,1.7-1.4
		c0.4-0.4,0.6-1.1,0.7-2.1c0.6-0.1,1.1-0.2,1.7-0.3c0.5-0.1,0.9-0.2,1.3-0.3c0.4-0.1,0.8-0.3,1.1-0.5c0.3-0.2,0.5-0.5,0.7-1.1
		c0.2-0.5,0.4-1.1,0.5-1.7c0.1-0.7,0.3-1.4,0.4-2.2l-0.7-0.7c-0.3,0.3-0.7,0.5-1,0.8c-0.3,0.2-0.6,0.5-0.9,0.7
		c-0.3,0.3-0.6,0.5-0.9,0.7s-0.7,0.3-1.2,0.5c-0.5,0.1-1.1,0.3-1.6,0.4s-1.3,0.2-2.1,0.3c0.2-0.4,0.3-0.8,0.4-1.1
		c0.1-0.3,0.1-0.6,0.1-0.9s-0.1-0.5-0.2-0.7c-0.1-0.2-0.4-0.4-0.8-0.6c-0.4-0.2-0.8-0.4-1.3-0.6s-1-0.4-1.6-0.6l3.6-1.9l0.1-0.9
		l-4.8-0.5l0.9-1.6l-2.6-0.5l2-4.3l-0.7-0.5c-0.3,0.1-0.7,0.2-1,0.4c-0.7,0.2-1.2,0.5-1.7,0.8c-0.2,0.1-0.5,0.3-0.8,0.6
		c-0.3,0.3-0.6,0.5-0.8,0.8c-0.3,0.3-0.6,0.6-0.9,1c0.1-0.4,0.2-0.7,0.4-1.2c0.1-0.3,0.2-0.7,0.2-1.2c0.1-0.4,0.1-0.9,0.1-1.3
		s-0.1-0.9-0.1-1.3c-0.1-0.4-0.1-0.9-0.2-1.2c-0.1-0.4-0.3-0.9-0.4-1.3l-1.8,1.9l-2.6,0.3l2.6-4c-0.5,0-0.9,0-1.4,0
		c-0.4,0-0.7,0.1-1.1,0.1c-0.4,0.1-0.7,0.1-0.9,0.3c-0.4,0.3-0.8,0.5-1.2,0.8s-0.7,0.5-1,0.8c-0.4,0.3-0.7,0.5-1,0.8l-0.6-2.5
		l-1.7,1.5l-0.9-3.5l-1.3-0.1c0,0.4,0,0.8-0.1,1.3c-0.1,0.4-0.1,0.9-0.2,1.4c-0.1,0.5-0.2,1.1-0.3,1.7c-0.1,0.5-0.2,1.2-0.3,2
		s-0.2,1.6-0.2,2.4c-0.1,0.9-0.1,1.8-0.2,2.8c-0.2-0.2-0.4-0.4-0.6-0.6c-0.4-0.4-0.8-0.9-1.2-1.5c-0.2-0.3-0.4-0.8-0.6-1.5
		s-0.4-1.4-0.6-2.1s-0.3-1.4-0.4-1.9c-0.1-0.6-0.2-0.9-0.2-1l-0.6,0.3c-0.4,0.9-0.7,1.8-0.8,2.7c-0.1,0.8-0.1,1.7,0,2.7
		c0.1,1,0.5,1.9,1.2,2.9s1.3,1.9,2.1,2.9c0.7,1,1.4,1.9,2,2.7c0.7,0.9,1.5,1.9,2.2,2.7l-4.1,0.9l-0.2,1c0.3,0.1,0.7,0.3,1.3,0.5
		c0.6,0.3,1.2,0.6,1.8,0.9c0.7,0.4,1.3,0.8,2,1.3s1.3,0.9,1.8,1.4h-0.1c0.2,0.2,0.3,0.4,0.4,0.6l0.1-0.1l0.4,0.6l0.3,0.6
		c0,0-0.1,0-0.1,0.1C-151.6,75.1-151.5,75.4-151.4,75.5L-151.4,75.5z M-128.5,86.6c0.2,0.3,0.4,0.7,0.6,1c0.2,0.4,0.4,0.7,0.5,1.1
		c0.1,0.3,0.2,0.6,0.3,0.9c0.1,0.3,0.2,0.6,0.3,0.9c0.1,0.4,0.2,0.7,0.2,1.1l-2.3-2.5l-0.3-3.5C-128.9,85.9-128.7,86.3-128.5,86.6z
		 M-131.6,83.1c0.3,0.2,0.6,0.4,0.8,0.6c0.7,1,1,2,1.1,3.2c0,1.1-0.1,2.2-0.3,3.2c-0.2,1.2-0.7,2.4-1.2,3.5c0-0.9-0.1-1.8-0.3-2.7
		c-0.1-0.8-0.3-1.6-0.6-2.5s-0.6-1.7-1.1-2.4c-0.6-0.8-1.2-1.5-1.9-2.1c-0.7-0.6-1.4-1-2.1-1.4c-0.8-0.4-1.6-0.8-2.4-1.1
		c1.4,0.1,2.8,0.2,4,0.4c0.5,0.1,1.1,0.2,1.6,0.3c0.5,0.1,1,0.2,1.5,0.4C-132.3,82.7-131.9,82.9-131.6,83.1z M-135.9,78
		c1.2,0,2.4,0.1,3.6,0.3c1.2,0.2,2.3,0.4,3.4,0.8c1.1,0.3,2,0.8,2.8,1.3s1.4,1.1,1.9,1.7c0.4,0.6,0.8,1.3,1.1,2
		c0.3,0.7,0.5,1.4,0.7,2c0.2,0.7,0.4,1.4,0.5,2.2c-0.2-0.4-0.4-0.9-0.5-1.3c-0.2-0.4-0.4-0.8-0.6-1.2c-0.2-0.4-0.4-0.8-0.7-1.1
		c-0.8-1.1-2.1-2-3.9-2.7c-1.8-0.6-4.1-0.9-6.9-0.9c-2.2,0-4-0.2-5.6-0.7c-1.6-0.5-2.9-1-4-1.6c-1.1-0.6-1.9-1.2-2.5-1.9
		c-0.6-0.7-1-1.2-1.3-1.5l-0.4-0.6c-0.1-0.1-0.2-0.3-0.2-0.4c0.3,0,0.6,0,0.8,0.1h0.9c1.1,0.7,2.2,1.3,3.4,1.8
		c1,0.5,2.2,0.9,3.5,1.2C-138.7,77.8-137.3,78-135.9,78z M-132,73.6c-0.1,0.2-0.3,0.5-0.6,0.8s-0.7,0.6-1.3,1
		c-0.9,0.6-1.8,0.9-2.7,1.1c-0.9,0.1-1.8,0.2-2.5,0.1c-0.9-0.1-1.8-0.2-2.6-0.5c0.7-0.3,1.3-0.6,2-0.9c0.5-0.3,1.1-0.5,1.7-0.8
		c0.6-0.2,1.1-0.4,1.6-0.6c0.4-0.1,0.9-0.2,1.5-0.4c0.5-0.1,1.1-0.2,1.5-0.3c0.6-0.1,1.1-0.1,1.7-0.2
		C-131.8,73.2-131.8,73.4-132,73.6z M-131.4,69.9c0.7-0.1,1.3-0.3,1.9-0.5c0.6-0.2,1-0.3,1.3-0.5c0.2-0.1,0.4-0.3,0.7-0.5
		c0.2-0.2,0.4-0.4,0.6-0.5c0.2-0.2,0.4-0.4,0.7-0.6c0,0.5-0.1,1-0.1,1.5c-0.1,0.4-0.2,0.7-0.3,1.1c-0.1,0.4-0.3,0.7-0.6,0.9
		c-0.3,0.2-0.9,0.4-1.8,0.6c-0.9,0.2-1.8,0.4-2.7,0.6c-1.1,0.2-2.3,0.4-3.6,0.6l1.5-2.1C-133,70.3-132.2,70.1-131.4,69.9z
		 M-135.6,70.9c0,0.4-0.2,0.7-0.4,1.1s-0.7,0.8-1.3,1.2c-1.1,0.7-2.1,1.1-3.1,1.3c-1,0.2-1.9,0.3-2.7,0.2c-0.9-0.1-1.8-0.2-2.6-0.5
		c0.7-0.1,1.4-0.2,2.1-0.4c0.6-0.1,1.2-0.3,1.8-0.5s1.1-0.4,1.5-0.6c0.6-0.4,1.2-0.9,1.7-1.4s0.9-0.9,1.2-1.4
		c0.4-0.5,0.7-0.9,0.9-1.4c0.2,0.2,0.3,0.4,0.4,0.5c0.1,0.2,0.3,0.4,0.4,0.8C-135.6,70.2-135.5,70.5-135.6,70.9z M-137.2,65.7
		c0.4,0.1,0.8,0.2,1.2,0.3c0.4,0.2,0.8,0.3,1.1,0.6c0.3,0.2,0.6,0.4,0.7,0.6c0.1,0.1,0.1,0.4,0.1,0.7c0,0.3-0.1,0.7-0.2,1
		c-0.1,0.4-0.3,0.8-0.4,1.2c-0.1-0.2-0.2-0.4-0.3-0.6c-0.1-0.2-0.2-0.4-0.3-0.6c-0.1-0.2-0.2-0.4-0.3-0.5c-0.2-0.3-0.4-0.5-0.7-0.5
		c-0.2-0.1-0.6,0.1-0.9,0.3c-0.2,0.1-0.4,0.3-0.6,0.7c-0.2,0.3-0.5,0.7-0.7,1.1c-0.3,0.4-0.6,0.8-1,1.2c-0.4,0.4-0.8,0.8-1.4,1.2
		c-0.6,0.4-1.4,0.7-2.4,0.9c-0.9,0.2-1.8,0.3-2.7,0.3s-1.6,0-2.2,0l-0.9-0.1l0.2-0.3c0.1-0.1,0.1-0.2,0.2-0.3
		c0.8-0.3,1.6-0.6,2.4-0.9c0.6-0.3,1.3-0.5,2-0.8s1.3-0.6,1.7-0.9c0.4-0.3,0.8-0.6,1.2-1c0.4-0.4,0.8-0.8,1.1-1.2
		c0.3-0.4,0.7-0.8,1-1.1c0.3-0.4,0.6-0.6,0.9-0.8C-138,65.7-137.6,65.7-137.2,65.7z M-137.4,62.7c0.4-0.1,0.8-0.1,1.3-0.1
		s0.9,0.1,1.4,0.2c-0.3,0.1-0.5,0.2-0.8,0.4c-0.2,0.1-0.5,0.3-0.9,0.5c-0.4,0.2-0.7,0.5-1.2,0.7c-0.8,0.5-1.4,1-1.9,1.7
		c-0.5,0.6-0.9,1.1-1.1,1.3c0.2-0.8,0.4-1.4,0.6-1.9s0.4-1,0.7-1.4c0.3-0.5,0.6-0.8,0.9-1C-138.2,62.9-137.8,62.7-137.4,62.7z
		 M-138.5,60.7l-1.3,2.7l-0.5-1.4l-1.6,1l1.7-2.7L-138.5,60.7z M-139.9,56.4c0.1-0.1,0.2-0.1,0.4-0.2c-0.3,0.6-0.5,1.2-0.7,1.8
		c-0.2,0.5-0.4,1-0.6,1.5s-0.4,1-0.6,1.3s-0.5,0.7-0.8,1.2s-0.6,0.9-0.9,1.4s-0.7,1-1.1,1.5c0.1-0.6,0.1-1.2,0.2-1.7
		c0-0.2,0.1-0.4,0.1-0.6s0.1-0.4,0.1-0.5c0-0.2,0.1-0.3,0.1-0.5l-2.1,1.4c0.1-0.4,0.4-0.9,0.7-1.4c0.4-0.6,0.8-1.2,1.3-1.8
		c0.5-0.6,1-1.2,1.5-1.7s1-0.9,1.5-1.3L-139.9,56.4z M-146.2,67.4c-0.4,0.7-0.8,1.3-1.4,1.7c-0.6,0.5-1.1,0.9-1.5,1.3
		c-0.4,0.4-0.8,0.7-1.1,0.9l-0.9,0.8l-0.7-1.2c0.2-0.6,0.5-1.1,0.7-1.6c0.2-0.4,0.5-0.9,0.7-1.3c0.3-0.4,0.5-0.8,0.8-1.1
		c0.2-0.3,0.6-0.6,1.1-1s1.1-0.8,1.6-1.2c0.6-0.5,1.3-1,2.1-1.5c-0.1,0.7-0.3,1.5-0.6,2.2C-145.5,66.1-145.8,66.7-146.2,67.4z
		 M-144,54.4c0,0.5,0,1.1-0.1,1.8c-0.1,0.7-0.3,1.4-0.6,2.2c-0.3,0.8-0.8,1.6-1.3,2.5c-0.6,0.9-1.1,1.7-1.7,2.4
		c-0.7,0.9-1.3,1.7-2,2.5c0.1-1.1,0.3-2.1,0.5-3.1c0.2-0.9,0.4-1.8,0.6-2.7c0.2-0.9,0.5-1.7,0.9-2.4c0.3-0.7,0.7-1.3,1.1-1.9
		c0.4-0.6,0.8-1.1,1.2-1.6c0.4-0.5,0.9-1,1.3-1.5C-144.1,53.2-144,53.8-144,54.4z M-149.1,54.4c0.5-0.2,1-0.3,1.4-0.4
		c0.5-0.1,0.9-0.1,1.4-0.1c-0.6,0.7-1.1,1.3-1.5,2c-0.4,0.6-0.7,1.2-1.1,1.8c-0.3,0.6-0.5,1.2-0.6,1.8c-0.1,1-0.3,2.1-0.6,3.4
		c-0.3,1.2-0.6,2.4-0.9,3.5c-0.4,1.3-0.8,2.6-1.2,3.9c-0.6-0.9-1.1-2.1-1.5-3.5c-0.3-1.4-0.5-2.8-0.4-4.3c0.1-1.5,0.4-2.8,1-4.1
		c0.5-1.3,1.4-2.3,2.5-3.1C-150.1,54.8-149.6,54.6-149.1,54.4z M-148.9,50.7c0.4-0.2,0.7-0.3,0.9-0.4c0.3-0.1,0.6-0.2,0.9-0.3
		c-0.2,0.4-0.5,0.8-0.7,1.1c-0.2,0.3-0.5,0.7-0.8,1.1s-0.6,0.7-1,1.1c-0.4,0.3-0.7,0.6-1.1,1c-0.4,0.4-0.8,0.7-1.1,1
		c-0.4,0.3-0.8,0.7-1.2,1c0.1-0.3,0.1-0.6,0.2-1c0.1-0.4,0.3-0.8,0.5-1.3c0.2-0.4,0.5-0.9,0.8-1.3s0.8-0.8,1.3-1.2
		C-149.7,51.2-149.3,50.9-148.9,50.7z M-152.8,52.5l-0.6,1.2l-0.7-2.1l0.8-0.8L-152.8,52.5z M-158,62.6c-0.3-0.4-0.7-0.9-1-1.3
		s-0.6-0.9-0.9-1.2c-0.3-0.4-0.5-0.7-0.7-1l-0.5-0.7c-0.5-0.7-0.8-1.4-0.9-2.1c-0.1-0.7-0.2-1.3-0.2-1.8c0-0.6,0.1-1.2,0.3-1.8
		c0,0.5,0.1,1.1,0.3,1.6c0.1,0.5,0.3,1,0.5,1.5s0.4,1,0.8,1.5c0.3,0.4,0.6,0.8,0.9,1.1c0.3,0.3,0.6,0.6,0.9,0.9s0.6,0.5,0.9,0.8
		c0.1,0.4,0.2,0.8,0.3,1.1c0.1,0.3,0.2,0.6,0.3,0.9s0.2,0.6,0.3,0.8c0.1,0.2,0.2,0.5,0.3,0.8c0.2,0.3,0.3,0.7,0.5,1
		c0.2,0.4,0.4,0.8,0.6,1.2C-156.4,64.8-157.2,63.7-158,62.6z M-155.7,63.8c-0.3-0.9-0.6-2-0.9-3.2s-0.4-2.3-0.3-3.5
		c0-0.9,0.1-1.8,0.2-2.8c0.1-1,0.2-1.8,0.4-2.6c0.1-0.9,0.3-1.9,0.5-2.7c0.3,0.8,0.6,1.6,0.9,2.3c0.2,0.7,0.4,1.4,0.6,2.1
		s0.3,1.3,0.3,1.9c0,1.3-0.1,2.6-0.4,3.7c-0.3,1.2-0.5,2.4-0.5,3.5c0,0.5,0,0.9,0.1,1.4c0.1,0.5,0.2,1,0.2,1.4
		c0.1,0.4,0.2,1,0.4,1.6C-154.9,65.8-155.4,64.7-155.7,63.8z M-153,71.9c-0.4-0.2-0.8-0.5-1.2-0.8c-0.4-0.3-0.7-0.5-1-0.6
		c-0.4-0.2-0.7-0.4-1.1-0.7c-0.4-0.2-0.7-0.4-1-0.6c-0.4-0.2-0.7-0.4-1-0.5c0.7-0.4,1.3-0.7,1.8-0.8c0.5-0.1,1,0,1.4,0.2
		c0.4,0.2,0.8,0.5,1.2,0.9s0.7,0.9,1.1,1.5c0.3,0.5,0.7,1.3,1.1,2.3C-152.1,72.5-152.5,72.2-153,71.9z M-147,69.9
		c0.3-0.5,0.7-1.1,1-1.6c0.4-0.5,0.7-0.9,1-1.3c0.3-0.3,0.7-0.7,1.2-1.2s1-0.9,1.4-1.4c0.5-0.5,1.1-1,1.7-1.6c0.1,0.4,0.1,0.8,0,1.5
		c-0.1,0.6-0.3,1.3-0.5,2c-0.3,0.7-0.6,1.3-1,1.9c-0.4,0.6-0.8,1-1.2,1.3c-0.5,0.3-1,0.6-1.5,0.8c-0.5,0.2-1,0.5-1.5,0.7l-1.7,0.7
		C-147.7,71-147.3,70.4-147,69.9z M-150.7,72.7l1.2,1.3c0.5,1.3,0.8,2.6,0.9,3.8c0.1,1,0,2.1-0.2,3.2c-0.3,1.1-0.9,2-1.9,2.6
		c-0.6,0.4-1.6,0.7-3,1c0.7-0.8,1.3-1.4,1.7-2s0.7-1.3,1.1-2c0.3-0.8,0.5-1.6,0.6-2.5C-150.2,76.3-150.4,74.5-150.7,72.7z"/>
	<path class="st8" d="M-166.3,83.5c-1.1,0.9-2,1.7-2.9,2.5c-0.8,0.8-2.4,2.4-2.4,2.5c0.2,0.2,0.4,0.4,0.5,0.7
		c0.2-0.2,3.5-3.5,5.3-5.1c0.1-0.2,0.3-0.4,0.5-0.6H-166.3z"/>
	<path class="st8" d="M-163,82c0.6-0.5,1.2-0.9,1.8-1.3c0.7-0.4,1.5-0.9,2.4-1.4c0.9-0.5,1.9-1,2.8-1.5c0.9-0.5,1.8-0.9,2.7-1.4
		c0.8-0.4,1.4-0.7,1.8-0.9c-0.1-0.2-0.2-0.4-0.3-0.6c-0.3,0.1-0.8,0.4-1.5,0.8c-0.8,0.4-1.8,0.9-2.8,1.4s-2,1.1-3.1,1.6
		c-1,0.6-1.9,1-2.5,1.5c-0.6,0.4-1.2,0.8-1.7,1.2c-0.5,0.4-1.1,0.8-1.7,1.3v0.8c0.3-0.2,0.6-0.3,1-0.4
		C-163.8,82.7-163.4,82.3-163,82z"/>
	<path class="st10" d="M-141.7,100.7c-0.3-0.6-0.5-1.2-0.8-1.9c-0.3-0.6-0.6-1.2-1-1.7c-1.7-2.5-3.3-4.5-4.8-5.9
		c-1.5-1.5-2.7-2.3-3.6-2.4c-0.4,0-1,0-1.6,0c-0.6,0.1-1.2,0.1-1.9,0.1c-0.6,0-1.2,0-1.8,0c-0.5,0-1-0.1-1.2-0.3
		c-0.3-0.2-0.7-0.5-1.1-0.8c-0.4-0.4-0.8-0.8-1.1-1.2c-0.4-0.5-0.9-1-1.3-1.5l1.4-0.6l0.1-0.6l-3.8-0.9c0.1-0.1,0.1-0.1,0.2-0.2
		c-0.4,0.1-0.7,0.3-1,0.4v0.2h-0.2c-0.2,0.2-0.4,0.4-0.5,0.6l0.1-0.1l-0.5,8.6l-2.2,1.3c0.1,0.5,0.3,0.7,0.4,1l1.9-1.2l-0.3,6.1
		c0.2,0.6,0.6,1.9,0.7,2.2l0.7-12.5l1.2-0.8c0.2,0.3,0.4,0.7,0.7,1c0.2,0.3,0.3,0.6,0.5,1c0.2,0.3,0.3,0.7,0.3,0.9
		c0.1,0.3,0,0.6-0.1,1.1c-0.1,0.5-0.3,1-0.5,1.6s-0.3,1.2-0.4,1.8c-0.1,0.6-0.1,1.2,0,1.7c0.1,0.5,0.3,1.1,0.5,1.8
		c0.2,0.7,0.4,1.3,0.6,2s0.3,1.3,0.4,1.9c0.1,0.6,0.1,1-0.1,1.3c-0.2,0.5-0.4,0.9-0.7,1.2c-0.2,0.4-0.9,1.3-1.3,1.6l0.4,1.3
		c0.2-0.2,1.3-1.4,1.7-1.9c0.4-0.6,0.7-1.1,0.9-1.6c0.1-0.3,0.1-0.8-0.1-1.5c-0.1-0.7-0.3-1.4-0.5-2.2c-0.2-0.8-0.4-1.5-0.7-2.3
		c-0.2-0.7-0.3-1.3-0.3-1.7c0-0.5,0.1-1,0.2-1.7c0.1-0.6,0.2-1.3,0.4-1.9c0.2-0.8,0.3-1.5,0.5-2.3c0.3,0.3,0.7,0.6,1,0.9
		s0.6,0.6,0.9,0.9s0.7,0.7,0.9,1.2c0.3,0.6,0.6,1.3,0.7,2.2c0.1,0.8,0.2,1.7,0.2,2.5c0,1,0,2-0.1,3l1,0.3c0.2,0.9,0.3,1.7,0.6,2.6
		c0.2,0.7,0.4,1.5,0.7,2.3c0.3,0.8,0.6,1.5,1,2c0.4,0.5,0.8,0.9,1.3,1.1s1.1,0.1,1.6-0.3c0.7-0.5,1.2-1,1.5-1.7s0.4-1.3,0.4-1.9
		c0-0.7-0.1-1.4-0.3-2.1l1.5-1l-0.2-0.6c-0.1-0.4-0.3-0.9-0.5-1.4c-0.2-0.6-0.4-1.1-0.6-1.7s-0.4-1-0.6-1.2c-0.2-0.3-0.4-0.6-0.8-1
		c-0.3-0.4-0.7-0.9-1-1.3c-0.4-0.4-0.7-0.8-0.9-1.2c-0.3-0.3-0.5-0.6-0.5-0.7c-0.1-0.1-0.2-0.3-0.3-0.5s-0.2-0.4-0.4-0.7
		c-0.1-0.3-0.3-0.6-0.4-0.8c0.7,0.2,1.4,0.4,2,0.8c0.5,0.3,1.1,0.6,1.7,0.9c0.6,0.3,1,0.8,1.3,1.2c0.4,0.5,0.7,1.1,1.1,1.8
		c0.4,0.7,0.7,1.3,1,1.9c0.3,0.7,0.7,1.3,1,2h1.5l2.8,1.9l1.1-0.3C-141.1,102.1-141.4,101.4-141.7,100.7z M-163.8,86.6l1.1-1
		c0.6,0.6,1.2,1.2,1.7,1.7c0.4,0.4,1,1,1.7,1.7l-2.3-1.2C-162.1,87.5-162.9,87.1-163.8,86.6z M-150.6,107.9
		c-0.2,0.7-0.5,1.2-1.1,1.5c-0.4,0.3-0.8,0.4-1.1,0.2c-0.3-0.2-0.6-0.4-0.8-0.8c-0.3-0.5-0.6-1.2-0.8-2c-0.2-0.8-0.3-1.6-0.4-2.4
		c-0.1-0.9-0.2-1.9-0.2-2.9h-1.5c0-1,0-1.9-0.1-2.8c-0.1-0.8-0.2-1.5-0.3-2.3c-0.1-0.8-0.4-1.5-0.7-2s-0.8-1.1-1.4-1.8
		c-0.6-0.7-1.2-1.4-1.7-2c-0.7-0.7-1.3-1.5-2-2.3c1,0.8,1.9,1.6,2.9,2.5c0.8,0.7,1.7,1.5,2.5,2.4c0.9,0.9,1.6,1.8,2.2,2.7
		c0.4,0.6,0.9,1.3,1.3,2.1c0.5,0.8,1,1.6,1.4,2.5c0.5,0.9,0.9,1.8,1.2,2.7c0.3,0.9,0.6,1.8,0.7,2.6
		C-150.4,106.6-150.4,107.3-150.6,107.9z M-144.8,100.4l-0.9-0.1c-0.4-0.7-0.8-1.5-1.2-2.2c-0.3-0.6-0.7-1.2-1.1-1.8
		c-0.4-0.6-0.7-1.1-1-1.5s-0.8-0.8-1.5-1.2c-0.7-0.4-1.5-0.7-2.2-1c-0.9-0.3-1.8-0.6-2.8-0.9c0,0.3,0.1,0.6,0.2,1
		c0.1,0.3,0.2,0.7,0.4,1.1s0.5,0.9,0.9,1.4c0.7,1,1.3,1.8,1.8,2.4c0.5,0.5,1,1.1,1.4,1.8c0.2,0.3,0.4,0.7,0.6,1.2s0.3,1,0.5,1.4
		c0.1,0.5,0.3,1,0.4,1.6l-0.7,0.5c-0.4-0.9-0.8-1.8-1.3-2.8c-0.4-0.8-0.9-1.7-1.4-2.8c-0.6-1-1.2-2-1.9-3c-0.7-1-1.4-1.9-2-2.6
		c-0.7-0.7-1.3-1.4-1.8-1.9c-0.7-0.6-1.3-1.1-1.8-1.5c1.8,0.4,3.4,0.7,5,1.1c0.7,0.2,1.3,0.4,1.9,0.6c0.6,0.2,1.2,0.4,1.8,0.7
		c0.6,0.2,1.1,0.5,1.5,0.7c0.4,0.3,0.7,0.5,0.9,0.9c0.4,0.6,0.8,1.2,1.3,1.9c0.5,0.7,0.9,1.4,1.3,2c0.5,0.7,0.9,1.4,1.3,2.1l0.6,0.1
		c-0.6-0.9-1.1-1.8-1.6-2.7c-0.4-0.7-0.9-1.5-1.3-2.2c-0.4-0.7-0.8-1.3-1.1-1.7c-0.3-0.4-0.8-0.8-1.5-1.1c-0.7-0.4-1.5-0.7-2.2-1
		c-0.9-0.3-1.9-0.7-2.9-1c0.4,0,0.8,0,1.2,0c0.3,0,0.7,0,1.1,0c0.4,0,0.8,0,1.1,0.1c0.4,0.1,0.8,0.3,1.5,0.8c0.6,0.5,1.3,1.1,2,1.8
		c0.7,0.7,1.4,1.5,2.1,2.4s1.4,1.8,2,2.6c0.3,0.5,0.6,1,0.9,1.5s0.5,1.1,0.7,1.5c0.2,0.6,0.5,1.1,0.6,1.7L-144.8,100.4z"/>
	<path class="st8" d="M-165.9,81.8c1-0.8,2.1-1.5,3.2-2.2c0.6-0.4,1.5-0.9,2.5-1.5s2-1.1,3-1.7s2-1.1,2.8-1.6c0.8-0.4,1.4-0.7,1.8-1
		c-0.1-0.2-0.3-0.4-0.4-0.6c-0.5,0.2-1.1,0.6-1.9,1c-0.9,0.5-1.8,1-2.8,1.5s-2,1.1-2.9,1.7c-1,0.6-1.8,1.1-2.5,1.5
		c-0.4,0.3-0.8,0.5-1.1,0.8c-0.2,0.2-0.5,0.3-0.7,0.5c-0.4,0.3-0.7,0.6-1.2,0.8C-166,81.3-165.9,81.5-165.9,81.8z"/>
	<path class="st10" d="M-167.6,82.4v-0.1c0.1-0.4,0.1-0.9,0.1-1.3s0-0.8-0.1-1.2c-0.1-0.4-0.2-0.7-0.4-1c-0.3-0.4-0.7-0.8-1.3-1.2
		c-0.6-0.4-1.1-0.7-1.7-1.1c-0.7-0.3-1.4-0.7-2.1-1.1c-0.1-0.3-0.2-0.5-0.2-0.7s0-0.4,0-0.6s0.1-0.3,0.2-0.4
		c0.1-0.1,0.3-0.1,0.6-0.1c0.3,0,0.5,0.1,0.8,0.1s0.7,0.1,1,0.3l0.6,1h-2.1c0.7,0.3,1.3,0.5,1.9,0.8c0.5,0.2,1,0.5,1.5,0.9
		c0.5,0.3,0.9,0.7,1.2,1.1c0.4,0.5,0.7,1.2,1,2c0.2,0.4,0.3,0.8,0.4,1.1c0.4-0.3,0.8-0.5,1.2-0.8c-0.1,0.1-0.3,0.2-0.4,0.3
		c0.4-0.5,1-1,1.6-1.7c0.6-0.6,1.2-1.3,1.7-1.9c0.6-0.6,1.1-1.2,1.5-1.7c0.4-0.5,0.7-0.9,0.9-1.2c0.2-0.4,0.3-0.8,0.2-1.2
		c0-0.4-0.1-0.8-0.3-1.2c-0.1-0.4-0.3-0.9-0.6-1.3l-1.4-0.8l-2.3,1.5c1-1.8,1.7-3.2,2.2-4.3c0.5-1.1,0.9-2.1,1.2-3.1s0.3-1.7,0.1-2
		c-0.3-0.4-0.6-0.8-1.1-1.1c-0.4-0.3-0.9-0.6-1.3-0.8c-0.5-0.3-1-0.5-1.6-0.8l-0.9,0.8l-2.8-2.4l-0.9,0.7l0.5,11c-0.3-1-0.7-2-1-3
		c-0.3-0.8-0.7-1.6-1-2.5c-0.4-0.9-0.7-1.6-1.1-2.1c-0.4-0.6-0.8-1-1.2-1.4s-0.9-0.7-1.3-1c-0.5-0.3-1-0.6-1.4-0.8l-1,0.8l-3.7-1.6
		l-0.5-0.1c-0.2-0.1-3.7,1.7-4,1.7c0.1,0.1,0.7,0.3,0.8,0.4c0,0-3.4,1.1-4.1,2.5c1.2-0.2,1.8,0.1,2.4,0.1c0.7,0,1.3,0.1,2,0.1
		c0.7,0.1,1.3,0.1,1.9,0.2c0.6,0.1,1.1,0.2,1.4,0.3c0.5,0.1,1,0.4,1.5,0.9c0.5,0.4,1,0.9,1.5,1.4c0.6,0.6,1.1,1.2,1.6,1.9
		c-1-0.3-1.9-0.5-2.8-0.7c-0.8-0.1-1.5-0.2-2.3-0.2s-1.4,0.1-1.8,0.4c-0.4,0.3-0.9,0.6-1.4,0.9c-0.5,0.4-1.1,0.8-1.6,1.2
		c-0.6,0.4-1.1,0.8-1.6,1.1c-0.5,0.4-0.9,0.6-1.1,0.9c0,0-1.3,3.6-0.3,3.1l0.7-2.6l4.8-2.9c0.1-0.1,0.2-0.3,0.3-0.4
		c0.2-0.2,0.5-0.5,0.9-0.8c0.2-0.1,0.7-0.1,1.4,0c0.8,0.1,1.6,0.3,2.5,0.4c1,0.2,2.1,0.5,3.4,0.7l0.6-0.4c-0.9-1.1-1.7-2-2.4-2.9
		c-0.7-0.7-1.4-1.4-2.1-2.1c-0.7-0.6-1.3-1-1.8-1c-0.4,0-0.9-0.1-1.5-0.1s-1.2-0.1-1.8-0.1s-1.1,0-1.6-0.1c-0.5,0-1.8,0.1-2,0.1
		l2.9-1.3c0.2,0,1.3-0.5,1.8-0.5s1,0.1,1.6,0.2s1.2,0.3,1.8,0.5s1.3,0.5,1.9,0.9c0.7,0.5,1.4,1.1,2.3,1.8c0.9,0.7,1.7,1.4,2.5,2.1
		c0.9,0.8,1.8,1.6,2.7,2.5l1.4,6.3l-0.8,0.5c-0.1-0.2-0.2-0.4-0.3-0.6c-0.1-0.2-0.2-0.4-0.4-0.6s-0.3-0.5-0.5-0.8
		c-0.3-0.4-0.6-0.9-1-1.3c-0.4-0.5-0.8-0.9-1.2-1.3s-0.8-0.7-1.3-1s-0.9-0.4-1.3-0.4c-1.5,0-2.8,0-4.1,0.1s-2.3,0.4-3,0.7
		c-0.3,0.1-0.8,0.4-1.3,0.6c-0.5,0.3-2.7,2.1-3.1,2.2c-0.9,0.3-2,0.6-2.1,1.2c0.1,0.2,1.9-0.5,2.1-0.4l1.7,2c0.4,0-1.2-2.3-0.9-2.6
		c0.4-0.3,0.9-0.6,1.4-0.9c0.4-0.3,0.8-0.5,1.2-0.8c0.4-0.2,0.8-0.5,1.3-0.7c0.4-0.2,0.9-0.4,1.5-0.5s1.1-0.2,1.6-0.3
		c0.6-0.1,1.2-0.1,1.8-0.1c-0.2,0.2-0.5,0.4-0.7,0.6s-0.4,0.4-0.7,0.7c-0.3,0.2-0.5,0.5-0.7,0.8c-0.3,0.3-0.5,0.6-0.7,0.9
		s-0.5,0.6-0.7,0.9s-0.5,0.7-0.7,1l-4.2,0.3l0.4,0.6l4.2,0.1c0.4-0.8,0.8-1.5,1.4-2.3c0.4-0.6,0.9-1.2,1.5-1.9
		c0.5-0.6,1.1-1.1,1.7-1.5c0.5-0.3,1.1-0.4,1.6-0.2c0.5,0.2,1.1,0.5,1.6,1c0.5,0.4,1,0.9,1.4,1.5c0.4,0.5,0.7,0.9,0.9,1.2
		c-0.3-0.1-0.7-0.2-1-0.3c-0.3,0-0.6,0-0.9,0c-0.3,0-0.6,0.1-0.9,0.3c-0.3,0.2-0.5,0.5-0.6,0.8s-0.1,0.6-0.1,1s0.1,0.8,0.2,1.2
		c0.9,0.3,1.8,0.6,2.6,0.9c0.7,0.2,1.4,0.5,2,0.9c0.7,0.4,1.1,0.7,1.4,1.1c0.4,0.5,0.5,1.2,0.3,2s-0.4,1.4-0.6,2
		c-0.1,0.1-0.2,0.2-0.3,0.3C-168.5,83.2-168.1,82.7-167.6,82.4z M-161.8,70.6l1,0.4c0.2,0.3,0.3,0.6,0.4,0.9
		c0.1,0.3,0.2,0.5,0.2,0.8s0,0.5-0.2,0.8c-0.1,0.2-0.5,0.6-1.1,1.3c-0.6,0.6-1.2,1.3-1.8,2.1c-0.8,0.9-1.6,1.8-2.4,2.7l2.8-5.8
		l-3.4,4.3c-0.4-0.6-0.9-1.1-1.5-1.6c-0.6-0.5-1.1-0.8-1.5-1L-161.8,70.6z M-173.1,64.2c-0.7-0.6-1.5-1.2-2.2-1.9
		c-0.7-0.6-1.3-1.1-1.8-1.4c-0.6-0.4-1.2-0.7-1.7-0.9c-0.6-0.2-1.2-0.4-1.7-0.6c-0.5-0.1-1-0.2-1.4-0.3c-0.4-0.1-1.6-0.1-1.8-0.1
		l2.8-1.2l4.6,2.1l1.1-0.6c0.3,0.2,0.7,0.5,1,0.8s0.6,0.5,0.9,0.9c0.3,0.3,0.6,0.7,0.9,1.1s0.5,0.9,0.8,1.4c0.2,0.5,0.5,1,0.7,1.5
		c0.2,0.6,0.5,1.1,0.7,1.7C-171.3,65.7-172.2,64.9-173.1,64.2z M-163.3,60.4c0.3,0.2,0.6,0.4,0.9,0.7c0.3,0.3,0.6,0.6,0.9,1
		c0.1,0.2,0.1,0.4,0.1,0.8c-0.1,0.3-0.1,0.7-0.3,1.2c-0.1,0.5-0.3,0.9-0.5,1.4s-0.5,1-0.7,1.5c-0.6,1.2-1.3,2.5-2.1,3.9l-1-9.3
		l1.7-1.7C-163.9,60-163.6,60.2-163.3,60.4z M-167.6,73.3l-0.6-14.6l2.2,1.8l-0.9,0.9l1.2,10.7L-167.6,73.3z"/>
	<path class="st8" d="M-169,83.5c-1.4,1.2-2.6,2.3-3.7,3.5c0.2,0.2,0.3,0.4,0.4,0.6c1.2-1.3,2.7-2.6,4.4-4.1c0.1-0.3,0.2-0.6,0.3-1
		C-168.1,82.7-168.5,83.2-169,83.5z"/>
</g>
</svg>
