<?xml version="1.0" encoding="utf-8"?>
<!-- Generator: Adobe Illustrator 19.0.0, SVG Export Plug-In . SVG Version: 6.00 Build 0)  -->
<svg version="1.1"
	 id="svg2985" xmlns:dc="http://purl.org/dc/elements/1.1/" xmlns:cc="http://creativecommons.org/ns#" xmlns:rdf="http://www.w3.org/1999/02/22-rdf-syntax-ns#" xmlns:svg="http://www.w3.org/2000/svg"
	 xmlns="http://www.w3.org/2000/svg" xmlns:xlink="http://www.w3.org/1999/xlink" x="0px" y="0px" viewBox="-192 293.9 210 255"
	 style="enable-background:new -192 293.9 210 255;" xml:space="preserve">
<style type="text/css">
	.st0{enable-background:new    ;}
	.st1{fill:#005F00;}
	.st2{fill:#CDDACD;}
	.st3{fill:#FFFFFF;}
	.st4{fill:url(#rect3008_1_);}
	.st5{filter:url(#filter3970-5);}
	.st6{fill:url(#SVGID_1_);}
	.st7{fill:#994913;}
	.st8{fill:#038249;}
	.st9{fill:#BC197A;}
	.st10{fill:#2A3B92;}
</style>
<filter  height="1.2150326" width="1.2171124" id="filter3970-5" x="-0.10855621" y="-0.10751629" color-interpolation-filters="sRGB">
	<feGaussianBlur  id="feGaussianBlur3972-8" stdDeviation="0.12800763"></feGaussianBlur>
</filter>
<g id="g4146" transform="translate(39.768324,209.71794)">
</g>
<g id="g4630" transform="matrix(1.0005937,0,0,1,-1.3758072,203.40625)" class="st0">
	<g id="g3062">
		<path id="rect4031" d="M-131.2,90.5l46.1,0.2l68.4-0.2c22.9-0.1,36.1,15.9,36.1,40.4v154.6c0,12.3-14,27.7-21.4,35.7
			s-22.1,24.3-33.6,24.3h-113c-22.9,0-41.3-5.6-41.3-30.2l-0.3-162.3c0-6.4,17.3-24.3,24.8-32.4C-158,112.6-142.7,90.4-131.2,90.5
			L-131.2,90.5z"/>
		<path id="rect3767" class="st1" d="M-122.4,103.2h104.5c13.8,0,24.8,11.1,24.9,24.9l0.9,152.4c0,2-12.6,32-25.8,32h-104.5
			c-13.8,0-24.9-11.1-24.9-24.9V128.1C-147.3,114.3-136.2,103.2-122.4,103.2L-122.4,103.2z"/>
		<path id="rect3861" class="st2" d="M-137.4,118.1h99.6c13.7,0,24.9,11.2,24.9,24.9v159.5c0,13.8-11.1,24.9-24.9,24.9h-99.6
			c-13.7,0-24.9-11.2-24.9-24.9V143.1C-162.3,129.3-151.1,118.1-137.4,118.1z"/>
		<path id="rect3765" class="st3" d="M-147.3,133.1h104.5c13.7,0,24.9,11.2,24.9,24.9v149.5c0,13.8-11.1,24.9-24.9,24.9h-104.5
			c-13.7,0-24.9-11.2-24.9-24.9V158C-172.2,144.3-161.1,133.1-147.3,133.1z"/>
		
			<linearGradient id="rect3008_1_" gradientUnits="userSpaceOnUse" x1="-324.8826" y1="569.5873" x2="-324.8826" y2="531.0685" gradientTransform="matrix(4.9807 0 0 -4.9841 1515.6201 2981.9607)">
			<stop  offset="0" style="stop-color:#D0E4CC"/>
			<stop  offset="1" style="stop-color:#FBFFEC"/>
		</linearGradient>
		<path id="rect3008" class="st4" d="M-157.3,143.1h109.5c11,0,19.9,8.9,19.9,19.9v149.5c0,11-8.9,19.9-19.9,19.9h-109.5
			c-11,0-19.9-8.9-19.9-19.9V163C-177.2,152-168.3,143.1-157.3,143.1z"/>
		<path id="path3932" class="st3" d="M2.2,115.7c0,1.5-1.3,2.8-2.8,2.8s-2.8-1.3-2.8-2.8s1.3-2.8,2.8-2.8S2.2,114.1,2.2,115.7z"/>
		<g id="path3936" class="st5">
			
				<linearGradient id="SVGID_1_" gradientUnits="userSpaceOnUse" x1="-315.7709" y1="590.4699" x2="-318.8866" y2="587.0007" gradientTransform="matrix(7.1013 0 0 -6.6887 2243.616 4061.2654)">
				<stop  offset="0" style="stop-color:#FFFFFF"/>
				<stop  offset="1" style="stop-color:#FFFFFF;stop-opacity:0"/>
			</linearGradient>
			<polygon class="st6" points="-2.8,114.3 -31.6,138.9 -23.4,144.9 1.8,116.6 			"/>
		</g>
		<path id="path3882" class="st3" d="M-15,137.6c0,4.8-3.9,8.7-8.7,8.7c-4.8,0-8.7-3.9-8.7-8.7c0,0,0,0,0,0c0-4.8,3.9-8.7,8.7-8.7
			C-19,128.9-15,132.8-15,137.6C-15,137.6-15,137.6-15,137.6z"/>
	</g>
</g>
<g>
	<path class="st7" d="M-96.6,406.3c7.9-6.2,12.2-11.2,18-20.8c2.3-3.7,3.5-5.9,3.5-6.6c0-0.2-0.2-0.4-0.8-0.5l0.1-0.5
		c1.8-1.3,2.7-1.8,3.3-1.8s1.2,0.3,2.2,0.9c0.2-0.5,0.4-1,0.5-1.2c0.2-0.7,0.4-1.1,0.5-1.1l1.1-0.3c2.7-1.6,2.7-1.6,2.7-1.9
		c0-0.2-0.6-0.5-1.6-0.9c-1.2-0.5-2-1.5-2.9-3.3V368c3.2-1.5,3.7-1.7,7.1-3.6c0.3-2.1,0.3-2.4,0.4-4.6c-3.1-0.8-4.1-1.2-5.3-3v-0.5
		c0.9-0.5,1.5-0.8,1.7-0.9c0.9-0.8,1.7-1.6,2.7-2.3c1.1-0.9,2.7-1.5,4.5-1.5c2.7,0,5.1,1.6,5.1,3.4c0,0.9-0.2,1-2.5,2.7
		c-0.9,0.6-1.1,1.1-1.2,2c-0.2,1.5-0.2,1.9-0.4,3.1h0.4c1.7,0,2.5,0.3,3.5,1.6c0.5,0.6,1,1.5,1,2c0,0.8-0.8,1.4-3.8,3.1
		c-1.2,0.8-1.6,1.3-1.9,2.3c0.4-0.2,0.6-0.3,0.7-0.3l1.7-0.2l2.2-0.4c1.4,0,4.4,3,4.4,4.4c0,0.7-1.2,1.9-2,1.9l-6.6-0.4
		c-0.2,0-1,0.2-2.2,0.7c-5.9,2.1-6.7,2.3-8.3,2.3c-1.2,0-1.3,0.1-1.8,1c3,0.3,4.2,0.6,6.5,1.7c0.9,0.5,4,2.6,9,6.1
		c2.7,1.8,5.1,3.1,7.1,3.8c2.9,1.1,5.8,2.2,8.8,3.3c2.7,1,5.1,2.7,5.1,3.4c0,0.8-0.5,1.1-2.5,1.3c-3,0.4-6.8,0.8-7.9,0.8
		c-2.3,0-3.7-0.5-5.9-2c-4.1-2.9-4.9-3.7-9.8-9c-4-4.4-7.3-6.1-11.6-6.1h-0.9l-4.1,5.9c1.7-0.2,2.7-0.5,4.9-1.6
		c1.2-0.5,2.2-0.9,2.9-0.9c1.9,0,4.7,2.5,4.7,4.1c0,0.9,0,0.9-5.1,2.7l-3.5,1.2c-1.4,0.7-2.8,1.3-4.2,1.9c-0.2,0.2-1.2,0.5-2.3,1
		l-0.3-0.3c0.8-0.6,1.6-1.2,1.8-1.5c1.4-1.3,2.4-2.2,2.5-2.3c0.5-0.4,0.7-0.7,0.7-0.9s-0.2-0.6-0.6-0.9c-1.5-1.2-1.5-1.2-2.2-1.9
		c-7.5,9.8-14.3,15.4-18.9,15.8h-0.3L-96.6,406.3z M-89.1,372.5c1.7-1.5,2.6-2.1,4.8-3.5c3.1-2,3.9-2.7,3.9-3.6c0-0.7,0-0.7-3-1.9
		c-1-0.4-2-1.3-3.4-3.2l0.1-0.5c3.2-1,3.5-1.2,6.8-4.4c0.9-0.8,1.6-1.3,2.2-1.3c0.5,0,2.9,1.2,3.8,2c1.2,1,1.7,1.8,1.7,2.8
		c0,0.8-0.2,1.2-1.9,3.4c-1.2,1.6-1.7,2.7-2.4,5.1c0.5,0.5,1.1,1.1,1.2,1.3c0.3,0.4,0.6,0.6,0.8,0.6c0.5,0,2-2.8,3.5-6.5l0.4,0.1
		c-1.1,6.6-2,8.9-6.6,15.2c-4.3,6-7.5,9.1-9.1,9.1c-1.1,0-1.9-1.6-1.9-3.8c0-2,0.1-2,1.6-3.1c2.3-1.8,3.7-3.6,4.1-5
		c-3.4-0.2-4.7-0.6-6.8-2.3L-89.1,372.5z M-82,400.2c0.8,0.5,1.2,0.7,1.8,0.7c0.4,0,1-0.2,1.9-0.7c4.5-2.1,13.1-4.8,15.4-4.8
		c2.1,0,5.5,2.7,5.5,4.5c0,0.4-0.2,0.5-2,2.3c-0.2,0.2-0.5,0.9-0.9,2c-1.6,4.3-3,7.3-5.3,10.8c-1.1,1.8-1.8,2.4-2.7,2.4
		c-1,0-2.7-2.5-2.7-4c0-0.5,0.4-1.2,0.9-2c2.4-3.1,3.1-4.4,4.4-8.1c0.5-1.5,0.7-2,0.7-2.3c0-0.3-0.3-0.5-0.9-0.5
		c-2.5,0-5.1,1.2-11,5.1c-0.9,0.6-1.7,0.9-2.4,0.9c-1.6,0-3.4-2.2-3.4-4.1c0-0.6,0.2-1.3,0.4-2.3L-82,400.2z"/>
</g>
<path class="st8" d="M-145.7,390.4c-2.5,0-4.2-0.1-5.3-0.3c-1.5-0.4-2.3-1.4-2.3-3.1v-35.2c-3.1,1.6-8,2.6-14.5,3v3.2h5.9
	c1.8,0,2.7,0.7,2.7,2.2V387c0,1.3-0.3,2.2-0.9,2.5c-0.9,0.6-3.2,0.9-7,0.9v3.3h21.3V390.4z"/>
<path class="st9" d="M-129.9,438.9c5-3.1,9.7-0.8,14.5,5.7c2.4,3.2,4.7,4.5,8.1,3.3c12-4.1,24-8.5,36-12.8c1.2-0.4,2.4-1.2,3.6-1.8
	c13.1-6.3,13-6.2,24,3.7c2.8,2.5,5.7,5,8.9,7.7c2.2,1.9,2,5.3-0.5,6.9c-3.6,2.3-7,4.4-10.4,6.4c-4.4,2.6-9.1,4.9-13.5,7.6
	c-1.5,0.9-3.1,2.4-3.8,4c-2.5,5.5-4.8,11.1-6.8,16.8c-1.5,4.4-2.9,4.1-4.9,0.5c-1.5-2.7-2.7-5.5-4.3-8.1c-0.5,0.2-1.3,1-1.8,1.2
	c0.9,4.4,2.6,8,3.5,12.5c-0.8,0.4-0.7,0.3-1.5,0.7c-2.3-2.7-4.4-9-6.2-11c-4.8,1.8-3.1,7.5-3.8,9.9c-0.7,2.5-1.3,6.7-2.7,7.1
	c-2.9,0.8-7.5,0.6-9.3-1.3c-4.4-4.5-7.6-3.8-12.3-0.7c-7,4.5-14.2,9.6-23.3,8.4c-2.4-0.3-5.2-1.5-6.8-3.2
	c-7.4-8-17.6-26.6-16.3-32.3c1-4.2,3.5-5.5,3.5-5.5c-2-13.7-0.6-17.8,2-18.8c4.9-1.9,5.6-4.8,5.4-9.2c-0.1-2.1,0.7-4.2,1.1-6.2
	c0.7,0.1,1.4,0.2,2.1,0.3c0.5,8.5,1.1,17,1.7,26.4c3.6-1.1,6.6-1.9,9.9-2.9c-4.5-7.6-0.3-14.8,0.4-22.1c0.1-0.7,1.6-1.2,2.5-1.8
	c0.6,1,1.8,1.9,1.8,2.9C-129,434.9-129.5,436.8-129.9,438.9z M-127.1,499.5c29.6-17.1,59.2-34.3,88.8-51.4c-2.2-4.9-5-3.8-7.7-2.5
	c-25.2,11.3-50.5,22.5-75.7,33.9c-5.3,2.4-9.8-0.1-12.8-7.9c-2-5.3,3-5.3,5.8-6.4c23.3-9.3,46.6-18.5,70-27.7c1.6-0.6,3-1.6,4.5-2.4
	c-0.3-0.6-0.5-1.2-0.8-1.9c-1.5,0.5-3.1,0.9-4.6,1.5c-11,4.8-21.9,9.8-33,14.3c-4.9,2-10.4,4.5-15.3,3.9c-6.7-0.7-12.4,1.2-18.2,3.2
	c-7.1,2.5-14.1,5.4-22,8.5C-140.8,476.7-134.2,487.7-127.1,499.5z M-48.1,441.2c-0.3-0.8-0.6-1.5-0.9-2.3
	c-26.5,10.6-53.1,21.2-79.8,31.8c1.4,3.7,2.5,5.4,6.4,3.6c20.6-9.4,41.4-18.6,62.2-27.8C-56.2,444.8-52.2,443-48.1,441.2z
	 M-153.8,468.9c-1.9,1.1-2.4,3.6-1.5,5.5c0.3,0.6,0.6,1.2,0.9,1.7c4.7,8,9.1,16.2,14.2,23.9c0.3,0.5,1.9,2.6,2.6,2.8
	c2.8,0.8,5.6-1.8,4.5-4.5c-0.1-0.1-1.2-2.1-1.2-2.2c-4.6-7.9-9.7-15.6-14.2-23.5C-150.1,469.5-151.8,467.7-153.8,468.9z
	 M-147.2,458.9c-0.6-2.7-1-4.9-1.6-7c-0.8-3.2-3.8-5.3-4.8-1.8c-0.9,3,0.2,8.5,0.4,12.6C-149.8,460.9-149.3,460-147.2,458.9z
	 M-131.5,449c0,1.5,0.3,2.6,0.7,3.1c3.7-1.3,7.5-2.6,11.2-3.9c0.1-0.6,0.2-1.3,0.3-1.9c-2.1-1-6-5.8-7.2-5.1
	C-129.1,442.7-130.8,443.3-131.5,449z M-100.3,490.3c-0.3,0.7-0.6,1.4-0.9,2.1c2,1.1,4.6,3.6,5.7,3c3.6-1.8,2.5-5.1,1-8.4
	C-96.7,488.3-98.5,489.3-100.3,490.3z M-76.8,476.7c-0.1,0.6,0.9,1.1,0.8,1.7c1.1,1.5,3.4,6.2,3.8,5.7c1.6-1.8,2.2-8.3,3.3-10.5
	c-0.6-0.2-1.2-0.5-1.8-0.7C-72.6,474.1-74.7,475.4-76.8,476.7z"/>
<path class="st10" d="M-125.2,411c-8.7,0.7-16.5,1.3-24.2,1.9c-0.2,0.6-0.4,1.1-0.6,1.7c3,2.2,6,4.3,8.8,6.6c0.9,0.7,1.4,2,2,3.1
	c-1.3,0.5-3.2,1.8-3.8,1.3c-4.5-3.4-9.3-6.7-12.7-11c-2.5-3.1,1.2-7.2,6.3-7.5c4.7-0.3,9.5-0.4,14.2-0.9c3.2-0.4,6.4-1.5,11.4-2.7
	c-3.5-5.4-6.1-9.7-9.1-13.7c-2.7-3.7-5.9-7.1-8.9-10.6c0.7-0.7,1.4-1.4,2.1-2c3.5,2.8,7.4,5.3,10.5,8.6c12.9,14,12.3,22,5.2,39.8
	c-0.4,1.1-2.5,1.6-3.8,2.4c-0.4-1.6-1.5-3.4-1.2-4.8C-128.2,419.3-126.7,415.6-125.2,411z"/>
<path class="st10" d="M-79.2,495.7c1,2.9,2.1,5.8,3.3,9.3c7.6-1.1,15.5-2.3,23.4-3.4c0-0.8,0-1.6,0-2.4c-4.1-0.9-8.4-1.5-12.4-2.8
	c-1.7-0.5-2.9-2.5-4.3-3.9c1.8-0.1,3.6-0.5,5.3-0.2c4.1,0.6,8.4,1.1,12.2,2.6c2.5,1,5.8,3.7,5.8,5.7c0,2.1-3.2,5.4-5.5,6
	c-7,1.7-14.3,2.3-21.4,3.3c-0.9,0.1-1.9,0.2-3.9,0.3c4.8,11.7,18.3,8.6,25.6,15.8c-19,5.8-33.8-9.2-30.3-29.6
	C-80.6,496.2-79.9,495.9-79.2,495.7z"/>
<path class="st10" d="M-167.1,474.5c0.4,2.2,1.4,4.4,1,6.4c-3.2,16.9,0.8,24.5,15.9,33.6c6.8,4.1,13.6,7.4,22,7
	c5.6-0.3,10.2,4.6,10.9,10.2c-1.3-0.2-3,0-3.5-0.7c-3.1-3.9-7.2-4.6-12-5.4c-11.4-2-21.8-7-30.5-14.9c-9.3-8.4-11.5-24.5-5.5-36
	C-168.3,474.7-167.7,474.6-167.1,474.5z"/>
<path id="path7361_2_" class="st9" d="M-117.5,486.3c0,2-1.6,3.7-3.7,3.7c-2,0-3.7-1.6-3.7-3.7s1.6-3.7,3.7-3.7
	C-119.1,482.6-117.5,484.2-117.5,486.3z"/>
<path id="path7361_3_" class="st9" d="M-106.5,481.3c0,2-1.6,3.7-3.7,3.7c-2,0-3.7-1.6-3.7-3.7s1.6-3.7,3.7-3.7
	C-108.2,477.7-106.5,479.3-106.5,481.3z"/>
<path id="path7361_4_" class="st9" d="M-95.9,476.4c0,2-1.6,3.7-3.7,3.7c-2,0-3.7-1.6-3.7-3.7s1.6-3.7,3.7-3.7
	C-97.6,472.7-95.9,474.4-95.9,476.4z"/>
</svg>
