<?xml version="1.0" encoding="utf-8"?>
<!-- Generator: Adobe Illustrator 19.0.0, SVG Export Plug-In . SVG Version: 6.00 Build 0)  -->
<svg version="1.1"
	 id="svg2985" xmlns:dc="http://purl.org/dc/elements/1.1/" xmlns:cc="http://creativecommons.org/ns#" xmlns:rdf="http://www.w3.org/1999/02/22-rdf-syntax-ns#" xmlns:svg="http://www.w3.org/2000/svg"
	 xmlns="http://www.w3.org/2000/svg" xmlns:xlink="http://www.w3.org/1999/xlink" x="0px" y="0px" viewBox="-237 -92 210 255"
	 style="enable-background:new -237 -92 210 255;" xml:space="preserve">
<style type="text/css">
	.st0{enable-background:new    ;}
	.st1{fill:#005F00;}
	.st2{fill:#CDDACD;}
	.st3{fill:#FFFFFF;}
	.st4{fill:url(#rect3008_2_);}
	.st5{filter:url(#filter3970-5);}
	.st6{fill:url(#SVGID_1_);}
	.st7{fill:#994913;}
	.st8{fill:#038249;}
	.st9{fill:#2A3B92;stroke:#2A3B92;stroke-width:1.5;stroke-miterlimit:10;}
	.st10{fill:none;}
	.st11{fill:none;stroke:#BC197A;stroke-width:1.5;stroke-linecap:round;stroke-miterlimit:10;}
	.st12{fill:#BC197A;}
</style>
<filter  width="1.2171124" height="1.2150326" y="-0.10751629" x="-0.10855621" id="filter3970-5" color-interpolation-filters="sRGB">
	<feGaussianBlur  stdDeviation="0.12800763" id="feGaussianBlur3972-8"></feGaussianBlur>
</filter>
<g id="g4146" transform="translate(39.768324,209.71794)">
</g>
<g id="g4630_1_" transform="matrix(1.0005937,0,0,1,-1.3758072,203.40625)" class="st0">
	<g id="g3062_1_">
		<path id="rect4031_1_" d="M-176.2-295.4l46.1,0.2l68.4-0.2c22.9-0.1,36.1,15.9,36.1,40.4v154.6c0,12.3-14,27.7-21.4,35.7
			s-22.1,24.3-33.6,24.3h-113c-22.9,0-41.3-5.6-41.3-30.2l-0.3-162.3c0-6.4,17.3-24.3,24.8-32.4C-203-273.3-187.6-295.5-176.2-295.4
			L-176.2-295.4z"/>
		<path id="rect3767_1_" class="st1" d="M-167.4-282.7h104.5c13.8,0,24.8,11.1,24.9,24.9l0.9,152.4c0,2-12.6,32-25.8,32h-104.5
			c-13.8,0-24.9-11.1-24.9-24.9v-159.5C-192.3-271.6-181.2-282.7-167.4-282.7L-167.4-282.7z"/>
		<path id="rect3861_1_" class="st2" d="M-182.3-267.7h99.6c13.7,0,24.9,11.2,24.9,24.9v159.5c0,13.8-11.1,24.9-24.9,24.9h-99.6
			c-13.7,0-24.9-11.2-24.9-24.9v-159.5C-207.2-256.6-196.1-267.7-182.3-267.7z"/>
		<path id="rect3765_1_" class="st3" d="M-192.3-252.8h104.5c13.7,0,24.9,11.2,24.9,24.9v149.5c0,13.8-11.1,24.9-24.9,24.9h-104.5
			c-13.7,0-24.9-11.2-24.9-24.9v-149.5C-217.2-241.6-206-252.8-192.3-252.8z"/>
		
			<linearGradient id="rect3008_2_" gradientUnits="userSpaceOnUse" x1="-369.8559" y1="182.6285" x2="-369.8559" y2="144.1098" gradientTransform="matrix(4.9807 0 0 -4.9841 1694.6462 667.4196)">
			<stop  offset="0" style="stop-color:#D0E4CC"/>
			<stop  offset="1" style="stop-color:#FBFFEC"/>
		</linearGradient>
		<path id="rect3008_1_" class="st4" d="M-202.3-242.8h109.5c11,0,19.9,8.9,19.9,19.9v149.5c0,11-8.9,19.9-19.9,19.9h-109.5
			c-11,0-19.9-8.9-19.9-19.9v-149.5C-222.2-233.9-213.3-242.8-202.3-242.8z"/>
		<path id="path3932_1_" class="st3" d="M-42.7-270.2c0,1.5-1.3,2.8-2.8,2.8s-2.8-1.3-2.8-2.8s1.3-2.8,2.8-2.8
			S-42.7-271.8-42.7-270.2z"/>
		<g id="path3936_1_" class="st5">
			
				<linearGradient id="SVGID_1_" gradientUnits="userSpaceOnUse" x1="-360.7442" y1="203.5567" x2="-363.8599" y2="200.0874" gradientTransform="matrix(7.1013 0 0 -6.6887 2518.0134 1087.4099)">
				<stop  offset="0" style="stop-color:#FFFFFF"/>
				<stop  offset="1" style="stop-color:#FFFFFF;stop-opacity:0"/>
			</linearGradient>
			<polygon class="st6" points="-47.8,-271.6 -76.6,-247 -68.4,-241 -43.2,-269.3 			"/>
		</g>
		<path id="path3882_1_" class="st3" d="M-60-248.3c0,4.8-3.9,8.7-8.7,8.7c-4.8,0-8.7-3.9-8.7-8.7c0,0,0,0,0,0
			c0-4.8,3.9-8.7,8.7-8.7C-63.9-257-60-253.1-60-248.3C-60-248.3-60-248.3-60-248.3z"/>
	</g>
</g>
<g>
	<path class="st7" d="M-141.6,20.4c7.9-6.2,12.2-11.2,18-20.8c2.3-3.7,3.5-5.9,3.5-6.6c0-0.2-0.2-0.4-0.8-0.5l0.1-0.5
		c1.8-1.3,2.7-1.8,3.3-1.8s1.2,0.3,2.2,0.9c0.2-0.5,0.4-1,0.5-1.2c0.2-0.7,0.4-1.1,0.5-1.1l1.1-0.3c2.7-1.6,2.7-1.6,2.7-1.9
		c0-0.2-0.6-0.5-1.6-0.9c-1.2-0.5-2-1.5-2.9-3.3v-0.4c3.2-1.5,3.7-1.7,7.1-3.6c0.3-2.1,0.3-2.4,0.4-4.6c-3.1-0.8-4.1-1.2-5.3-3v-0.5
		c0.9-0.5,1.5-0.8,1.7-0.9c0.9-0.8,1.7-1.6,2.7-2.3c1.1-0.9,2.7-1.5,4.5-1.5c2.7,0,5.1,1.6,5.1,3.4c0,0.9-0.2,1-2.5,2.7
		c-0.9,0.6-1.1,1.1-1.2,2c-0.2,1.5-0.2,1.9-0.4,3.1h0.4c1.7,0,2.5,0.3,3.5,1.6c0.5,0.6,1,1.5,1,2c0,0.8-0.8,1.4-3.8,3.1
		c-1.2,0.8-1.6,1.3-1.9,2.3c0.4-0.2,0.6-0.3,0.7-0.3l1.7-0.2l2.2-0.4c1.4,0,4.4,3,4.4,4.4c0,0.7-1.2,1.9-2,1.9l-6.6-0.4
		c-0.2,0-1,0.2-2.2,0.7c-5.9,2.1-6.7,2.3-8.3,2.3c-1.2,0-1.3,0.1-1.8,1c3,0.3,4.2,0.6,6.5,1.7c0.9,0.5,4,2.6,9,6.1
		c2.7,1.8,5.1,3.1,7.1,3.8C-90,7.8-87,8.9-84.1,10c2.7,1,5.1,2.7,5.1,3.4c0,0.8-0.5,1.1-2.5,1.3c-3,0.4-6.8,0.8-7.9,0.8
		c-2.3,0-3.7-0.5-5.9-2c-4.1-2.9-4.9-3.7-9.8-9c-4-4.4-7.3-6.1-11.6-6.1h-0.9l-4.1,5.9c1.7-0.2,2.7-0.5,4.9-1.6
		c1.2-0.5,2.2-0.9,2.9-0.9c1.9,0,4.7,2.5,4.7,4.1c0,0.9,0,0.9-5.1,2.7l-3.5,1.2c-1.4,0.7-2.8,1.3-4.2,1.9c-0.2,0.2-1.2,0.5-2.3,1
		l-0.3-0.3c0.8-0.6,1.6-1.2,1.8-1.5c1.4-1.3,2.4-2.2,2.5-2.3c0.5-0.4,0.7-0.7,0.7-0.9s-0.2-0.6-0.6-0.9c-1.5-1.2-1.5-1.2-2.2-1.9
		c-7.5,9.8-14.3,15.4-18.9,15.8h-0.3L-141.6,20.4z M-134.1-13.4c1.7-1.5,2.6-2.1,4.8-3.5c3.1-2,3.9-2.7,3.9-3.6c0-0.7,0-0.7-3-1.9
		c-1-0.4-2-1.3-3.4-3.2l0.1-0.5c3.2-1,3.5-1.2,6.8-4.4c0.9-0.8,1.6-1.3,2.2-1.3c0.5,0,2.9,1.2,3.8,2c1.2,1,1.7,1.8,1.7,2.8
		c0,0.8-0.2,1.2-1.9,3.4c-1.2,1.6-1.7,2.7-2.4,5.1c0.5,0.5,1.1,1.1,1.2,1.3c0.3,0.4,0.6,0.6,0.8,0.6c0.5,0,2-2.8,3.5-6.5l0.4,0.1
		c-1.1,6.6-2,8.9-6.6,15.2c-4.3,6-7.5,9.1-9.1,9.1c-1.1,0-1.9-1.6-1.9-3.8c0-2,0.1-2,1.6-3.1c2.3-1.8,3.7-3.6,4.1-5
		c-3.4-0.2-4.7-0.6-6.8-2.3L-134.1-13.4z M-127,14.3c0.8,0.5,1.2,0.7,1.8,0.7c0.4,0,1-0.2,1.9-0.7c4.5-2.1,13.1-4.8,15.4-4.8
		c2.1,0,5.5,2.7,5.5,4.5c0,0.4-0.2,0.5-2,2.3c-0.2,0.2-0.5,0.9-0.9,2c-1.6,4.3-3,7.3-5.3,10.8c-1.1,1.8-1.8,2.4-2.7,2.4
		c-1,0-2.7-2.5-2.7-4c0-0.5,0.4-1.2,0.9-2c2.4-3.1,3.1-4.4,4.4-8.1c0.5-1.5,0.7-2,0.7-2.3c0-0.3-0.3-0.5-0.9-0.5
		c-2.5,0-5.1,1.2-11,5.1c-0.9,0.6-1.7,0.9-2.4,0.9c-1.6,0-3.4-2.2-3.4-4.1c0-0.6,0.2-1.3,0.4-2.3L-127,14.3z"/>
</g>
<path class="st8" d="M-190.7,4.6c-2.5,0-4.2-0.1-5.3-0.3c-1.5-0.4-2.3-1.4-2.3-3.1V-34c-3.1,1.6-8,2.6-14.5,3v3.2h5.9
	c1.8,0,2.7,0.7,2.7,2.2V1.1c0,1.3-0.3,2.2-0.9,2.5c-0.9,0.6-3.2,0.9-7,0.9v3.3h21.3V4.6z"/>
<g>
	<g>
		<path class="st9" d="M-81.4,108.2c0.4,0.4,0.8,0.9,1.2,1.3c2.1,2.5,1.3,5.9-2.1,8.7c-9.8,8.1-19.7,16.2-29.6,24.2
			c-1.2,1-2.5,2-3.9,2.6c-3.1,1.5-5.6,1.2-7.4-0.7c-16.4-17.8-32.9-35.4-49.2-53.3c-13.1-14.4-25.9-29-38.8-43.4
			c-1.7-1.9-3.6-3.6-5.2-5.5c-2.3-2.6-1.5-5.9,2.1-9c9.9-8.3,19.9-16.5,29.9-24.8c4.7-3.9,8.1-4.1,11.2-0.8
			c12,13.2,24,26.4,36.1,39.5C-133.8,50.9-96.7,91.6-81.4,108.2z M-126.9,127.2c0.7-1.8,1.3-3.8,2.3-5.7c2.2-3.9,5.8-6.9,9.6-9.6
			c4.8-3.5,7.7-7.8,8.9-12.6c0.7-2.8,1.2-5.5,1.8-8.2c0.5-2.5,0.6-3.9,0-4.6c-11.5-12.6-26.2-28.6-37.7-41.2
			c-6.9-7.6-13.9-15.2-20.8-22.8c-0.8-0.9-1.5-1.1-3-0.2c-4.9,2.8-9.8,5.8-14.2,9.5c-6.1,5.3-10.7,11.5-15.4,17.7
			c-1,1.3-1.1,2.1-0.2,3c3,3.2,5.9,6.4,8.8,9.6c16.9,18.5,33.8,37.1,50.8,55.6C-133.1,121-130,124.1-126.9,127.2z M-96.8,95.5
			c-0.3,1.9-0.6,3.6-0.9,5.4c-0.7,4.2-2.9,8.1-6.8,11.5c-2.4,2.1-4.9,4.1-7.4,6.2c-2.6,2.2-5,4.6-5.9,7.5c-1.6,5.3-4,7.5-0.2,11.8
			c0.4,0.4,0.7,0.8,1.1,1.2c1.8,1.9,4.3,1.7,7.1-0.5c8.6-7,17.1-13.9,25.7-20.9c3.2-2.6,3.6-4.8,1.6-7c-2.9-3.1-5.6-6.2-8.5-9.3
			C-93.4,98.7-94.1,98.2-96.8,95.5z M-201,46.2c0.5-0.7,0.9-1.2,1.3-1.7c4.3-5.1,8.4-10.4,13-15.3c4.4-4.6,10-7.9,15.5-11.2
			c2.7-1.6,2.8-1.6,1.3-3.3c-1.8-2-3.6-4-5.4-5.9c-2-2.2-4.3-2.1-7.4,0.5c-8.7,7.1-17.3,14.2-25.9,21.3c-2.6,2.2-3.1,4.3-1.4,6.2
			c1.1,1.2,2.1,2.4,3.2,3.5C-204.9,42.3-203.1,44.2-201,46.2z M-115.2,142.8c-1.4-1.1-3-2.1-4.3-3.3c-1.8-1.8-3.4-3.7-5.1-5.5
			c-16.1-17.6-32.2-35.3-48.2-52.9c-11.3-12.4-22.6-24.8-33.9-37.1c-2.3-2.5-4.6-5.1-6.9-7.7c-2.2,1.4-2.6,2.4-1.4,3.9
			c7.7,8.6,15.3,17.3,23.1,25.9c20.1,22.2,40.2,44.3,60.3,66.4c3.4,3.7,6.8,7.3,10.3,10.9C-119.6,144.8-117,144.6-115.2,142.8z
			 M-197.9,49.8c0.8-1,1.5-1.8,2.1-2.7c7.4-10.6,16.7-19.6,28.8-25.9c1-0.5,1.6-1.1,1.1-1.9c-0.5-0.7-0.8-1.7-2.4-0.8
			c-5.8,3.2-11.3,6.7-16.3,11c-5.5,4.8-9.5,10.4-13.6,16C-200.2,48.1-200.2,48.1-197.9,49.8z M-121.7,132.8c0.1-0.9,0.2-1.5,0.3-2.1
			c0.5-3.3,1-6.7,3.8-9.8c2.5-2.7,5.3-5.3,8.3-7.7c5-3.9,8.5-8.2,9.2-13.6c0.3-2.4,0.7-4.9,0.9-7.3c0-0.5-2.4-2.7-2.6-3.1
			c-0.7,2.5-0.9,5.5-1.4,7.9c-1,5.4-3.5,10.3-9,14.5c-1.9,1.5-3.7,3.2-5.6,4.8c-4.2,3.4-6.4,7.3-7,11.7
			C-125,129.6-123.4,131.9-121.7,132.8z"/>
	</g>
	<g>
		<line class="st10" x1="-197.2" y1="46.6" x2="-122.8" y2="126.5"/>
		<g>
			<line class="st11" x1="-197.2" y1="46.6" x2="-122.8" y2="126.5"/>
			<g>
				<circle class="st12" cx="-197.2" cy="46.6" r="1.7"/>
			</g>
			<g>
				<circle class="st12" cx="-122.8" cy="126.5" r="1.7"/>
			</g>
		</g>
	</g>
	<g>
		<line class="st10" x1="-193.3" y1="41.5" x2="-119.9" y2="120.6"/>
		<g>
			<line class="st11" x1="-193.3" y1="41.5" x2="-119.9" y2="120.6"/>
			<g>
				<circle class="st12" cx="-193.3" cy="41.5" r="1.7"/>
			</g>
			<g>
				<circle class="st12" cx="-119.9" cy="120.6" r="1.7"/>
			</g>
		</g>
	</g>
	<g>
		<line class="st10" x1="-189.3" y1="36.7" x2="-115.5" y2="116.2"/>
		<g>
			<line class="st11" x1="-189.3" y1="36.7" x2="-115.5" y2="116.2"/>
			<g>
				<circle class="st12" cx="-189.3" cy="36.7" r="1.7"/>
			</g>
			<g>
				<circle class="st12" cx="-115.5" cy="116.2" r="1.7"/>
			</g>
		</g>
	</g>
	<g>
		<line class="st10" x1="-180.4" y1="27.9" x2="-106.3" y2="107.9"/>
		<g>
			<line class="st11" x1="-180.4" y1="27.9" x2="-106.3" y2="107.9"/>
			<g>
				<circle class="st12" cx="-180.4" cy="27.9" r="1.7"/>
			</g>
			<g>
				<circle class="st12" cx="-106.3" cy="107.9" r="1.7"/>
			</g>
		</g>
	</g>
	<g>
		<line class="st10" x1="-175" y1="24.2" x2="-102.9" y2="101.8"/>
		<g>
			<line class="st11" x1="-175" y1="24.2" x2="-102.9" y2="101.8"/>
			<g>
				<circle class="st12" cx="-175" cy="24.2" r="1.7"/>
			</g>
			<g>
				<circle class="st12" cx="-102.9" cy="101.8" r="1.7"/>
			</g>
		</g>
	</g>
	<g>
		<line class="st10" x1="-169.5" y1="21" x2="-101.8" y2="95.1"/>
		<g>
			<line class="st11" x1="-169.5" y1="21" x2="-101.8" y2="95.1"/>
			<g>
				<circle class="st12" cx="-169.5" cy="21" r="1.7"/>
			</g>
			<g>
				<circle class="st12" cx="-101.8" cy="95.1" r="1.7"/>
			</g>
		</g>
	</g>
	<g>
		<line class="st10" x1="-185" y1="32.2" x2="-110.6" y2="112"/>
		<g>
			<line class="st11" x1="-185" y1="32.2" x2="-110.6" y2="112"/>
			<g>
				<circle class="st12" cx="-185" cy="32.2" r="1.7"/>
			</g>
			<g>
				<circle class="st12" cx="-110.6" cy="112" r="1.7"/>
			</g>
		</g>
	</g>
</g>
</svg>
