<?xml version="1.0" encoding="utf-8"?>
<!-- Generator: Adobe Illustrator 19.0.0, SVG Export Plug-In . SVG Version: 6.00 Build 0)  -->
<svg version="1.1"
	 id="svg2985" xmlns:dc="http://purl.org/dc/elements/1.1/" xmlns:cc="http://creativecommons.org/ns#" xmlns:rdf="http://www.w3.org/1999/02/22-rdf-syntax-ns#" xmlns:svg="http://www.w3.org/2000/svg"
	 xmlns="http://www.w3.org/2000/svg" xmlns:xlink="http://www.w3.org/1999/xlink" x="0px" y="0px" viewBox="-237 -92 210 255"
	 style="enable-background:new -237 -92 210 255;" xml:space="preserve">
<style type="text/css">
	.st0{enable-background:new    ;}
	.st1{fill:#005F00;}
	.st2{fill:#CDDACD;}
	.st3{fill:#FFFFFF;}
	.st4{fill:url(#rect3008_2_);}
	.st5{filter:url(#filter3970-5);}
	.st6{fill:url(#SVGID_1_);}
	.st7{fill:#994913;}
	.st8{fill:#038249;}
	.st9{fill:#D37F11;stroke:#D37F11;stroke-linecap:round;stroke-miterlimit:10;}
	.st10{fill:#2A3B92;}
	.st11{fill:#BC197A;}
</style>
<filter  width="1.2171124" height="1.2150326" y="-0.10751629" x="-0.10855621" id="filter3970-5" color-interpolation-filters="sRGB">
	<feGaussianBlur  stdDeviation="0.12800763" id="feGaussianBlur3972-8"></feGaussianBlur>
</filter>
<g id="g4146" transform="translate(39.768324,209.71794)">
</g>
<g id="g4630_1_" transform="matrix(1.0005937,0,0,1,-1.3758072,203.40625)" class="st0">
	<g id="g3062_1_">
		<path id="rect4031_1_" d="M-176.2-295.4l46.1,0.2l68.4-0.2c22.9-0.1,36.1,15.9,36.1,40.4v154.6c0,12.3-14,27.7-21.4,35.7
			s-22.1,24.3-33.6,24.3h-113c-22.9,0-41.3-5.6-41.3-30.2l-0.3-162.3c0-6.4,17.3-24.3,24.8-32.4C-203-273.3-187.6-295.5-176.2-295.4
			L-176.2-295.4z"/>
		<path id="rect3767_1_" class="st1" d="M-167.4-282.7h104.5c13.8,0,24.8,11.1,24.9,24.9l0.9,152.4c0,2-12.6,32-25.8,32h-104.5
			c-13.8,0-24.9-11.1-24.9-24.9v-159.5C-192.3-271.6-181.2-282.7-167.4-282.7L-167.4-282.7z"/>
		<path id="rect3861_1_" class="st2" d="M-182.3-267.7h99.6c13.7,0,24.9,11.2,24.9,24.9v159.5c0,13.8-11.1,24.9-24.9,24.9h-99.6
			c-13.7,0-24.9-11.2-24.9-24.9v-159.5C-207.2-256.6-196.1-267.7-182.3-267.7z"/>
		<path id="rect3765_1_" class="st3" d="M-192.3-252.8h104.5c13.7,0,24.9,11.2,24.9,24.9v149.5c0,13.8-11.1,24.9-24.9,24.9h-104.5
			c-13.7,0-24.9-11.2-24.9-24.9v-149.5C-217.2-241.6-206-252.8-192.3-252.8z"/>
		
			<linearGradient id="rect3008_2_" gradientUnits="userSpaceOnUse" x1="-369.8559" y1="182.6285" x2="-369.8559" y2="144.1098" gradientTransform="matrix(4.9807 0 0 -4.9841 1694.6462 667.4196)">
			<stop  offset="0" style="stop-color:#D0E4CC"/>
			<stop  offset="1" style="stop-color:#FBFFEC"/>
		</linearGradient>
		<path id="rect3008_1_" class="st4" d="M-202.3-242.8h109.5c11,0,19.9,8.9,19.9,19.9v149.5c0,11-8.9,19.9-19.9,19.9h-109.5
			c-11,0-19.9-8.9-19.9-19.9v-149.5C-222.2-233.9-213.3-242.8-202.3-242.8z"/>
		<path id="path3932_1_" class="st3" d="M-42.7-270.2c0,1.5-1.3,2.8-2.8,2.8s-2.8-1.3-2.8-2.8s1.3-2.8,2.8-2.8
			S-42.7-271.8-42.7-270.2z"/>
		<g id="path3936_1_" class="st5">
			
				<linearGradient id="SVGID_1_" gradientUnits="userSpaceOnUse" x1="-360.7442" y1="203.5567" x2="-363.8599" y2="200.0874" gradientTransform="matrix(7.1013 0 0 -6.6887 2518.0134 1087.4099)">
				<stop  offset="0" style="stop-color:#FFFFFF"/>
				<stop  offset="1" style="stop-color:#FFFFFF;stop-opacity:0"/>
			</linearGradient>
			<polygon class="st6" points="-47.8,-271.6 -76.6,-247 -68.4,-241 -43.2,-269.3 			"/>
		</g>
		<path id="path3882_1_" class="st3" d="M-60-248.3c0,4.8-3.9,8.7-8.7,8.7c-4.8,0-8.7-3.9-8.7-8.7c0,0,0,0,0,0
			c0-4.8,3.9-8.7,8.7-8.7C-63.9-257-60-253.1-60-248.3C-60-248.3-60-248.3-60-248.3z"/>
	</g>
</g>
<g>
	<path class="st7" d="M-111.4-23.4l-2.4,0.9c-2.6,0.9-4.2,1.5-4.9,1.8l-1.6,0.6c-0.5,0.2-0.9,0.4-1.3,0.4c-1.1,0-3.6-3-3.9-4.6
		l0.1-0.2c0.7,0.1,1.2,0.1,1.6,0.1c2,0,4.2-0.5,12.3-3c0.1-0.7,0.1-0.9,0.1-1.5c0-4.1-0.3-4.9-1.9-4.9c-0.5,0-1.3,0.2-2.2,0.3
		l-0.2-0.4c0.2-1.5,1.8-2.3,4.2-2.3c1.8,0,4,0.8,4.7,1.8c0.7,1,0.9,2.1,0.9,5.9c3.5-0.5,3.9-0.6,4.8-0.6c1.9,0,3.2,0.5,6.6,2.8
		c2.1,1.3,2.6,1.9,3,3.7c0.5,0.2,0.9,0.2,1.1,0.2c0.4,0,1.1-0.1,1.9-0.4c1.7-0.5,3.4-0.9,4-0.9c2.3,0,5.1,2.3,5.1,4.3
		c0,0.9-0.8,1.5-1.9,1.5l-5.8-0.2c-2.3,0-6.9,0.5-10.6,1.2c-3.3,0.5-5.1,1.2-8.7,3.1v1.2c5.9-1.6,8.2-2.1,9.3-2.1
		c1.6,0,4.1,2.3,4.1,3.9c0,0.7-0.5,0.9-2,0.9h-0.5h-1.8c-2.3,0-6.5,1.2-9.1,2.7l-0.2,2.7c6.3-1,6.7-1.2,6.7-2.4
		c0-0.5,0.2-0.7,0.5-0.7c0.2,0,0.5,0.1,0.9,0.2c0.1,0.1,1.2,0.3,2.7,0.7c4.3,1,6,1.9,6,3c0,0.7-0.6,1.2-1.3,1.2
		c-0.2,0-0.5,0-0.8-0.1c-0.5-0.1-0.8-0.1-1.2-0.1c-1.2,0-1.2,0-6.9,0.6c-3.6,0.5-3.6,0.5-6.8,0.8l-0.2,3.9c7.9-1.4,9-1.6,11.8-2
		c1.6-0.3,3.2-0.5,3.4-0.7c0.9-0.2,1.6-0.3,1.9-0.3c2.1,0,4.8,2.1,4.8,3.7c0,1-0.9,1.6-2.4,1.6c-0.2,0-0.9,0-1.5-0.1
		c-1.9-0.2-3.1-0.2-3.9-0.2c-3.6,0-13.7,1.8-17.6,3.2c-0.2,0-2.7,1.2-7.5,3.4l-0.2-0.4c1.2-1.2,1.4-1.5,3-3
		c-3.9,0.9-6.2,1.7-9.2,3.2c-1.2,0.5-2.2,0.9-2.9,0.9c-1.5,0-4.6-3-4.8-4.6c0-0.1,0-0.2,0.1-0.3l0.3-0.2c0.5,0.1,1.1,0.2,1.2,0.2
		c1.1,0.2,1.9,0.3,2.3,0.3c1,0,9.4-1.9,16.2-3.7v-3.6c-4.1,0.7-4.2,0.7-10.6,2.7c-0.6,0.2-1.2,0.4-1.4,0.4c-1.2,0-3.4-2.3-3.4-3.5
		c0-0.2,0.1-0.5,0.2-0.8l0.4-0.2c1,0.2,1.9,0.2,2.3,0.2c2,0,5.2-0.9,8.3-2.2c2-0.8,2.7-1.3,4.1-2.8l0.2-1.9
		c-3.7,1.1-5.9,1.8-10.1,3.4c-1.3,0.5-2.3,0.8-3.1,0.8c-1.8,0-3.7-1.4-4.6-3.4l0.2-0.4c2.5-0.1,3.9-0.2,5.1-0.5
		c7.3-2.2,11.1-3.7,12.3-4.8l0.2-1.9c-10.6,1.8-20.4,4.3-25,6.4c-1.7,0.8-3,1.2-3.8,1.2c-1.1,0-3-1-4.1-2.2c-1.1-1.1-1.5-2-1.7-3.7
		l0.5-0.3l0.9,0.3c1,0.2,1.8,0.4,2.1,0.4c0.5,0,0.5,0,8.3-1.5c4.6-0.9,9.2-2,13.9-2.9c0.4-0.1,5-1,9.4-1.8V-23.4z M-123.7,16.3
		c1.4,0.2,1.5,0.3,3.4,2.7l0.9,1.2c1.4-0.5,1.6-0.5,3.4-0.9c5.6-1.4,6.4-1.7,9.9-3.2c0.6-0.3,1.2-0.4,1.5-0.4c1.5,0,4.1,2,4.1,3.2
		c0,0.7-0.5,0.9-2.4,1.1c-5.2,0.9-6.6,1.4-8.3,2.7c-1.2,0.9-1.4,0.9-2.3,1.1l-0.1-0.2c0.5-0.7,0.6-1.2,0.6-1.7
		c0-0.3-0.2-0.5-0.7-0.5l-2.8,0.2l-1.9-0.2c-0.2,0-0.3,0-0.6,0.1c1.3,2.4,1.6,2.8,2.8,5.5c4.5-1.6,10.1-2.9,11.9-2.9
		c0.7,0,0.9,0.1,2,0.9c0.6,0.5,0.6,0.5,1.4,0.8c2-2.7,4.8-9.2,4.8-11.2c0-1.6-1.4-2.5-3.9-2.5c-4.2,0-9.4,1.3-16.2,4.1
		c-0.5,0.2-0.9,0.3-1.3,0.3c-0.9,0-1.4-0.5-1.9-1.8l0.2-0.4c6.7-3.9,13.3-5.9,19.5-5.9c5.7,0,11.2,3.2,11.2,6.6
		c0,0.9-0.1,0.9-1.5,2.7c-0.2,0.2-0.4,0.7-0.8,1.6c-1.7,4.4-5.1,10.6-6.6,11.8c-0.5,0.4-0.9,0.6-1.2,0.6c-0.4,0-0.5-0.1-1.9-1.7
		c-0.7-0.8-1.9-1.2-3.3-1.2c-4.2,0-9,0.8-10.9,1.7c-0.6,0.3-0.7,0.4-2.4,2c-0.2,0.2-0.5,0.3-0.6,0.3c-0.5,0-1.3-0.9-2.7-2.7
		c-2.6-3.9-4.1-7.9-4.1-11.5c0-0.9,0.1-1.3,0.5-2.2H-123.7z M-106.3-19.8c2.8-0.5,4.1-1,5.2-2c1-0.9,1.8-2.2,1.8-3.1
		c0-0.6-0.5-1.1-1.2-1.1c-0.5,0-2.3,0.4-5.5,1.1L-106.3-19.8z"/>
</g>
<path class="st8" d="M-186.7-3.4c0-5-3.1-8.3-9.2-10v-0.3c5.4-1.9,8.1-5.1,8.1-9.7c0-3.8-1.9-6.7-5.7-8.6c-2.4-1.1-5.2-1.6-8.5-1.6
	c-4,0-7.2,1-9.8,3c-2.1,1.7-3.2,3.7-3.2,5.9c0,2.9,1.4,4.3,4.1,4.3c2.6,0,3.8-1.2,3.8-3.5c0-1.7-0.9-2.8-2.6-3.4c1.8-2,4.3-3,7.6-3
	c5.5,0,8.2,2.3,8.2,6.9c0,5.6-3,8.5-9,8.5h-4v3.4h4c6.7,0,10,2.6,10,7.9c0,5.4-3.3,8.1-10,8.1c-4,0-6.6-1-7.8-3.1
	c1.8-0.4,2.7-1.5,2.7-3.3c0-2.3-1.2-3.5-3.6-3.5c-3,0-4.5,1.5-4.5,4.5c0,2.7,1.4,5,4.3,6.8c2.6,1.5,5.6,2.3,9.2,2.3
	c4.2,0,7.7-0.8,10.4-2.4C-188.5,3.8-186.7,0.7-186.7-3.4z"/>
<path class="st9" d="M-80.4,128.4c-0.1-0.2,0-0.4,0-0.6c0-5.8,0-11.6,0-17.4c0-13.6,0.2-27.2,0-40.8c-0.1-5.9,0.3-11.8-2.2-17.9
	c-2.3-5.8-5.4-9.3-10.1-9.6c-4.8-0.3-8.9,1.9-12.7,3.3c-0.2,2.5-0.4,4.5-0.5,6.5c-0.1,1.7-0.4,2.9-1.7,4c-3.3,2.7-6.9,4.4-11.3,3.7
	c-2.7-0.4-5.4-1.7-8.1-2.7c-1.8-0.7-3.5-2.1-5.2-2.4c-6.6-1.3-13.2-2.5-19.6-2c-1.8,0.1-3.8,0.7-5,1.9c-1.1,1.1-2.2,2-3.4,2.9
	c0.1,0.5,0.1,1.1,0.1,1.6c0.5-0.4,1-0.8,1.4-1.4c2-2.9,5-3.7,8.2-4c6.1-0.5,12.2,0.5,18.3,2.2c2.3,0.6,4.5,2,6.7,3
	c3.7,1.5,7.4,2.8,11.1,2.1c2.8-0.5,5.4-1.8,7.8-4c-0.4,3.1-0.4,5.9-1.2,8.4c-0.4,1.3-1.8,2.1-3,2.8c-4.9,2.9-10.3,3-15.7-0.3
	c-5.7-3.4-11.4-4-17.1-4.6c-2.9-0.3-5.8-0.4-8.7-0.4c-2.4,0-4.4,0.9-6.1,2.6c-1.3,1.3-2.7,2.4-4.1,3.4c0,0.5,0,1-0.2,1.5
	c0.4-0.2,0.8-0.4,1.1-0.6c0.8-0.4,1.5-1,2.1-1.7c1.9-2.9,4.8-3.8,7.9-4.1c6.2-0.6,12.6,0.4,18.9,2.2c3.2,0.9,6.3,2.7,9.5,4
	c5.3,2.1,10,1.5,14.2-1.4c0.2-0.2,0.4-0.3,0.7-0.4c0.1,0,0.2,0,0.3,0c-0.3,4.4-0.9,8.7-0.9,13.2c0.1,12,0.5,24,0.9,36
	c0.1,1.9,0.7,3.8,1.1,5.7c0.1,0.3,0.1,0.6,0.1,0.8c-0.6,3,0.3,5.9,2,8.9c-2.9,0-5.5-0.5-8.2-1.4c-8.2-2.8-16.4-5.8-24.7-8.7
	c-7.1-2.5-14-2.8-20.5-0.7c-5.5,1.8-10.7,4.1-16.2,5.9c-3.7,1.2-7.7,2-11.5,2.9c-0.2,0-0.4,0-0.5,0c-0.2-1.6-0.5-3.1-0.5-4.6
	c0-0.8,0.5-1.5,0.6-2.3c0.6-5,1.3-10.1,1.9-15.1c1.2-10.8,2.3-21.6,3.5-32.4c0-0.5,0.1-0.9,0.2-1.7c2.7,1.5,5,1.4,7.3,0.7
	c-0.1-0.5-0.2-1-0.1-1.5c-0.8,0.2-1.6,0.5-2.5,0.7c-1.4,0.3-3-0.1-4.7-0.1c0.2-3.6,0.4-6.7,0.6-9.9c0.4,0.1,0.7,0.1,1,0.2
	c1.9,0.7,3.7,0.9,5.4,0.5c-0.1-0.5-0.1-1-0.1-1.5c-1.5,0.5-3.3,0.3-5,0.3c-0.8,0-1.3-0.6-1.2-1.7c0.2-3.2,0.1-1.8,0.2-5
	c0.2-4.1-1.2-7.6-4-10.5c-4-4.1-8.6-5.9-13.3-5.5c-2.8,0.2-5.3,1.2-5.9,5c-0.4,2.5-1.1,4.9-1.6,7.3c-2.2,11-4.2,17.4-6.5,28.4
	c-2.1,9.7-4.4,19.2-6.5,28.8c-0.3,1.4-0.4,3-1.1,4.2c-1.5,2.6-1.7,5.3,0.1,8.3c2.4,4,4.9,8,7.4,12c1.8,3,4.3,5.1,7.1,6
	c4.3,1.5,8.7,2.7,13.1,4c2.5,0.8,5,0.7,7.3-0.1c7.8-2.8,15.7-5.3,23.4-8.4c6-2.4,12.1-2.8,18.8-0.5c3.6,1.3,7.3,2.2,10.9,3.4
	c1.9,0.6,3.8,1.4,5.7,2.3c6.7,3.2,13.5,5.3,20.5,5c7.7-0.3,14.4-3,20.4-7.7C-81.1,136.9-79,133.7-80.4,128.4z M-105.7,127.3
	c-0.6-4.8,2.1-9.3,5.6-10.7c-0.4,2.1-0.8,4.3-1.3,6.5c-0.4,2,0.3,3.8,1.2,5.5c0.3,0.6,1.3,1.2,2,1.2c0.8,0,1.6-0.1,1.8-1.5
	c0.1-1.6,0.7-3.1,1-4.7l-0.4-0.4c-0.4,0.4-0.9,0.7-1.1,1.3c-0.3,0.8-0.4,1.8-0.7,2.6c-0.2,0.5-0.7,1.1-1,1c-0.5-0.1-1.1-0.7-1.3-1.3
	c-0.5-1.3-0.2-2.5,0.7-3.1c1.8-1.2,3.9-2,6.2-1.7c1.6,0.2,2.7,1.3,3.2,3.2c1,4,0.9,5.1-2.1,6.8c-2,1.2-4.2,2.1-6.5,2.5
	C-102.3,135.3-105.2,131.7-105.7,127.3z M-99.8,122.1c0.4-2.1,0.8-4.1,1.2-6.3c3.2-1.7,7.5-0.8,10.5,2.4c-0.3,1.7-0.6,3.3-1,5.3
	c-1.9-3.6-4.3-3.3-6.7-2.8C-97.1,121.1-98.3,121.6-99.8,122.1z M-201.4,47.2c0.3-1.3,0.9-1.8,1.8-2.4c4.7-2.7,9.1-0.6,13.6,3
	c3.8,3,5.2,6.9,4.8,11.6c-0.8,11.7-1.1,17.5-2.1,29.1c-1,10.6-2.5,21-3.7,31.6c-0.2,1.4-0.3,2.7-0.5,4.5c-3.6-6-7.6-10.8-13.2-13.5
	c-5.8-2.8-10.7-1.1-15.2,1.4C-210.9,88.6-206.3,70.9-201.4,47.2z M-206.3,120.7c1.1-3.2,2.2-6.2,3.2-9.2c3.6,0.9,6.7,3.2,9.4,5.9
	c-0.6,2.1-1.2,4.1-1.8,6.2C-198.8,120.7-202.3,118.5-206.3,120.7z M-196,125.2c-0.2,0.5-0.7,0.8-1.1,1.2c-0.1-0.1-0.2-0.3-0.4-0.4
	c0.2-0.7,0.5-1.3,0.8-2.4C-196.3,124.4-195.9,125-196,125.2z M-204.3,121.4c2.4-0.4,4.4,0.1,6.7,1.7c-0.7,1.3-1.3,2.5-2,3.7
	c-0.5,0.9,0,1.1,0.7,1.3c1.6,0.3,3.8-1.1,4.3-2.8c0.3-1.2,0.6-2.3,0.9-3.5c0.3-1.1,0.6-2.2,0.9-3.6c3,3.4,4.9,7,5.4,11.3
	c0.1,0.7-0.4,1.7-0.9,1.9c-3.1,1.5-6.5,2.1-10.1,1.7c-4.6-0.5-6.5-2.7-7.7-8.5C-206.6,122-206.4,121.8-204.3,121.4z M-86.1,138.8
	c-2.8,2.5-6.2,3.7-9.5,5c-7.7,3.1-15.7,1.6-24-1.6c-6.8-2.6-13.6-5-20.4-7.2c-6.7-2.2-13.2-2.4-19.4-0.4c-5.5,1.8-10.8,4-16.3,6
	c-5.4,2-11,3.8-17.2,2.3c-3.9-1-7.8-2.3-11.7-3.4c-3.5-1-5.7-4.1-7.7-7.3c-1.8-2.9-3.5-6-5.1-9c-1.8-3.3-1.5-6.4,0.9-8.5
	c3.5-3,7.6-4.3,12.3-3.7c-1,2.6-2.1,5.1-2.9,7.7c-0.3,0.9-1.4,1.9,0.2,3.1c0,0,0,0.3,0,0.4c-0.8,9,5.9,13.6,11.4,12.8
	c1.9-0.3,3.8-0.6,5.4-1.5c1.9-1.1,3.9-1.4,6.1-1.5c5.7-0.2,10.7-2.3,15.9-4.2c4.3-1.6,8.7-3.3,13-4.8c4.9-1.8,10.1-0.8,15.4,0.9
	c3.9,1.2,7.8,2.3,11.7,3.7c2.9,1,5.8,2.5,8.7,3.7c5.1,2.1,10.2,3.3,15.3,3.2c0.4,0,0.9,0.1,1.3,0.4c2.3,1.5,4.5,1.7,6.5,0.7
	c2.2-1,4.5-2.2,6.5-3.5c1.3-0.9,2.1-2.5,1.7-4.6c0-0.3,0-0.5,0-0.8c0.4-2.3,0.8-4.5,1.2-6.8C-83.4,124.2-80.7,133.9-86.1,138.8z
	 M-81.7,123.8c0,0.4,0,0.7-0.1,1.4c-3.5-5.3-6.3-11.1-12.3-11.4c-5.3-0.3-9.5,1.8-12.3,7c-0.1-1.9-0.3-3.9-0.4-5.8
	c-0.4-9.7-1.1-19.4-0.9-29c0.2-9.5,1.4-18.8,2.1-28.2c0.3-3.1,0.7-6.2,0.9-9.3c0.1-1.3,0.6-2,1.6-2.4c3.7-1.5,7.5-3,11.8-2
	c3.7,0.8,6.8,3.4,8.1,8.4c1.7,6.2,1.5,12.2,1.5,18.2C-81.5,88.4-81.7,106.1-81.7,123.8z"/>
<g>
	<path class="st10" d="M-147.1,82.5c0.1,0,0.4-0.1,0.4,0.1c2.5,1.9,6.2,2.3,8.5,4.6c1,1,4.7,3.7,6,2.8c-0.4-0.7-0.3-1.6-0.2-2.4
		c0.5-5.3-0.4-10.5-0.1-15.7c0.7-0.3,0.3-1.2,1.5-0.9c1,0.2,7.3,6.4,7.9,7.4c0.4,0.4,0.8,0.6,1.3,0.8l0.1,1l-1-0.2
		c-1-0.6-4.1-1.6-5.1-0.6c-0.6,0.7,0,6.6,0.2,7.8c-1.3,3.2,2.8,2.1,3.7,3.9c-0.1,0.8-0.7,1.2-0.9,1.8c-0.8,0.7-1.9,1-2.9,1.5
		l-0.3,0.2c0.2,2.1,0.3,4.3-0.1,6.3c0.1,0.9-0.1,1.8-0.1,2.7h0.8c2.2-1.6,4.1-3.5,6.4-4.9c2.6,0.5,4.3,1.8,4.9,4.6
		c0.8,3.5-2.3,5.8-4.5,7.9c-0.8,0.2-2.4,1.3-2.8,2c-1.4,0.9-2.6,2.2-3.4,3.6c0.3,1.4,3.2,2.2,3.2,4c-2.8,0.1-6.9,0.4-9.3-1.3
		c-1.1-0.8-2.1-0.9-2.4-2.4c-0.7-3.4,0.9-2.7,2.5-3.1l0.3,0.1c0.8-0.2,2.6-0.8,3.3-1.3c2.1-1.7,3.8-1.2,6.1-2.1
		c0.9-0.4,1.7-0.9,2.8-1.1c1.2-1.1,2.7-2.2,2.6-4c-0.8-1.3-2.6-1.3-3.9-1.2c-0.6,0.4-1.4,0.5-1.8,1.1c-1.5,1-2.9,0.6-3,3
		c-1.4,0.1-1.7,0.9-3.2,0.5c-1.4-1.4-4-1.5-3.9-4.1c0-1.4,3-6.3,1.9-9.4c-1.4,0.8-4.9,4.6-5.5,6c-0.9,0.9-2.5,3-0.9,4
		c0.4,1.9-2.2,1.6-3.1,0.8c-0.9-0.6-1.5-3-2-4.1c1.3-3.6,5.4-5.5,7.4-8.7c0.2-0.3-1.2-0.8-1.3-0.8c-0.7-0.3-1.5-0.7-2.3-1.1
		c-3.6-1.9-10.1-3.3-14.3-4.2l0.1-0.2c-1.2-0.7-2-2-1.8-3.3C-152.6,83.4-150.6,82.7-147.1,82.5z M-118.2,81.5
		c1.3-0.4,1.7-3.4,3.4-2.1c1.6,0.4,0.6,3.6,0.6,4.8c-1.5,0.8-1.8,2.4-2.9,3.5c-0.1,0.2-0.5,0.7-0.1,0.8c2.7-1,9.6,3.1,5.6,4.1
		c-1.8-0.1-3.5,0.5-5,1.6c-0.6,0.9-2.3,1.1-3,2.7c-0.9-0.2-1.8-0.4-2.7-0.4c-5.1-3-0.5-5.9-0.8-7.5
		C-121.1,86.8-119.5,84.4-118.2,81.5z"/>
	<path class="st10" d="M-173.5,114.7c1.6-0.5,2.9-1.6,4.3-2.5c-0.4,0.8-1.8,2.3-2.6,2.8c-0.3,0.4-0.7,0.8-0.9,1.3
		c2.7-0.6,7.5-1.8,9.6-3.6c1.1-0.9,1.9-2.2,3.2-2.9c1.9-1,3.7,0.2,5.1,1.5c0.5,0.5,1.3,0.8,1.4,1.6c-0.7,0.2-1.5,0.2-2.1,0.5
		c-2,0.6-3.9,1.6-5.8,2.4c-3.7,1.5-7.5,2.7-11.2,4.3c-1,0.4-2.7,1.6-3.8,1.5c-0.7,0-4-1.1-4.7-1.4
		C-185,115.7-175.2,116.3-173.5,114.7z"/>
</g>
<path class="st11" d="M-165.5-18.7c-0.5-2.5-1.4-4.8-1.3-7.2c0.1-1.7,1.4-3.7,2.9-5.4c0.8-1,3.3-2.1,4.7-2.1c1.4,0,2.9,1.2,3.4,2.2
	c1.2,2.5,0,5.2-1.6,7.9c-0.7,1.1-1.5,2.2-2.4,3.5c5.9,0.8,4.6,4.6,5.2,7.6c0.2,1.2,0.8,2.5-1.5,3.7c-0.5,0.2-0.5,1.1-0.5,1.6
	c-0.5,8.9-1,17.9-1.6,26.8c-0.7,11-1.4,22-2.1,33c0,0.8,0.6,1.5,0.9,2.3c0.2,0.6,0.5,1.2,0.4,1.8c-1,5.7-1.9,11.4-3.3,17
	c-0.5,1.9,1,2.6,2.2,3.5c5.2,3.6,6.2,8.4,5.2,13.8c-1.4,7.6-6.4,14.4-14.2,20.7c-2.4,2-4.5,4.2-8.3,5.4c0-0.3-0.1-0.6,0-0.8
	c3.6-6.1,2.9-11.5-0.1-16.7c-3.7-6.4-5.3-13.2,0.4-20.6c2.1-2.8,2.2-5.1,2.2-7.7c-0.1-4.7-0.1-9.4-0.1-14.1c0-0.4,0.1-1,0.5-1.2
	c2.1-1.1,1.8-2.4,1.9-3.7c1-13.8,1.9-27.5,2.9-41.3c0.4-5.6,0.9-11.2,1.3-16.9c0-0.5,0.1-1.2-0.3-1.3c-2-0.7-1.2-2-1.1-3.2
	c0.2-1.3,0.5-2.5,0.6-3.8C-169.1-15.9-168.2-17.7-165.5-18.7z M-162.5,53.8c0-0.3,0.2-0.8,0.2-1.2c0.1-2.3,0.2-4.6,0.3-6.8
	c0.5-8.3,1.1-16.6,1.6-24.8c0.6-9.4,1.1-18.9,1.7-28.3c0.1-1.3-1.1-1.9-3.4-1.7c-2.7,0.3-3.9,1-4,2.5c-0.5,8.1-1.1,16.1-1.6,24.2
	c-0.8,10.6-1.6,21.2-2.3,31.7c-0.1,1.8-0.2,3.5-0.3,5.1C-167.7,54.2-165.2,54-162.5,53.8z M-173.6,77.8c-0.5,0.5-1,0.9-1.3,1.3
	c-2.9,4.2-4.4,8.5-3.3,12.6c1.5,5.2,3.7,10.2,5.6,15.4c0.2-2,0.2-4.1-0.3-6c-0.8-3.3-2.1-6.6-2.9-9.9c-0.3-1,0.1-2.2,0.2-3.4
	c0.4-0.1,0.8-0.1,1.2-0.2c0.4,7.5,5.8,13.9,3.1,22.2c1.4-2,2.5-3.9,3.1-5.9c1.7-5.3,0.6-10.2-0.3-15.1c-0.2-1.2-0.3-2.4,1.6-3.9
	c1.2,8.4,3.2,16.3-2.6,25.1c5.6-5.4,8.3-11.1,8.8-17c0.2-1.6,0.4-3.3,0.6-4.9c0.4,0,0.9-0.1,1.3-0.1c-0.1,2.3,0,4.6-0.5,6.8
	c-0.4,2.3-1.4,4.6-2.1,7c3-4.3,4.5-8.6,4.6-13c0.1-4-2-7.2-5.1-10.1c-0.6-0.5-2.1-1.2-2.6-1C-167.8,78.9-170.5,78.2-173.6,77.8z
	 M-171.8,56.4c-0.2,0.4-0.9,1.3-0.9,2c0,5.3,0.1,10.6,0.1,15.9c0,2.3,1.5,3,4.9,2.6c1.9-0.2,3.1-0.8,3.2-2.2
	c0.1-1.1,0.3-2.2,0.5-3.3c0.8-4.6,1.7-9.2,2.5-13.9c0.1-0.6-0.2-1.3-0.7-1.6C-163.7,54.9-169,55.1-171.8,56.4z M-157-9.9
	c0.3-0.1,0.5-0.3,0.8-0.4c-0.6-2.3-0.9-4.6-2-6.8c-0.3-0.7-2.7-1-4.1-0.8c-1.5,0.3-3.9,1.3-4.2,2.1c-0.9,2.3-0.9,4.7-1.4,7.3
	C-164-10.7-160.5-10.8-157-9.9z M-162.3-19.4c0.8-0.9,1.6-1.8,2.2-2.8c1.9-2.6,3-5.3,2.3-7.9c-0.2-0.6-1-1.4-1.9-1.5
	c-0.7-0.1-2.1,0.6-2.8,1.2C-165.7-27.7-165.6-21.6-162.3-19.4z"/>
</svg>
