<?xml version="1.0" encoding="utf-8"?>
<!-- Generator: Adobe Illustrator 19.0.0, SVG Export Plug-In . SVG Version: 6.00 Build 0)  -->
<svg version="1.1"
	 id="svg2985" xmlns:dc="http://purl.org/dc/elements/1.1/" xmlns:cc="http://creativecommons.org/ns#" xmlns:rdf="http://www.w3.org/1999/02/22-rdf-syntax-ns#" xmlns:svg="http://www.w3.org/2000/svg"
	 xmlns="http://www.w3.org/2000/svg" xmlns:xlink="http://www.w3.org/1999/xlink" x="0px" y="0px" viewBox="-237 -92 210 255"
	 style="enable-background:new -237 -92 210 255;" xml:space="preserve">
<style type="text/css">
	.st0{enable-background:new    ;}
	.st1{fill:#005F00;}
	.st2{fill:#CDDACD;}
	.st3{fill:#FFFFFF;}
	.st4{fill:url(#rect3008_2_);}
	.st5{filter:url(#filter3970-5);}
	.st6{fill:url(#SVGID_1_);}
	.st7{fill:#994913;}
	.st8{fill:#038249;}
	.st9{fill:#2A3B92;}
	.st10{fill:#D37F11;}
</style>
<filter  width="1.2171124" height="1.2150326" y="-0.10751629" x="-0.10855621" id="filter3970-5" color-interpolation-filters="sRGB">
	<feGaussianBlur  stdDeviation="0.12800763" id="feGaussianBlur3972-8"></feGaussianBlur>
</filter>
<g id="g4146" transform="translate(39.768324,209.71794)">
</g>
<g id="g4630_1_" transform="matrix(1.0005937,0,0,1,-1.3758072,203.40625)" class="st0">
	<g id="g3062_1_">
		<path id="rect4031_1_" d="M-176.2-295.4l46.1,0.2l68.4-0.2c22.9-0.1,36.1,15.9,36.1,40.4v154.6c0,12.3-14,27.7-21.4,35.7
			s-22.1,24.3-33.6,24.3h-113c-22.9,0-41.3-5.6-41.3-30.2l-0.3-162.3c0-6.4,17.3-24.3,24.8-32.4C-203-273.3-187.6-295.5-176.2-295.4
			L-176.2-295.4z"/>
		<path id="rect3767_1_" class="st1" d="M-167.4-282.7h104.5c13.8,0,24.8,11.1,24.9,24.9l0.9,152.4c0,2-12.6,32-25.8,32h-104.5
			c-13.8,0-24.9-11.1-24.9-24.9v-159.5C-192.3-271.6-181.2-282.7-167.4-282.7L-167.4-282.7z"/>
		<path id="rect3861_1_" class="st2" d="M-182.3-267.7h99.6c13.7,0,24.9,11.2,24.9,24.9v159.5c0,13.8-11.1,24.9-24.9,24.9h-99.6
			c-13.7,0-24.9-11.2-24.9-24.9v-159.5C-207.2-256.6-196.1-267.7-182.3-267.7z"/>
		<path id="rect3765_1_" class="st3" d="M-192.3-252.8h104.5c13.7,0,24.9,11.2,24.9,24.9v149.5c0,13.8-11.1,24.9-24.9,24.9h-104.5
			c-13.7,0-24.9-11.2-24.9-24.9v-149.5C-217.2-241.6-206-252.8-192.3-252.8z"/>
		
			<linearGradient id="rect3008_2_" gradientUnits="userSpaceOnUse" x1="-369.8559" y1="182.6285" x2="-369.8559" y2="144.1098" gradientTransform="matrix(4.9807 0 0 -4.9841 1694.6462 667.4196)">
			<stop  offset="0" style="stop-color:#D0E4CC"/>
			<stop  offset="1" style="stop-color:#FBFFEC"/>
		</linearGradient>
		<path id="rect3008_1_" class="st4" d="M-202.3-242.8h109.5c11,0,19.9,8.9,19.9,19.9v149.5c0,11-8.9,19.9-19.9,19.9h-109.5
			c-11,0-19.9-8.9-19.9-19.9v-149.5C-222.2-233.9-213.3-242.8-202.3-242.8z"/>
		<path id="path3932_1_" class="st3" d="M-42.7-270.2c0,1.5-1.3,2.8-2.8,2.8s-2.8-1.3-2.8-2.8s1.3-2.8,2.8-2.8
			S-42.7-271.8-42.7-270.2z"/>
		<g id="path3936_1_" class="st5">
			
				<linearGradient id="SVGID_1_" gradientUnits="userSpaceOnUse" x1="-360.7442" y1="203.5567" x2="-363.8599" y2="200.0874" gradientTransform="matrix(7.1013 0 0 -6.6887 2518.0134 1087.4099)">
				<stop  offset="0" style="stop-color:#FFFFFF"/>
				<stop  offset="1" style="stop-color:#FFFFFF;stop-opacity:0"/>
			</linearGradient>
			<polygon class="st6" points="-47.8,-271.6 -76.6,-247 -68.4,-241 -43.2,-269.3 			"/>
		</g>
		<path id="path3882_1_" class="st3" d="M-60-248.3c0,4.8-3.9,8.7-8.7,8.7c-4.8,0-8.7-3.9-8.7-8.7c0,0,0,0,0,0
			c0-4.8,3.9-8.7,8.7-8.7C-63.9-257-60-253.1-60-248.3C-60-248.3-60-248.3-60-248.3z"/>
	</g>
</g>
<g>
	<path class="st7" d="M-146.8-11.1c1,0.2,1.7,0.2,2.3,0.2c2.6,0,2.6,0,16.1-8.6c0.5-4.1,0.7-5.5,0.7-6.8c0-2.3-0.5-3.4-2.7-6v-0.3
		c0.7-0.3,1.3-0.5,1.6-0.5c3,0,7.7,4.1,7.7,6.8c0,0.2-0.1,0.6-0.2,1.1c-0.2,0.8-0.4,1.2-0.4,1.4c-0.1,0-0.1,0.5-0.2,1.1
		c2.7,1.2,4.6,2.8,4.6,4.3c0,0.2-0.2,0.6-0.5,0.9c-0.5,0.3-1.1,0.8-2,1.2c-0.9,0.5-2.3,1.5-4.1,2.8c0.2,1.9,0.2,2.5,0.2,3.1
		c0,1.1,0,1.3-0.9,4.7c-0.5,1.9-0.5,1.9-0.5,4.1c1.2-0.9,2-1.4,2.3-1.6c1.5-1.2,3-2.4,4.4-3.7c0.4-0.2,1-0.8,2-1.6l0.2,0.3
		c-4.3,6.7-5.3,8-9.2,12.2c-0.2,4.4-0.3,6.2-0.3,8.8c0,1.6,0.2,5.1,0.3,9.4c0.1,1.9,0.2,4.9,0.2,5.4c0,1.3-0.3,2-0.9,2
		c-1.6,0-3.9-4.5-3.9-7.4c0-0.7,0.1-1.4,0.2-2.6c0.5-3.7,0.6-4.9,0.8-11.3c-1.6,1.7-3,3.2-3.4,3.7c-2.3,2.5-3.4,3.4-4.4,3.4
		c-1.2,0-2.5-2.3-2.5-4.8c0-1.8,0.1-1.9,1.9-2.8c3.3-2.9,7.4-12.4,8.1-18.6c-2.3,1.4-4.3,2.8-4.9,3.3c-3.7,3-4.1,3.2-5.2,3.2
		c-1.1,0-2.1-0.6-4.4-2.3c-2.7-2.3-3-2.6-3.3-4.2L-146.8-11.1z M-122.8,11.6c2-0.5,2.3-0.5,4.1-1.1c0.7-0.2,2-0.6,4.1-1.2l4.1-1.3
		c-0.2-2.8-0.2-4.9-0.3-7.5v-7.8c0-0.6-0.1-2.4-0.2-5c-0.6,0.1-1.1,0.1-1.4,0.1c-3,0-4.4-0.5-6-2.3v-0.6l2.7-1.1
		c2.8-1.2,3-1.3,5.1-2.4c-0.1-3-0.2-3.7-1.2-7.2l0.1-0.4c0.3-0.3,0.5-0.5,0.8-0.5c0.5,0,1.8,0.8,2.9,1.9c1.3,1.2,1.8,2.1,2.3,4.4
		c3.4-1.2,4-1.5,7.7-3c0.2-2,0.2-2.9,0.2-4.3c0-4.9-0.3-5.6-3.1-6.2l-0.2-0.3c0.9-1.3,1.6-1.8,2.5-1.8c1.5,0,3.3,0.9,4.4,2.3
		c1,1.1,1.3,2,1.3,3.9l-0.1,3.1c0,0.4,0,1,0.1,2.1c3.4,1.2,5.2,2.3,5.2,3.3c0,0.3-0.2,0.8-0.6,0.9c-0.4,0.2-2,0.5-4.8,1.1
		c-0.3,5-0.3,5.1-0.3,9.9v3.2c0,1.5-0.1,5.6-0.2,10.2c1.8-0.2,3.5-0.2,4.8-0.2c4.7,0,8.7,2.3,8.7,5c0,0.9-0.6,1.5-1.5,1.5
		c-0.8,0-2-0.2-3.3-0.6c-2.8-0.8-4.8-1.1-7.6-1.1l-2,0.1c-0.2,0.7-0.4,1.4-0.5,1.6c-0.4,1.5-0.8,2.2-1.2,2.2c-0.9,0-2.2-1.7-2.9-4.1
		c-1.7,0.3-3.6,0.7-3.7,0.8c-0.9,0.2-2.8,1-5.6,2.2c-5,2.1-10.6,3.9-12.1,3.9c-1.6,0-2.9-1-2.9-2.3c0-0.2,0.1-0.5,0.2-0.9
		L-122.8,11.6z M-113.8,15.1c0.1,0.6,0.2,1.2,0.2,1.4c0.2,1.5,0.5,2.1,1.4,2.1c0.9,0,1,0,4-1.7c1.8-0.9,1.8-0.9,3.7-1.7v0.5
		c-0.7,0.9-1.3,1.6-1.6,2c-0.9,1.1-1.5,1.9-1.6,2l-1.8,3.2c-1.2,2-2.5,3.5-3.3,3.5c-1.5,0-4.1-3.4-4.1-5.4c0-1.6,1.2-4.2,2.6-5.8
		H-113.8z M-106.7-1.9c2.9-1.1,3-1.1,3.7-1.5c0.7-0.3,1.2-0.5,1.5-0.5c0.7,0,1.3,0.3,3.3,1.5l0.1-6.9c-3,0.9-3.4,1-8.3,3.2
		L-106.7-1.9z M-103.3,1.1c-0.5,0.2-1.9,0.5-3.3,1.1c-0.1,0.9-0.1,1.4-0.1,2c0,0.7,0.1,1.3,0.2,2.5c3.7-0.7,4.2-0.9,8.1-1.8
		c0.1-1.9,0.2-2.7,0.2-3.9v-1.9c-1.9,1-2,1-3.9,1.6L-103.3,1.1z M-106.2-11.1c1.3-0.5,2.4-0.9,2.9-1.1c1-0.5,1.8-0.7,2.2-0.7
		c0.6,0,1.6,0.3,2.7,1l0.2-6.8c-3.6,1.6-4.2,1.8-7.6,3.3c-0.3,1.4-0.4,2.1-0.4,3V-11.1z M-99.6,20.8c0.7-0.2,1.2-0.2,1.4-0.2
		l2.6-0.2c1.5-0.1,2.4-0.8,2.4-1.9c0-1.5-0.8-2.6-3.2-4.4l0.1-0.3c0.7-0.2,1.2-0.3,1.6-0.3c3.4,0,8.4,4.4,8.4,7.3
		c0,2-1.8,5.5-2.8,5.5c-0.3,0-0.3,0-2-1.3c-1.2-1-2.8-1.7-8.6-3.8L-99.6,20.8z"/>
</g>
<path class="st8" d="M-202.2-11.9l-2,1.6c-6.7,5.1-10.6,10.2-11.9,15.3v2.5h27.9l1.3-12.1h-3.3c-0.8,5-2.7,7.5-5.7,7.5h-15.1
	c1.2-3.9,4.3-7.3,9.1-10.1l2.4-1.3c4.2-2.3,7.1-4.3,8.7-5.9c2-2,3-4.7,3-7.9c0-4.2-1.9-7.5-5.6-9.7c-2.4-1.2-5.2-1.9-8.3-1.9
	c-4.2,0-7.7,1.2-10.2,3.6c-2.1,2.1-3.2,4.4-3.2,7.1c0,3.2,1.4,4.8,4.3,4.8c2.5,0,3.7-1.2,3.7-3.5c0-2.2-1-3.4-2.9-3.6
	c1.2-3.1,3.8-4.6,7.9-4.6c5.3,0,7.9,2.5,7.9,7.4C-194.1-19.6-196.8-16-202.2-11.9z"/>
<g>
	<path class="st8" d="M-91.1,144.2c-0.2,0-18.9,0.1-19.2,0.1c-17.7,0-35.5-0.1-53.2-0.1c-15.3,0-30.7-0.1-46-0.1
		c-2.4,0-4.6-1-6.5-2.9c-1.2-1.2-1.7-2.7-1.7-4.5c0-2.9,0-5.8,0-8.7c0-2.3,0.6-4.3,1.6-6.2c1.7-3.1,3.9-5.5,6.5-7.4
		c8.1-5.6,16.1-11.2,24.2-16.8c35.9-24.9,71.8-49.8,107.8-74.6c0.2-0.1,0.4-0.2,0.6-0.3c0,3.6,0,7.2,0,10.8
		c-0.2,0.1-0.4,0.2-0.6,0.4c-38.1,25.1-76.2,50.3-114.3,75.4c-5.7,3.8-11.5,7.6-17.1,11.5c-1.3,0.9-2.4,2.3-2.8,4.2
		c-0.2,1.1,0.3,2.4,1.3,2.6c1.1,0.2,2.3,0.4,3.4,0.4c43.4,0,86.8,0,130.2,0c0,2.2,0,3.4,0,5.6c-17.1,0-102.3-0.2-127.8-0.3
		c-2.4,0-4.8-0.1-7.2-0.8c0,0.4,0,2.8,0,3.2c0,1,0.6,2.4,1.5,2.6c1.1,0.2,2.2,0.4,3.3,0.4c43.4,0,86.8,0,130.2,0
		C-77,141-80.3,144.2-91.1,144.2z"/>
	<path class="st8" d="M-77,121.8c-41.6,0-83.1,0-124.9,0c0.3-0.2,0.4-0.3,0.6-0.4c41.3-27,82.5-53.9,123.8-80.9
		c0.2-0.1,0.3-0.2,0.5-0.3c0,0.7,0,1.4,0,2.1c-0.1,0-0.1,0-0.2,0.1c-4.4,2.9-8.9,5.8-13.3,8.7c-0.1,0.1-0.2,0.1-0.5,0.3
		c4.8,0,9.4,0,14,0c0,0.7,0,1.4,0,2.1c-5.6,0-11.1,0-16.7,0c-0.4,0-0.8,0.1-1.1,0.3c-4.3,2.8-8.5,5.5-12.7,8.3
		c-0.2,0.1-0.3,0.2-0.6,0.5c0.3,0,0.4,0,0.5,0c7,0,14,0,21,0c0.3,0,0.6-0.1,0.9-0.3c2.7-1.7,5.4-3.5,8-5.2c0.2-0.1,0.4-0.2,0.6-0.3
		c0,0.7,0,1.4,0,2.1c-1.1,0.7-2.3,1.4-3.4,2.1c-0.7,0.5-1.5,1-2.2,1.5v0.1c1.9,0,3.7,0,5.6,0c0,0.7,0,1.4,0,2.1c-2.8,0-5.7,0-8.5,0
		c-0.4,0-0.8,0.1-1.1,0.3c-5,3.3-10.1,6.6-15.1,9.9c-0.2,0.1-0.3,0.2-0.5,0.4c0.2,0,0.3,0,0.4,0c7.1,0,14.1,0,21.2,0
		c0.3,0,0.5-0.1,0.8-0.2c1-0.6,1.9-1.2,2.9-1.8c0,1.4,0,2.8,0,4.2c-0.8,0-1.6-0.1-2.4,0c-0.5,0-1,0.2-1.5,0.5
		c-5.6,3.7-11.3,7.4-16.9,11c-0.2,0.1-0.3,0.2-0.7,0.5c7.3,0,14.4,0,21.5,0c0,1.4,0,2.8,0,4.2c-5.1,3.3-10.2,6.6-15.2,10
		c-0.1,0-0.1,0.1-0.2,0.2c5.2,0,10.3,0,15.4,0c0,0.7,0,1.4,0,2.1c-6.1,0-12.2,0-18.3,0c-0.3,0-0.7,0.1-1,0.3
		c-6.5,4.2-13,8.5-19.5,12.7c-0.1,0.1-0.3,0.2-0.6,0.4c0.4,0,0.6,0,0.9,0c6.2,0,12.4-0.1,18.6,0c1.7,0,3.2-0.4,4.7-1.5
		c5-3.4,10-6.6,15.1-9.9c0,0.8,0,1.5,0,2.3c-0.1,0.1-0.2,0.1-0.3,0.2c-4.3,2.8-8.7,5.7-13,8.5c-0.1,0.1-0.2,0.1-0.4,0.3
		c4.7,0,9.2,0,13.8,0C-77,120.2-77,121-77,121.8z M-99.3,106.1c-0.2,0-0.2,0-0.3,0c-7.9,0-15.9,0-23.8,0c-0.2,0-0.5,0.1-0.7,0.2
		c-6.6,4.3-13.2,8.6-19.7,12.9c-0.1,0.1-0.2,0.2-0.4,0.4c0.4,0,0.6,0,0.8,0c7.6,0,15.3,0,22.9-0.1c0.4,0,0.9-0.2,1.3-0.4
		c6.4-4.2,12.8-8.4,19.2-12.6C-99.8,106.4-99.6,106.3-99.3,106.1z M-120.3,103.8v0.1c0.1,0,0.3,0,0.4,0c7.8,0,15.6,0,23.5,0
		c0.3,0,0.6-0.1,0.9-0.3c5.9-3.8,11.8-7.7,17.7-11.5c0.2-0.1,0.3-0.2,0.5-0.4c-0.2,0-0.3,0-0.4,0c-7.9,0-15.7,0-23.6,0
		c-0.3,0-0.6,0.1-0.9,0.3c-5.9,3.8-11.7,7.7-17.6,11.5C-120,103.5-120.1,103.7-120.3,103.8z M-152.6,106c-0.3,0-0.4,0-0.4,0
		c-7,0-14.1,0-21.1,0c-0.3,0-0.6,0.1-0.9,0.3c-6.6,4.3-13.1,8.6-19.7,12.9c-0.2,0.1-0.3,0.2-0.6,0.4c0.4,0,0.6,0,0.9,0
		c6.8,0,13.6,0,20.4-0.1c0.5,0,1-0.2,1.4-0.4c5.9-3.8,11.8-7.7,17.7-11.5C-154.2,107.1-153.5,106.7-152.6,106z M-127.2,106
		c-0.3,0-0.4,0-0.5,0c-7,0-14,0-21,0c-0.3,0-0.6,0.1-0.9,0.3c-6.5,4.2-13,8.5-19.5,12.8c-0.2,0.1-0.3,0.2-0.6,0.5c0.3,0,0.4,0,0.5,0
		c7,0,14-0.1,20.9-0.1c0.3,0,0.7-0.1,1-0.3c6.5-4.2,13-8.5,19.5-12.7C-127.7,106.4-127.5,106.2-127.2,106z M-130.6,91.6
		c-0.2,0-0.3,0-0.4,0c-7,0-14.1,0-21.1,0c-0.3,0-0.6,0.1-0.8,0.3c-5.9,3.8-11.8,7.7-17.7,11.6c-0.2,0.1-0.3,0.2-0.6,0.4
		c0.4,0,0.6,0,0.8,0c6.8,0,13.7,0,20.5,0c0.4,0,0.8-0.1,1.2-0.4c5.8-3.8,11.7-7.6,17.5-11.4C-131,92-130.8,91.8-130.6,91.6z
		 M-105.2,91.6c-0.3,0-0.4,0-0.5,0c-7,0-14,0-21.1,0c-0.3,0-0.6,0.1-0.8,0.3c-5.9,3.8-11.8,7.7-17.7,11.6c-0.2,0.1-0.3,0.2-0.6,0.4
		c0.4,0,0.6,0,0.8,0c6.8,0,13.7,0,20.5,0c0.4,0,0.8-0.1,1.2-0.4c5.8-3.8,11.7-7.6,17.5-11.4C-105.7,92-105.5,91.9-105.2,91.6z
		 M-109,77.6c-0.2,0-0.3-0.1-0.4-0.1c-7.1,0-14.2,0-21.2,0c-0.3,0-0.6,0.1-0.8,0.3c-5.7,3.7-11.5,7.5-17.2,11.3
		c-0.2,0.1-0.3,0.2-0.5,0.4c0.3,0,0.4,0,0.5,0c7,0,14,0,21,0c0.3,0,0.7-0.1,0.9-0.3c4.9-3.2,9.8-6.4,14.6-9.6
		C-111.1,79-110.1,78.3-109,77.6z M-83.6,77.5c-0.3,0-0.4,0-0.4,0c-7.1,0-14.1,0-21.2,0c-0.3,0-0.6,0.1-0.8,0.3
		c-5.7,3.7-11.5,7.5-17.2,11.3c-0.2,0.1-0.3,0.2-0.5,0.4c0.2,0,0.3,0,0.4,0c7.1,0,14.1,0,21.2,0c0.3,0,0.6-0.1,0.8-0.3
		c3.5-2.3,7-4.5,10.4-6.8C-88.6,80.8-86.1,79.2-83.6,77.5z M-127.7,75.4c0.3,0,0.4,0,0.4,0c7.1,0,14.1,0,21.2,0
		c0.3,0,0.6-0.1,0.8-0.3c5.1-3.3,10.1-6.6,15.2-9.9c0.2-0.1,0.3-0.2,0.5-0.4c-0.2,0-0.3,0-0.4,0c-7.1,0-14.1,0-21.2,0
		c-0.3,0-0.6,0.1-0.9,0.3c-3.7,2.4-7.4,4.8-11,7.2C-124.5,73.3-126,74.3-127.7,75.4z"/>
	<path id="path7487_1_" class="st9" d="M-138.5,103.8c-1.9,3.9-7.7,7.1-12.9,7.1c-5.2,0-7.8-3.2-5.8-7.1c1.9-3.9,7.7-7.1,12.9-7.1
		C-139.2,96.6-136.6,99.8-138.5,103.8z"/>
	<path id="path7487_7_" class="st9" d="M-195.5,81.6c-1.9,3.9-7.7,7.1-12.9,7.1s-7.8-3.2-5.8-7.1c1.9-3.9,7.7-7.1,12.9-7.1
		C-196.2,74.5-193.6,77.7-195.5,81.6z"/>
	<path id="path7487_8_" class="st9" d="M-190,51.9c-1.9,3.9-7.7,7.1-12.9,7.1s-7.8-3.2-5.8-7.1c1.9-3.9,7.7-7.1,12.9-7.1
		C-190.7,44.8-188.1,48-190,51.9z"/>
	<path id="path7487_9_" class="st9" d="M-177.7,65.3c-1.9,3.9-7.7,7.1-12.9,7.1s-7.8-3.2-5.8-7.1c1.9-3.9,7.7-7.1,12.9-7.1
		C-178.4,58.1-175.7,61.3-177.7,65.3z"/>
	<path id="path7487_5_" class="st9" d="M-111.5,103.8c-1.9,3.9-7.7,7.1-12.9,7.1c-5.2,0-7.8-3.2-5.8-7.1c1.9-3.9,7.7-7.1,12.9-7.1
		C-112.2,96.6-109.6,99.8-111.5,103.8z"/>
	<path id="path7487_2_" class="st9" d="M-77.7,62.8c-1.9,3.9-7.7,7.1-12.9,7.1s-7.8-3.2-5.8-7.1c1.9-3.9,7.7-7.1,12.9-7.1
		C-78.4,55.6-75.7,58.8-77.7,62.8z"/>
	<path id="path7487_3_" class="st10" d="M-117.7,89.6c-1.9,3.9-7.7,7.1-12.9,7.1c-5.2,0-7.8-3.2-5.8-7.1c1.9-3.9,7.7-7.1,12.9-7.1
		C-118.4,82.5-115.7,85.7-117.7,89.6z"/>
	<path id="path7487_10_" class="st10" d="M-152.4,63.1c-1.9,3.9-7.7,7.1-12.9,7.1s-7.8-3.2-5.8-7.1c1.9-3.9,7.7-7.1,12.9-7.1
		C-153,56-150.4,59.2-152.4,63.1z"/>
	<path id="path7487_11_" class="st10" d="M-161.5,34.8c-1.9,3.9-7.7,7.1-12.9,7.1s-7.8-3.2-5.8-7.1c1.9-3.9,7.7-7.1,12.9-7.1
		C-162.2,27.6-159.6,30.8-161.5,34.8z"/>
	<path id="path7487_12_" class="st10" d="M-144.7,44.3c-1.9,3.9-7.7,7.1-12.9,7.1c-5.2,0-7.8-3.2-5.8-7.1c1.9-3.9,7.7-7.1,12.9-7.1
		C-145.4,37.1-142.7,40.3-144.7,44.3z"/>
	<path id="path7487_6_" class="st10" d="M-97.9,76c-1.9,3.9-7.7,7.1-12.9,7.1c-5.2,0-7.8-3.2-5.8-7.1c1.9-3.9,7.7-7.1,12.9-7.1
		C-98.5,68.9-95.9,72.1-97.9,76z"/>
	<path id="path7487_4_" class="st10" d="M-93.4,89.6c-1.9,3.9-7.7,7.1-12.9,7.1c-5.2,0-7.8-3.2-5.8-7.1c1.9-3.9,7.7-7.1,12.9-7.1
		C-94,82.5-91.4,85.7-93.4,89.6z"/>
</g>
</svg>
