<?xml version="1.0" encoding="utf-8"?>
<!-- Generator: Adobe Illustrator 19.0.0, SVG Export Plug-In . SVG Version: 6.00 Build 0)  -->
<svg version="1.1"
	 id="svg2985" xmlns:rdf="http://www.w3.org/1999/02/22-rdf-syntax-ns#" xmlns:svg="http://www.w3.org/2000/svg" xmlns:cc="http://creativecommons.org/ns#" xmlns:dc="http://purl.org/dc/elements/1.1/"
	 xmlns="http://www.w3.org/2000/svg" xmlns:xlink="http://www.w3.org/1999/xlink" x="0px" y="0px" viewBox="-192 293.9 210 255"
	 style="enable-background:new -192 293.9 210 255;" xml:space="preserve">
<style type="text/css">
	.st0{enable-background:new    ;}
	.st1{fill:#005F00;}
	.st2{fill:#CDDACD;}
	.st3{fill:#FFFFFF;}
	.st4{fill:url(#rect3008_1_);}
	.st5{filter:url(#filter3970-5);}
	.st6{fill:url(#SVGID_1_);}
	.st7{fill:#038249;}
	.st8{fill:#2A3B92;}
	.st9{fill:#BF3718;}
</style>
<filter  width="1.2171124" height="1.2150326" y="-0.10751629" x="-0.10855621" id="filter3970-5" color-interpolation-filters="sRGB">
	<feGaussianBlur  stdDeviation="0.12800763" id="feGaussianBlur3972-8"></feGaussianBlur>
</filter>
<g id="g4146" transform="translate(39.768324,209.71794)">
</g>
<g id="g4630" transform="matrix(1.0005937,0,0,1,-1.3758072,203.40625)" class="st0">
	<g id="g3062">
		<path id="rect4031" d="M-131.2,90.5l46.1,0.2l68.4-0.2c22.9-0.1,36.1,15.9,36.1,40.4v154.6c0,12.3-14,27.7-21.4,35.7
			s-22.1,24.3-33.6,24.3h-113c-22.9,0-41.3-5.6-41.3-30.2l-0.3-162.3c0-6.4,17.3-24.3,24.8-32.4C-158,112.6-142.7,90.4-131.2,90.5
			L-131.2,90.5z"/>
		<path id="rect3767" class="st1" d="M-122.4,103.2h104.5c13.8,0,24.8,11.1,24.9,24.9l0.9,152.4c0,2-12.6,32-25.8,32h-104.5
			c-13.8,0-24.9-11.1-24.9-24.9V128.1C-147.3,114.3-136.2,103.2-122.4,103.2L-122.4,103.2z"/>
		<path id="rect3861" class="st2" d="M-137.4,118.1h99.6c13.7,0,24.9,11.2,24.9,24.9v159.5c0,13.8-11.1,24.9-24.9,24.9h-99.6
			c-13.7,0-24.9-11.2-24.9-24.9V143.1C-162.3,129.3-151.1,118.1-137.4,118.1z"/>
		<path id="rect3765" class="st3" d="M-147.3,133.1h104.5c13.7,0,24.9,11.2,24.9,24.9v149.5c0,13.8-11.1,24.9-24.9,24.9h-104.5
			c-13.7,0-24.9-11.2-24.9-24.9V158C-172.2,144.3-161.1,133.1-147.3,133.1z"/>
		
			<linearGradient id="rect3008_1_" gradientUnits="userSpaceOnUse" x1="-324.8826" y1="569.5873" x2="-324.8826" y2="531.0685" gradientTransform="matrix(4.9807 0 0 -4.9841 1515.6201 2981.9607)">
			<stop  offset="0" style="stop-color:#D0E4CC"/>
			<stop  offset="1" style="stop-color:#FBFFEC"/>
		</linearGradient>
		<path id="rect3008" class="st4" d="M-157.3,143.1h109.5c11,0,19.9,8.9,19.9,19.9v149.5c0,11-8.9,19.9-19.9,19.9h-109.5
			c-11,0-19.9-8.9-19.9-19.9V163C-177.2,152-168.3,143.1-157.3,143.1z"/>
		<path id="path3932" class="st3" d="M2.2,115.7c0,1.5-1.3,2.8-2.8,2.8s-2.8-1.3-2.8-2.8s1.3-2.8,2.8-2.8S2.2,114.1,2.2,115.7z"/>
		<g id="path3936" class="st5">
			
				<linearGradient id="SVGID_1_" gradientUnits="userSpaceOnUse" x1="-315.7709" y1="590.4699" x2="-318.8866" y2="587.0007" gradientTransform="matrix(7.1013 0 0 -6.6887 2243.616 4061.2654)">
				<stop  offset="0" style="stop-color:#FFFFFF"/>
				<stop  offset="1" style="stop-color:#FFFFFF;stop-opacity:0"/>
			</linearGradient>
			<polygon class="st6" points="-2.8,114.3 -31.6,138.9 -23.4,144.9 1.8,116.6 			"/>
		</g>
		<path id="path3882" class="st3" d="M-15,137.6c0,4.8-3.9,8.7-8.7,8.7c-4.8,0-8.7-3.9-8.7-8.7c0,0,0,0,0,0c0-4.8,3.9-8.7,8.7-8.7
			C-19,128.9-15,132.8-15,137.6C-15,137.6-15,137.6-15,137.6z"/>
	</g>
</g>
<g>
	<path class="st7" d="M-37.5,383.1c-0.5-3.1-2.4-5.1-5-6.5c-3.4-1.8-6.9-3.5-10.4-5.3c-0.5-0.3-0.7-0.1-0.9,0.3
		c-0.5,1.1-1.1,2.2-1.7,3.3c-3.6,7.1-7.2,14.2-10.8,21.3c-0.3,0.6-0.3,0.8,0.3,1.1c1.4,0.6,2.7,1.3,4.1,2c0.6,0.4,0.9,0.2,1.2-0.4
		c1.5-3,3-5.9,4.5-8.9c0.3-0.5,0.5-0.6,1-0.3c0.8,0.4,1.6,0.8,2.4,1.2c0.4,0.2,0.6,0.4,0.5,0.8c-0.2,0.9-0.1,1.9-0.1,2.9
		c-0.1,2.8-0.2,5.7-0.3,8.5c0,0.4-0.1,0.7,0.3,1c1.9,0.9,3.7,1.9,5.8,2.9c0-0.6,0-1,0-1.4c0-4,0.1-8,0.1-12c0-0.6,0.1-0.9,0.8-0.9
		C-40.6,392.9-36.7,388.1-37.5,383.1z M-43.8,385c-0.6,1.7-1.6,2.5-3.1,2.5c-0.9,0-1.8-0.3-2.6-0.7c-1.2-0.5-2.3-1.2-3.5-1.7
		c-0.5-0.2-0.5-0.4-0.3-0.9c0.9-1.7,1.8-3.5,2.7-5.2c0.1-0.3,0.3-0.5,0.6-0.3c1.6,0.9,3.4,1.5,4.9,2.7
		C-43.7,382.3-43.3,383.6-43.8,385z"/>
	<path class="st7" d="M-124.9,383.2c0.1,3.2-0.6,5.9-2.5,8.3c-1.9,2.4-4.6,3.6-7.6,4.1c-5.9,1.1-10.5-1.8-12.9-7
		c-1.5-3.2-2.3-6.6-2.4-10.2c-0.3-6.1,3.1-10.7,9-12.1c3.1-0.8,6.2-0.7,9,1c2.5,1.5,4,3.7,5.2,6.4
		C-125.7,376.9-124.9,380.3-124.9,383.2z M-130.9,384.1c-0.2-3.5-0.9-6.8-2.6-9.8c-1.4-2.5-3.3-3.5-5.8-3.1
		c-2.9,0.5-4.5,2.2-4.8,5.2c-0.1,1.3,0,2.6,0.2,3.8c0.5,2.8,1.2,5.5,2.9,7.9c1.4,1.9,3.2,2.6,5.5,2.1c2.3-0.5,3.9-1.8,4.3-4.2
		C-131,385.4-131,384.7-130.9,384.1z"/>
	<path class="st7" d="M-111.9,373.7c1.2-1.7,2.4-3.4,3.6-5.1c1.5-2.1,2.9-4.1,4.4-6.2c0.3-0.4,0.6-0.6,1-0.6c2.1,0,4.3,0,6.4,0
		c-1.1,1.5-2.3,3.2-3.4,4.9c-1.3,1.9-2.6,3.8-4,5.6c-0.3,0.5-0.3,0.8-0.1,1.3c3.2,5.3,6.3,10.6,9.4,15.9c0.1,0.2,0.2,0.4,0.3,0.6
		c0.2,0.4,0.1,0.5-0.3,0.6c-2.1,0.1-4.1,0.1-6.2,0.2c-0.4,0-0.5-0.3-0.6-0.5c-2.2-3.8-4.3-7.7-6.5-11.5c-0.5-0.9-0.5-0.9-1.1-0.1
		c-0.4,0.6-0.8,1.2-1.3,1.7c-1.6,1.4-1.6,3.2-1.4,5.2c0.1,1.7,0.1,3.5,0.2,5.2c0,0.4-0.1,0.4-0.4,0.4c-1.7,0-3.4,0.1-5.1,0.2
		c-0.4,0-0.6-0.1-0.6-0.6c-0.1-3.3-0.2-6.6-0.3-9.8c-0.2-4.8-0.3-9.7-0.5-14.5c0-1.2-0.1-2.4-0.1-3.5c0-0.4,0.1-0.7,0.6-0.7
		c1.6,0,3.1-0.1,4.7-0.2c0.6,0,0.9,0.2,0.9,0.8c0.1,3.1,0.2,6.1,0.3,9.2C-112.1,372.6-112.1,373.1-111.9,373.7z"/>
	<path class="st7" d="M-65.3,367.2c-0.3,1.6-0.6,3-0.9,4.4c-0.1,0.6-0.4,0.4-0.8,0.3c-2.8-0.6-5.6-1.2-8.4-1.8
		c-1.1-0.2-2.2-0.4-3.3-0.7c-0.5-0.1-0.8,0-0.9,0.5c-0.3,1.5-0.6,3.1-1,4.6c-0.1,0.5,0.1,0.7,0.5,0.8c2.7,0.5,5.3,1.1,8,1.7
		c0.6,0.1,0.9,0.3,0.7,1c-0.3,1.2-0.6,2.5-0.8,3.7c-0.1,0.5-0.3,0.6-0.8,0.5c-2.6-0.6-5.2-1.1-7.7-1.6c-1.1-0.2-1.1-0.2-1.4,0.9
		c-0.4,1.8-0.7,3.6-1.1,5.3c-0.1,0.5,0,0.7,0.6,0.8c4,0.8,8,1.7,11.9,2.5c0.7,0.1,0.9,0.3,0.7,1.1c-0.3,1.2-0.5,2.4-0.8,3.6
		c-0.1,0.5-0.2,0.6-0.8,0.5c-6.1-1.3-12.2-2.6-18.3-3.8c-0.6-0.1-0.6-0.3-0.5-0.9c1.6-7.4,3.1-14.9,4.7-22.3c0.3-1.6,0.7-3.1,1-4.7
		c0.1-0.7,0.4-0.8,1-0.6c5.9,1.2,11.7,2.5,17.6,3.7C-65.6,366.9-65.2,366.8-65.3,367.2z"/>
	<path class="st7" d="M-152.9,396.8c-0.1,3-1.7,4.9-4.2,6.3c-2.9,1.5-5.7,1.4-8.5-0.2c-0.5-0.3-0.7-0.5-0.3-1.1
		c0.7-1.1,1.4-2.3,2-3.5c0.2-0.4,0.4-0.5,0.9-0.2c0.6,0.4,1.2,0.8,2,0.8c1.4-0.1,2.2-1,1.9-2.4c-0.4-1.5-1.1-2.8-1.7-4.2
		c-2.2-5.3-4.5-10.6-6.8-15.9c-0.2-0.6-0.2-0.8,0.4-1.1c1.4-0.6,2.8-1.2,4.3-1.8c0.5-0.2,0.8-0.2,1,0.4c2.7,6.4,5.5,12.8,8.2,19.2
		C-153.2,394.3-152.8,395.5-152.9,396.8z"/>
</g>
<path class="st8" d="M-56.1,467.3c1.7,0,3.3,0,4.9,0"/>
<path class="st8" d="M-57.6,456.2C-57.7,456.2-57.7,456.2-57.6,456.2c-0.1,0.9-0.1,1.7,0,2.6c0,0,0,0,0.1,0c0.3,0.1,0.5,0.1,0.8,0.2
	c2.7,0.1,5.5,0.2,8.2,0.3c0,0.4-0.1,0.9-0.1,1.3c-2.7-0.5-5.4-1.1-8.1-1.6c-0.3,0-0.6,0-0.9,0c0,0,0-0.1,0-0.1c-3.1,1-3.4,0.8-3-3
	c-0.4-0.1-0.9-0.1-1.3-0.3c-0.3-0.2-0.5-0.6-0.7-0.9c0.3-0.2,1-0.6,1-0.6c0.7,1,3-0.3,2.9,2C-58.9,456.1-58.2,456.1-57.6,456.2
	C-57.7,456.2-57.7,456.1-57.6,456.2c0-0.1,0.1,0,0.3,0c2.8-0.2,5.7-0.4,8.6-0.5c0-0.1-0.1-0.4-0.1-0.8c1.4,0.3,2.7,0.6,3.9,0.8
	c0.1-0.4,0.2-0.8,0.2-1.1c-4.5-1.2-9-2.4-13.6-3.7c0.1-2.2,2.4-2.6,4.2-3.5c1.8-0.9,2.1-2.1,1.9-3.9c-0.1-0.9,0.3-2.1,0.8-2.9
	c0.7-1,2.1-1.6,2.7-2.6c1.5-2.3,6.6-2.5,4.2-7.1c1.9-2.9-1.1-3.5-2.4-4.7c-1.4-1.3-2.8-1-3.7,0.7c-0.9,1.7-1.8,3.3-2.8,5
	c-2.3,4.1-4,4.9-9.4,3.8c1.7-1.2,3-2.1,4.3-3c-2.1,0.7-5.3-0.9-5.8,3.1c-3.9-0.3-0.3-3.1-1.8-4.6c-1.3,1.3-2.7,2.5-4.4,4.2
	c-0.2-0.9-0.5-1.6-0.4-2.2c0.2-0.8,0.8-1.6,1.2-2.4c2.3-4.2,4.7-8.3,6.9-12.5c1.4-2.6-0.8-3.8-2.4-5c-1.7-1.2-3.4-1.1-4.6,0.9
	c-2.3,3.6-4.7,7.2-6.8,11c-1.1,1.9-1.9,2.7-4.1,1.4c-2.6-1.5-5.3-2.8-8.1-3.7c-15.3-4.8-30.1-3.1-43.6,5.4
	c-14.2,9-22.7,21.6-23.2,39.1c-0.3,9.9,2.8,18.6,7.5,26.9c3.6,6.3,8.9,11.1,15.1,15.1c17.1,10.9,39.6,10.8,56.4-0.8
	c2-1.4,3.3-3.6,5.3-4.9c4.2-2.9,7.5-6.7,9.7-11.1c2.6-5.3,4.1-11.1,6.1-16.7c0.1-0.2,0.1-0.5,0.1-0.8c0.4-3.2,1-3.8,4.2-3.9
	c0.9,0,1.9-0.2,2.8-0.4c0-0.3-0.1-0.6-0.1-0.9c-0.9,0.1-1.8,0.3-2.6,0.3c-0.9,0.1-1.8,0-2.8,0c0-0.3,0-0.6-0.1-0.9
	c1.8-0.2,3.7-0.4,5.5-0.5c-2.7-1.1-6.4,1-8.4-3.1c-0.8,0.2-1.6,0.3-2.4,0.5c-0.4,0.1-0.9-0.2-1.4-0.3c0.1-0.5,0.1-1.3,0.4-1.4
	c1.2-0.5,2.5-1.1,3.7-1.1c3,0,6.1,0.3,9.1,0.4c0-0.2,0-0.4,0-0.6c-3.9-0.4-7.9-0.8-11.8-1.2c0-0.3,0.1-0.7,0.1-1
	c4.1-0.2,8.1,1,12.3,1.1c0.1-0.6,0.2-1.3,0.3-2c0.6,0.1,0.9,0.1,1.3,0.1c0.4,0,0.8,0,1.3,0c-4-3.2-8.8-3-13.4-3.8
	C-57.5,456.2-57.6,456.2-57.6,456.2z M-47,429.2c0.2,1.1,0.6,2.2,0.3,2.6c-1.1,1.2-1.8,3.2-4.6,2.9C-49.8,432.8-48.6,431.3-47,429.2
	z M-52.3,436.1c0.3,0.3,0.6,0.6,0.9,1c-1.1,1-2.2,2-3.2,3c-0.3-0.3-0.6-0.6-0.9-0.9C-54.5,438.2-53.4,437.2-52.3,436.1z
	 M-59.7,446.8c-1.4,0.9-2.9,1.9-4.7,3c0.3-1.6,0.5-2.7,0.8-4.2c1.1,0.1,2.5,0.1,3.8,0.2C-59.7,446.2-59.7,446.5-59.7,446.8z
	 M-72.8,472.4c3.1-1.2,4.3,2.1,6.6,2.9c-0.1,0.2-0.2,0.4-0.3,0.7c-2.2-0.8-4.4-1.7-6.6-2.5C-73,473.1-72.9,472.7-72.8,472.4z
	 M-73.4,465.7c-1.8,1.2-3.7,1.8-5.8,0.9c-0.1-0.3-0.2-0.6-0.3-0.9c1.8-0.8,3.5-1.7,5.3-2.4c0.3-0.1,1.1,0.4,1.2,0.8
	C-72.9,464.6-73.1,465.5-73.4,465.7z M-72.7,462.4c3.4-0.9,6.4-1.6,9.6-2.4C-64.2,463-70,464.5-72.7,462.4z M-67.3,444.1
	c-0.7-1.1-1.6-2.3-2.8-4.1c3.4,0.8,6,1.5,8.7,2.2c0,0.3,0,0.7,0,1C-63.4,443.5-65.4,443.8-67.3,444.1z M-57.9,438.6
	c-2.6,2.4-11.1,0.8-13.7-2.7C-67.2,436.8-62.8,437.6-57.9,438.6z M-68.1,417.1c0.3-0.3,1.1-0.3,1.6-0.4c0.1,0.5,0.4,1.2,0.1,1.5
	c-0.9,1.2-1.3,3.4-3.9,2.4C-69.4,419.2-68.8,418.1-68.1,417.1z M-72.9,425.4c0.7-1.1,1.6-2.2,2.5-3.3c0.4,0.4,0.8,0.8,1.4,1.5
	c-1.1,1.2-2.1,2.1-3,3.1C-72.4,426.2-73.1,425.5-72.9,425.4z M-74.4,428c0.3-0.3,1.3,0.1,2,0.2c-0.5,1.2-0.9,2.5-1.7,3.5
	c-0.4,0.5-1.6,0.3-2.4,0.4c-0.1-0.2-0.2-0.5-0.3-0.7C-76,430.3-75.3,429.1-74.4,428z M-80.8,429.6c0.3,0.4,0.1,1.1,0.1,1.7
	c-0.6,0-1.3,0.1-1.7-0.2c-1.2-0.9-2.2-2-3.4-3.1C-83.3,426.7-81.9,427.7-80.8,429.6z M-87.2,430.1c0.8,0.1,1.6,0.6,3.2,1.3
	c-1.5,0.7-2.2,1.3-2.7,1.2c-0.8-0.2-1.4-1-2.1-1.6C-88.3,430.7-87.7,430.1-87.2,430.1z M-89,434.6c0.4,0.1,0.6,0.9,0.8,1.4
	c-1.4,0.5-2.9,1-4.9,1.7C-92,435.1-91,433.8-89,434.6z M-100.2,422.7c0.7,0.7,1.5,1.4,2,2.2c0.2,0.3-0.4,1-0.9,2.1
	c-0.9-1.5-1.6-2.4-2.1-3.3C-101.2,423.5-100.5,423-100.2,422.7z M-101.8,431.6C-101.8,431.6-101.8,431.6-101.8,431.6
	C-101.8,431.6-101.8,431.6-101.8,431.6C-101.8,431.6-101.8,431.6-101.8,431.6c1.1,0.6,2.3,1.2,3.7,1.9c-2.9,2.1-10.1,3.3-12.3,2.2
	C-107.4,434.3-104.6,432.9-101.8,431.6C-101.8,431.6-101.8,431.6-101.8,431.6c-2.3,0.4-4.5,0.9-6.9,1.1c-1.3,0.1-2.7-0.5-4.1-0.7
	c0-0.4,0-0.8,0.1-1.2c2.3-0.4,4.6-0.7,6.8-1.1c0-0.2,0-0.4,0-0.7c-1.3,0-2.6,0-3.9,0c-0.7,0-1.5,0.1-2.1-0.2
	c-1.1-0.5-2.1-1.2-3.1-1.9c1-0.2,2-0.5,3.1-0.6c1.4-0.2,2.9-0.1,4.3-0.3C-104.1,425.5-101.6,427.8-101.8,431.6z M-115.4,423.2
	c3.3-0.1,6.7-0.2,10-0.2c0,0,0.1,0.3,0.3,1.2c-3.4,0.3-6.5,0.5-9.7,0.7c-0.4,0-0.8-0.5-1.1-0.9C-116,423.9-115.6,423.2-115.4,423.2z
	 M-150.7,455.4c2.8-8.4,7.5-15.4,14.2-21.2c1.9-1.6,3.2-1.4,4.8,0.3c0.6,0.7,1.5,1.3,2.2,1.9c-0.6,1-1.2,2-2,3.1
	c0.1,0.1,0.5,0.6,1.3,1.7c-1.8-0.7-3-1.2-4.7-1.9c1.6,1.9,2.8,3.3,3.9,4.7c-0.3,0.2-0.5,0.4-0.8,0.7c-0.5-0.5-1.1-1-1.8-1.6
	c-1.8,1.9-3.4,0.9-5.3-0.5c0.4,0.7,0.7,1.4,1.3,2.5c-1.1-0.3-1.8-0.5-2.8-0.8c0.2,0.8,0.4,1.4,0.8,2.5c-1.2-0.4-1.8-0.7-2.7-1
	c0,0.6,0,1,0,1.5c-3.2-0.1-3.2,0.7-2.9,3.9c0.2,2,3.1,3.6,1.1,5.9c0.7,0.4,1.3,0.7,2.4,1.3c-0.3,0.4-0.9,1.2-1.1,1.5
	c-2.3-1.1-4.1-2-5.9-2.9c-0.2,0.1-0.3,0.3-0.5,0.4c0.6,0.9,1.1,1.9,2.1,3.5c-1.2-0.6-1.8-0.9-2.2-1.2c-0.6,0.7-1.2,1.3-1.8,1.9
	c-0.3-0.8-0.9-1.7-0.9-2.5C-151.6,457.8-151.1,456.6-150.7,455.4z M-99.8,511.2c-0.2,1.8-0.6,2.7-2.4,2.7c-2.3,0-4.6,0-6.9,0
	c-0.1-0.3-0.2-0.5-0.4-0.8c0.9-0.9,1.8-1.7,2.6-2.7c0.4-0.4,0.9-0.9,1-1.5c0.4-1.7-1.8-6-3.2-6.3c-2.4-0.5-5.4,1.7-6,4.4
	c-0.2,1.1-0.4,2.3-0.6,3.5c-0.2,1.8-1.3,2.2-2.9,1.6c-8.8-2.8-16.8-7.1-22.9-14.2c-2.1-2.5-4-5.2-6.3-8.3c0.1,0,0.2,0,0.3,0
	c-0.4-0.5-0.6-1-0.4-1.6c-0.1,0-0.2,0.1-0.2,0.1c1.2-3.5,3.7-4.8,6.6-4.1c0.4-2.8-0.7-4.4-3.3-4.6c-1.3-0.1-2.7-0.3-3.8,0.2
	c-2.5,1-3.2-0.4-3.4-2.3c-0.4-3.2-0.5-6.5-0.8-9.7c-0.1-1.6,0.5-2.1,2.2-2.3c3.9-0.4,8-0.8,10.4-4.7c1.6-2.6,1.9-5.3,1.1-8.2
	c-0.5-1.9-0.4-3,1.9-2.9c5.4,0.3,12-7.4,9.7-13c-0.7-1.7-0.9-3.6-1.5-5.4c-0.5-1.7-0.2-2.8,1.5-3.4c1.9-0.7,3.7-1.4,5.5-2.2
	c1.9-0.8,3.1,0,3.3,1.8c0.6,4.5,3.3,7.3,6.9,9.4c3.6,2.2,7.4,4.2,11,6.3c0,0,0,0,0,0c0,0-0.1,0-0.1-0.1c0,0,0.1,0,0.1,0
	c-0.2-1.2-0.2-2,1.4-2.1c0.9,0,1.8-0.4,2.6-0.9c-2.9-0.7-6.3,1-9.1-2.6c2.6-0.5,4.8-0.5,6.7-1.4c1.7-0.8,3.1-2.4,4.6-3.7
	c-0.2-0.2-0.3-0.4-0.5-0.6c0.2-0.1,0.3-0.2,0.5-0.2c1.1,0.3,2.2,0.7,3.4,1.1c-1,0.8-1.9,1.7-2.9,2.4c-0.6,0.4-1.4,0.6-2.4,0.9
	c1,1.7,2.1,3.2,2.8,4.8c0.2,0.5-0.4,1.6-0.9,2c-1.9,1.5-4,0.9-6.1,0.4c0,0,0,0,0,0.1c2.9,2.3,4.2,2.3,7.7,0.6c2.2-1.1,4.7-1.9,7-2.8
	c0.5-0.5,0.9-1.1,1.4-1.5c2.4-1.9,4.7-3.7,7.3-5.6c1,1.1,2.2,2.7-0.5,4.5c0.8,0.5,1.3,0.8,2.3,1.4c-1.2,0.8-2.1,1.4-2.9,2.1
	c-0.6,0.5-1.1,1.2-1.6,1.8c0.8,0.3,1.7,0.8,2.5,0.7c1.2-0.1,2.4-0.7,3.6-1c3-0.6,5.4,1,5.9,3.9c0.1,0.4-0.3,1.1-0.7,1.3
	c-1.1,0.4-2.3,0.9-3.4,0.8c-1.2-0.1-2.3-0.8-3.4-1.2c-1,1.7-1.8,3.1-2.6,4.5c1.4,0.9,3.7,0.7,3.8,3.2c0,0.1,1.7,0.2,2.6,0.1
	c1.6-0.2,3.3-0.4,4.9-0.7c0,0.3,0.1,0.6,0.1,0.9c-4.8,1.5-9.7,2.9-14.5,4.4c0.6,3.2,0.6,3.2-3.8,5.4c0.7,0.2,1.4,0.4,2.2,0.7
	c-0.1,0.2-0.3,0.4-0.4,0.6c-1.7-0.2-3.4-0.5-5.4-0.7c1.2,0.7,2,1.5,2.7,2.7c0.5,0.2,0.9,0.3,1.4,0.4c-1.1,2.3-2.1,2.4-6,1.8
	c1.7,0.6,3.4,1.7,5.2,1.8c5.3,0.5,8.5,3.4,10.6,8.3c-0.9,0.3-1.8,0.6-2.2,0.7c-1.4-2-2.4-3.8-3.8-5.1c-1.3-1.2-3-0.5-2.8,1.2
	c1,8.5-5.5,12.8-9.8,18.4c-1.6,2.1-3.9,3.8-4.9,6C-99,505.3-99.5,508.3-99.8,511.2z M-92.6,506.8c1.8-0.5,3.3-1.7,5-2.5
	c-0.2-0.3-0.3-0.7-0.5-1c-1.2,0.4-2.3,1-3.5,1.3c-0.7,0.2-1.5,0-2.2,0c0.2-0.8,0.3-1.8,0.8-2.4c0.6-0.6,1.5-0.9,2.4-1.2
	c1.6-0.6,2.7-1.4,1.8-3.4c-0.2-0.4-0.2-1,0-1.2c2.7-3.1,5.4-6.1,8.2-9.2c1.4,2.3,1.3,2.4-0.4,4.5c0,1.7,0,3,0,4.2
	c0,0.3,0.3,0.6,0.3,0.9c0,1,0.3,2.3-0.2,2.9c-4,4.7-8.4,9-14.1,12.4C-95.7,509.3-95.4,507.6-92.6,506.8z M-81.8,508.4
	c-1.5,0.8-3,1.7-4.5,2.4c-0.6,0.3-1.4,0.1-2.7,0.3c3-3.6,5.5-6.6,8-9.6C-78.2,505.1-78.4,506.4-81.8,508.4z M-77.8,489.7
	c2.2-3.2,3.1-3.2,5.3-0.3C-74.3,489.4-75.8,489.5-77.8,489.7z M-70.9,479.8c-2.6-1-4.8-1.8-4.5-5.1
	C-72.8,475.3-70.7,476.1-70.9,479.8z M-65.7,482.3c-2.6-1.4-4.4-3.2-5.2-6.6c1.9,1.1,3.4,1.9,4.9,2.7c1.4,0.8,2.8,1.5,4.2,2.3
	C-62.4,483.4-63.7,483.4-65.7,482.3z M-59.3,475.5c-3.3-1.4-6.5-2.8-9.8-4.2c0.2-0.4,0.4-0.9,0.6-1.3c3.3,1.5,6.6,3,9.8,4.5
	C-58.9,474.8-59.1,475.2-59.3,475.5z M-66.3,467.8c2.2,0.9,4.4,1.8,7,2.9C-61.8,471.8-65.3,470.6-66.3,467.8z M-57.2,470.2
	c-2.9-1.3-5.6-2.4-8.7-3.8C-63.5,465.4-57.6,468.1-57.2,470.2z"/>
<path class="st9" d="M-135.6,492.7c1.9,2.2,5,3.3,7.6,4.9c0.5,0.3,1.2,0.4,1.7,0.8c5.4,4.7,10.9,3.5,15.7-0.6
	c4.1-3.5,8.4-5.3,13.8-4.9c-2.5-2.1-5.5-2.5-8.4-2.1c-2.4,0.3-4.7,1.7-7,2.6c-1.9,0.7-3.8,1.7-5.8,2.1c-1,0.2-3.2-0.9-3.2-1.3
	c0.1-1.8,1.3-3.1,3.3-3.1c1.2,0,2.5,0.2,4,0c-0.8-0.6-1.7-1.2-3.2-2.2c2.5,0.8,4.2,1.1,3.1-1.8c-0.1-0.4,0.8-1.2,1.2-1.7
	c1.7,0.9,3.3,1.7,4.8,2.6c0.3-0.3,0.6-0.7,0.9-1c-1.2-0.6-2.5-1.1-3.7-1.7c0.3-0.3,0.6-0.7,0.8-1c1.6,1.1,3.3,2.1,4.9,3.2
	c0.1-0.2,0.3-0.3,0.4-0.5c-1-1.2-1.9-2.4-2.9-3.7c0.2-0.2,0.4-0.4,0.5-0.6c2,0.7,3.9,1.5,5.9,2.2c0.1-0.2,0.2-0.4,0.3-0.5
	c-0.7-0.9-1.5-1.7-2.2-2.6c0.2-0.1,0.3-0.3,0.5-0.4c1.5,1,3,2,4.5,3c0.2-0.2,0.4-0.5,0.6-0.7c-0.6-0.6-1.3-1.1-1.7-1.8
	c-0.3-0.4-0.2-1.1-0.3-1.6c0.6,0,1.2,0,1.7,0.1c1.2,0.3,2.4,0.8,3.6,1.2c0.1-0.3,0.2-0.6,0.3-0.9c-0.5-0.4-1.1-0.8-1.6-1.2
	c-0.8-0.6-1.5-1.2-2.2-1.8c1.2-0.7,2.3-1.8,3.5-2c1.4-0.2,2.9,0.4,4.3,0.6c0.1-0.2,0.1-0.4,0.2-0.7c-0.9-0.4-1.9-0.8-2.8-1.3
	c-0.6-0.4-1.4-1.5-1.4-1.5c1.4-1.5,2.7-3.5,4.4-4.1c1.1-0.4,2.6,0.2,4,0.7c-0.7-1.2-1.5-2-2.7-2.7c-0.3,0-0.7-0.1-1.1-0.1
	c1.4-1.9,2.6-3.6,4.1-5.6c-1,0.1-1.7-0.1-2.2,0.2c-2.9,1.3-5.6,2.8-7.4,5.8c-1.2,2.1-3,3.8-4.7,5.9c-0.5-0.7-0.7-2.6-0.8-2.7
	c-6.7,3.6-10.5,5.4-13.1,2.8c-2.3-3.1-0.8-4.6-0.6-7.7c0,0-0.1,0-0.1,0c0,0,0,0,0,0c-4.1,3.5-8.2,4.3-11.6,2.1
	c-1-0.6-1.2-0.9-1.7-1.9c-0.7-1.7,0-3,0.4-3.6c1.6-2.3,4.4-5.4,4.5-8.9c1.6,5.4,5.8,6.3,8.5,8.5c1.5,1.3,0.2,2.6-0.2,3.9
	c0,0,0.1,0,0.1-0.1c0,0,0,0,0,0.1c1.9-1.6,5.2-3.5,8.4-3.2c4.7,0.4,3.8-1.7,2.1-3.7c-0.9-1.1-0.8-1.7,0.4-2.6c4.2-3,8.3-6,12.3-9.1
	c0.4-0.3,0.7-0.9,0.7-1.9c-0.8,0.3-1.7,0.7-2.5,0.9c-1.9,0.4-3.8,1-5.6,0.9c-3.3-0.2-7.1,1.7-8.5,4.7c-0.2,0.5-0.7,1-1.2,1.3
	c-1.4,0.8-2.9,1.5-4.4,2.1c-1,0.4-2.2,2.5-3.3,0c-0.1-0.1-1.2,0.2-2.5,0.4c1.2-1,1.9-1.5,2.6-2.1c0.6-0.5,1.2-1,1.7-1.9
	c-2.1,1-4.1,2.1-6.2,3.1c-0.2-0.2-0.3-0.4-0.5-0.6c1.6-1.2,3.2-2.4,4.9-3.5c0-0.1-0.1-0.2-0.1-0.3c-1.6,0.7-3.2,1.3-4.8,2
	c-0.2-0.3-0.4-0.6-0.6-0.9c1.4-1,2.9-1.9,4.3-2.9c0-0.1-0.1-0.3-0.1-0.4c-1.6,0.5-3.1,1.1-5.5,1.8c1.2-2,2.1-3.4,3.4-5.5
	c-1,0.5-1.4,0.5-1.6,0.8c-4.3,4.9-7.7,10.2-8.8,16.8c-0.7,4.4,0.2,8.5,3.3,11.9c1.1,1.2,1.2,2.7-0.2,3.5c-1.8,1-3.9,1.9-6,2.1
	c-3.1,0.4-4.3,0.8-6.7,4.2c4.6-2.2,7.6-0.9,10.1,2.5c-2.4,1.6-4.5,3-6.9,4.6c-3.3-3.1-7.2-4.6-12-1.7c-0.2,0.6,0,1.1,0.4,1.6
	C-142.5,489.2-138.8,488.9-135.6,492.7z M-99.3,448.7c0.4,0.1,0.6,0.5,1.2,1c-1,0.9-1.7,1.7-2.6,2.4c-0.8,0.6-1.7,1.1-2.6,1.2
	c-0.4,0.1-1.3-0.8-1.3-1.3C-104.7,450.2-101,448-99.3,448.7z M-106.8,455.1c0.1,0.3,0.3,0.6,0.4,1c-2.3,1.1-4.5,2.2-6.8,3.3
	c-0.2-0.3-0.3-0.7-0.5-1C-111.4,457.3-109.1,456.2-106.8,455.1z M-112.5,495.3c1-0.4,1.9-0.9,3.4-1.6c-3.8,4.9-9.9,6.5-14.4,4.3
	c-0.5-0.2-0.6-1-1-1.5c0.5-0.1,1.2-0.4,1.6-0.2C-119.1,498.4-115.8,496.5-112.5,495.3z M-125.3,471.1c1.7-0.1,2.3-3.2,4.5-1
	c-0.8,1.5-1.6,2.9-2.6,4.7C-124.1,473.5-124.6,472.4-125.3,471.1z M-125,483.7c1.5-0.3,3.1-0.5,5.4-0.8c-1.3-0.8-1.9-1.3-3.3-2.1
	c2.5-0.4,4.4-0.7,6.2-0.9c0.2-0.2,0.3-0.4,0.5-0.6c-0.7-0.3-1.4-0.6-2.1-0.9c0.1-0.2,0.2-0.4,0.4-0.6c0.4,0,0.9-0.1,1.2,0
	c1.4,0.8,2.6,1.1,3.8-0.4c0.4-0.4,1.3-0.3,2-0.5c2.1-0.6,4.3-1.3,6.4-1.8c0.8-0.2,1.7,0.3,2.6,0.4c-0.3,0.8-0.4,2-1,2.4
	c-0.9,0.6-2.1,0.9-3.3,1.1c-3.4,0.4-6.2,1.9-8.6,4.4c-2,2-4,4.1-6.3,5.4c-1.3,0.8-3.4,0.1-5.2,0.1c-0.1-0.4-0.1-0.9-0.2-1.3
	c1.1-0.4,2.1-0.8,3.2-1.3c0-0.2,0-0.3,0-0.5c-0.6-0.1-1.3-0.1-1.9-0.3c-0.6-0.2-1-0.7-1.5-1.1C-126,484.2-125.5,483.8-125,483.7z"/>
<path class="st9" d="M-48,473.6c-2.1-0.1-4-0.8-4.7,2.6c-0.9,4.6-2.2,9.3-4.2,13.6c-2.2,4.6-4.9,8.8-8.5,12.7
	c-6.6,7-14.5,11.4-23.3,14.7c-7.5,2.7-15.2,2.7-23,2c-9-0.9-17.1-4.2-24.5-9.3c-7.4-5.1-13-11.8-17-20c-4-8.2-5.6-16.9-4.9-26
	c0.4-5.9,2.3-11.3,4.8-16.8c3.6-7.8,8.8-14,15.7-18.9c14.5-10.4,30.4-13.1,47.6-8.7c3.4,0.9,6.6,2.2,10.2,3.5
	c1.1-1.5,2.2-3.1,3.4-4.9c-0.8-0.5-1.1-0.8-1.6-1c-2.4-1-4.8-2-7.3-2.8c-21.9-7.1-41.7-3-59.4,11.3c-8.7,7-14.3,16.3-17.9,26.9
	c-2.9,8.4-3.2,17.1-1.6,25.7c2.4,12.5,8.9,22.9,17,32.4c1,1.2,2,2.3,3.3,3.2c6.7,5,14.1,8,22.2,10.1c13.8,3.4,27.3,3,40.3-2.5
	c13.1-5.6,23.4-14.5,29.9-27.4c2.7-5.3,4.9-10.9,5.2-16.9C-46.2,475.7-45.4,473.6-48,473.6z"/>
<path class="st9" d="M-77.8,452.4c0.1,0.5,0.1,1.1,0.3,1.6c1.7,3.7,1.4,4.1-3.2,4.6c1.2-0.9,2.2-1.7,3.2-2.4
	c-0.1-0.2-0.1-0.3-0.2-0.5c-4.6,1.3-9.2,2.6-13.7,4c-0.5,0.1-0.9,0.6-1.2,1c-2.2,3-4.3,6-6.5,9.1c-0.3-0.2-0.6-0.3-0.8-0.5
	c1.2-2.7,2.3-5.4,3.6-8.5c-1.6,0.1-3.2,0.2-4.8,0.3c-0.1-0.2-0.1-0.3-0.2-0.5c4-2.1,7.9-4.2,12.7-6.8c-0.8,1.5-1.2,2.3-1.9,3.8
	c1.9-0.2,3.6-0.4,5.3-0.5c-1-1.5-1.8-2.6-2.9-4.2c1.5-0.7,3.1-1.4,4.9-2.2c0.5,0.7,1,1.4,1.6,2.2c0.6-0.5,1.1-1,1.7-1.4
	c0.7,0.3,1.5,0.6,2.2,0.9C-77.8,452.5-77.8,452.4-77.8,452.4z"/>
<path class="st8" d="M-110.9,467.9c1.6-3,5.5-2.8,8.5-4c-1.2,3.7-2.8,6.7-6.2,7.3C-110.4,471.4-111.8,469.5-110.9,467.9z"/>
<path class="st9" d="M-91.5,450.1c1.8-1.1,2.4,0.6,1.1,1.6c-1.1,0.8-8.7,6.1-9.8,6.6c-0.9,0.4-1.1-1.6,0.1-2.3L-91.5,450.1z"/>
<path class="st8" d="M-85.7,443.9c0.8,0.4,1.5,0.7,2.6,1.2c0.3-0.2,1.2-0.8,2.5-1.7c-0.1,1.4-0.1,2.2-0.2,3.3c-1.3,0-2.4,0-3.5,0
	c-0.8,0-1.6-0.2-2.4-0.3C-86.4,445.6-86,444.7-85.7,443.9C-85.7,443.9-85.7,443.9-85.7,443.9z"/>
<path class="st8" d="M-82.9,500.8c-1.2,1.5-2.4,3-3.6,4.6"/>
<path class="st8" d="M-118.5,463.1c0,2.2-2.2,3.3-3.4,3.1c-1.3,0-2.1-0.8-1.9-2.9c0.2-2.8,2.1-5.7,2.1-5.7c0.6,1.3,1.1,2.6,1.9,3
	C-119.1,461-118.6,462.4-118.5,463.1z"/>
</svg>
