<?xml version="1.0" encoding="utf-8"?>
<!-- Generator: Adobe Illustrator 19.0.0, SVG Export Plug-In . SVG Version: 6.00 Build 0)  -->
<svg version="1.1"
	 id="svg2985" xmlns:dc="http://purl.org/dc/elements/1.1/" xmlns:cc="http://creativecommons.org/ns#" xmlns:rdf="http://www.w3.org/1999/02/22-rdf-syntax-ns#" xmlns:svg="http://www.w3.org/2000/svg"
	 xmlns="http://www.w3.org/2000/svg" xmlns:xlink="http://www.w3.org/1999/xlink" x="0px" y="0px" viewBox="-192 293.9 210 255"
	 style="enable-background:new -192 293.9 210 255;" xml:space="preserve">
<style type="text/css">
	.st0{enable-background:new    ;}
	.st1{fill:#005F00;}
	.st2{fill:#CDDACD;}
	.st3{fill:#FFFFFF;}
	.st4{fill:url(#rect3008_1_);}
	.st5{filter:url(#filter3970-5);}
	.st6{fill:url(#SVGID_1_);}
	.st7{fill:#2A3B92;}
</style>
<filter  height="1.2150326" width="1.2171124" id="filter3970-5" x="-0.10855621" y="-0.10751629" color-interpolation-filters="sRGB">
	<feGaussianBlur  id="feGaussianBlur3972-8" stdDeviation="0.12800763"></feGaussianBlur>
</filter>
<g id="g4146" transform="translate(39.768324,209.71794)">
</g>
<g id="g4630" transform="matrix(1.0005937,0,0,1,-1.3758072,203.40625)" class="st0">
	<g id="g3062">
		<path id="rect4031" d="M-131.2,90.5l46.1,0.2l68.4-0.2c22.9-0.1,36.1,15.9,36.1,40.4v154.6c0,12.3-14,27.7-21.4,35.7
			s-22.1,24.3-33.6,24.3h-113c-22.9,0-41.3-5.6-41.3-30.2l-0.3-162.3c0-6.4,17.3-24.3,24.8-32.4C-158,112.6-142.7,90.4-131.2,90.5
			L-131.2,90.5z"/>
		<path id="rect3767" class="st1" d="M-122.4,103.2h104.5c13.8,0,24.8,11.1,24.9,24.9l0.9,152.4c0,2-12.6,32-25.8,32h-104.5
			c-13.8,0-24.9-11.1-24.9-24.9V128.1C-147.3,114.3-136.2,103.2-122.4,103.2L-122.4,103.2z"/>
		<path id="rect3861" class="st2" d="M-137.4,118.1h99.6c13.7,0,24.9,11.2,24.9,24.9v159.5c0,13.8-11.1,24.9-24.9,24.9h-99.6
			c-13.7,0-24.9-11.2-24.9-24.9V143.1C-162.3,129.3-151.1,118.1-137.4,118.1z"/>
		<path id="rect3765" class="st3" d="M-147.3,133.1h104.5c13.7,0,24.9,11.2,24.9,24.9v149.5c0,13.8-11.1,24.9-24.9,24.9h-104.5
			c-13.7,0-24.9-11.2-24.9-24.9V158C-172.2,144.3-161.1,133.1-147.3,133.1z"/>
		
			<linearGradient id="rect3008_1_" gradientUnits="userSpaceOnUse" x1="-324.8826" y1="569.5873" x2="-324.8826" y2="531.0685" gradientTransform="matrix(4.9807 0 0 -4.9841 1515.6201 2981.9607)">
			<stop  offset="0" style="stop-color:#D0E4CC"/>
			<stop  offset="1" style="stop-color:#FBFFEC"/>
		</linearGradient>
		<path id="rect3008" class="st4" d="M-157.3,143.1h109.5c11,0,19.9,8.9,19.9,19.9v149.5c0,11-8.9,19.9-19.9,19.9h-109.5
			c-11,0-19.9-8.9-19.9-19.9V163C-177.2,152-168.3,143.1-157.3,143.1z"/>
		<path id="path3932" class="st3" d="M2.2,115.7c0,1.5-1.3,2.8-2.8,2.8s-2.8-1.3-2.8-2.8s1.3-2.8,2.8-2.8S2.2,114.1,2.2,115.7z"/>
		<g id="path3936" class="st5">
			
				<linearGradient id="SVGID_1_" gradientUnits="userSpaceOnUse" x1="-315.7709" y1="590.4699" x2="-318.8866" y2="587.0007" gradientTransform="matrix(7.1013 0 0 -6.6887 2243.616 4061.2654)">
				<stop  offset="0" style="stop-color:#FFFFFF"/>
				<stop  offset="1" style="stop-color:#FFFFFF;stop-opacity:0"/>
			</linearGradient>
			<polygon class="st6" points="-2.8,114.3 -31.6,138.9 -23.4,144.9 1.8,116.6 			"/>
		</g>
		<path id="path3882" class="st3" d="M-15,137.6c0,4.8-3.9,8.7-8.7,8.7c-4.8,0-8.7-3.9-8.7-8.7c0,0,0,0,0,0c0-4.8,3.9-8.7,8.7-8.7
			C-19,128.9-15,132.8-15,137.6C-15,137.6-15,137.6-15,137.6z"/>
	</g>
</g>
<g>
	<rect x="-60.5" y="396" class="st7" width="9.4" height="21.6"/>
	<rect x="-156.6" y="505.4" class="st7" width="30.7" height="9.4"/>
	<path class="st7" d="M-167.8,526h128V356.8h-128V526z M-120.2,520.6h-42.1v-21.1h42.1V520.6z M-135.8,494V388.8h64V494H-135.8z
		 M-106.5,520.6h-8.2v-21.1h8.2V520.6z M-92.7,520.6h-8.2v-21.1h8.2V520.6z M-45.3,520.6h-42v-21.1h42V520.6z M-45.3,494h-21.1
		v-36.1h21.1V494z M-45.3,452.4h-21.1v-8.2h21.1V452.4z M-45.3,438.7h-21.1v-8.2h21.1V438.7z M-45.3,424.9h-21.1v-36.1h21.1V424.9z
		 M-87.2,362.3h42v21.1h-42V362.3z M-101,362.3h8.2v21.1h-8.2V362.3z M-114.7,362.3h8.2v21.1h-8.2V362.3z M-162.3,362.3h42.1v21.1
		h-42.1V362.3z M-162.4,388.8h21.1v36.1h-21.1V388.8z M-162.4,430.4h21.1v8.2h-21.1V430.4z M-162.4,444.2h21.1v8.2h-21.1V444.2z
		 M-162.4,457.9h21.1V494h-21.1V457.9z"/>
	<rect x="-156.6" y="368.1" class="st7" width="30.7" height="9.4"/>
	<rect x="-156.6" y="465.2" class="st7" width="9.4" height="21.6"/>
	<rect x="-81.5" y="368.1" class="st7" width="30.5" height="9.4"/>
	<rect x="-81.5" y="505.4" class="st7" width="30.5" height="9.4"/>
	<rect x="-60.5" y="465.2" class="st7" width="9.4" height="21.6"/>
	<rect x="-156.6" y="396" class="st7" width="9.4" height="21.6"/>
</g>
</svg>
