<?xml version="1.0" encoding="utf-8"?>
<!-- Generator: Adobe Illustrator 19.0.0, SVG Export Plug-In . SVG Version: 6.00 Build 0)  -->
<svg version="1.1"
	 id="svg2985" xmlns:dc="http://purl.org/dc/elements/1.1/" xmlns:cc="http://creativecommons.org/ns#" xmlns:rdf="http://www.w3.org/1999/02/22-rdf-syntax-ns#" xmlns:svg="http://www.w3.org/2000/svg"
	 xmlns="http://www.w3.org/2000/svg" xmlns:xlink="http://www.w3.org/1999/xlink" x="0px" y="0px" viewBox="-237 -92 210 255"
	 style="enable-background:new -237 -92 210 255;" xml:space="preserve">
<style type="text/css">
	.st0{enable-background:new    ;}
	.st1{fill:#005F00;}
	.st2{fill:#CDDACD;}
	.st3{fill:#FFFFFF;}
	.st4{fill:url(#rect3008_2_);}
	.st5{filter:url(#filter3970-5);}
	.st6{fill:url(#SVGID_1_);}
	.st7{fill:#994913;}
	.st8{fill:#038249;}
	.st9{fill:#992B11;}
	.st10{fill:#2A3B92;}
</style>
<filter  width="1.2171124" height="1.2150326" y="-0.10751629" x="-0.10855621" id="filter3970-5" color-interpolation-filters="sRGB">
	<feGaussianBlur  stdDeviation="0.12800763" id="feGaussianBlur3972-8"></feGaussianBlur>
</filter>
<g id="g4146" transform="translate(39.768324,209.71794)">
</g>
<g id="g4630_1_" transform="matrix(1.0005937,0,0,1,-1.3758072,203.40625)" class="st0">
	<g id="g3062_1_">
		<path id="rect4031_1_" d="M-176.2-295.4l46.1,0.2l68.4-0.2c22.9-0.1,36.1,15.9,36.1,40.4v154.6c0,12.3-14,27.7-21.4,35.7
			s-22.1,24.3-33.6,24.3h-113c-22.9,0-41.3-5.6-41.3-30.2l-0.3-162.3c0-6.4,17.3-24.3,24.8-32.4C-203-273.3-187.6-295.5-176.2-295.4
			L-176.2-295.4z"/>
		<path id="rect3767_1_" class="st1" d="M-167.4-282.7h104.5c13.8,0,24.8,11.1,24.9,24.9l0.9,152.4c0,2-12.6,32-25.8,32h-104.5
			c-13.8,0-24.9-11.1-24.9-24.9v-159.5C-192.3-271.6-181.2-282.7-167.4-282.7L-167.4-282.7z"/>
		<path id="rect3861_1_" class="st2" d="M-182.3-267.7h99.6c13.7,0,24.9,11.2,24.9,24.9v159.5c0,13.8-11.1,24.9-24.9,24.9h-99.6
			c-13.7,0-24.9-11.2-24.9-24.9v-159.5C-207.2-256.6-196.1-267.7-182.3-267.7z"/>
		<path id="rect3765_1_" class="st3" d="M-192.3-252.8h104.5c13.7,0,24.9,11.2,24.9,24.9v149.5c0,13.8-11.1,24.9-24.9,24.9h-104.5
			c-13.7,0-24.9-11.2-24.9-24.9v-149.5C-217.2-241.6-206-252.8-192.3-252.8z"/>
		
			<linearGradient id="rect3008_2_" gradientUnits="userSpaceOnUse" x1="-369.8559" y1="182.6285" x2="-369.8559" y2="144.1098" gradientTransform="matrix(4.9807 0 0 -4.9841 1694.6462 667.4196)">
			<stop  offset="0" style="stop-color:#D0E4CC"/>
			<stop  offset="1" style="stop-color:#FBFFEC"/>
		</linearGradient>
		<path id="rect3008_1_" class="st4" d="M-202.3-242.8h109.5c11,0,19.9,8.9,19.9,19.9v149.5c0,11-8.9,19.9-19.9,19.9h-109.5
			c-11,0-19.9-8.9-19.9-19.9v-149.5C-222.2-233.9-213.3-242.8-202.3-242.8z"/>
		<path id="path3932_1_" class="st3" d="M-42.7-270.2c0,1.5-1.3,2.8-2.8,2.8s-2.8-1.3-2.8-2.8s1.3-2.8,2.8-2.8
			S-42.7-271.8-42.7-270.2z"/>
		<g id="path3936_1_" class="st5">
			
				<linearGradient id="SVGID_1_" gradientUnits="userSpaceOnUse" x1="-360.7442" y1="203.5567" x2="-363.8599" y2="200.0874" gradientTransform="matrix(7.1013 0 0 -6.6887 2518.0134 1087.4099)">
				<stop  offset="0" style="stop-color:#FFFFFF"/>
				<stop  offset="1" style="stop-color:#FFFFFF;stop-opacity:0"/>
			</linearGradient>
			<polygon class="st6" points="-47.8,-271.6 -76.6,-247 -68.4,-241 -43.2,-269.3 			"/>
		</g>
		<path id="path3882_1_" class="st3" d="M-60-248.3c0,4.8-3.9,8.7-8.7,8.7c-4.8,0-8.7-3.9-8.7-8.7c0,0,0,0,0,0
			c0-4.8,3.9-8.7,8.7-8.7C-63.9-257-60-253.1-60-248.3C-60-248.3-60-248.3-60-248.3z"/>
	</g>
</g>
<g>
	<path class="st7" d="M-111.4-23.4l-2.4,0.9c-2.6,0.9-4.2,1.5-4.9,1.8l-1.6,0.6c-0.5,0.2-0.9,0.4-1.3,0.4c-1.1,0-3.6-3-3.9-4.6
		l0.1-0.2c0.7,0.1,1.2,0.1,1.6,0.1c2,0,4.2-0.5,12.3-3c0.1-0.7,0.1-0.9,0.1-1.5c0-4.1-0.3-4.9-1.9-4.9c-0.5,0-1.3,0.2-2.2,0.3
		l-0.2-0.4c0.2-1.5,1.8-2.3,4.2-2.3c1.8,0,4,0.8,4.7,1.8c0.7,1,0.9,2.1,0.9,5.9c3.5-0.5,3.9-0.6,4.8-0.6c1.9,0,3.2,0.5,6.6,2.8
		c2.1,1.3,2.6,1.9,3,3.7c0.5,0.2,0.9,0.2,1.1,0.2c0.4,0,1.1-0.1,1.9-0.4c1.7-0.5,3.4-0.9,4-0.9c2.3,0,5.1,2.3,5.1,4.3
		c0,0.9-0.8,1.5-1.9,1.5l-5.8-0.2c-2.3,0-6.9,0.5-10.6,1.2c-3.3,0.5-5.1,1.2-8.7,3.1v1.2c5.9-1.6,8.2-2.1,9.3-2.1
		c1.6,0,4.1,2.3,4.1,3.9c0,0.7-0.5,0.9-2,0.9h-0.5h-1.8c-2.3,0-6.5,1.2-9.1,2.7l-0.2,2.7c6.3-1,6.7-1.2,6.7-2.4
		c0-0.5,0.2-0.7,0.5-0.7c0.2,0,0.5,0.1,0.9,0.2c0.1,0.1,1.2,0.3,2.7,0.7c4.3,1,6,1.9,6,3c0,0.7-0.6,1.2-1.3,1.2
		c-0.2,0-0.5,0-0.8-0.1c-0.5-0.1-0.8-0.1-1.2-0.1c-1.2,0-1.2,0-6.9,0.6c-3.6,0.5-3.6,0.5-6.8,0.8l-0.2,3.9c7.9-1.4,9-1.6,11.8-2
		c1.6-0.3,3.2-0.5,3.4-0.7c0.9-0.2,1.6-0.3,1.9-0.3c2.1,0,4.8,2.1,4.8,3.7c0,1-0.9,1.6-2.4,1.6c-0.2,0-0.9,0-1.5-0.1
		c-1.9-0.2-3.1-0.2-3.9-0.2c-3.6,0-13.7,1.8-17.6,3.2c-0.2,0-2.7,1.2-7.5,3.4l-0.2-0.4c1.2-1.2,1.4-1.5,3-3
		c-3.9,0.9-6.2,1.7-9.2,3.2c-1.2,0.5-2.2,0.9-2.9,0.9c-1.5,0-4.6-3-4.8-4.6c0-0.1,0-0.2,0.1-0.3l0.3-0.2c0.5,0.1,1.1,0.2,1.2,0.2
		c1.1,0.2,1.9,0.3,2.3,0.3c1,0,9.4-1.9,16.2-3.7v-3.6c-4.1,0.7-4.2,0.7-10.6,2.7c-0.6,0.2-1.2,0.4-1.4,0.4c-1.2,0-3.4-2.3-3.4-3.5
		c0-0.2,0.1-0.5,0.2-0.8l0.4-0.2c1,0.2,1.9,0.2,2.3,0.2c2,0,5.2-0.9,8.3-2.2c2-0.8,2.7-1.3,4.1-2.8l0.2-1.9
		c-3.7,1.1-5.9,1.8-10.1,3.4c-1.3,0.5-2.3,0.8-3.1,0.8c-1.8,0-3.7-1.4-4.6-3.4l0.2-0.4c2.5-0.1,3.9-0.2,5.1-0.5
		c7.3-2.2,11.1-3.7,12.3-4.8l0.2-1.9c-10.6,1.8-20.4,4.3-25,6.4c-1.7,0.8-3,1.2-3.8,1.2c-1.1,0-3-1-4.1-2.2c-1.1-1.1-1.5-2-1.7-3.7
		l0.5-0.3l0.9,0.3c1,0.2,1.8,0.4,2.1,0.4c0.5,0,0.5,0,8.3-1.5c4.6-0.9,9.2-2,13.9-2.9c0.4-0.1,5-1,9.4-1.8V-23.4z M-123.7,16.3
		c1.4,0.2,1.5,0.3,3.4,2.7l0.9,1.2c1.4-0.5,1.6-0.5,3.4-0.9c5.6-1.4,6.4-1.7,9.9-3.2c0.6-0.3,1.2-0.4,1.5-0.4c1.5,0,4.1,2,4.1,3.2
		c0,0.7-0.5,0.9-2.4,1.1c-5.2,0.9-6.6,1.4-8.3,2.7c-1.2,0.9-1.4,0.9-2.3,1.1l-0.1-0.2c0.5-0.7,0.6-1.2,0.6-1.7
		c0-0.3-0.2-0.5-0.7-0.5l-2.8,0.2l-1.9-0.2c-0.2,0-0.3,0-0.6,0.1c1.3,2.4,1.6,2.8,2.8,5.5c4.5-1.6,10.1-2.9,11.9-2.9
		c0.7,0,0.9,0.1,2,0.9c0.6,0.5,0.6,0.5,1.4,0.8c2-2.7,4.8-9.2,4.8-11.2c0-1.6-1.4-2.5-3.9-2.5c-4.2,0-9.4,1.3-16.2,4.1
		c-0.5,0.2-0.9,0.3-1.3,0.3c-0.9,0-1.4-0.5-1.9-1.8l0.2-0.4c6.7-3.9,13.3-5.9,19.5-5.9c5.7,0,11.2,3.2,11.2,6.6
		c0,0.9-0.1,0.9-1.5,2.7c-0.2,0.2-0.4,0.7-0.8,1.6c-1.7,4.4-5.1,10.6-6.6,11.8c-0.5,0.4-0.9,0.6-1.2,0.6c-0.4,0-0.5-0.1-1.9-1.7
		c-0.7-0.8-1.9-1.2-3.3-1.2c-4.2,0-9,0.8-10.9,1.7c-0.6,0.3-0.7,0.4-2.4,2c-0.2,0.2-0.5,0.3-0.6,0.3c-0.5,0-1.3-0.9-2.7-2.7
		c-2.6-3.9-4.1-7.9-4.1-11.5c0-0.9,0.1-1.3,0.5-2.2H-123.7z M-106.3-19.8c2.8-0.5,4.1-1,5.2-2c1-0.9,1.8-2.2,1.8-3.1
		c0-0.6-0.5-1.1-1.2-1.1c-0.5,0-2.3,0.4-5.5,1.1L-106.3-19.8z"/>
</g>
<path class="st8" d="M-186.7-3.4c0-5-3.1-8.3-9.2-10v-0.3c5.4-1.9,8.1-5.1,8.1-9.7c0-3.8-1.9-6.7-5.7-8.6c-2.4-1.1-5.2-1.6-8.5-1.6
	c-4,0-7.2,1-9.8,3c-2.1,1.7-3.2,3.7-3.2,5.9c0,2.9,1.4,4.3,4.1,4.3c2.6,0,3.8-1.2,3.8-3.5c0-1.7-0.9-2.8-2.6-3.4c1.8-2,4.3-3,7.6-3
	c5.5,0,8.2,2.3,8.2,6.9c0,5.6-3,8.5-9,8.5h-4v3.4h4c6.7,0,10,2.6,10,7.9c0,5.4-3.3,8.1-10,8.1c-4,0-6.6-1-7.8-3.1
	c1.8-0.4,2.7-1.5,2.7-3.3c0-2.3-1.2-3.5-3.6-3.5c-3,0-4.5,1.5-4.5,4.5c0,2.7,1.4,5,4.3,6.8c2.6,1.5,5.6,2.3,9.2,2.3
	c4.2,0,7.7-0.8,10.4-2.4C-188.5,3.8-186.7,0.7-186.7-3.4z"/>
<g>
	<path id="path7487_1_" class="st9" d="M-174,46.4c0,3.1-2.5,5.6-5.6,5.6s-5.6-2.5-5.6-5.6s2.5-5.6,5.6-5.6S-174,43.3-174,46.4z"/>
	<path id="path7487_2_" class="st9" d="M-162.5,60.6c0,3.1-2.5,5.6-5.6,5.6c-3.1,0-5.6-2.5-5.6-5.6s2.5-5.6,5.6-5.6
		C-165,55-162.5,57.5-162.5,60.6z"/>
	<path id="path7487_3_" class="st9" d="M-151.7,74.4c0,3.1-2.5,5.6-5.6,5.6c-3.1,0-5.6-2.5-5.6-5.6s2.5-5.6,5.6-5.6
		C-154.2,68.8-151.7,71.3-151.7,74.4z"/>
	<path class="st10" d="M-140.3,146.2c-2.3-0.2-4-0.4-6.3-0.6c-1.9-1.7-3.8-3.4-5.5-5.3c-11.1-11.9-22-23.9-33-36
		c-2.4-2.6-4.4-5.5-6.7-8.1c-5.2-5.9-10.5-11.7-15.7-17.5c-0.4-0.4-0.7-1-0.8-1.6l-0.2-1c0-0.2,0-0.3,0-0.5c0-2.1-0.6-19.7-1.4-28.2
		c-0.4-4.1,1.1-6.6,5.1-8.7c15.6-8.4,31.2-16.9,46.8-25.4c5.8-3.2,5.8-3.1,9.6,1.7c7,8.8,14,17.6,21.1,26.3
		C-116.5,54.5-105.7,67.7-95,81c0.7,0.9,1.5,1.9,1.6,2.9c1.5,10.1,2.9,20.3,4.3,30.5c0.3,2.1-0.8,3.6-3,4.8
		c-8.9,4.8-17.9,9.5-26.7,14.5C-126.1,137.7-133.2,142-140.3,146.2z M-143.3,103.8c0.1,0,0.3-0.1,0.4-0.1c2.5-0.9,5-1.6,7.3-2.7
		c9.9-5,19.8-10.1,29.7-15.2c3.7-1.9,4.2-3.3,2.2-6.5c-0.7-1.1-1.5-2.1-2.4-3.2c-4.3-5.2-8.7-10.3-13-15.5c-2.5-3-5.6-3.5-9.2-1.2
		c-2,1.3-3.8,2.7-5.7,4.1c-3.8,2.7-4.7,2.7-7.8-0.5c-9.8-10.5-19.6-21.1-29.3-31.8c-2.1-2.4-4.4-2.6-7-1.2c-5.8,3-11.4,6.1-17.1,9.1
		c-4.6,2.4-4.2,5.4-1.7,8.6s5.4,6.2,8.1,9.3c12.7,14.6,25.3,29.2,37.9,44C-148.9,103.2-146.8,104.6-143.3,103.8z M-167.2,26.4
		c0,0.5,0.2,1.1,0.5,1.5c1,1.5,1.8,3.1,3,4.4c7.4,8.1,15,16.2,22.5,24.2c1,1.1,2.3,2.2,3.8,2.7c2.4,0.8,8.8-1.8,9.5-4.3
		c0.6-1.9-0.3-4.5-1.4-6.3c-1.6-2.8-4.1-5.2-6.2-7.7c-5.1-6.2-10-12.4-15.3-18.4c-3.5-4-8.4-4.1-13.1-0.7
		C-165.6,22.9-167.3,24.1-167.2,26.4z M-170.9,109.2c1.7,0.3,3.3-1.1,3.4-2.9c0.2-1.9,0.9-3.7,1.1-5.5c0.9-6,1.3-9.5-5.1-16.3
		c-2.4-2.6-6.2-7.8-9.2-10.4c-1.6-1.4-3.3,2.2-4.1,4.1c-1.1,2.3-2,4.5-2.4,6.7c-0.7,3.6-0.6,7.4,2.1,10.5c3.7,4.2,7.7,8.1,11.4,12.3
		C-172.8,108.6-171.9,109.1-170.9,109.2z M-141.4,110.7c-0.5,2.1,1.5,4.1,3.6,3.7c1.3-0.2,2.5-0.5,3.6-1c3.7-1.5,7.2-3.4,10.8-5.2
		c7.3-3.7,14.7-7.4,22-11.2c3.1-1.6,4.3-4.8,3-7.7c-0.3-0.6-1.3-1.6-1.8-1.5c-2.1,0.3-3.7,0.6-5.6,1.4c-1.8,0.7-3.9,2.1-5.6,3.1
		c-9,5.1-18,10.1-27.1,15.1C-140.1,108.3-141,109.4-141.4,110.7z M-139.5,121.9c-0.1,0.9,0.2,1.8,0.7,2.5c0.6,0.7,1.2,1.5,2,1.5
		c1.5,0.1,3.3-0.5,4.8-1.1c6.6-3.2,13.1-6.5,19.5-9.8c4.5-2.4,9.1-4.8,13.4-7.4c2.5-1.5,3.5-4.7,2-6.4c-1.6-1.9-4-1-6-0.1
		c-5.7,2.8-11.4,5.6-17,8.5c-5.1,2.6-10,5.4-15.1,7.8C-137.8,118.3-139.2,119.6-139.5,121.9z M-135.4,135.8c0.7,0.2,1.9-0.3,2.5-0.6
		c1.3-0.6,2.3-1.1,3.3-1.6c3.9-1.9,7.9-3.6,11.7-5.6c7-3.5,14-7,21-10.6c2.2-1.2,2.6-3.8,1.4-6.2c-1.1-2.2-2.3-1.4-4.1-0.8
		c-2.4,0.9-5.8,2.8-8,4c-9.5,5.3-18.6,9.9-28.1,15.2c-2.4,1.3-2.9,2.9-1.9,4.6C-137.3,134.8-136.5,135.5-135.4,135.8z M-148,121.6
		c-0.1-0.8-0.3-1.6-0.4-2.5c-1.1-8.7,0-9.4-7.2-16.4c-6.1-5.9-5.8-0.2-7,3c-0.8,2.2-1.3,4.5-1.7,6.8c-0.8,4,0.5,7.4,3.6,10.3
		c2.3,2.2,4.2,4.6,6.4,7c0.8,0.9,1.5,2.2,2.6,2.6c1.3,0.5,3,0.5,4.4,0.2c0.4-0.1,0.8-1.8,0.7-2.8C-147.1,127-147.6,124.3-148,121.6z
		 M-203,75.2c0,0.4,0.1,0.8,0.3,1.2c1.2,2.4,2.8,3.4,4.2,4.8c0.6,0.6,3.5,3.3,4.8,3.3c1,0,2-3.3,2.1-4c1-3.9,2.1-7.8,2.3-11.7
		c0.3-4.9-1.8-7-6.8-11.8c-0.9-0.8-5.4-6.3-6.9-6.1c-0.5,0.1-0.7,2.3-0.8,3C-203.8,57.3-203.1,70.1-203,75.2z"/>
	<g>
		<path class="st8" d="M-155.1,26.2c-0.5,1.4-0.9,2.7-1.1,3.7c-0.4,1.8-0.7,2.7-0.9,2.8c-0.1,0-0.1,0-0.2-0.1
			c-0.9-0.9-1.2-1.5-0.9-1.9c0.5-0.7,0.4-1.2-0.1-1.7c-0.1-0.1-0.2-0.2-0.2-0.3c0.1-0.2,0.4-0.3,0.9-0.2c0.3,0.1,0.5,0,0.7-0.3
			c0.7-1.7,1.3-2.7,1.9-3.1c0.3-0.2,0.6-0.3,0.9-0.3c0.7-0.1,1.2,0,1.3,0.2c0.1,0.2,0.1,0.8-0.2,1.8c-0.4,1.2-0.6,2-0.6,2.3
			c0.3-0.1,0.7-0.2,0.9-0.2c0.6,0,1,0.1,1.3,0.3l0.4-0.4c0.9-0.5,1.7-0.6,2.5-0.2c0.4,0.2,0.3,0.4-0.1,0.7c-0.6,0.3-1.2,0.7-1.6,1.1
			c0.8,0.9,1.4,1.7,1.9,2.5c0.6,1.1,0.9,2.3,0.8,3.7c0,0.2,0,0.3-0.1,0.4c-0.1,0-0.2,0.1-0.4,0.1c-0.5,0-1,0.1-1.7,0.2
			c-1.8,0.4-3.3,0.2-4.7-0.5c-0.6,0.2-1,0.3-1.3,0.2c-0.2-0.1-0.2-0.2-0.2-0.4c0.1-0.7,0.4-1.5,0.9-2.3c1-1.9,1.8-3.1,2.4-3.8
			c-0.4,0-0.9,0.2-1.3,0.7l-0.3,0.3c-0.1,0-0.2,0-0.3-0.2c-0.4-0.4-0.7-0.7-0.8-1c-0.1-0.2-0.1-0.3,0-0.4c0.1-0.2,0.4-0.3,0.9-0.5
			c0-0.7,0-1.9,0-3.5c0-0.3-0.1-0.4-0.2-0.4C-154.8,25.7-154.9,25.9-155.1,26.2z M-149,35.3c0-0.2,0-0.4-0.2-0.7
			c-0.5-1.3-0.9-2.1-1.3-2.5l-0.7-0.7c-0.6,0.5-1.1,1.1-1.5,1.7c-0.9,1.3-1.5,2.4-1.7,3.4c0,0.1,0,0.3,0.2,0.3
			c1.5,0.5,2.9,0.3,4.2-0.4C-149.4,36-149.1,35.7-149,35.3z"/>
		<path class="st8" d="M-143.4,48.8c1,1.3,1.8,2.3,2.6,3l0.3,0.2c0.3,0,0.5-0.2,0.8-0.7c0.3-0.6,1-1.4,1.9-2.4
			c0.5-0.6,0.8-0.9,0.9-0.9c0.4-0.1,0.8-0.2,1.2-0.1l-0.1-0.4l-0.4-1c-0.9-2.3-1.7-3.6-2.4-3.9c-0.2-0.1-0.4-0.1-0.6,0.1
			c-1.1,1-1.9,1.9-2.4,2.5c-0.2,0.3-0.4,0.4-0.7,0.6c-0.7,0.3-1.2,0.9-1.6,1.6l-0.1,0.2v-0.1c0-0.5,0.1-0.9,0.2-1.2
			c0.3-0.9,0.7-1.6,1.3-2.2c0.8-1.1,1.7-1.9,2.6-2.5l0.2-0.1c1.1-0.6,2-0.8,2.5-0.6c0.2,0.1,0.3,0.2,0.4,0.5l0.6,1.3
			c1.1,1.9,1.8,3.4,2.1,4.3c0.2,0.7,0.1,1.4-0.1,2.3c0,0.1-0.1,0.2-0.1,0.3l-0.8-0.1c-0.5-0.1-0.8-0.2-1.1-0.3
			c-1.3,1.1-2.3,2.2-3,3.5c-0.3,0.4-0.6,0.7-1.1,0.8h-0.1c-0.5-0.1-1.1-0.3-1.5-0.8c-2.2-2.3-3.5-3.3-3.7-3.2
			c-0.1,0.1-0.2,0.1-0.2,0.1s0-0.2,0-0.4c0-0.2,0.2-0.3,0.4-0.4c0.3-0.2,0.6-0.3,0.9-0.3C-143.8,48.6-143.5,48.6-143.4,48.8z
			 M-141.9,49.3c-0.3-0.1-0.3-0.2-0.2-0.4c0.3-0.4,0.6-0.7,0.8-1c0.5-0.8,1-1.5,1.6-2.2l0.3-0.4c0.2-0.1,0.5-0.2,0.7-0.2
			c0.4,0,0.7,0.1,0.9,0.3c0.1,0.1-0.1,0.4-0.4,0.9c-0.6,0.8-1.1,2-1.6,3.6l-0.1,0.1c-0.1,0-0.1-0.5,0.2-1.4c0.1-0.4,0.1-0.6,0-0.6
			c0-0.1-0.4,0.3-1.1,1.1c-0.1,0.1-0.2,0.2-0.4,0.2C-141.3,49.4-141.6,49.4-141.9,49.3z"/>
	</g>
</g>
</svg>
