<?xml version="1.0" encoding="utf-8"?>
<!-- Generator: Adobe Illustrator 19.0.0, SVG Export Plug-In . SVG Version: 6.00 Build 0)  -->
<svg version="1.1"
	 id="svg2985" xmlns:svg="http://www.w3.org/2000/svg" xmlns:rdf="http://www.w3.org/1999/02/22-rdf-syntax-ns#" xmlns:cc="http://creativecommons.org/ns#" xmlns:dc="http://purl.org/dc/elements/1.1/"
	 xmlns="http://www.w3.org/2000/svg" xmlns:xlink="http://www.w3.org/1999/xlink" x="0px" y="0px" viewBox="-192 293.9 210 255"
	 style="enable-background:new -192 293.9 210 255;" xml:space="preserve">
<style type="text/css">
	.st0{enable-background:new    ;}
	.st1{fill:#005F00;}
	.st2{fill:#CDDACD;}
	.st3{fill:#FFFFFF;}
	.st4{fill:url(#rect3008_1_);}
	.st5{filter:url(#filter3970-5);}
	.st6{fill:url(#SVGID_1_);}
	.st7{fill:#2A3B92;}
	.st8{fill:#BF3718;}
	.st9{fill:#038249;}
</style>
<filter  width="1.2171124" height="1.2150326" id="filter3970-5" y="-0.10751629" x="-0.10855621" color-interpolation-filters="sRGB">
	<feGaussianBlur  stdDeviation="0.12800763" id="feGaussianBlur3972-8"></feGaussianBlur>
</filter>
<g id="g4146" transform="translate(39.768324,209.71794)">
</g>
<g id="g4630" transform="matrix(1.0005937,0,0,1,-1.3758072,203.40625)" class="st0">
	<g id="g3062">
		<path id="rect4031" d="M-131.2,90.5l46.1,0.2l68.4-0.2c22.9-0.1,36.1,15.9,36.1,40.4v154.6c0,12.3-14,27.7-21.4,35.7
			s-22.1,24.3-33.6,24.3h-113c-22.9,0-41.3-5.6-41.3-30.2l-0.3-162.3c0-6.4,17.3-24.3,24.8-32.4C-158,112.6-142.7,90.4-131.2,90.5
			L-131.2,90.5z"/>
		<path id="rect3767" class="st1" d="M-122.4,103.2h104.5c13.8,0,24.8,11.1,24.9,24.9l0.9,152.4c0,2-12.6,32-25.8,32h-104.5
			c-13.8,0-24.9-11.1-24.9-24.9V128.1C-147.3,114.3-136.2,103.2-122.4,103.2L-122.4,103.2z"/>
		<path id="rect3861" class="st2" d="M-137.4,118.1h99.6c13.7,0,24.9,11.2,24.9,24.9v159.5c0,13.8-11.1,24.9-24.9,24.9h-99.6
			c-13.7,0-24.9-11.2-24.9-24.9V143.1C-162.3,129.3-151.1,118.1-137.4,118.1z"/>
		<path id="rect3765" class="st3" d="M-147.3,133.1h104.5c13.7,0,24.9,11.2,24.9,24.9v149.5c0,13.8-11.1,24.9-24.9,24.9h-104.5
			c-13.7,0-24.9-11.2-24.9-24.9V158C-172.2,144.3-161.1,133.1-147.3,133.1z"/>
		
			<linearGradient id="rect3008_1_" gradientUnits="userSpaceOnUse" x1="-324.8826" y1="569.5873" x2="-324.8826" y2="531.0685" gradientTransform="matrix(4.9807 0 0 -4.9841 1515.6201 2981.9607)">
			<stop  offset="0" style="stop-color:#D0E4CC"/>
			<stop  offset="1" style="stop-color:#FBFFEC"/>
		</linearGradient>
		<path id="rect3008" class="st4" d="M-157.3,143.1h109.5c11,0,19.9,8.9,19.9,19.9v149.5c0,11-8.9,19.9-19.9,19.9h-109.5
			c-11,0-19.9-8.9-19.9-19.9V163C-177.2,152-168.3,143.1-157.3,143.1z"/>
		<path id="path3932" class="st3" d="M2.2,115.7c0,1.5-1.3,2.8-2.8,2.8s-2.8-1.3-2.8-2.8s1.3-2.8,2.8-2.8S2.2,114.1,2.2,115.7z"/>
		<g id="path3936" class="st5">
			
				<linearGradient id="SVGID_1_" gradientUnits="userSpaceOnUse" x1="-315.7709" y1="590.4699" x2="-318.8866" y2="587.0007" gradientTransform="matrix(7.1013 0 0 -6.6887 2243.616 4061.2654)">
				<stop  offset="0" style="stop-color:#FFFFFF"/>
				<stop  offset="1" style="stop-color:#FFFFFF;stop-opacity:0"/>
			</linearGradient>
			<polygon class="st6" points="-2.8,114.3 -31.6,138.9 -23.4,144.9 1.8,116.6 			"/>
		</g>
		<path id="path3882" class="st3" d="M-15,137.6c0,4.8-3.9,8.7-8.7,8.7c-4.8,0-8.7-3.9-8.7-8.7c0,0,0,0,0,0c0-4.8,3.9-8.7,8.7-8.7
			C-19,128.9-15,132.8-15,137.6C-15,137.6-15,137.6-15,137.6z"/>
	</g>
</g>
<path id="path7487" class="st7" d="M-105.7,397.6c0,3.1-2.5,5.6-5.6,5.6c-3.1,0-5.6-2.5-5.6-5.6c0-3.1,2.5-5.6,5.6-5.6
	C-108.2,392-105.7,394.5-105.7,397.6z"/>
<path class="st8" d="M-141.8,467.7c-0.5,0-1.2-0.1-1.7-0.9c-0.1-0.2-0.4-0.7-0.3-0.9c0.3-0.7,0.6-1.3,1.1-1.8
	c1.2-1.1,2.6-2.2,3.9-3.2c0.9-0.7,1.9-1.5,2.8-2.3c2.1-1.8,2-3.8,1.5-6.3c-1.4-7.6-2.1-14.4-2.2-20.6c-0.1-4.5,0.7-9.1,1.4-13.5
	c0.2-1,0.3-2,0.5-3c0.2-1.4,0.7-2.7,1.2-4.1c0.3-0.9,0.6-1.8,0.9-2.7c0.3-1,0.5-2.1,0.7-3.1c0.3-1.4,0.6-2.9,1.1-4.2
	c0.3-1,1.1-2.2,1.9-2.7c0,0,0.2-0.1,0.5-0.1c0.7,0,1.6,0.3,1.9,0.7c1.6,1.7,3.2,3.7,5,6.3c2.5,3.7,6,5.6,10.2,5.6
	c0.5,0,1.1,0,1.6-0.1c5-0.5,8.8-3.4,11-8.4c1-2.4,1.6-4.9,1.9-6.9c0.7-3.9-0.8-7.2-4.6-10.2c-2.7-2.2-6.3-3.4-10-3.4
	c-3.3,0-6.5,1-8.9,2.8c-1.5,1.1-2.7,2.6-3.9,4.1c-0.3,0.3-0.5,0.7-0.8,1c-0.6,0.7-1.2,1.1-1.9,1.1c-0.6,0-1.2-0.2-1.9-0.8
	c-1.9-1.4-3.9-2.7-5.8-4.1c-4.7-3.3-9.5-6.6-14.1-10c-0.9-0.7-1-1.7-0.7-2.5c0.2-0.7,0.9-1.5,1.9-1.5c0.1,0,0.2,0,0.3,0
	c0.1,0,0.2,0,0.3,0c3,0.8,5.9,1.9,8.8,3c0.8,0.3,1.5,0.6,2.3,0.9c0.9,0.3,1.8,0.7,2.6,1.1c1.3,0.6,2.6,1.2,4,1.6
	c0.9,0.3,1.9,0.4,2.7,0.4c0.8,0,1.4-0.1,2-0.4c1.6-0.8,3.1-1.6,4.7-2.4c6.3-3.3,12.9-6.6,18.9-10.6c3.4-2.2,6.2-5.3,9-8.3
	c1.2-1.3,2.5-2.6,3.7-3.9c0.3-0.3,0.6-0.7,0.9-1c0.6-0.6,1.1-1.2,1.7-1.6c0.5-0.4,1.3-0.7,1.8-0.7c0.1,0,0.2,0,0.2,0
	c0.8,0.4,1.6,1.3,1.8,2.2c0.2,0.8,0.1,2-0.4,2.7l-0.3,0.4c-2.2,3.5-4.5,7.1-7.1,10.3c-1.4,1.7-3,3.2-4.6,4.7
	c-0.9,0.9-1.9,1.8-2.8,2.8c-1.6,1.7-2.3,3-2.2,4.3c0.1,1.2,0.9,2.2,2.4,3.3c5.3,3.7,7.7,9,7.2,15.9c-0.3,3.7,1.5,6.2,3.3,8.6
	c0.4,0.6,0.8,1.2,1.2,1.8c7,10.6,7.9,20.7,2.7,31.1c-0.6,1.2-1.3,2.4-2.1,3.3c-7.5,7.7-17.1,13-29.5,16.1c0,0-0.9,0.2-2,0.2
	c-1.6,0-2.5-0.5-2.6-1.4c-0.1-0.7,0.3-1.5,1.1-2.4c0.9-1.1,2.2-1.8,3.2-1.8c0.1,0,0.2,0,0.2,0c0.8,0.1,1.6,0.2,2.5,0.2
	c3,0,6.1-0.8,9.3-2.5l1.3-0.6c2.8-1.4,5.7-2.9,8.2-4.9c6.9-5.5,9.8-13.4,8.6-23.6c-0.3-2.6-1-5.5-2.2-8.8c-0.2-0.4-0.4-0.9-0.8-1.4
	c-0.5-0.7-1.3-1-2.1-1c-1.3,0-2.6,1-2.6,2.6c0,1.5,0.5,2.8,1,4.1l0.2,0.6c2.2,6,1.7,12.1-1.7,18.6c-0.2,0.3-0.4,0.6-0.7,0.9
	c-0.1,0.1-0.2,0.2-0.4,0.2c-0.2,0-0.3-0.1-0.5-0.2c-0.1-0.1-0.2-0.2-0.1-0.5c0.8-5.6,1.6-12.9,0.3-20.7c-0.1-0.8-0.7-1.4-1.5-1.6
	c-0.2,0-0.3-0.1-0.5-0.1c-0.2,0-0.3,0-0.4,0c-1.2,0-2.1,0.9-2.3,2.1l0,0.5c-0.1,1.5-0.3,3-0.2,4.5c0.3,7.2-0.6,13.4-2.7,19
	c-0.1,0.2-0.9,1.1-1.1,1.4c-0.2,0.2-0.5,0.3-0.8,0.3c-0.6,0-1.1-0.4-1.3-1c-0.1-0.5-0.2-0.9-0.1-1.1c2.5-6.9,2.3-13.9,1.9-19.2
	c0-0.3-0.1-0.5-0.2-0.8c-0.5-0.9-1.3-1.4-2.3-1.4c-0.8,0-1.5,0.3-2.1,0.9c-0.3,0.4-0.5,0.8-0.6,1.1c-0.2,1.3-0.1,2.6-0.1,3.9
	c0,1.5,0,2.9-0.2,4.3c-0.6,3.5-1.7,7-2.8,10.4l-0.2,0.5c0,0,0,0-0.1,0.1c-0.1,0.1-0.3,0.2-0.5,0.2c-0.3,0-0.7-0.3-0.8-0.7
	c0-0.1,0-0.3,0-0.4c0.2-2.3,0.3-4.6,0.5-6.9c0.3-4,0.6-8.1,0.8-12.2c0-0.3-0.1-0.6-0.3-1c-0.5-0.7-1.3-1.2-2.2-1.2
	c-0.6,0-1.2,0.2-1.7,0.6c-0.4,0.3-1,0.8-1.1,1.5c-0.3,1-0.2,2.1-0.2,3.1c0,0.8,0.1,1.6-0.1,2.4c-0.6,3.5-1.2,7.1-1.8,10.5
	c-0.5,3-1,5.9-1.5,8.9c-1.6,9.9-8.5,16.1-16.1,22C-138.2,467.2-140.5,467.6-141.8,467.7L-141.8,467.7z M-127.8,438.8
	c-1.3,0-2.3,0.4-3,1.1c-0.6,0.7-0.9,1.7-0.8,2.9l0,0.6c0.1,1.5,0.3,3.1,0.7,4.6c0.3,0.9,1.4,2.3,2.4,2.3c1.2-0.1,2.7-0.8,3.3-1.9
	c0.6-1.1,1-2.4,1.4-3.7c0.1-0.5,0.3-1,0.4-1.5c0-0.1,0-0.1,0-0.2C-123.6,440-124.8,438.8-127.8,438.8
	C-127.8,438.8-127.8,438.8-127.8,438.8z M-126.4,425.7c-3.2,0-4.5,1.2-4.6,4.3c-0.1,1.9,0.2,3.1,1,3.9c0.7,0.7,1.8,1.1,3.4,1.2
	c0.6,0,1,0,1.5,0c3.1,0,3.1-1,3.2-4.3c0.1-3.2-0.5-4.9-3.7-5.1C-126,425.7-126.2,425.7-126.4,425.7z M-126.2,411.2
	c-2.6,0-2.9,2.2-3.1,3.7c0,0.2-0.1,0.4-0.1,0.6c-0.2,1.5-0.5,4.2,0.7,5.2c1.1,1,2.9,1.4,4.2,1.4h0c0.5,0,0.9,0,1.3-0.1
	c1.4-0.3,2-4,2-4c0-0.2,0.1-0.3,0-0.5l0-0.3c0-0.3,0-0.5,0-0.8c-0.1-2.8-1.8-4.7-4.4-5.1C-125.8,411.2-126,411.2-126.2,411.2z"/>
<path class="st9" d="M-73.3,532.5c-0.1,0-0.2,0-0.3,0c-0.2-0.1-0.4-0.1-0.7-0.2c-17.2-5.3-29.4-16.3-36.4-32.7
	c-2.2-5.2-3.9-10.8-5.6-16.2c-0.3-1-0.6-2-0.9-3c-0.4-1.3-1.1-3.5-3.3-3.5c-0.3,0-0.5,0-0.8,0.1c-0.9,0.2-1.5,0.6-1.9,1.2
	c-0.7,1-0.5,2.4-0.2,3.5c0.5,2.2,1,4.4,1.6,6.6c0.7,2.6,1.3,5.4,1.9,8.1c0,0.2,0.1,0.4,0.1,0.6c0,1-0.9,1.7-1.7,1.7
	c-0.3,0-0.5-0.1-0.8-0.2c-0.1-0.1-0.2-0.2-0.3-0.3c-1.3-2-2.2-4.3-3.2-6.5l-0.5-1.1c-0.3-0.7-0.5-1.6-0.6-2.7
	c-0.2-2.1-1.5-3.6-3.2-3.6c-0.3,0-0.6,0.1-0.9,0.2c-1.5,0.5-2.9,2.6-3.2,4.2c-0.4,1.8-0.4,3.6-0.5,5.3c0,1.1-0.1,2.3-0.2,3.4
	c0,0.1,0,0.2,0,0.4c-0.1,1.1-0.2,2.2-0.9,2.2c0,0-0.2,0-0.2,0c-0.1,0-0.2,0-0.2,0c-0.5,0-0.8-0.8-1.1-1.9c-0.2-0.7-0.4-1.3-0.7-1.8
	c-0.1-0.2-0.3-0.3-0.4-0.5c-1-1.3-1.6-2-2.3-2c0,0-0.2,0-0.2,0c-1.4,0.4-2.6,1.7-3.2,2.8c-0.4,0.7-0.5,1.5-0.6,2.3
	c-0.1,0.8-0.2,1.5-0.6,2.1c-0.1,0.2-0.3,0.5-0.4,0.8c-0.4,0.8-1,2-1.6,2c-0.1,0-0.2,0-0.4-0.1c-0.1-0.4-0.1-1.5-0.1-2.2
	c0-0.6,0-1.2-0.1-1.7c0-0.4,0.1-1.6,0.2-2.7c0-0.5,0.1-1,0.1-1.5c0-0.5-0.1-0.9-0.4-1.3c-0.3-0.4-0.8-0.6-1.3-0.6
	c-0.5,0-1,0.3-1.4,0.7c-0.4,0.6-0.9,1.3-1.3,1.9c-0.5,0.8-1,1.5-1.2,1.7c-0.7,0.9-1.3,1.9-1.8,2.9l-0.2,0.3
	c-0.2,0.3-0.5,0.5-0.8,0.5c-0.4-0.5,0-1.5,0.2-2.2c0.2-0.7,0.6-1.4,0.9-2c0.5-0.9,1-1.8,1.2-2.8c0.2-0.9-0.1-1.8-0.4-2.6
	c-0.3-0.9-1.1-1.5-2-1.5c-0.3,0-0.5,0-0.7,0.1c-0.8,0.3-1.6,0.6-2,1.3c-0.7,1.3-1.2,2.7-1.6,4c-0.2,0.7-0.5,1.4-0.7,2.1
	c-0.1,0.3-0.2,0.6-0.3,0.9c-0.3,1.1-0.5,1.5-0.9,1.5c-0.1,0-0.3,0-0.5-0.1c-0.3-0.1-0.9-1.4-0.9-2.5c-0.3-4,1.5-8.5,4.7-11.9
	c3.1-3.3,7.3-5.3,11.4-5.3c0.2,0,0.4,0,0.6,0c0.4,0,0.8,0,1.2,0c5.7,0,9.9-1.8,14.6-6.2c3.2-3,7.6-5,11.8-6.9
	c1.4-0.6,2.8-1.3,4.2-1.9c3.5-1.7,7.2-3.4,10.7-5.1c5.4-2.5,11-5.1,16.4-8c7.6-4,12.1-11.3,15.8-18.6c0.7-1.3,1.3-2.6,1.9-3.9
	c2.5-5.1,5-10.4,9-14.7c4.3-4.6,8.2-6.7,12.7-6.7c0.7,0,1.4,0.1,2.1,0.2c4.2,0.6,7.6,4.8,7.7,9.4c0,4.5-2.9,7.9-7.5,8.7
	c-2,0.3-3.9,0.5-5.6,0.5c-0.3,0-0.5,0-0.8,0c-0.9,0-2.1-0.5-2.4-1.2c-0.4-1,0.1-1.4,0.9-1.9c1-0.6,2.1-1,3.3-1.4
	c0.4-0.1,0.8-0.3,1.2-0.4c0.4-0.1,0.8-0.2,1.3-0.3c1-0.2,2-0.4,2.6-1.1c2.1-2.1,2.4-4.4,0.8-6.4c-0.9-1.1-2.1-1.7-3.4-1.7
	c-0.8,0-1.6,0.2-2.4,0.5c-4.5,1.9-7.3,6-9.6,9.2c-2.2,3.2-3.9,6.7-5.4,9.9c-2.9,6.2-6.2,12.6-11.6,17.4c-2,1.7-2.7,3.9-2.1,6.4
	c1.1,5,1.3,10.4,0.5,16.7c-0.8,6.3-2.4,11.5-4.9,15.9c-0.2,0.4-0.6,0.7-1.1,1c-0.2,0.1-0.3,0.3-0.5,0.4c0,0,0,0,0,0
	c-0.2,0-0.4-0.1-0.5-0.2c-0.1-0.1-0.1-0.2,0-0.3c0.3-0.9,0.6-1.8,0.9-2.6c0.2-0.7,0.4-1.2,0.6-1.7c2.5-7.3,3.3-15.4,2.7-24.9
	c0-0.4-0.1-0.9-0.2-1.3c0-0.2-0.1-0.4-0.1-0.7c-0.3-1.6-1.2-2.5-2.4-2.5c-0.4,0-0.8,0.1-1.2,0.3c-1,0.4-2.4,1.7-2.4,2.9
	c-0.1,2.9-0.1,5.9,0,8.8c0,1.3,0.4,3.2,0.4,4.6c0,0.5,0.4,2.6,0.4,3.5c0.1,1.3,0,1.9,0,2.6c0,0-0.3,2.2-1.1,2
	c-0.6-0.2-0.6-1.8-0.6-1.8c0.2-1.5,0.2-3.6,0.1-4.5c-0.1-0.7-0.2-1.2-0.3-1.4c-0.7-3-1.2-6-1.7-8.6c-0.2-1.4-0.6-3.3-2.5-3.3
	c-0.2,0-0.4,0-0.6,0.1c-1.3,0.3-2.3,0.9-2.9,1.8c-0.5,0.7-0.6,1.6-0.4,2.6c0.8,3.6,1.7,7.2,2.7,10.7l0.5,2c0.3,1.1,0.7,2.1,1,3.2
	c0.2,0.5,0.3,0.9,0.5,1.4c0,0.1,0,0.2-0.1,0.3c-0.1,0.1-0.2,0.2-0.4,0.2c-0.1,0-0.3-0.1-0.4-0.2c-0.9-1.2-1.6-2.3-1.8-2.8
	c-0.9-2.1-1.6-4.3-2.2-6.4c-0.2-0.7-0.4-1.4-0.6-2.1c-0.1-0.3-0.2-0.7-0.2-1c-0.1-0.5-0.2-0.9-0.3-1.4c-0.1-0.2-0.1-0.3-0.2-0.5
	c-0.5-1.3-1.1-3-3.1-3c-0.2,0-0.3,0-0.5,0c-0.9,0.1-1.8,0.8-2.4,1.8c-0.8,1.3-1,2.8-0.6,4c0.2,0.6,0.4,1.1,0.6,1.7
	c0.9,2.4,1.8,5,3.1,7.2c1.6,2.8,3.4,5.5,5.2,8.1c0.9,1.4,1.9,2.8,2.8,4.3c1.8,2.8,1.7,3.7,1.6,3.9c0,0-0.1,0.1-0.3,0.2
	c-4.5-1.2-6.6-5-8.6-8.6l-0.4-0.6c-1.4-2.6-2.4-5.4-3.4-8.2c-0.4-1.2-0.9-2.5-1.4-3.7c-0.2-0.4-0.3-0.9-0.5-1.3
	c-0.3-1.1-1-3.2-2.9-3.2c-0.3,0-0.7,0.1-1,0.2c-1.1,0.4-2,1.1-2.5,2.1c-0.5,1-0.6,2.2-0.2,3.3l0.2,0.6c2,6.1,4.1,12.5,6.7,18.5
	c1.8,4.3,4.4,8.4,6.6,11.8c4.7,7.2,12,11.4,18.9,15.4c1.1,0.7,2.3,1.3,3.4,2c1.9,1.2,3.8,2.5,5.6,3.7l0.4,0.3
	c0.8,0.5,0.6,1.3,0.5,1.5C-72.2,532-72.6,532.5-73.3,532.5z"/>
</svg>
