<svg width="78" height="40" viewBox="0 0 78 40" fill="none" xmlns="http://www.w3.org/2000/svg">
<rect x="2.5" y="2.5" width="73" height="35" fill="#FEF1C2" stroke="#0007A3" stroke-width="5" stroke-linecap="round"/>
<path d="M16.704 13.664C16.632 15.632 16.296 18.2 15.72 19.688L17.76 20.456C18.36 18.68 18.696 15.968 18.696 13.904L16.704 13.664ZM23.328 18.224C23.976 17.024 24.72 15.008 25.512 13.376L23.232 12.536C22.992 13.784 22.536 15.512 22.104 16.856V8.936H19.392V17.144C19.392 21.272 19.032 25.76 16.008 29.072C16.632 29.504 17.568 30.536 18 31.184C19.632 29.432 20.64 27.44 21.216 25.304C21.96 26.528 22.776 27.848 23.208 28.832L25.224 26.768C24.72 26.072 22.68 23.048 21.864 21.992C22.032 20.576 22.104 19.088 22.104 17.648L23.328 18.224ZM38.232 15.152V12.512H29.448C29.784 11.408 30.072 10.328 30.288 9.2L27.528 8.672C26.856 12.176 25.584 15.776 23.952 17.984C24.6 18.368 25.776 19.256 26.256 19.712C27.12 18.488 27.864 16.904 28.56 15.152H28.824V31.112H31.68V25.496H37.896V22.904H31.68V20.192H37.68V17.624H31.68V15.152H38.232ZM59.184 12.968H57.576V11.336H59.184V12.968ZM61.584 9.512H55.32V14.792H61.584V9.512ZM52.128 12.968H50.592V11.336H52.128V12.968ZM54.48 9.512H48.384V14.792H54.48V9.512ZM42.816 19.568C42.888 18.872 42.936 18.152 43.008 17.432H47.544V9.68H40.368V12.2H44.856V14.888H40.704C40.56 17.456 40.272 20.72 39.936 22.832L42.432 23.192L42.576 22.04H44.952C44.76 26 44.496 27.656 44.112 28.064C43.872 28.328 43.632 28.376 43.272 28.352C42.792 28.352 41.808 28.352 40.776 28.256C41.256 29.048 41.568 30.2 41.616 31.064C42.768 31.112 43.872 31.088 44.544 30.992C45.312 30.896 45.816 30.656 46.368 30.032C47.088 29.144 47.328 26.648 47.592 20.672C47.616 20.336 47.64 19.568 47.64 19.568H42.816ZM51.216 22.208V20.984H53.52V22.208H51.216ZM51.216 17.84H53.52V19.04H51.216V17.84ZM58.656 19.04H56.232V17.84H58.656V19.04ZM58.656 22.208H56.232V20.984H58.656V22.208ZM62.208 25.448H56.232V24.272H61.248V15.776H48.744V24.272H53.52V25.448H47.808V27.8H53.52V31.088H56.232V27.8H62.208V25.448Z" fill="black"/>
</svg>
