<svg width="47" height="28" viewBox="0 0 47 28" fill="none" xmlns="http://www.w3.org/2000/svg">
<g filter="url(#filter0_d)">
<rect x="5" y="1" width="37" height="18" fill="#FFF7CD" stroke="#FF0000" stroke-width="2" stroke-linecap="round"/>
<path d="M12.852 6.332C12.816 7.316 12.648 8.6 12.36 9.344L13.38 9.728C13.68 8.84 13.848 7.484 13.848 6.452L12.852 6.332ZM16.164 8.612C16.488 8.012 16.86 7.004 17.256 6.188L16.116 5.768C15.996 6.392 15.768 7.256 15.552 7.928V3.968H14.196V8.072C14.196 10.136 14.016 12.38 12.504 14.036C12.816 14.252 13.284 14.768 13.5 15.092C14.316 14.216 14.82 13.22 15.108 12.152C15.48 12.764 15.888 13.424 16.104 13.916L17.112 12.884C16.86 12.536 15.84 11.024 15.432 10.496C15.516 9.788 15.552 9.044 15.552 8.324L16.164 8.612ZM23.616 7.076V5.756H19.224C19.392 5.204 19.536 4.664 19.644 4.1L18.264 3.836C17.928 5.588 17.292 7.388 16.476 8.492C16.8 8.684 17.388 9.128 17.628 9.356C18.06 8.744 18.432 7.952 18.78 7.076H18.912V15.056H20.34V12.248H23.448V10.952H20.34V9.596H23.34V8.312H20.34V7.076H23.616ZM34.092 5.984H33.288V5.168H34.092V5.984ZM35.292 4.256H32.16V6.896H35.292V4.256ZM30.564 5.984H29.796V5.168H30.564V5.984ZM31.74 4.256H28.692V6.896H31.74V4.256ZM25.908 9.284C25.944 8.936 25.968 8.576 26.004 8.216H28.272V4.34H24.684V5.6H26.928V6.944H24.852C24.78 8.228 24.636 9.86 24.468 10.916L25.716 11.096L25.788 10.52H26.976C26.88 12.5 26.748 13.328 26.556 13.532C26.436 13.664 26.316 13.688 26.136 13.676C25.896 13.676 25.404 13.676 24.888 13.628C25.128 14.024 25.284 14.6 25.308 15.032C25.884 15.056 26.436 15.044 26.772 14.996C27.156 14.948 27.408 14.828 27.684 14.516C28.044 14.072 28.164 12.824 28.296 9.836C28.308 9.668 28.32 9.284 28.32 9.284H25.908ZM30.108 10.604V9.992H31.26V10.604H30.108ZM30.108 8.42H31.26V9.02H30.108V8.42ZM33.828 9.02H32.616V8.42H33.828V9.02ZM33.828 10.604H32.616V9.992H33.828V10.604ZM35.604 12.224H32.616V11.636H35.124V7.388H28.872V11.636H31.26V12.224H28.404V13.4H31.26V15.044H32.616V13.4H35.604V12.224Z" fill="#FF0000"/>
</g>
<defs>
<filter id="filter0_d" x="0" y="0" width="47" height="28" filterUnits="userSpaceOnUse" color-interpolation-filters="sRGB">
<feFlood flood-opacity="0" result="BackgroundImageFix"/>
<feColorMatrix in="SourceAlpha" type="matrix" values="0 0 0 0 0 0 0 0 0 0 0 0 0 0 0 0 0 0 127 0"/>
<feOffset dy="4"/>
<feGaussianBlur stdDeviation="2"/>
<feColorMatrix type="matrix" values="0 0 0 0 0 0 0 0 0 0 0 0 0 0 0 0 0 0 0.25 0"/>
<feBlend mode="normal" in2="BackgroundImageFix" result="effect1_dropShadow"/>
<feBlend mode="normal" in="SourceGraphic" in2="effect1_dropShadow" result="shape"/>
</filter>
</defs>
</svg>
