<svg width="47" height="28" viewBox="0 0 47 28" fill="none" xmlns="http://www.w3.org/2000/svg">
<g filter="url(#filter0_d)">
<rect x="5" y="1" width="37" height="18" fill="#FFF7CD" stroke="#FF0000" stroke-width="2" stroke-linecap="round"/>
<path d="M17.148 8.156H15V6.98H17.16C17.028 7.16 16.872 7.316 16.716 7.46C17.052 7.664 17.628 8.12 17.88 8.372C18.336 7.892 18.756 7.28 19.104 6.572H23.388V5.276H19.656C19.788 4.892 19.908 4.496 20.004 4.1L18.6 3.836C18.372 4.832 17.988 5.792 17.472 6.56V5.66H15.696V3.836H14.328V5.66H12.528V6.98H13.752V8.828C13.752 10.424 13.584 12.464 12.264 14.204C12.612 14.432 13.068 14.792 13.32 15.08C14.652 13.34 14.952 11.276 14.988 9.44H15.852C15.804 12.332 15.744 13.352 15.576 13.604C15.492 13.748 15.384 13.784 15.24 13.784C15.048 13.784 14.736 13.772 14.364 13.736C14.556 14.084 14.688 14.624 14.712 15.008C15.192 15.02 15.66 15.008 15.948 14.96C16.272 14.9 16.5 14.78 16.728 14.456C17.028 14.012 17.088 12.584 17.148 8.708V8.156ZM22.716 8.792C22.404 9.176 21.948 9.632 21.492 10.028C21.384 9.584 21.288 9.116 21.216 8.648C21.948 8.264 22.62 7.856 23.112 7.448L22.092 6.704C21.024 7.532 18.876 8.408 17.184 8.744C17.484 9.056 17.832 9.584 18.024 9.932L18.276 9.86V15.032H19.632V9.368C19.776 9.308 19.908 9.248 20.052 9.188C20.484 11.768 21.216 13.856 22.8 15.008C23.016 14.624 23.448 14.072 23.772 13.808C22.908 13.256 22.296 12.344 21.876 11.228C22.464 10.796 23.16 10.232 23.724 9.704L22.716 8.792ZM33.708 10.736C33.192 11.144 32.508 11.612 31.872 11.984C31.5 11.612 31.188 11.204 30.924 10.736H33.708ZM34.128 10.736H35.412V9.476H28.056V8.852H33.828V7.748H28.056V7.148H33.828V6.044H28.056V5.408H34.164V4.244H26.592V9.476H24.6V10.736H26.58V13.484C26.04 13.544 25.548 13.616 25.116 13.664L25.44 14.972C26.892 14.756 28.872 14.456 30.708 14.156L30.648 12.896C29.784 13.028 28.896 13.16 28.056 13.28V10.736H29.436C30.432 13.004 32.028 14.432 34.74 15.056C34.932 14.672 35.34 14.084 35.64 13.772C34.536 13.568 33.612 13.22 32.844 12.74C33.564 12.356 34.368 11.876 35.052 11.384L34.128 10.736Z" fill="#FF0000"/>
</g>
<defs>
<filter id="filter0_d" x="0" y="0" width="47" height="28" filterUnits="userSpaceOnUse" color-interpolation-filters="sRGB">
<feFlood flood-opacity="0" result="BackgroundImageFix"/>
<feColorMatrix in="SourceAlpha" type="matrix" values="0 0 0 0 0 0 0 0 0 0 0 0 0 0 0 0 0 0 127 0"/>
<feOffset dy="4"/>
<feGaussianBlur stdDeviation="2"/>
<feColorMatrix type="matrix" values="0 0 0 0 0 0 0 0 0 0 0 0 0 0 0 0 0 0 0.25 0"/>
<feBlend mode="normal" in2="BackgroundImageFix" result="effect1_dropShadow"/>
<feBlend mode="normal" in="SourceGraphic" in2="effect1_dropShadow" result="shape"/>
</filter>
</defs>
</svg>
