<svg width="47" height="28" viewBox="0 0 47 28" fill="none" xmlns="http://www.w3.org/2000/svg">
<g filter="url(#filter0_d)">
<rect x="5" y="1" width="37" height="18" fill="#FFF7CD" stroke="#FF0000" stroke-width="2" stroke-linecap="round"/>
<path d="M17.496 9.44V8.84H18.708V9.44H17.496ZM17.496 7.34H18.708V7.916H17.496V7.34ZM21.348 7.34V7.916H20.1V7.34H21.348ZM21.348 9.44H20.1V8.84H21.348V9.44ZM18.708 13.232H20.1V12.116H23.388V10.952H20.1V10.424H22.716V6.344H20.1V5.852H23.244V4.7H20.1V3.848H18.708V4.7H15.72V5.852H18.708V6.344H16.2V10.424H18.708V10.952H15.576V12.116H18.708V13.232ZM15.516 6.044C15.132 5.468 14.304 4.676 13.632 4.136L12.54 4.952C13.212 5.528 14.004 6.356 14.34 6.944L15.516 6.044ZM15.192 8.492H12.492V9.8H13.836V12.416C13.356 12.824 12.816 13.22 12.348 13.52L13.02 14.936C13.632 14.42 14.124 13.964 14.604 13.496C15.324 14.42 16.284 14.768 17.712 14.828C19.176 14.888 21.72 14.864 23.208 14.792C23.28 14.396 23.484 13.736 23.652 13.4C21.996 13.532 19.164 13.568 17.724 13.508C16.5 13.46 15.66 13.124 15.192 12.32V8.492ZM33.708 10.736C33.192 11.144 32.508 11.612 31.872 11.984C31.5 11.612 31.188 11.204 30.924 10.736H33.708ZM34.128 10.736H35.412V9.476H28.056V8.852H33.828V7.748H28.056V7.148H33.828V6.044H28.056V5.408H34.164V4.244H26.592V9.476H24.6V10.736H26.58V13.484C26.04 13.544 25.548 13.616 25.116 13.664L25.44 14.972C26.892 14.756 28.872 14.456 30.708 14.156L30.648 12.896C29.784 13.028 28.896 13.16 28.056 13.28V10.736H29.436C30.432 13.004 32.028 14.432 34.74 15.056C34.932 14.672 35.34 14.084 35.64 13.772C34.536 13.568 33.612 13.22 32.844 12.74C33.564 12.356 34.368 11.876 35.052 11.384L34.128 10.736Z" fill="#FF0000"/>
</g>
<defs>
<filter id="filter0_d" x="0" y="0" width="47" height="28" filterUnits="userSpaceOnUse" color-interpolation-filters="sRGB">
<feFlood flood-opacity="0" result="BackgroundImageFix"/>
<feColorMatrix in="SourceAlpha" type="matrix" values="0 0 0 0 0 0 0 0 0 0 0 0 0 0 0 0 0 0 127 0"/>
<feOffset dy="4"/>
<feGaussianBlur stdDeviation="2"/>
<feColorMatrix type="matrix" values="0 0 0 0 0 0 0 0 0 0 0 0 0 0 0 0 0 0 0.25 0"/>
<feBlend mode="normal" in2="BackgroundImageFix" result="effect1_dropShadow"/>
<feBlend mode="normal" in="SourceGraphic" in2="effect1_dropShadow" result="shape"/>
</filter>
</defs>
</svg>
