<svg width="47" height="28" viewBox="0 0 47 28" fill="none" xmlns="http://www.w3.org/2000/svg">
<g filter="url(#filter0_d)">
<rect x="5" y="1" width="37" height="18" fill="#FFF7CD" stroke="#FF0000" stroke-width="2" stroke-linecap="round"/>
<path d="M18.54 9.5H19.776L19.368 9.776L19.488 9.872L18.54 9.884V9.5ZM16.092 8.9V8.552H17.376V8.9H16.092ZM16.092 7.64H17.376V7.988H16.092V7.64ZM19.812 7.64V7.988H18.54V7.64H19.812ZM19.812 8.9H18.54V8.552H19.812V8.9ZM21.432 10.904H20.712L21.348 10.436C21.12 10.16 20.736 9.8 20.352 9.5H20.952V7.052H18.54V6.704H21.276V5.924H18.54V5.48H17.376V5.924H14.664V6.704H17.376V7.052H15V9.5H17.376V9.896C16.368 9.896 15.444 9.896 14.7 9.896L14.748 10.652C16.212 10.628 18.192 10.568 20.172 10.496C20.304 10.64 20.436 10.784 20.52 10.904H19.884V10.556H18.708V10.904H14.508V11.672H16.368L15.612 12.032C15.936 12.344 16.284 12.812 16.44 13.112L17.388 12.632C17.232 12.356 16.896 11.972 16.584 11.672H18.708V12.38C18.708 12.488 18.66 12.524 18.54 12.524C18.432 12.536 18.036 12.536 17.7 12.524C17.808 12.728 17.928 12.98 17.988 13.244C18.648 13.244 19.128 13.244 19.452 13.136C19.788 13.028 19.884 12.884 19.884 12.428V11.672H21.432V10.904ZM14.268 13.388V5.312H21.696V13.388H14.268ZM12.984 4.232V15.056H14.268V14.456H21.696V15.032H23.052V4.232H12.984ZM33.708 10.736C33.192 11.144 32.508 11.612 31.872 11.984C31.5 11.612 31.188 11.204 30.924 10.736H33.708ZM34.128 10.736H35.412V9.476H28.056V8.852H33.828V7.748H28.056V7.148H33.828V6.044H28.056V5.408H34.164V4.244H26.592V9.476H24.6V10.736H26.58V13.484C26.04 13.544 25.548 13.616 25.116 13.664L25.44 14.972C26.892 14.756 28.872 14.456 30.708 14.156L30.648 12.896C29.784 13.028 28.896 13.16 28.056 13.28V10.736H29.436C30.432 13.004 32.028 14.432 34.74 15.056C34.932 14.672 35.34 14.084 35.64 13.772C34.536 13.568 33.612 13.22 32.844 12.74C33.564 12.356 34.368 11.876 35.052 11.384L34.128 10.736Z" fill="#FF0000"/>
</g>
<defs>
<filter id="filter0_d" x="0" y="0" width="47" height="28" filterUnits="userSpaceOnUse" color-interpolation-filters="sRGB">
<feFlood flood-opacity="0" result="BackgroundImageFix"/>
<feColorMatrix in="SourceAlpha" type="matrix" values="0 0 0 0 0 0 0 0 0 0 0 0 0 0 0 0 0 0 127 0"/>
<feOffset dy="4"/>
<feGaussianBlur stdDeviation="2"/>
<feColorMatrix type="matrix" values="0 0 0 0 0 0 0 0 0 0 0 0 0 0 0 0 0 0 0.25 0"/>
<feBlend mode="normal" in2="BackgroundImageFix" result="effect1_dropShadow"/>
<feBlend mode="normal" in="SourceGraphic" in2="effect1_dropShadow" result="shape"/>
</filter>
</defs>
</svg>
