<svg width="47" height="28" viewBox="0 0 47 28" fill="none" xmlns="http://www.w3.org/2000/svg">
<g filter="url(#filter0_d)">
<rect x="5" y="1" width="37" height="18" fill="#FFF7CD" stroke="#FF0000" stroke-width="2" stroke-linecap="round"/>
<path d="M15.324 10.904V10.256H17.292V10.904H15.324ZM15.324 8.696H17.292V9.332H15.324V8.696ZM20.772 8.696V9.332H18.696V8.696H20.772ZM20.772 10.904H18.696V10.256H20.772V10.904ZM23.292 12.5H18.696V11.888H22.176V7.712H18.696V7.184H21.252V6.14H18.696V5.564H21.732V6.968H23.172V4.352H12.852V6.968H14.22V5.564H17.292V6.14H14.688V7.184H17.292V7.712H13.98V11.888H17.292V12.5H12.768V13.772H17.292V15.068H18.696V13.772H23.292V12.5ZM29.112 8.132L28.272 8.144V8.132H27V6.98H29.268V6.62C29.484 6.776 29.7 6.932 29.832 7.052C30.096 6.776 30.372 6.428 30.612 6.056H35.532V4.928H31.236C31.356 4.664 31.464 4.4 31.548 4.124L30.276 3.836C30.06 4.52 29.7 5.192 29.268 5.744V5.66H27.648V3.836H26.28V5.66H24.504V6.98H25.74V8.972C25.74 10.568 25.572 12.512 24.24 14.192C24.588 14.42 25.044 14.78 25.296 15.056C26.676 13.34 26.964 11.264 27 9.428H27.816C27.756 12.32 27.708 13.352 27.54 13.604C27.456 13.736 27.36 13.784 27.216 13.784C27.036 13.784 26.748 13.772 26.4 13.736C26.592 14.084 26.736 14.624 26.748 14.996C27.204 15.02 27.636 15.008 27.924 14.948C28.236 14.888 28.464 14.78 28.692 14.456C28.992 14.012 29.04 12.584 29.112 8.684V8.132ZM31.692 11.156H33.276V11.792H31.692V11.156ZM33.276 8.192V8.78H31.692V8.192H33.276ZM31.692 9.68H33.276V10.268H31.692V9.68ZM35.628 12.908V11.792H34.584V8.192H35.412V7.112H34.584V6.38H33.276V7.112H31.692V6.38H30.408V7.112H29.484V8.192H30.408V11.792H29.268V12.908H30.816C30.336 13.388 29.592 13.904 28.908 14.204C29.208 14.42 29.604 14.78 29.82 15.032C30.624 14.66 31.584 13.964 32.136 13.352L31.404 12.908H33.54L32.772 13.364C33.432 13.868 34.272 14.612 34.68 15.08L35.736 14.42C35.328 13.988 34.56 13.376 33.948 12.908H35.628Z" fill="#FF0000"/>
</g>
<defs>
<filter id="filter0_d" x="0" y="0" width="47" height="28" filterUnits="userSpaceOnUse" color-interpolation-filters="sRGB">
<feFlood flood-opacity="0" result="BackgroundImageFix"/>
<feColorMatrix in="SourceAlpha" type="matrix" values="0 0 0 0 0 0 0 0 0 0 0 0 0 0 0 0 0 0 127 0"/>
<feOffset dy="4"/>
<feGaussianBlur stdDeviation="2"/>
<feColorMatrix type="matrix" values="0 0 0 0 0 0 0 0 0 0 0 0 0 0 0 0 0 0 0.25 0"/>
<feBlend mode="normal" in2="BackgroundImageFix" result="effect1_dropShadow"/>
<feBlend mode="normal" in="SourceGraphic" in2="effect1_dropShadow" result="shape"/>
</filter>
</defs>
</svg>
