<svg width="47" height="28" viewBox="0 0 47 28" fill="none" xmlns="http://www.w3.org/2000/svg">
<g filter="url(#filter0_d)">
<rect x="5" y="1" width="37" height="18" fill="#FFF7CD" stroke="#FF0000" stroke-width="2" stroke-linecap="round"/>
<path d="M15.168 7.952H16.38V6.596H15.168V3.992H13.836V6.596H12.432V7.952H13.836V11.336C13.236 11.564 12.708 11.768 12.276 11.924L12.852 13.364C13.956 12.86 15.324 12.212 16.596 11.576L16.272 10.316C15.912 10.472 15.54 10.628 15.168 10.784V7.952ZM19.26 13.544C18.528 13.544 18.42 13.436 18.42 12.74V9.032L19.416 8.6V12.26H20.748V8.024L21.78 7.568C21.78 9.272 21.768 10.148 21.744 10.34C21.696 10.556 21.624 10.604 21.48 10.604C21.372 10.604 21.108 10.604 20.904 10.58C21.06 10.88 21.168 11.408 21.204 11.78C21.588 11.78 22.104 11.768 22.452 11.612C22.812 11.456 23.028 11.168 23.064 10.616C23.124 10.124 23.148 8.684 23.148 6.404L23.196 6.164L22.2 5.816L21.948 5.984L21.696 6.152L20.748 6.56V3.824H19.416V7.136L18.42 7.556V4.988H17.052V8.144L15.876 8.636L16.404 9.908L17.052 9.632V12.716C17.052 14.372 17.52 14.816 19.14 14.816H21.696C23.1 14.816 23.52 14.24 23.712 12.56C23.316 12.488 22.764 12.26 22.464 12.044C22.356 13.268 22.236 13.544 21.576 13.544H19.26ZM29.268 11.252V11.888H27.18V11.252H29.268ZM32.784 11.888H30.66V11.252H32.784V11.888ZM30.66 13.58V12.932H32.784V13.58H30.66ZM27.18 13.58V12.932H29.268V13.58H27.18ZM25.824 15.02H27.18V14.66H32.784V14.924H34.212V10.172H25.824V15.02ZM26.136 9.668H28.896V8.72H26.136V9.668ZM26.4 7.376V8.3H28.884V7.376H26.4ZM31.044 9.668H33.84V8.72H31.044V9.668ZM31.044 7.376V8.3H33.552V7.376H31.044ZM30.66 5.828V5.348H34.404V4.232H25.56V5.348H29.268V5.828H24.744V8.564H26.004V6.92H29.268V9.944H30.66V6.92H33.96V8.564H35.28V5.828H30.66Z" fill="#FF0000"/>
</g>
<defs>
<filter id="filter0_d" x="0" y="0" width="47" height="28" filterUnits="userSpaceOnUse" color-interpolation-filters="sRGB">
<feFlood flood-opacity="0" result="BackgroundImageFix"/>
<feColorMatrix in="SourceAlpha" type="matrix" values="0 0 0 0 0 0 0 0 0 0 0 0 0 0 0 0 0 0 127 0"/>
<feOffset dy="4"/>
<feGaussianBlur stdDeviation="2"/>
<feColorMatrix type="matrix" values="0 0 0 0 0 0 0 0 0 0 0 0 0 0 0 0 0 0 0.25 0"/>
<feBlend mode="normal" in2="BackgroundImageFix" result="effect1_dropShadow"/>
<feBlend mode="normal" in="SourceGraphic" in2="effect1_dropShadow" result="shape"/>
</filter>
</defs>
</svg>
