<svg width="47" height="28" viewBox="0 0 47 28" fill="none" xmlns="http://www.w3.org/2000/svg">
<g filter="url(#filter0_d)">
<rect x="5" y="1" width="37" height="18" fill="#FFF7CD" stroke="#FF0000" stroke-width="2" stroke-linecap="round"/>
<path d="M16.008 8.864L15.036 9.14V7.412H16.128V6.104H15.036V3.848H13.74V6.104H12.48V7.412H13.74V9.488C13.2 9.62 12.696 9.752 12.288 9.836L12.6 11.204C12.948 11.108 13.344 11 13.74 10.88V13.532C13.74 13.688 13.68 13.736 13.536 13.736C13.392 13.748 12.972 13.748 12.54 13.724C12.708 14.108 12.864 14.696 12.9 15.044C13.692 15.056 14.196 15.008 14.568 14.78C14.928 14.552 15.036 14.192 15.036 13.532V10.496C15.42 10.388 15.804 10.268 16.188 10.148L16.008 8.864ZM18.06 5.792H16.284V7.076H18.06V8.312H16.392V9.56H18.048C18.036 9.944 18.012 10.328 17.964 10.7C17.1 10.976 16.272 11.228 15.66 11.384L16.2 12.62C16.644 12.452 17.124 12.272 17.604 12.068C17.304 12.836 16.8 13.52 15.972 14.096C16.26 14.312 16.752 14.756 16.992 15.044C19.08 13.544 19.332 11.3 19.332 8.888V3.836H18.06V5.792ZM23.592 10.88H21.516V9.56H23.268V8.312H21.516V7.076H23.388V5.792H21.516V3.836H20.172V15.032H21.516V12.164H23.592V10.88ZM33.708 10.736C33.192 11.144 32.508 11.612 31.872 11.984C31.5 11.612 31.188 11.204 30.924 10.736H33.708ZM34.128 10.736H35.412V9.476H28.056V8.852H33.828V7.748H28.056V7.148H33.828V6.044H28.056V5.408H34.164V4.244H26.592V9.476H24.6V10.736H26.58V13.484C26.04 13.544 25.548 13.616 25.116 13.664L25.44 14.972C26.892 14.756 28.872 14.456 30.708 14.156L30.648 12.896C29.784 13.028 28.896 13.16 28.056 13.28V10.736H29.436C30.432 13.004 32.028 14.432 34.74 15.056C34.932 14.672 35.34 14.084 35.64 13.772C34.536 13.568 33.612 13.22 32.844 12.74C33.564 12.356 34.368 11.876 35.052 11.384L34.128 10.736Z" fill="#FF0000"/>
</g>
<defs>
<filter id="filter0_d" x="0" y="0" width="47" height="28" filterUnits="userSpaceOnUse" color-interpolation-filters="sRGB">
<feFlood flood-opacity="0" result="BackgroundImageFix"/>
<feColorMatrix in="SourceAlpha" type="matrix" values="0 0 0 0 0 0 0 0 0 0 0 0 0 0 0 0 0 0 127 0"/>
<feOffset dy="4"/>
<feGaussianBlur stdDeviation="2"/>
<feColorMatrix type="matrix" values="0 0 0 0 0 0 0 0 0 0 0 0 0 0 0 0 0 0 0.25 0"/>
<feBlend mode="normal" in2="BackgroundImageFix" result="effect1_dropShadow"/>
<feBlend mode="normal" in="SourceGraphic" in2="effect1_dropShadow" result="shape"/>
</filter>
</defs>
</svg>
