<svg width="47" height="28" viewBox="0 0 47 28" fill="none" xmlns="http://www.w3.org/2000/svg">
<g filter="url(#filter0_d)">
<rect x="5" y="1" width="37" height="18" fill="#FFF7CD" stroke="#FF0000" stroke-width="2" stroke-linecap="round"/>
<path d="M15.552 11.204V12.668H14.16V11.204H15.552ZM15.432 8.024H14.16V6.8H15.432V8.024ZM14.16 9.224H16.692V5.6H15.18C15.384 5.12 15.612 4.532 15.816 3.968L14.232 3.836C14.184 4.352 14.04 5.024 13.896 5.6H12.9V14.612H14.16V13.868H16.812V10.004H14.16V9.224ZM23.508 5.684V4.388H17.016V5.684H19.608V6.752H17.424V13.196H18.72V8.036H19.608V15.032H20.94V8.036H21.888V11.912C21.888 12.032 21.852 12.068 21.744 12.068C21.648 12.068 21.348 12.068 21.048 12.056C21.216 12.38 21.384 12.908 21.408 13.28C22.02 13.28 22.44 13.268 22.776 13.052C23.124 12.836 23.208 12.488 23.208 11.936V6.752H20.94V5.684H23.508ZM33.708 10.736C33.192 11.144 32.508 11.612 31.872 11.984C31.5 11.612 31.188 11.204 30.924 10.736H33.708ZM34.128 10.736H35.412V9.476H28.056V8.852H33.828V7.748H28.056V7.148H33.828V6.044H28.056V5.408H34.164V4.244H26.592V9.476H24.6V10.736H26.58V13.484C26.04 13.544 25.548 13.616 25.116 13.664L25.44 14.972C26.892 14.756 28.872 14.456 30.708 14.156L30.648 12.896C29.784 13.028 28.896 13.16 28.056 13.28V10.736H29.436C30.432 13.004 32.028 14.432 34.74 15.056C34.932 14.672 35.34 14.084 35.64 13.772C34.536 13.568 33.612 13.22 32.844 12.74C33.564 12.356 34.368 11.876 35.052 11.384L34.128 10.736Z" fill="#FF0000"/>
</g>
<defs>
<filter id="filter0_d" x="0" y="0" width="47" height="28" filterUnits="userSpaceOnUse" color-interpolation-filters="sRGB">
<feFlood flood-opacity="0" result="BackgroundImageFix"/>
<feColorMatrix in="SourceAlpha" type="matrix" values="0 0 0 0 0 0 0 0 0 0 0 0 0 0 0 0 0 0 127 0"/>
<feOffset dy="4"/>
<feGaussianBlur stdDeviation="2"/>
<feColorMatrix type="matrix" values="0 0 0 0 0 0 0 0 0 0 0 0 0 0 0 0 0 0 0.25 0"/>
<feBlend mode="normal" in2="BackgroundImageFix" result="effect1_dropShadow"/>
<feBlend mode="normal" in="SourceGraphic" in2="effect1_dropShadow" result="shape"/>
</filter>
</defs>
</svg>
