<svg width="47" height="28" viewBox="0 0 47 28" fill="none" xmlns="http://www.w3.org/2000/svg">
<g filter="url(#filter0_d)">
<rect x="5" y="1" width="37" height="18" fill="#FFF7CD" stroke="#FF0000" stroke-width="2" stroke-linecap="round"/>
<path d="M22.164 4.316C21.996 4.712 21.66 5.264 21.384 5.636L22.248 5.996C22.56 5.672 22.968 5.192 23.376 4.736L22.164 4.316ZM18.564 6.212C19.056 5.816 19.344 5.24 19.548 4.664L18.624 4.316C18.468 4.82 18.132 5.36 17.676 5.66L18.564 6.212ZM16.944 5.936C17.244 5.636 17.616 5.18 18 4.724L16.86 4.352C16.692 4.712 16.38 5.24 16.128 5.6L16.944 5.936ZM13.536 4.304C13.368 4.82 13.032 5.36 12.6 5.672L13.464 6.212C13.956 5.828 14.244 5.216 14.436 4.64L13.536 4.304ZM20.976 13.76H15.24V13.112H20.976V13.76ZM16.068 10.124H19.812V10.712H16.068V10.124ZM21.228 11.588V9.26H14.748V11.588H17.232C17.196 11.768 17.148 11.96 17.112 12.128H13.896V15.044H15.24V14.768H20.976V15.032H22.38V12.128H18.516C18.588 11.96 18.672 11.78 18.756 11.588H21.228ZM18.804 7.7C19.548 7.46 20.064 7.148 20.436 6.752C21 7.052 21.612 7.4 22.08 7.7H18.804ZM20.004 3.836C19.92 5.54 19.704 6.344 17.604 6.8C17.832 7.004 18.096 7.4 18.24 7.7H13.812C14.472 7.448 14.94 7.136 15.276 6.752C15.804 7.076 16.344 7.448 16.656 7.688L17.52 6.812C17.124 6.536 16.416 6.116 15.828 5.78C16.008 5.24 16.092 4.592 16.128 3.836H14.892C14.796 5.552 14.544 6.416 12.504 6.896C12.684 7.088 12.936 7.412 13.08 7.7H12.864V10.016H14.244V8.78H21.72V10.016H23.16V7.7H22.668L23.292 6.98C22.752 6.632 21.768 6.116 21 5.744C21.18 5.204 21.252 4.58 21.288 3.836H20.004ZM33.708 10.736C33.192 11.144 32.508 11.612 31.872 11.984C31.5 11.612 31.188 11.204 30.924 10.736H33.708ZM34.128 10.736H35.412V9.476H28.056V8.852H33.828V7.748H28.056V7.148H33.828V6.044H28.056V5.408H34.164V4.244H26.592V9.476H24.6V10.736H26.58V13.484C26.04 13.544 25.548 13.616 25.116 13.664L25.44 14.972C26.892 14.756 28.872 14.456 30.708 14.156L30.648 12.896C29.784 13.028 28.896 13.16 28.056 13.28V10.736H29.436C30.432 13.004 32.028 14.432 34.74 15.056C34.932 14.672 35.34 14.084 35.64 13.772C34.536 13.568 33.612 13.22 32.844 12.74C33.564 12.356 34.368 11.876 35.052 11.384L34.128 10.736Z" fill="#FF0000"/>
</g>
<defs>
<filter id="filter0_d" x="0" y="0" width="47" height="28" filterUnits="userSpaceOnUse" color-interpolation-filters="sRGB">
<feFlood flood-opacity="0" result="BackgroundImageFix"/>
<feColorMatrix in="SourceAlpha" type="matrix" values="0 0 0 0 0 0 0 0 0 0 0 0 0 0 0 0 0 0 127 0"/>
<feOffset dy="4"/>
<feGaussianBlur stdDeviation="2"/>
<feColorMatrix type="matrix" values="0 0 0 0 0 0 0 0 0 0 0 0 0 0 0 0 0 0 0.25 0"/>
<feBlend mode="normal" in2="BackgroundImageFix" result="effect1_dropShadow"/>
<feBlend mode="normal" in="SourceGraphic" in2="effect1_dropShadow" result="shape"/>
</filter>
</defs>
</svg>
