<svg width="78" height="40" viewBox="0 0 78 40" fill="none" xmlns="http://www.w3.org/2000/svg">
<rect x="1" y="1" width="76" height="38" fill="#FFF7CD" stroke="#03AC00" stroke-width="2" stroke-linecap="round"/>
<path d="M25.296 17.312H21V14.96H25.32C25.056 15.32 24.744 15.632 24.432 15.92C25.104 16.328 26.256 17.24 26.76 17.744C27.672 16.784 28.512 15.56 29.208 14.144H37.776V11.552H30.312C30.576 10.784 30.816 9.992 31.008 9.2L28.2 8.672C27.744 10.664 26.976 12.584 25.944 14.12V12.32H22.392V8.672H19.656V12.32H16.056V14.96H18.504V18.656C18.504 21.848 18.168 25.928 15.528 29.408C16.224 29.864 17.136 30.584 17.64 31.16C20.304 27.68 20.904 23.552 20.976 19.88H22.704C22.608 25.664 22.488 27.704 22.152 28.208C21.984 28.496 21.768 28.568 21.48 28.568C21.096 28.568 20.472 28.544 19.728 28.472C20.112 29.168 20.376 30.248 20.424 31.016C21.384 31.04 22.32 31.016 22.896 30.92C23.544 30.8 24 30.56 24.456 29.912C25.056 29.024 25.176 26.168 25.296 18.416V17.312ZM36.432 18.584C35.808 19.352 34.896 20.264 33.984 21.056C33.768 20.168 33.576 19.232 33.432 18.296C34.896 17.528 36.24 16.712 37.224 15.896L35.184 14.408C33.048 16.064 28.752 17.816 25.368 18.488C25.968 19.112 26.664 20.168 27.048 20.864L27.552 20.72V31.064H30.264V19.736C30.552 19.616 30.816 19.496 31.104 19.376C31.968 24.536 33.432 28.712 36.6 31.016C37.032 30.248 37.896 29.144 38.544 28.616C36.816 27.512 35.592 25.688 34.752 23.456C35.928 22.592 37.32 21.464 38.448 20.408L36.432 18.584ZM58.416 22.472C57.384 23.288 56.016 24.224 54.744 24.968C54 24.224 53.376 23.408 52.848 22.472H58.416ZM59.256 22.472H61.824V19.952H47.112V18.704H58.656V16.496H47.112V15.296H58.656V13.088H47.112V11.816H59.328V9.488H44.184V19.952H40.2V22.472H44.16V27.968C43.08 28.088 42.096 28.232 41.232 28.328L41.88 30.944C44.784 30.512 48.744 29.912 52.416 29.312L52.296 26.792C50.568 27.056 48.792 27.32 47.112 27.56V22.472H49.872C51.864 27.008 55.056 29.864 60.48 31.112C60.864 30.344 61.68 29.168 62.28 28.544C60.072 28.136 58.224 27.44 56.688 26.48C58.128 25.712 59.736 24.752 61.104 23.768L59.256 22.472Z" fill="#FF0000"/>
</svg>
