<svg width="78" height="40" viewBox="0 0 78 40" fill="none" xmlns="http://www.w3.org/2000/svg">
<rect x="2.5" y="2.5" width="73" height="35" fill="#FEF1C2" stroke="#800000" stroke-width="5" stroke-linecap="round"/>
<path d="M25.992 19.88V18.68H28.416V19.88H25.992ZM25.992 15.68H28.416V16.832H25.992V15.68ZM33.696 15.68V16.832H31.2V15.68H33.696ZM33.696 19.88H31.2V18.68H33.696V19.88ZM28.416 27.464H31.2V25.232H37.776V22.904H31.2V21.848H36.432V13.688H31.2V12.704H37.488V10.4H31.2V8.696H28.416V10.4H22.44V12.704H28.416V13.688H23.4V21.848H28.416V22.904H22.152V25.232H28.416V27.464ZM22.032 13.088C21.264 11.936 19.608 10.352 18.264 9.272L16.08 10.904C17.424 12.056 19.008 13.712 19.68 14.888L22.032 13.088ZM21.384 17.984H15.984V20.6H18.672V25.832C17.712 26.648 16.632 27.44 15.696 28.04L17.04 30.872C18.264 29.84 19.248 28.928 20.208 27.992C21.648 29.84 23.568 30.536 26.424 30.656C29.352 30.776 34.44 30.728 37.416 30.584C37.56 29.792 37.968 28.472 38.304 27.8C34.992 28.064 29.328 28.136 26.448 28.016C24 27.92 22.32 27.248 21.384 25.64V17.984ZM58.416 22.472C57.384 23.288 56.016 24.224 54.744 24.968C54 24.224 53.376 23.408 52.848 22.472H58.416ZM59.256 22.472H61.824V19.952H47.112V18.704H58.656V16.496H47.112V15.296H58.656V13.088H47.112V11.816H59.328V9.488H44.184V19.952H40.2V22.472H44.16V27.968C43.08 28.088 42.096 28.232 41.232 28.328L41.88 30.944C44.784 30.512 48.744 29.912 52.416 29.312L52.296 26.792C50.568 27.056 48.792 27.32 47.112 27.56V22.472H49.872C51.864 27.008 55.056 29.864 60.48 31.112C60.864 30.344 61.68 29.168 62.28 28.544C60.072 28.136 58.224 27.44 56.688 26.48C58.128 25.712 59.736 24.752 61.104 23.768L59.256 22.472Z" fill="#FF0000"/>
</svg>
