<svg width="78" height="40" viewBox="0 0 78 40" fill="none" xmlns="http://www.w3.org/2000/svg">
<rect x="2.5" y="2.5" width="73" height="35" fill="#FEF1C2" stroke="#800000" stroke-width="5" stroke-linecap="round"/>
<path d="M28.08 20H30.552L29.736 20.552L29.976 20.744L28.08 20.768V20ZM23.184 18.8V18.104H25.752V18.8H23.184ZM23.184 16.28H25.752V16.976H23.184V16.28ZM30.624 16.28V16.976H28.08V16.28H30.624ZM30.624 18.8H28.08V18.104H30.624V18.8ZM33.864 22.808H32.424L33.696 21.872C33.24 21.32 32.472 20.6 31.704 20H32.904V15.104H28.08V14.408H33.552V12.848H28.08V11.96H25.752V12.848H20.328V14.408H25.752V15.104H21V20H25.752V20.792C23.736 20.792 21.888 20.792 20.4 20.792L20.496 22.304C23.424 22.256 27.384 22.136 31.344 21.992C31.608 22.28 31.872 22.568 32.04 22.808H30.768V22.112H28.416V22.808H20.016V24.344H23.736L22.224 25.064C22.872 25.688 23.568 26.624 23.88 27.224L25.776 26.264C25.464 25.712 24.792 24.944 24.168 24.344H28.416V25.76C28.416 25.976 28.32 26.048 28.08 26.048C27.864 26.072 27.072 26.072 26.4 26.048C26.616 26.456 26.856 26.96 26.976 27.488C28.296 27.488 29.256 27.488 29.904 27.272C30.576 27.056 30.768 26.768 30.768 25.856V24.344H33.864V22.808ZM19.536 27.776V11.624H34.392V27.776H19.536ZM16.968 9.464V31.112H19.536V29.912H34.392V31.064H37.104V9.464H16.968ZM58.416 22.472C57.384 23.288 56.016 24.224 54.744 24.968C54 24.224 53.376 23.408 52.848 22.472H58.416ZM59.256 22.472H61.824V19.952H47.112V18.704H58.656V16.496H47.112V15.296H58.656V13.088H47.112V11.816H59.328V9.488H44.184V19.952H40.2V22.472H44.16V27.968C43.08 28.088 42.096 28.232 41.232 28.328L41.88 30.944C44.784 30.512 48.744 29.912 52.416 29.312L52.296 26.792C50.568 27.056 48.792 27.32 47.112 27.56V22.472H49.872C51.864 27.008 55.056 29.864 60.48 31.112C60.864 30.344 61.68 29.168 62.28 28.544C60.072 28.136 58.224 27.44 56.688 26.48C58.128 25.712 59.736 24.752 61.104 23.768L59.256 22.472Z" fill="#FF0000"/>
</svg>
