<svg width="78" height="40" viewBox="0 0 78 40" fill="none" xmlns="http://www.w3.org/2000/svg">
<rect x="1" y="1" width="76" height="38" fill="#FFF7CD" stroke="#03AC00" stroke-width="2" stroke-linecap="round"/>
<path d="M28.56 26.552V14.144H36.624V11.168H17.448V14.144H25.296V26.552H16.152V29.432H37.968V26.552H28.56ZM46.896 17.576H54.072V22.16H46.896V17.576ZM61.896 22.16H56.976V17.576H60.72V14.912H46.896V12.944C51.144 12.56 55.824 11.912 59.4 10.928L57 8.624C54.36 9.416 50.184 10.088 46.224 10.496L43.968 10.016V22.16H40.176V24.848H61.896V22.16ZM46.968 24.872C45.432 26.216 42.504 27.968 40.104 28.928C40.752 29.528 41.664 30.488 42.144 31.136C44.568 30.104 47.568 28.328 49.56 26.768L46.968 24.872ZM52.488 26.84C54.816 28.064 58.056 29.96 59.568 31.136L61.944 28.928C60.264 27.752 56.928 26 54.72 24.92L52.488 26.84Z" fill="#FF0000"/>
</svg>
