<svg width="78" height="40" viewBox="0 0 78 40" fill="none" xmlns="http://www.w3.org/2000/svg">
<rect x="2.5" y="2.5" width="73" height="35" fill="#FEF1C2" stroke="#800000" stroke-width="5" stroke-linecap="round"/>
<path d="M27.264 21.248V24.464H21.216V21.248H27.264ZM30.072 26.912V18.8H18.432V28.64H21.216V26.912H30.072ZM31.32 14.528H17.208V17.024H31.32V14.528ZM36.648 10.112H16.968V12.824H33.72V27.44C33.72 27.848 33.552 27.968 33.12 27.968C32.664 27.992 31.08 28.016 29.736 27.92C30.144 28.76 30.576 30.176 30.672 31.016C32.808 31.04 34.344 30.968 35.328 30.464C36.36 29.96 36.648 29.096 36.648 27.464V10.112ZM59.4 20.384H42.072V22.952H47.688V31.088H50.712V22.952H56.472V26.456C56.472 26.744 56.352 26.816 55.944 26.816C55.584 26.816 54.096 26.84 52.92 26.792C53.328 27.536 53.784 28.712 53.928 29.552C55.728 29.552 57.072 29.504 58.104 29.096C59.112 28.64 59.4 27.848 59.4 26.528V20.384ZM46.944 15.728C48.552 14.312 49.92 12.848 50.904 11.48C51.912 12.824 53.376 14.312 55.008 15.728H46.944ZM49.32 8.672C47.52 11.576 43.632 15.296 39.576 17.408C40.248 18.008 41.04 19.064 41.424 19.712C43.032 18.776 44.592 17.696 46.008 16.52V18.296H55.992V16.544C57.48 17.744 59.064 18.824 60.576 19.688C61.128 18.824 61.776 17.888 62.496 17.144C58.752 15.488 54.816 12.272 52.224 8.672H49.32Z" fill="#FF0000"/>
</svg>
