<svg width="78" height="40" viewBox="0 0 78 40" fill="none" xmlns="http://www.w3.org/2000/svg">
<rect x="2.5" y="2.5" width="73" height="35" fill="#FEF1C2" stroke="#800000" stroke-width="5" stroke-linecap="round"/>
<path d="M21.648 22.808V21.512H25.584V22.808H21.648ZM21.648 18.392H25.584V19.664H21.648V18.392ZM32.544 18.392V19.664H28.392V18.392H32.544ZM32.544 22.808H28.392V21.512H32.544V22.808ZM37.584 26H28.392V24.776H35.352V16.424H28.392V15.368H33.504V13.28H28.392V12.128H34.464V14.936H37.344V9.704H16.704V14.936H19.44V12.128H25.584V13.28H20.376V15.368H25.584V16.424H18.96V24.776H25.584V26H16.536V28.544H25.584V31.136H28.392V28.544H37.584V26ZM49.224 17.264L47.544 17.288V17.264H45V14.96H49.536V14.24C49.968 14.552 50.4 14.864 50.664 15.104C51.192 14.552 51.744 13.856 52.224 13.112H62.064V10.856H53.472C53.712 10.328 53.928 9.8 54.096 9.248L51.552 8.672C51.12 10.04 50.4 11.384 49.536 12.488V12.32H46.296V8.672H43.56V12.32H40.008V14.96H42.48V18.944C42.48 22.136 42.144 26.024 39.48 29.384C40.176 29.84 41.088 30.56 41.592 31.112C44.352 27.68 44.928 23.528 45 19.856H46.632C46.512 25.64 46.416 27.704 46.08 28.208C45.912 28.472 45.72 28.568 45.432 28.568C45.072 28.568 44.496 28.544 43.8 28.472C44.184 29.168 44.472 30.248 44.496 30.992C45.408 31.04 46.272 31.016 46.848 30.896C47.472 30.776 47.928 30.56 48.384 29.912C48.984 29.024 49.08 26.168 49.224 18.368V17.264ZM54.384 23.312H57.552V24.584H54.384V23.312ZM57.552 17.384V18.56H54.384V17.384H57.552ZM54.384 20.36H57.552V21.536H54.384V20.36ZM62.256 26.816V24.584H60.168V17.384H61.824V15.224H60.168V13.76H57.552V15.224H54.384V13.76H51.816V15.224H49.968V17.384H51.816V24.584H49.536V26.816H52.632C51.672 27.776 50.184 28.808 48.816 29.408C49.416 29.84 50.208 30.56 50.64 31.064C52.248 30.32 54.168 28.928 55.272 27.704L53.808 26.816H58.08L56.544 27.728C57.864 28.736 59.544 30.224 60.36 31.16L62.472 29.84C61.656 28.976 60.12 27.752 58.896 26.816H62.256Z" fill="#FF0000"/>
</svg>
