<svg width="78" height="40" viewBox="0 0 78 40" fill="none" xmlns="http://www.w3.org/2000/svg">
<rect x="1" y="1" width="76" height="38" fill="#FFF7CD" stroke="#03AC00" stroke-width="2" stroke-linecap="round"/>
<path d="M21.648 22.808V21.512H25.584V22.808H21.648ZM21.648 18.392H25.584V19.664H21.648V18.392ZM32.544 18.392V19.664H28.392V18.392H32.544ZM32.544 22.808H28.392V21.512H32.544V22.808ZM37.584 26H28.392V24.776H35.352V16.424H28.392V15.368H33.504V13.28H28.392V12.128H34.464V14.936H37.344V9.704H16.704V14.936H19.44V12.128H25.584V13.28H20.376V15.368H25.584V16.424H18.96V24.776H25.584V26H16.536V28.544H25.584V31.136H28.392V28.544H37.584V26ZM58.416 22.472C57.384 23.288 56.016 24.224 54.744 24.968C54 24.224 53.376 23.408 52.848 22.472H58.416ZM59.256 22.472H61.824V19.952H47.112V18.704H58.656V16.496H47.112V15.296H58.656V13.088H47.112V11.816H59.328V9.488H44.184V19.952H40.2V22.472H44.16V27.968C43.08 28.088 42.096 28.232 41.232 28.328L41.88 30.944C44.784 30.512 48.744 29.912 52.416 29.312L52.296 26.792C50.568 27.056 48.792 27.32 47.112 27.56V22.472H49.872C51.864 27.008 55.056 29.864 60.48 31.112C60.864 30.344 61.68 29.168 62.28 28.544C60.072 28.136 58.224 27.44 56.688 26.48C58.128 25.712 59.736 24.752 61.104 23.768L59.256 22.472Z" fill="#FF0000"/>
</svg>
