<svg width="78" height="40" viewBox="0 0 78 40" fill="none" xmlns="http://www.w3.org/2000/svg">
<rect x="1" y="1" width="76" height="38" fill="#FFF7CD" stroke="#03AC00" stroke-width="2" stroke-linecap="round"/>
<path d="M21.336 16.904H23.76V14.192H21.336V8.984H18.672V14.192H15.864V16.904H18.672V23.672C17.472 24.128 16.416 24.536 15.552 24.848L16.704 27.728C18.912 26.72 21.648 25.424 24.192 24.152L23.544 21.632C22.824 21.944 22.08 22.256 21.336 22.568V16.904ZM29.52 28.088C28.056 28.088 27.84 27.872 27.84 26.48V19.064L29.832 18.2V25.52H32.496V17.048L34.56 16.136C34.56 19.544 34.536 21.296 34.488 21.68C34.392 22.112 34.248 22.208 33.96 22.208C33.744 22.208 33.216 22.208 32.808 22.16C33.12 22.76 33.336 23.816 33.408 24.56C34.176 24.56 35.208 24.536 35.904 24.224C36.624 23.912 37.056 23.336 37.128 22.232C37.248 21.248 37.296 18.368 37.296 13.808L37.392 13.328L35.4 12.632L34.896 12.968L34.392 13.304L32.496 14.12V8.648H29.832V15.272L27.84 16.112V10.976H25.104V17.288L22.752 18.272L23.808 20.816L25.104 20.264V26.432C25.104 29.744 26.04 30.632 29.28 30.632H34.392C37.2 30.632 38.04 29.48 38.424 26.12C37.632 25.976 36.528 25.52 35.928 25.088C35.712 27.536 35.472 28.088 34.152 28.088H29.52ZM49.536 23.504V24.776H45.36V23.504H49.536ZM56.568 24.776H52.32V23.504H56.568V24.776ZM52.32 28.16V26.864H56.568V28.16H52.32ZM45.36 28.16V26.864H49.536V28.16H45.36ZM42.648 31.04H45.36V30.32H56.568V30.848H59.424V21.344H42.648V31.04ZM43.272 20.336H48.792V18.44H43.272V20.336ZM43.8 15.752V17.6H48.768V15.752H43.8ZM53.088 20.336H58.68V18.44H53.088V20.336ZM53.088 15.752V17.6H58.104V15.752H53.088ZM52.32 12.656V11.696H59.808V9.464H42.12V11.696H49.536V12.656H40.488V18.128H43.008V14.84H49.536V20.888H52.32V14.84H58.92V18.128H61.56V12.656H52.32Z" fill="#FF0000"/>
</svg>
