<svg width="78" height="40" viewBox="0 0 78 40" fill="none" xmlns="http://www.w3.org/2000/svg">
<rect x="1" y="1" width="76" height="38" fill="#FFF7CD" stroke="#03AC00" stroke-width="2" stroke-linecap="round"/>
<path d="M23.016 18.728L21.072 19.28V15.824H23.256V13.208H21.072V8.696H18.48V13.208H15.96V15.824H18.48V19.976C17.4 20.24 16.392 20.504 15.576 20.672L16.2 23.408C16.896 23.216 17.688 23 18.48 22.76V28.064C18.48 28.376 18.36 28.472 18.072 28.472C17.784 28.496 16.944 28.496 16.08 28.448C16.416 29.216 16.728 30.392 16.8 31.088C18.384 31.112 19.392 31.016 20.136 30.56C20.856 30.104 21.072 29.384 21.072 28.064V21.992C21.84 21.776 22.608 21.536 23.376 21.296L23.016 18.728ZM27.12 12.584H23.568V15.152H27.12V17.624H23.784V20.12H27.096C27.072 20.888 27.024 21.656 26.928 22.4C25.2 22.952 23.544 23.456 22.32 23.768L23.4 26.24C24.288 25.904 25.248 25.544 26.208 25.136C25.608 26.672 24.6 28.04 22.944 29.192C23.52 29.624 24.504 30.512 24.984 31.088C29.16 28.088 29.664 23.6 29.664 18.776V8.672H27.12V12.584ZM38.184 22.76H34.032V20.12H37.536V17.624H34.032V15.152H37.776V12.584H34.032V8.672H31.344V31.064H34.032V25.328H38.184V22.76ZM58.416 22.472C57.384 23.288 56.016 24.224 54.744 24.968C54 24.224 53.376 23.408 52.848 22.472H58.416ZM59.256 22.472H61.824V19.952H47.112V18.704H58.656V16.496H47.112V15.296H58.656V13.088H47.112V11.816H59.328V9.488H44.184V19.952H40.2V22.472H44.16V27.968C43.08 28.088 42.096 28.232 41.232 28.328L41.88 30.944C44.784 30.512 48.744 29.912 52.416 29.312L52.296 26.792C50.568 27.056 48.792 27.32 47.112 27.56V22.472H49.872C51.864 27.008 55.056 29.864 60.48 31.112C60.864 30.344 61.68 29.168 62.28 28.544C60.072 28.136 58.224 27.44 56.688 26.48C58.128 25.712 59.736 24.752 61.104 23.768L59.256 22.472Z" fill="#FF0000"/>
</svg>
