<svg width="78" height="40" viewBox="0 0 78 40" fill="none" xmlns="http://www.w3.org/2000/svg">
<rect x="1" y="1" width="76" height="38" fill="#FFF7CD" stroke="#03AC00" stroke-width="2" stroke-linecap="round"/>
<path d="M35.328 9.632C34.992 10.424 34.32 11.528 33.768 12.272L35.496 12.992C36.12 12.344 36.936 11.384 37.752 10.472L35.328 9.632ZM28.128 13.424C29.112 12.632 29.688 11.48 30.096 10.328L28.248 9.632C27.936 10.64 27.264 11.72 26.352 12.32L28.128 13.424ZM24.888 12.872C25.488 12.272 26.232 11.36 27 10.448L24.72 9.704C24.384 10.424 23.76 11.48 23.256 12.2L24.888 12.872ZM18.072 9.608C17.736 10.64 17.064 11.72 16.2 12.344L17.928 13.424C18.912 12.656 19.488 11.432 19.872 10.28L18.072 9.608ZM32.952 28.52H21.48V27.224H32.952V28.52ZM23.136 21.248H30.624V22.424H23.136V21.248ZM33.456 24.176V19.52H20.496V24.176H25.464C25.392 24.536 25.296 24.92 25.224 25.256H18.792V31.088H21.48V30.536H32.952V31.064H35.76V25.256H28.032C28.176 24.92 28.344 24.56 28.512 24.176H33.456ZM28.608 16.4C30.096 15.92 31.128 15.296 31.872 14.504C33 15.104 34.224 15.8 35.16 16.4H28.608ZM31.008 8.672C30.84 12.08 30.408 13.688 26.208 14.6C26.664 15.008 27.192 15.8 27.48 16.4H18.624C19.944 15.896 20.88 15.272 21.552 14.504C22.608 15.152 23.688 15.896 24.312 16.376L26.04 14.624C25.248 14.072 23.832 13.232 22.656 12.56C23.016 11.48 23.184 10.184 23.256 8.672H20.784C20.592 12.104 20.088 13.832 16.008 14.792C16.368 15.176 16.872 15.824 17.16 16.4H16.728V21.032H19.488V18.56H34.44V21.032H37.32V16.4H36.336L37.584 14.96C36.504 14.264 34.536 13.232 33 12.488C33.36 11.408 33.504 10.16 33.576 8.672H31.008ZM58.416 22.472C57.384 23.288 56.016 24.224 54.744 24.968C54 24.224 53.376 23.408 52.848 22.472H58.416ZM59.256 22.472H61.824V19.952H47.112V18.704H58.656V16.496H47.112V15.296H58.656V13.088H47.112V11.816H59.328V9.488H44.184V19.952H40.2V22.472H44.16V27.968C43.08 28.088 42.096 28.232 41.232 28.328L41.88 30.944C44.784 30.512 48.744 29.912 52.416 29.312L52.296 26.792C50.568 27.056 48.792 27.32 47.112 27.56V22.472H49.872C51.864 27.008 55.056 29.864 60.48 31.112C60.864 30.344 61.68 29.168 62.28 28.544C60.072 28.136 58.224 27.44 56.688 26.48C58.128 25.712 59.736 24.752 61.104 23.768L59.256 22.472Z" fill="#FF0000"/>
</svg>
