<svg width="78" height="40" viewBox="0 0 78 40" fill="none" xmlns="http://www.w3.org/2000/svg">
<rect x="1" y="1" width="76" height="38" fill="#FFF7CD" stroke="#03AC00" stroke-width="2" stroke-linecap="round"/>
<path d="M22.104 23.408V26.336H19.32V23.408H22.104ZM21.864 17.048H19.32V14.6H21.864V17.048ZM19.32 19.448H24.384V12.2H21.36C21.768 11.24 22.224 10.064 22.632 8.936L19.464 8.672C19.368 9.704 19.08 11.048 18.792 12.2H16.8V30.224H19.32V28.736H24.624V21.008H19.32V19.448ZM38.016 12.368V9.776H25.032V12.368H30.216V14.504H25.848V27.392H28.44V17.072H30.216V31.064H32.88V17.072H34.776V24.824C34.776 25.064 34.704 25.136 34.488 25.136C34.296 25.136 33.696 25.136 33.096 25.112C33.432 25.76 33.768 26.816 33.816 27.56C35.04 27.56 35.88 27.536 36.552 27.104C37.248 26.672 37.416 25.976 37.416 24.872V14.504H32.88V12.368H38.016ZM58.416 22.472C57.384 23.288 56.016 24.224 54.744 24.968C54 24.224 53.376 23.408 52.848 22.472H58.416ZM59.256 22.472H61.824V19.952H47.112V18.704H58.656V16.496H47.112V15.296H58.656V13.088H47.112V11.816H59.328V9.488H44.184V19.952H40.2V22.472H44.16V27.968C43.08 28.088 42.096 28.232 41.232 28.328L41.88 30.944C44.784 30.512 48.744 29.912 52.416 29.312L52.296 26.792C50.568 27.056 48.792 27.32 47.112 27.56V22.472H49.872C51.864 27.008 55.056 29.864 60.48 31.112C60.864 30.344 61.68 29.168 62.28 28.544C60.072 28.136 58.224 27.44 56.688 26.48C58.128 25.712 59.736 24.752 61.104 23.768L59.256 22.472Z" fill="#FF0000"/>
</svg>
